<svg xmlns="http://www.w3.org/2000/svg" xmlns:xlink="http://www.w3.org/1999/xlink" viewBox="0 0 220 225"><defs><style>.a{fill:none;}.b{clip-path:url(#a);}.c{fill:url(#b);}.d{opacity:0.3;}.e{clip-path:url(#c);}.f{fill:url(#d);}</style><clipPath id="a"><path class="a" d="M183.5,203.7l-.2-.5-.5-1-11.7-31.5a123.21,123.21,0,0,1,30.7,20.1h0a11.1,11.1,0,0,1,3,3.7,11.58,11.58,0,0,1-10.2,17.1,11.66,11.66,0,0,1-11.1-7.9M87.3,20.6c1.5-4.1,4.9-6.9,8.7-7h.1c3.8.2,7.2,2.9,8.7,7l48.3,132.6a133.55,133.55,0,0,0-99.8,13.9,138.15,138.15,0,0,0-26.9,20.6ZM94.9,3c-7.8.6-14.7,6-17.6,14L5,215.5a5.27,5.27,0,0,0,3.2,6.8,5.66,5.66,0,0,0,1.8.3,5.26,5.26,0,0,0,4.3-2.2,4.23,4.23,0,0,0,.5-.7,122.5,122.5,0,0,1,105.5-60.2,121.69,121.69,0,0,1,37.6,5.9l15.3,41.1.5.9a22.2,22.2,0,0,0,43.1-7.5,22.66,22.66,0,0,0-2.6-10.5A39.56,39.56,0,0,0,212,186a7.1,7.1,0,0,0-1-1.4A134,134,0,0,0,166.1,157l-1.1-2.8h-.1L114.8,17A20.91,20.91,0,0,0,97.2,3c-.3,0-.6-.1-.9-.1h-.4c-.4,0-.7.1-1,.1"/></clipPath><linearGradient id="b" x1="-879.97" y1="94.53" x2="-873.06" y2="94.53" gradientTransform="translate(26982.91 -2785.43) scale(30.66)" gradientUnits="userSpaceOnUse"><stop offset="0" stop-color="#ffdd15"/><stop offset="0.03" stop-color="#fed217"/><stop offset="0.17" stop-color="#faad1c"/><stop offset="0.3" stop-color="#f68f20"/><stop offset="0.45" stop-color="#f37824"/><stop offset="0.6" stop-color="#f16726"/><stop offset="0.77" stop-color="#f05d28"/><stop offset="0.99" stop-color="#f05a28"/><stop offset="1" stop-color="#f05a28"/></linearGradient><clipPath id="c"><path class="a" d="M171.3,171.3a125.67,125.67,0,0,1,30.7,20h0a12.2,12.2,0,0,1,3,3.7,11.52,11.52,0,0,1,1.4,5.5H217a22.66,22.66,0,0,0-2.6-10.5,24.64,24.64,0,0,0-2.2-3.4,7.1,7.1,0,0,0-1-1.4,134,134,0,0,0-44.9-27.6ZM53.5,167.7a138.15,138.15,0,0,0-26.9,20.6L14.4,221.1a4.23,4.23,0,0,0,.5-.7,122.5,122.5,0,0,1,105.5-60.2,124.82,124.82,0,0,1,37.6,5.9l-4.7-12.4a133.12,133.12,0,0,0-99.8,14"/></clipPath><linearGradient id="d" x1="-879.07" y1="96.25" x2="-872.15" y2="96.25" gradientTransform="translate(25749.13 -2632.33) scale(29.27)" gradientUnits="userSpaceOnUse"><stop offset="0" stop-color="#fff"/><stop offset="0.33" stop-color="#fff"/><stop offset="0.37" stop-color="#fbfbfb"/><stop offset="0.42" stop-color="#eee"/><stop offset="0.47" stop-color="#d9d9d9"/><stop offset="0.52" stop-color="#bcbbbb"/><stop offset="0.58" stop-color="#969595"/><stop offset="0.63" stop-color="#686666"/><stop offset="0.68" stop-color="#332f30"/><stop offset="0.69" stop-color="#231f20"/><stop offset="0.93" stop-color="#fff"/><stop offset="1" stop-color="#fff"/></linearGradient></defs><g class="b"><rect class="c" x="4" y="2.9" width="212.8" height="219.7"/></g><g class="d"><g class="e"><rect class="f" x="14.5" y="149.7" width="202.5" height="71.4"/></g></g></svg>
