<svg version="1.1" role="img" xmlns="http://www.w3.org/2000/svg" viewBox="0 0 50 50">
<title>UIPath Icon</title>
<style type="text/css">
	.st0{fill:#FA4616;}
	.st1{fill:#FFFFFF;}
</style>
<rect class="st0" width="50" height="50"/>
<rect x="5.2" y="5.2" class="st1" width="39.6" height="39.6"/>
<path class="st0" d="M9.7,12.9V28c0,6.9,3.8,11,10.2,11c6.6,0,10.4-4.1,10.4-11V12.9h-5.2V28c0,3.9-1.7,6.1-5.1,6.1
	c-3.6,0-5.2-2.3-5.2-6.1V12.9H9.7z"/>
<path class="st0" d="M37,16c1.8,0,3.2-1.3,3.2-3.1c0-1.9-1.3-3.2-3.2-3.2c-1.8,0-3.2,1.3-3.2,3.2C33.8,14.7,35.2,16,37,16z"/>

	<rect x="34.4" y="18.4" class="st0" width="5.2" height="20.3"/>
</svg>
