<svg width="48" height="48" viewBox="0 0 48 48" fill="none" xmlns="http://www.w3.org/2000/svg">
<path d="M0 5.45498C0 2.44228 2.44228 0 5.45499 0H42.545C45.5577 0 48 2.44228 48 5.45499V42.545C48 45.5577 45.5577 48 42.545 48H5.45498C2.44228 48 0 45.5577 0 42.545V5.45498Z" fill="#5A19DA"/>
<path fill-rule="evenodd" clip-rule="evenodd" d="M16.7801 9.85318C16.7801 8.56003 17.8284 7.51172 19.1216 7.51172H28.8926C30.1857 7.51172 31.2341 8.56003 31.2341 9.85318V19.6242C31.2341 20.9174 30.1857 21.9657 28.8926 21.9657H19.1216C17.8284 21.9657 16.7801 20.9174 16.7801 19.6242V9.85318Z" fill="white"/>
<path fill-rule="evenodd" clip-rule="evenodd" d="M7.60938 28.2096C7.60938 26.9164 8.65769 25.8681 9.95084 25.8681H19.7219C21.015 25.8681 22.0633 26.9164 22.0633 28.2096V37.9806C22.0633 39.2737 21.015 40.322 19.7219 40.322H9.95084C8.65769 40.322 7.60938 39.2737 7.60938 37.9806V28.2096Z" fill="white"/>
<path fill-rule="evenodd" clip-rule="evenodd" d="M28.3072 25.8681C27.0141 25.8681 25.9658 26.9164 25.9658 28.2096V37.9806C25.9658 39.2737 27.0141 40.322 28.3072 40.322H38.0782C39.3714 40.322 40.4197 39.2737 40.4197 37.9806V28.2096C40.4197 26.9164 39.3714 25.8681 38.0782 25.8681H28.3072Z" fill="white"/>
</svg>
