<?xml version="1.0" encoding="utf-8"?>
<!-- Generator: Adobe Illustrator 25.0.1, SVG Export Plug-In . SVG Version: 6.00 Build 0)  -->
<svg version="1.1" id="Layer_1" xmlns="http://www.w3.org/2000/svg" xmlns:xlink="http://www.w3.org/1999/xlink" x="0px" y="0px"
	 viewBox="0 0 32 32" style="enable-background:new 0 0 32 32;" xml:space="preserve">
<style type="text/css">
	.st0{fill:#6462AA;}
	.st1{fill:#7476B6;}
	.st2{fill:#FFFFFF;}
	.st3{fill:#6A5DA1;}
</style>
<path class="st0" d="M26.92,32H5.08C2.28,32,0,29.72,0,26.92L0,5.08C0,2.28,2.28,0,5.08,0l21.83,0C29.72,0,32,2.28,32,5.08v21.83
	C32,29.72,29.72,32,26.92,32z"/>
<g>
	<g>
		<g>
			<path class="st1" d="M24.87,27.62h-4.62c-1.58,0-2.88-1.3-2.88-2.88v-4.62c0-1.58,1.3-2.88,2.88-2.88h4.62
				c1.58,0,2.88,1.3,2.88,2.88v4.62C27.75,26.32,26.46,27.62,24.87,27.62z"/>
			<path class="st2" d="M25.93,28.15h-6.74c-1.3,0-2.36-1.06-2.36-2.36v-6.74c0-1.3,1.06-2.35,2.36-2.35h6.74
				c1.3,0,2.35,1.06,2.35,2.35v6.74C28.29,27.1,27.23,28.15,25.93,28.15z M19.19,17.77c-0.71,0-1.29,0.58-1.29,1.29v6.74
				c0,0.71,0.58,1.29,1.29,1.29h6.74c0.71,0,1.29-0.58,1.29-1.29v-6.74c0-0.71-0.58-1.29-1.29-1.29H19.19z"/>
		</g>
		<path class="st3" d="M25.18,20.68"/>
	</g>
	<g>
		<g>
			<path class="st1" d="M11.57,27.62H7.3c-1.68,0-3.05-1.37-3.05-3.05v-4.27c0-1.68,1.37-3.05,3.05-3.05h4.27
				c1.68,0,3.05,1.37,3.05,3.05v4.27C14.62,26.25,13.25,27.62,11.57,27.62z"/>
			<path class="st2" d="M12.8,28.15H6.06c-1.3,0-2.35-1.06-2.35-2.36v-6.74c0-1.3,1.06-2.35,2.35-2.35h6.74
				c1.3,0,2.36,1.06,2.36,2.35v6.74C15.16,27.1,14.1,28.15,12.8,28.15z M6.06,17.77c-0.71,0-1.29,0.58-1.29,1.29v6.74
				c0,0.71,0.58,1.29,1.29,1.29h6.74c0.71,0,1.29-0.58,1.29-1.29v-6.74c0-0.71-0.58-1.29-1.29-1.29H6.06z"/>
		</g>
	</g>
	<g>
		<g>
			<path class="st1" d="M18.56,14.76h-5.11c-1.45,0-2.63-1.18-2.63-2.63V7.01c0-1.45,1.18-2.63,2.63-2.63h5.11
				c1.45,0,2.63,1.18,2.63,2.63v5.11C21.19,13.57,20,14.76,18.56,14.76z"/>
			<path class="st2" d="M19.37,15.29h-6.74c-1.3,0-2.36-1.06-2.36-2.36V6.2c0-1.3,1.06-2.36,2.36-2.36h6.74
				c1.3,0,2.36,1.06,2.36,2.36v6.74C21.72,14.24,20.67,15.29,19.37,15.29z M12.63,4.91c-0.71,0-1.29,0.58-1.29,1.29v6.74
				c0,0.71,0.58,1.29,1.29,1.29h6.74c0.71,0,1.29-0.58,1.29-1.29V6.2c0-0.71-0.58-1.29-1.29-1.29H12.63z"/>
		</g>
	</g>
</g>
<path class="st3" d="M0,20.47"/>
</svg>
