<!--
  - Copyright (C) 2022 PixieBrix, Inc.
  -
  - This program is free software: you can redistribute it and/or modify
  - it under the terms of the GNU Affero General Public License as published by
  - the Free Software Foundation, either version 3 of the License, or
  - (at your option) any later version.
  -
  - This program is distributed in the hope that it will be useful,
  - but WITHOUT ANY WARRANTY; without even the implied warranty of
  - MERCHANTABILITY or FITNESS FOR A PARTICULAR PURPOSE.  See the
  - GNU Affero General Public License for more details.
  -
  - You should have received a copy of the GNU Affero General Public License
  - along with this program.  If not, see <http://www.gnu.org/licenses/>.
  -->

<svg width="23" viewBox="0 0 23 23" xmlns="http://www.w3.org/2000/svg">
  <path d="m18.431 1.249 0.0028 0.00282 2.8103 2.8202c0.8163 0.80257 1.2559 1.8923 1.2559 3.0079v11.17c0 2.3426-1.9074 4.25-4.25 4.25h-14c-2.3426 0-4.25-1.9074-4.25-4.25v-14c0-2.3353 1.89-4.25 4.25-4.25h11.17c1.1276 0 2.2096 0.44763 3.011 1.249zm1.229 4.421-2.82-2.83c-0.38-0.38-0.89-0.59-1.42-0.59h-11.17c-1.11 0-2 0.9-2 2v14c0 1.1 0.9 2 2 2h14c1.1 0 2-0.9 2-2v-11.17c0-0.53-0.21-1.04-0.59-1.41zm-6.4447-1.17c-0.2866-0.15919-0.6159-0.25-0.9653-0.25h-6c-0.34942 0-0.67865 0.09081-0.96527 0.25-0.32907 0.18276-0.60197 0.45566-0.78473 0.78473-0.15919 0.28662-0.25 0.61585-0.25 0.96527s0.09081 0.67865 0.25 0.96527c0.34195 0.61569 0.99942 1.0347 1.75 1.0347h6c1.1 0 2-0.9 2-2 0-0.75058-0.419-1.408-1.0347-1.75zm-3.1686 13.5c0.3682 0.1608 0.7751 0.25 1.2033 0.25s0.8351-0.0892 1.2033-0.25c1.0589-0.4626 1.7967-1.5182 1.7967-2.75 0-1.66-1.34-3-3-3s-3 1.34-3 3c0 1.2318 0.73783 2.2874 1.7967 2.75z" clip-rule="evenodd" fill="#fff" fill-rule="evenodd"/>
  <path d="m16.84 2.84c-0.38-0.38-0.89-0.59-1.42-0.59h-11.17c-1.11 0-2 0.9-2 2v14c0 1.1 0.9 2 2 2h14c1.1 0 2-0.9 2-2v-11.17c0-0.53-0.21-1.04-0.59-1.41l-2.82-2.83zm-5.59 15.41c-1.66 0-3-1.34-3-3s1.34-3 3-3 3 1.34 3 3-1.34 3-3 3zm1-10h-6c-1.1 0-2-0.9-2-2s0.9-2 2-2h6c1.1 0 2 0.9 2 2s-0.9 2-2 2z" fill="#198AE3"/>
</svg>
