<!--
  - Copyright (C) 2022 PixieBrix, Inc.
  -
  - This program is free software: you can redistribute it and/or modify
  - it under the terms of the GNU Affero General Public License as published by
  - the Free Software Foundation, either version 3 of the License, or
  - (at your option) any later version.
  -
  - This program is distributed in the hope that it will be useful,
  - but WITHOUT ANY WARRANTY; without even the implied warranty of
  - MERCHANTABILITY or FITNESS FOR A PARTICULAR PURPOSE.  See the
  - GNU Affero General Public License for more details.
  -
  - You should have received a copy of the GNU Affero General Public License
  - along with this program.  If not, see <http://www.gnu.org/licenses/>.
  -->

<svg width="24" height="24" viewBox="0 0 24 24" fill="none" xmlns="http://www.w3.org/2000/svg">
  <path d="M9.75002 19.7354C9.513 19.7366 9.28125 19.6654 9.08575 19.5314C8.89025 19.3974 8.74031 19.2069 8.65596 18.9854L6.78846 14.1291C6.75063 14.0313 6.69277 13.9424 6.61859 13.8682C6.5444 13.794 6.45553 13.7362 6.35768 13.6983L1.50002 11.8294C1.27874 11.7445 1.08842 11.5945 0.954167 11.3992C0.819915 11.2038 0.748047 10.9724 0.748047 10.7354C0.748047 10.4984 0.819915 10.2669 0.954167 10.0716C1.08842 9.87626 1.27874 9.72623 1.50002 9.64131L6.35627 7.77381C6.45413 7.73599 6.543 7.67812 6.61718 7.60394C6.69137 7.52976 6.74923 7.44088 6.78705 7.34303L8.65596 2.48537C8.74088 2.26409 8.89091 2.07377 9.08624 1.93952C9.28156 1.80527 9.51301 1.7334 9.75002 1.7334C9.98703 1.7334 10.2185 1.80527 10.4138 1.93952C10.6091 2.07377 10.7592 2.26409 10.8441 2.48537L12.7116 7.34162C12.7494 7.43948 12.8073 7.52835 12.8814 7.60253C12.9556 7.67672 13.0445 7.73458 13.1424 7.7724L17.9705 9.63006C18.2008 9.71542 18.3992 9.86967 18.5386 10.0718C18.6781 10.2739 18.7519 10.5142 18.75 10.7597C18.7464 10.9926 18.673 11.2191 18.5393 11.4098C18.4056 11.6005 18.2177 11.7467 18 11.8294L13.1438 13.6969C13.0459 13.7348 12.957 13.7926 12.8829 13.8668C12.8087 13.941 12.7508 14.0299 12.713 14.1277L10.8441 18.9854C10.7597 19.2069 10.6098 19.3974 10.4143 19.5314C10.2188 19.6654 9.98704 19.7366 9.75002 19.7354Z" fill="#E6A61C"/>
  <path d="M18.7916 22.7833C18.6527 22.7833 18.517 22.7412 18.4024 22.6625C18.2878 22.5838 18.1998 22.4723 18.1499 22.3426L17.3596 20.2876C17.3425 20.2427 17.316 20.2019 17.282 20.1679C17.248 20.1339 17.2072 20.1074 17.1622 20.0903L15.1072 19.3C14.9776 19.2501 14.8661 19.162 14.7874 19.0475C14.7088 18.9329 14.6667 18.7972 14.6667 18.6583C14.6667 18.5193 14.7088 18.3836 14.7874 18.2691C14.8661 18.1545 14.9776 18.0665 15.1072 18.0165L17.1622 17.2262C17.2071 17.209 17.2479 17.1826 17.2819 17.1486C17.3159 17.1146 17.3424 17.0738 17.3596 17.0289L18.1429 14.9922C18.187 14.8723 18.2631 14.7667 18.3627 14.6867C18.4624 14.6068 18.582 14.5555 18.7086 14.5384C18.8607 14.5199 19.0145 14.5527 19.1458 14.6316C19.2771 14.7105 19.3783 14.831 19.4333 14.9739L20.2236 17.0289C20.2409 17.0738 20.2673 17.1146 20.3013 17.1486C20.3353 17.1826 20.3761 17.209 20.421 17.2262L22.476 18.0165C22.6057 18.0665 22.7171 18.1545 22.7958 18.2691C22.8744 18.3836 22.9165 18.5193 22.9165 18.6583C22.9165 18.7972 22.8744 18.9329 22.7958 19.0475C22.7171 19.162 22.6057 19.2501 22.476 19.3L20.421 20.0903C20.376 20.1074 20.3352 20.1339 20.3012 20.1679C20.2672 20.2019 20.2408 20.2427 20.2236 20.2876L19.4333 22.3426C19.3834 22.4723 19.2954 22.5838 19.1808 22.6625C19.0663 22.7412 18.9306 22.7833 18.7916 22.7833Z" fill="#E6A61C"/>
  <path d="M18.6491 5.68655C18.6935 5.71706 18.7461 5.7334 18.8 5.7334C18.8539 5.7334 18.9066 5.71706 18.951 5.68655C18.9954 5.65604 19.0296 5.61279 19.0489 5.56249L19.3555 4.76538C19.3621 4.74795 19.3724 4.73212 19.3856 4.71893C19.3988 4.70573 19.4146 4.69548 19.432 4.68884L20.2292 4.38229C20.2795 4.36292 20.3227 4.32877 20.3532 4.28433C20.3837 4.2399 20.4 4.18727 20.4 4.13337C20.4 4.07948 20.3837 4.02685 20.3532 3.98241C20.3227 3.93798 20.2795 3.90383 20.2292 3.88446L19.432 3.57791C19.4146 3.57124 19.3988 3.56097 19.3856 3.54778C19.3724 3.53459 19.3622 3.51878 19.3555 3.50136L19.0489 2.70426C19.0276 2.64882 18.9883 2.6021 18.9374 2.5715C18.8865 2.5409 18.8268 2.52818 18.7679 2.53535C18.7187 2.54197 18.6723 2.56186 18.6337 2.59287C18.595 2.62388 18.5655 2.66484 18.5484 2.71135L18.2446 3.50136C18.2379 3.51878 18.2276 3.53459 18.2144 3.54778C18.2013 3.56097 18.1854 3.57124 18.168 3.57791L17.3709 3.88446C17.3206 3.90383 17.2774 3.93798 17.2469 3.98241C17.2164 4.02685 17.2 4.07948 17.2 4.13337C17.2 4.18727 17.2164 4.2399 17.2469 4.28433C17.2774 4.32877 17.3206 4.36292 17.3709 4.38229L18.168 4.68884C18.1855 4.69548 18.2013 4.70573 18.2145 4.71893C18.2277 4.73212 18.2379 4.74795 18.2446 4.76538L18.5511 5.56249C18.5705 5.61279 18.6046 5.65604 18.6491 5.68655Z" fill="#E6A61C"/>
</svg>
