<svg height="16" viewBox="0 0 16 16" fill="none" xmlns="http://www.w3.org/2000/svg">
<path d="M3.80446 14H13.8445C14.8711 14 15.5111 12.8866 14.9978 12L9.97779 3.32662C9.46446 2.43995 8.18446 2.43995 7.67113 3.32662L2.65113 12C2.1378 12.8866 2.7778 14 3.80446 14ZM8.82446 9.33329C8.4578 9.33329 8.1578 9.03329 8.1578 8.66662V7.33329C8.1578 6.96662 8.4578 6.66662 8.82446 6.66662C9.19113 6.66662 9.49113 6.96662 9.49113 7.33329V8.66662C9.49113 9.03329 9.19113 9.33329 8.82446 9.33329ZM9.49113 12H8.1578V10.6666H9.49113V12Z" fill="currentColor"/>
</svg>
