<svg viewBox="0 0 32 32" fill="none" xmlns="http://www.w3.org/2000/svg">
<path d="M5.96 27.9999H26.04C28.0933 27.9999 29.3733 25.7732 28.3467 23.9999L18.3067 6.65324C17.28 4.87991 14.72 4.87991 13.6933 6.65324L3.65333 23.9999C2.62667 25.7732 3.90667 27.9999 5.96 27.9999V27.9999ZM16 18.6666C15.2667 18.6666 14.6667 18.0666 14.6667 17.3332V14.6666C14.6667 13.9332 15.2667 13.3332 16 13.3332C16.7333 13.3332 17.3333 13.9332 17.3333 14.6666V17.3332C17.3333 18.0666 16.7333 18.6666 16 18.6666ZM17.3333 23.9999H14.6667V21.3332H17.3333V23.9999Z" fill="currentColor"/>
</svg>
