<svg width="30" height="30" viewBox="0 0 30 30" fill="none" xmlns="http://www.w3.org/2000/svg">
<path d="M28.6997 15C28.6997 22.5661 22.5661 28.6997 15 28.6997C7.43388 28.6997 1.30034 22.5661 1.30034 15C1.30034 7.43388 7.43388 1.30034 15 1.30034C22.5661 1.30034 28.6997 7.43388 28.6997 15Z" fill="#33A5FF" stroke="white" stroke-width="2.60067"/>
<path d="M19.9219 7.5H10.0781C9.68979 7.5 9.375 7.81479 9.375 8.20312V8.67188C9.375 9.06021 9.68979 9.375 10.0781 9.375C10.0781 12.04 11.5727 14.2891 13.6184 15C11.5727 15.7109 10.0781 17.96 10.0781 20.625C9.68979 20.625 9.375 20.9398 9.375 21.3281V21.7969C9.375 22.1852 9.68979 22.5 10.0781 22.5H19.9219C20.3102 22.5 20.625 22.1852 20.625 21.7969V21.3281C20.625 20.9398 20.3102 20.625 19.9219 20.625C19.9219 17.96 18.4273 15.7109 16.3816 15C18.4273 14.2891 19.9219 12.04 19.9219 9.375C20.3102 9.375 20.625 9.06021 20.625 8.67188V8.20312C20.625 7.81479 20.3102 7.5 19.9219 7.5ZM17.7223 18.75H12.2777C12.7775 17.379 13.804 16.4062 15 16.4062C16.1959 16.4062 17.2225 17.3788 17.7223 18.75ZM17.7229 11.25H12.2777C12.07 10.6801 11.9531 10.0414 11.9531 9.375H18.0469C18.0469 10.0431 17.9301 10.6813 17.7229 11.25V11.25Z" fill="white"/>
</svg>
