<!-- License: https://fontawesome.com/license/free -->
<!-- Customized to add an outline -->
<svg height="612" width="678" viewBox="0 0 678 612" xmlns="http://www.w3.org/2000/svg"><g fill="none"><path d="M338.99 25c12.694 0 25.378 3.27 36.61 9.747 10.543 6.08 19.84 14.974 26.633 26.748L642.172 477.52c14.03 24.32 12.259 51.68-.037 72.968C629.83 571.795 606.985 587 578.94 587H99.054c-28.076 0-50.89-15.207-63.185-36.495-12.306-21.307-14.06-48.694-.048-72.982L275.768 61.492c6.795-11.777 16.088-20.667 26.62-26.745C313.62 28.267 326.302 25 338.99 25z" fill="#efa31d" stroke="#fff" stroke-width="50"/><g fill="#fff"><path d="M339 404c-25.405 0-46 20.595-46 46s20.595 46 46 46 46-20.595 46-46-20.595-46-46-46zM295.327 238.654l7.418 136c.347 6.364 5.609 11.346 11.982 11.346h48.546c6.373 0 11.635-4.982 11.982-11.346l7.418-136c.375-6.874-5.098-12.654-11.982-12.654h-63.383c-6.884 0-12.356 5.78-11.981 12.654z"/></g></g></svg>
