<!-- License: https://fontawesome.com/license/free -->
<!-- Customized to add an outline -->
<svg height="596" width="596" viewBox="0 0 596 596" xmlns="http://www.w3.org/2000/svg"><g fill="none"><path d="M298 25c75.376 0 143.623 30.565 193.027 79.969C540.437 154.379 571 222.635 571 298c0 75.398-30.555 143.644-79.954 193.042C441.641 540.447 373.386 571 298 571s-143.641-30.553-193.046-79.958C55.555 441.644 25 373.398 25 298c0-75.365 30.562-143.62 79.973-193.031C154.377 55.565 222.623 25 298 25z" fill="#fc3939" stroke="#fff" stroke-width="50"/><g fill="#fff"><path d="M298 348c-25.405 0-46 20.595-46 46s20.595 46 46 46 46-20.595 46-46-20.595-46-46-46zM254.327 182.654l7.418 136c.347 6.364 5.609 11.346 11.982 11.346h48.546c6.373 0 11.635-4.982 11.982-11.346l7.418-136c.375-6.874-5.098-12.654-11.982-12.654h-63.383c-6.884 0-12.356 5.78-11.981 12.654z"/></g></g></svg>
