<?xml version="1.0" encoding="UTF-8" standalone="no"?>
<svg
   viewBox="0 0 24 24"
   version="1.1"
   id="svg1"
   sodipodi:docname="duplicate.svg"
   width="24"
   height="24"
   inkscape:version="1.3.2 (091e20e, 2023-11-25)"
   xmlns:inkscape="http://www.inkscape.org/namespaces/inkscape"
   xmlns:sodipodi="http://sodipodi.sourceforge.net/DTD/sodipodi-0.dtd"
   xmlns="http://www.w3.org/2000/svg"
   xmlns:svg="http://www.w3.org/2000/svg">
  <defs
     id="defs1" />
  <sodipodi:namedview
     id="namedview1"
     pagecolor="#ffffff"
     bordercolor="#000000"
     borderopacity="0.25"
     inkscape:showpageshadow="2"
     inkscape:pageopacity="0.0"
     inkscape:pagecheckerboard="0"
     inkscape:deskcolor="#d1d1d1"
     inkscape:zoom="9.9368421"
     inkscape:cx="9.4597458"
     inkscape:cy="11.875"
     inkscape:window-width="1920"
     inkscape:window-height="1147"
     inkscape:window-x="0"
     inkscape:window-y="25"
     inkscape:window-maximized="0"
     inkscape:current-layer="g1" />
  <g
     stroke="none"
     stroke-width="1"
     fill="currentColor"
     fill-rule="evenodd"
     id="g1">
    <path
       d="m 3.453178,19.755162 c 0,0.496311 0.4027405,0.898652 0.8986521,0.898652 h 9.9026959 c 0.496311,0 0.898652,-0.40274 0.898652,-0.898652 V 9.8524654 c 0,-0.4963113 -0.40274,-0.8986518 -0.898652,-0.8986518 H 4.3518301 c -0.4963119,0 -0.8986521,0.4027401 -0.8986521,0.8986518 z M 9.7518301,3.5538136 c -0.4963119,0 -0.8986521,0.3993449 -0.8986521,0.8998267 v 3.6001733 h 5.525904 c 1.674096,0 1.674096,1.35 1.674096,1.35 v 5.8500004 h 3.600173 c 0.496961,0 0.899827,-0.40274 0.899827,-0.898652 V 4.4524657 c 0,-0.4963119 -0.40274,-0.8986521 -0.898652,-0.8986521 z"
       fill="currentColor"
       id="path1"
       sodipodi:nodetypes="ssssssssssscsccsssss"
       style="stroke-width:0.9" />
  </g>
</svg>
