<svg viewBox="0 0 32 32" fill="none" xmlns="http://www.w3.org/2000/svg">
<path d="M15.9998 2.66699C8.63984 2.66699 2.6665 8.64033 2.6665 16.0003C2.6665 23.3603 8.63984 29.3337 15.9998 29.3337C23.3598 29.3337 29.3332 23.3603 29.3332 16.0003C29.3332 8.64033 23.3598 2.66699 15.9998 2.66699ZM15.9998 17.3337C15.2665 17.3337 14.6665 16.7337 14.6665 16.0003V10.667C14.6665 9.93366 15.2665 9.33366 15.9998 9.33366C16.7332 9.33366 17.3332 9.93366 17.3332 10.667V16.0003C17.3332 16.7337 16.7332 17.3337 15.9998 17.3337ZM17.3332 22.667H14.6665V20.0003H17.3332V22.667Z" fill="currentColor"/>
</svg>
