<svg viewBox="0 0 32 32" fill="none" xmlns="http://www.w3.org/2000/svg">
<path d="M12.0417 24.7623H13.0833V17.2384H12.0417C11.4664 17.2384 11 16.772 11 16.1967V13.7087C11 13.1333 11.4664 12.667 12.0417 12.667H17.875C18.4503 12.667 18.9167 13.1333 18.9167 13.7087V24.7623H19.9583C20.5336 24.7623 21 25.2286 21 25.8039V28.292C21 28.8673 20.5336 29.3337 19.9583 29.3337H12.0417C11.4664 29.3337 11 28.8673 11 28.292V25.8039C11 25.2286 11.4664 24.7623 12.0417 24.7623ZM16 2.66699C13.9289 2.66699 12.25 4.3459 12.25 6.41699C12.25 8.48809 13.9289 10.167 16 10.167C18.0711 10.167 19.75 8.48809 19.75 6.41699C19.75 4.3459 18.071 2.66699 16 2.66699Z" fill="currentColor"/>
</svg>
