<svg xmlns="http://www.w3.org/2000/svg" viewBox="0 0 127.53 127.53"><defs><style>.a{fill:#e01e5a;}.b{fill:#36c5f0;}.c{fill:#2eb67d;}.d{fill:#ecb22e;}</style></defs><path class="a" d="M28.25,80.05a12.9,12.9,0,1,1-12.9-12.9h12.9Z"/><path class="a" d="M34.75,80.05a12.9,12.9,0,0,1,25.8,0v32.3a12.9,12.9,0,0,1-25.8,0Z"/><path class="b" d="M47.65,28.25a12.9,12.9,0,1,1,12.9-12.9v12.9Z"/><path class="b" d="M47.65,34.75a12.9,12.9,0,0,1,0,25.8H15.35a12.9,12.9,0,1,1,0-25.8Z"/><path class="c" d="M99.45,47.65a12.9,12.9,0,1,1,12.9,12.9H99.45Z"/><path class="c" d="M93,47.65a12.9,12.9,0,0,1-25.8,0V15.35a12.9,12.9,0,0,1,25.8,0Z"/><path class="d" d="M80.05,99.45a12.9,12.9,0,1,1-12.9,12.9V99.45Z"/><path class="d" d="M80.05,93a12.9,12.9,0,1,1,0-25.8h32.3a12.9,12.9,0,1,1,0,25.8Z"/></svg>
