<svg xmlns="http://www.w3.org/2000/svg" height="25" fill="currentColor" viewBox="0 0 75.4 50"><path d="M15 35.1l-1.4 6.6H9.9l6.9-32.6h5.8l6.9 32.6h-4l-1.4-6.6H15zm.6-3.1h8l-4.1-18.8L15.6 32zM39.3 9.1c5.6 0 7.8 2.4 7.8 7.2v1.5c0 3.4-1.1 5.6-4.2 6.5 3.5.9 4.8 3.4 4.8 7V34c0 4.9-2.6 7.6-8.3 7.6h-8.3V9.1h8.2zm-1 13.8c3.2 0 4.8-.9 4.8-4.3v-1.9c0-2.9-1.1-4.3-4-4.3h-4v10.5h3.2zm1.2 15.5c2.9 0 4.3-1.4 4.3-4.4v-2.9c0-3.6-1.6-4.8-5.1-4.8h-3.5v12.1h4.3zM65.8 17v2.9H62v-3.1c0-2.9-1.3-4.7-4.2-4.7s-4.2 1.8-4.2 4.7V34c0 2.9 1.3 4.7 4.2 4.7S62 36.9 62 34v-4.2h3.8v4c0 4.9-2.6 8.2-8.1 8.2s-8.1-3.3-8.1-8.2V17c0-4.9 2.6-8.2 8.1-8.2s8.1 3.2 8.1 8.2z"/></svg>
