<svg x="0px" y="0px" height="25px" viewBox="0 0 75.3 50" enable-background="new 0 0 75.3 50" xml:space="preserve" fill="currentColor">
<g id="Layer_1_1_" display="none">
	<g display="inline">
		<path d="M18.7,14.7c-1.3,0.7-3.1,1.3-5,1.4v-3c3.9-0.1,5.3-2,6.2-4.3h2.8v32.6h-4V14.7z"/>
		<path d="M45.6,16.7c0,9.8-12.2,13.4-12.3,20.8v0.5h11.9v3.3H29.3v-2.8c0-10.5,12.2-12.6,12.2-21.7c0-3.4-1.2-5.1-4.2-5.1
			c-2.9,0-4.2,1.9-4.2,4.8v2.9h-3.8v-2.7c0-5,2.5-8.3,8.1-8.3C43,8.5,45.6,11.8,45.6,16.7z"/>
		<path d="M65.8,16.7v0.8c0,3.4-1.5,5.7-4.4,6.7c3,1,4.4,3.5,4.4,6.7v2.5c0,5-2.6,8.2-8.1,8.2c-5.5,0-8.1-3.3-8.1-8.2v-2.2h3.8v2.5
			c0,2.9,1.3,4.7,4.2,4.7c2.9,0,4.2-1.7,4.2-5v-2.5c0-3.2-1.5-4.7-4.5-4.8h-2.2v-3.3h2.4c2.7-0.1,4.3-1.6,4.3-4.5v-1.5
			c0-3.4-1.3-5.1-4.2-5.1c-2.9,0-4.2,1.8-4.2,4.7v1.7h-3.8v-1.5c0-5,2.6-8.2,8.1-8.2C63.2,8.5,65.8,11.7,65.8,16.7z"/>
	</g>
</g>
<g id="Layer_2" display="none">
	<g display="inline">
		<path d="M16.4,35.1L15,41.7h-3.7l6.9-32.6H24l6.9,32.6h-4l-1.4-6.6L16.4,35.1L16.4,35.1z M16.9,32h8l-4.1-18.8L16.9,32z"/>
		<path d="M40.6,9.1c5.6,0,7.8,2.4,7.8,7.2v1.5c0,3.4-1.1,5.6-4.2,6.5c3.5,0.9,4.8,3.4,4.8,7V34c0,4.9-2.6,7.6-8.3,7.6h-8.3V9.1
			H40.6z M39.6,22.9c3.2,0,4.8-0.9,4.8-4.3v-1.9c0-2.9-1.1-4.3-4-4.3h-4v10.5L39.6,22.9L39.6,22.9z M40.8,38.4
			c2.9,0,4.3-1.4,4.3-4.4v-2.9c0-3.6-1.6-4.8-5.1-4.8h-3.5v12.1H40.8z"/>
		<path d="M67.1,17v2.9h-3.8v-3.1c0-2.9-1.3-4.7-4.2-4.7c-2.9,0-4.2,1.8-4.2,4.7V34c0,2.9,1.3,4.7,4.2,4.7c2.9,0,4.2-1.8,4.2-4.7
			v-4.2h3.8v4c0,4.9-2.6,8.2-8.1,8.2c-5.5,0-8.1-3.3-8.1-8.2V17c0-4.9,2.6-8.2,8.1-8.2C64.5,8.8,67.1,12,67.1,17z"/>
	</g>
</g>
<g id="Layer_3" display="none">
	<g display="inline">
		<path d="M25,39.8h-3.6c-0.2-0.6-0.3-1.6-0.4-3.2c-1.1,2.4-3.1,3.6-6,3.6c-1.8,0-3.2-0.5-4.2-1.6c-1-1-1.5-2.4-1.5-4.2
			c0-1.8,0.5-3.3,1.5-4.4c1-1.2,2.6-2.2,5-3.2c2.1-0.9,3.5-1.5,4.1-2c0.5-0.4,0.8-1,0.8-1.9v-0.6c0-2.3-1.1-3.5-3.4-3.5
			c-1.1,0-2,0.3-2.7,0.9c-0.6,0.6-1,1.5-1,2.7v0.7H10v-0.5c0-2.2,0.6-3.8,1.9-5c1.3-1.2,3.1-1.8,5.4-1.8c4.8,0,7.2,2.4,7.2,7.1v10.4
			C24.5,36.2,24.7,38.3,25,39.8z M16.4,37.2c1.3,0,2.3-0.5,3.1-1.4c0.8-0.9,1.1-2.2,1.1-3.9v-4.7c-0.4,0.5-1.6,1.2-3.8,2.2
			c-2.4,1.1-3.7,2.7-3.7,4.6C13.2,36.2,14.3,37.2,16.4,37.2z"/>
		<path d="M28,44.9h-1.9l1.8-5h-1.4v-4.7h4.1v4.3L28,44.9z"/>
		<path d="M41.7,16c4.1,0,6.1,2.2,6.1,6.7v10.8c0,4.5-2,6.8-6.1,6.8c-2.8,0-4.8-1.3-5.8-3.8l-0.5,3.3h-2.8V7.3h3.9v11.5
			C37.6,16.9,39.4,16,41.7,16z M44,33.2V23c0-2.6-1.1-3.9-3.4-3.9c-1.3,0-2.3,0.5-3,1.4c-0.8,0.9-1.1,2.2-1.1,3.8V32
			c0,1.6,0.4,2.9,1.1,3.8c0.8,0.9,1.8,1.4,3,1.4C42.8,37.2,44,35.9,44,33.2z"/>
		<path d="M50.8,44.9h-1.9l1.8-5h-1.4v-4.7h4.1v4.3L50.8,44.9z"/>
		<path d="M62.2,40.3c-2.5,0-4.4-0.6-5.6-1.9s-1.9-3.1-1.9-5.6v-9.4c0-2.4,0.6-4.3,1.9-5.5c1.3-1.3,3.2-1.9,5.6-1.9
			c2.4,0,4.3,0.6,5.5,1.9c1.3,1.3,1.9,3.1,1.9,5.5v1h-3.8v-1.3c0-2.7-1.2-4-3.7-4c-2.4,0-3.7,1.3-3.7,4v10c0,2.7,1.2,4,3.7,4
			c2.4,0,3.7-1.3,3.7-4v-1.8h3.8v1.5c0,2.4-0.6,4.3-1.9,5.6C66.4,39.6,64.6,40.3,62.2,40.3z"/>
	</g>
</g>
<g id="Layer_4" display="none">
	<g display="inline">
		<g>
			<path d="M12.2,17.3c0-5,2.7-8.2,8.3-8.2c5.6,0,8.3,3.2,8.3,8.2v16.8c0,5-2.7,8.2-8.3,8.2c-5.5,0-8.3-3.3-8.3-8.2V17.3z
				 M16.2,34.4c0,2.9,1.4,4.7,4.3,4.7c2.9,0,4.3-1.8,4.3-4.7V17.1c0-3-1.3-4.7-4.3-4.7c-2.9,0-4.3,1.8-4.3,4.7V34.4z"/>
		</g>
		<g>
			<path d="M60.9,15.4c-1.3,0.7-3.1,1.3-5,1.4v-3c3.9-0.1,5.3-2,6.2-4.3h2.8V42h-4V15.4z"/>
		</g>
		<g>
			<g>
				<polygon points="46.9,9.3 32.9,42.4 37.2,42.4 51.2,9.3 				"/>
			</g>
		</g>
	</g>
</g>
<g id="Layer_5" display="none">
	<g display="inline">
		<g>
			<g>
				<path d="M63.4,18.2c0,9.4-4.6,18.9-12.9,18.9c-3.4,0-5.1-1.8-5.2-4.4c-1.5,3-4.2,4.8-8.2,4.7c-6.1-0.1-7.9-4.5-7.2-9.5l0.8-6.2
					c0.7-5.2,3.6-9,9.5-9c3.6,0.1,6,1.6,6.9,4.4l0.5-4.1h3.1L48.4,31c-0.2,1.7,0.4,3.7,2.9,3.7c7.4-0.1,9.4-10.5,9.4-16.4
					c0-9.5-5.4-15.4-17.5-15.4c-16.7,0-23.7,11.8-23.7,25.5c0,11.6,6.4,18.3,20.6,18.3c5,0,9.9-0.9,14.1-3.6l-0.2,2.6
					c-4.3,2.4-9,3.3-14.1,3.3c-16.2,0-23.5-7.9-23.5-20.7c0-14.3,8-27.7,26.9-27.7C57.6,0.6,63.4,7.8,63.4,18.2z M33.7,22.2L33,28
					c-0.5,3.6,0.7,7,5.4,7c4.7,0.1,6.8-3.2,7.3-7l0.8-6c0.5-3.5-1-6.5-5.5-6.5C36.4,15.4,34.2,18.4,33.7,22.2z"/>
				<path d="M39.9,49.6c-8.2,0-14.3-2-18.2-5.7l0,0c-4-3.7-5.9-9.1-5.8-15.6l0,0c0-7.3,2-14.3,6.5-19.6l0,0C26.7,3.4,33.7,0,43.3,0
					l0,0c7.3,0,12.5,1.8,15.8,5.1l0,0c3.4,3.2,4.9,7.8,4.8,13.2l0,0c0,9.5-4.7,19.4-13.5,19.5l0,0c-2.9,0-4.8-1.3-5.5-3.3l0,0
					c-1.7,2.3-4.3,3.7-7.7,3.7l0,0c-0.1,0-0.1,0-0.2,0l0,0c-2.8,0-4.8-0.9-6.1-2.4l0,0c-1.3-1.5-1.8-3.5-1.8-5.7l0,0
					c0-0.7,0-1.4,0.1-2l0,0l0.8-6.2c0.6-5.3,3.9-9.5,10-9.5l0,0c0,0,0.1,0,0.2,0l0,0c2.9,0,5.2,1,6.5,2.9l0,0l0.3-2.6h4.3L49,31.1
					c0,0.2,0,0.4,0,0.6l0,0c0.1,1.4,0.5,2.4,2.3,2.5l0,0c3.3,0,5.5-2.3,6.9-5.5l0,0c1.4-3.2,1.9-7.1,1.9-10l0,0c0-0.1,0-0.2,0-0.3
					l0,0C60,9.1,55.1,3.6,43.1,3.5l0,0C26.8,3.5,20,14.9,20,28.4l0,0c0.1,11.3,6,17.6,20,17.7l0,0c4.9,0,9.7-0.9,13.8-3.5l0,0l1-0.7
					l-0.4,4.1l-0.3,0.2C49.8,48.7,45,49.6,39.9,49.6L39.9,49.6C39.9,49.6,39.9,49.6,39.9,49.6L39.9,49.6z M17,28.3
					c0.1,12.6,6.9,20.1,22.9,20.1l0,0c4.9,0,9.4-0.8,13.5-3.1l0,0l0.1-1.1c-4.1,2.3-8.8,3.1-13.4,3.1l0,0c-7.2,0-12.5-1.7-16-5l0,0
					c-3.5-3.3-5.2-8-5.2-13.9l0,0c0-6.9,1.8-13.4,5.7-18.2l0,0c4-4.8,10.1-7.8,18.6-7.8l0,0c6.2,0,10.7,1.5,13.7,4.3l0,0
					c3,2.8,4.4,6.8,4.4,11.7l0,0c0,0.1,0,0.2,0,0.3l0,0c0,3.1-0.5,7.1-2,10.5l0,0c-1.5,3.4-4,6.2-8,6.2l0,0c-1.2,0-2.2-0.5-2.7-1.2
					l0,0c-0.6-0.7-0.8-1.6-0.8-2.5l0,0c0-0.3,0-0.5,0.1-0.7l0,0L50,13.8h-1.9l-0.5,3.6l-1.2,0.1c-0.9-2.6-2.8-3.9-6.3-4l0,0
					c0,0-0.1,0-0.1,0l0,0c-5.5,0-8.1,3.5-8.8,8.4l0,0l-0.8,6.2c-0.1,0.6-0.1,1.3-0.1,1.9l0,0c0.1,4,1.7,6.8,6.7,7l0,0
					c0.1,0,0.1,0,0.2,0l0,0c3.5,0,5.9-1.5,7.3-4.1l0,0c-1.3,1.7-3.2,2.9-6,2.8l0,0c0,0-0.1,0-0.1,0l0,0c-2.2,0-3.8-0.7-4.8-1.9l0,0
					c-1-1.2-1.4-2.7-1.4-4.3l0,0c0-0.5,0-1,0.1-1.5l0,0l0.7-5.9l0.6,0.1l-0.6-0.1c0.5-4,3-7.3,7.9-7.2l0,0c2.1,0,3.7,0.6,4.7,1.8
					l0,0c1,1.1,1.5,2.6,1.5,4.2l0,0c0,0.4,0,0.8-0.1,1.3l0,0l-0.8,6c-0.1,0.9-0.3,1.7-0.6,2.5l0,0l0.1,2.1c0.2,2.3,1.4,3.7,4.6,3.8
					l0,0c7.8,0,12.3-9.1,12.3-18.3l0,0C62.7,8,57.4,1.3,43.3,1.2l0,0C24.7,1.2,17,14.1,17,28.3L17,28.3z M33.6,28.1
					c-0.1,0.5-0.1,0.9-0.1,1.3l0,0c0.1,2.9,1.1,5,4.9,5l0,0c0,0,0.1,0,0.1,0l0,0c4.3,0,6-2.9,6.5-6.5l0,0l0.8-6
					c0-0.4,0.1-0.8,0.1-1.1l0,0c-0.1-2.8-1.3-4.7-5-4.8l0,0c-4.3,0-6.2,2.6-6.7,6.2l0,0h0L33.6,28.1L33.6,28.1z"/>
			</g>
		</g>
	</g>
</g>
<g id="Layer_6" display="none">
	<g display="inline">
		<path d="M19.9,9.4c4.4,0.6,6.4,3.6,6.4,8v0.9h-3.8v-1.1c0-2.9-1.3-4.7-4.2-4.7c-2.8,0-4.1,1.8-4.1,4.7c0,7.3,12.1,7.4,12.1,16.5
			c0,4.4-2.1,7.5-6.4,8v2.5h-3.3v-2.5c-4.5-0.6-6.5-3.6-6.5-8v-2h3.8V34c0,2.9,1.3,4.6,4.2,4.6c2.9,0,4.2-1.7,4.2-4.6
			c0-7.3-12.1-7.4-12.1-16.5c0-4.5,2-7.4,6.3-8V6.8h3.3L19.9,9.4L19.9,9.4z"/>
		<path d="M36.7,12.3c-2.8,0-3.7,1.3-3.7,4.2v18.2c0,2.8,0.9,4.2,3.7,4.2h1.2v3h-1.4c-5.5,0-7.4-2.3-7.4-7.2V16.5
			c0-4.9,1.9-7.2,7.4-7.2h1.4v3L36.7,12.3L36.7,12.3z"/>
		<path d="M44.5,37.4v4.5h-3.9v-4.5H44.5z"/>
		<path d="M52,37.4v4.5h-3.9v-4.5H52z"/>
		<path d="M59.5,37.4v4.5h-3.9v-4.5H59.5z"/>
		<path d="M63.7,9.3c5.5,0,7.4,2.3,7.4,7.2v18.2c0,4.9-1.9,7.2-7.4,7.2h-1.4v-3h1.2c2.8,0,3.7-1.4,3.7-4.2V16.5
			c0-2.8-0.9-4.2-3.7-4.2h-1.2v-3H63.7z"/>
	</g>
</g>
<g id="Layer_7">
	<g>
		<rect x="35.8" y="0.8" transform="matrix(0.707 -0.7072 0.7072 0.707 -6.4765 34.0332)" width="4" height="48.1"/>
		<rect x="36" y="1" transform="matrix(-0.7072 -0.707 0.707 -0.7072 47.2009 69.543)" width="4" height="48.1"/>
	</g>
</g>
<g id="Layer_8" display="none">
	<g display="inline">
		<path d="M25.9,39.1h-3.6c-0.2-0.6-0.3-1.6-0.4-3.2c-1.1,2.4-3.1,3.6-6,3.6c-1.8,0-3.2-0.5-4.2-1.6c-1-1-1.5-2.4-1.5-4.2
			c0-1.8,0.5-3.3,1.5-4.4c1-1.2,2.6-2.2,5-3.2c2.1-0.9,3.5-1.5,4.1-2c0.5-0.4,0.8-1,0.8-1.9v-0.6c0-2.3-1.1-3.5-3.4-3.5
			c-1.1,0-2,0.3-2.7,0.9c-0.6,0.6-1,1.5-1,2.7v0.7h-3.7v-0.5c0-2.2,0.6-3.8,1.9-5c1.3-1.2,3.1-1.8,5.4-1.8c4.8,0,7.2,2.4,7.2,7.1
			v10.4C25.4,35.5,25.5,37.6,25.9,39.1z M17.3,36.5c1.3,0,2.3-0.5,3.1-1.4c0.8-0.9,1.1-2.2,1.1-3.9v-4.7c-0.4,0.5-1.6,1.2-3.8,2.2
			c-2.4,1.1-3.7,2.7-3.7,4.6C14.1,35.4,15.1,36.5,17.3,36.5z"/>
		<path d="M31.5,48.4h-3.4V1.9h3.4V48.4z"/>
		<path d="M43.5,15.3c4.1,0,6.1,2.3,6.1,6.7v10.8c0,4.5-2,6.8-6.1,6.8c-2.8,0-4.8-1.3-5.8-3.8l-0.5,3.3h-2.8V6.6h3.9V18
			C39.4,16.2,41.2,15.3,43.5,15.3z M45.7,32.5V22.3c0-2.6-1.1-3.9-3.4-3.9c-1.3,0-2.3,0.5-3,1.4c-0.8,0.9-1.1,2.2-1.1,3.8v7.7
			c0,1.6,0.4,2.9,1.1,3.8c0.8,0.9,1.8,1.4,3,1.4C44.6,36.5,45.7,35.2,45.7,32.5z"/>
		<path d="M55.4,48.4H52V1.9h3.4V48.4z"/>
		<path d="M65.3,39.6c-2.5,0-4.4-0.6-5.6-1.9s-1.9-3.1-1.9-5.6v-9.4c0-2.4,0.6-4.3,1.9-5.5c1.3-1.3,3.2-1.9,5.6-1.9
			c2.4,0,4.3,0.6,5.5,1.9s1.9,3.1,1.9,5.5v1H69v-1.3c0-2.7-1.2-4-3.7-4c-2.4,0-3.7,1.3-3.7,4v10c0,2.7,1.2,4,3.7,4
			c2.4,0,3.7-1.3,3.7-4v-1.8h3.8v1.5c0,2.4-0.6,4.3-1.9,5.6C69.6,38.9,67.7,39.6,65.3,39.6z"/>
	</g>
</g>
<g id="Layer_9" display="none">
	<g display="inline">
		<path d="M19.5,25.9l-2.1,3.2V40h-4V7.5h4v15.7l9.6-15.7H31l-9.1,14.8L31.3,40h-4.1L19.5,25.9z"/>
		<path d="M52.7,7.5l5.9,28.3l5.8-28.3h3.7L61.3,40h-5.9L48.6,7.5H52.7z"/>
		<rect x="38" y="31" width="4" height="4.5"/>
		<rect x="38" y="13.3" width="4" height="4.5"/>
	</g>
</g>
<g id="Layer_10" display="none">
	<g display="inline">
		<g>
			<path d="M20,26.9l-2.1,3.2V41h-4V8.5h4v15.7l9.6-15.7h4.1l-9.1,14.8L31.8,41h-4.1L20,26.9z"/>
			<path d="M53.2,8.5L59,36.8l5.8-28.3h3.7L61.8,41h-5.9L49.1,8.5H53.2z"/>
		</g>
		<rect x="38.5" y="36.5" width="4" height="4.5"/>
		<rect x="38.5" y="8.6" width="4" height="4.5"/>
	</g>
</g>
</svg>
