<?xml version="1.0" encoding="UTF-8"?>
<svg height="25px" enable-background="new 0 0 75.3 50" fill="currentColor" viewBox="0 0 75.3 50" xml:space="preserve" xmlns="http://www.w3.org/2000/svg">
<g display="none">
	<g display="inline">
		<path d="M18.7,14.7c-1.3,0.7-3.1,1.3-5,1.4v-3c3.9-0.1,5.3-2,6.2-4.3h2.8v32.6h-4V14.7z"/>
		<path d="m45.6 16.7c0 9.8-12.2 13.4-12.3 20.8v0.5h11.9v3.3h-15.9v-2.8c0-10.5 12.2-12.6 12.2-21.7 0-3.4-1.2-5.1-4.2-5.1-2.9 0-4.2 1.9-4.2 4.8v2.9h-3.8v-2.7c0-5 2.5-8.3 8.1-8.3 5.6 0.1 8.2 3.4 8.2 8.3z"/>
		<path d="m65.8 16.7v0.8c0 3.4-1.5 5.7-4.4 6.7 3 1 4.4 3.5 4.4 6.7v2.5c0 5-2.6 8.2-8.1 8.2s-8.1-3.3-8.1-8.2v-2.2h3.8v2.5c0 2.9 1.3 4.7 4.2 4.7s4.2-1.7 4.2-5v-2.5c0-3.2-1.5-4.7-4.5-4.8h-2.2v-3.3h2.4c2.7-0.1 4.3-1.6 4.3-4.5v-1.5c0-3.4-1.3-5.1-4.2-5.1s-4.2 1.8-4.2 4.7v1.7h-3.8v-1.5c0-5 2.6-8.2 8.1-8.2 5.5 0.1 8.1 3.3 8.1 8.3z"/>
	</g>
</g>
<g display="none">
	<g display="inline">
		<path d="m16.4 35.1-1.4 6.6h-3.7l6.9-32.6h5.8l6.9 32.6h-4l-1.4-6.6h-9.1zm0.5-3.1h8l-4.1-18.8-3.9 18.8z"/>
		<path d="m40.6 9.1c5.6 0 7.8 2.4 7.8 7.2v1.5c0 3.4-1.1 5.6-4.2 6.5 3.5 0.9 4.8 3.4 4.8 7v2.7c0 4.9-2.6 7.6-8.3 7.6h-8.3v-32.5h8.2zm-1 13.8c3.2 0 4.8-0.9 4.8-4.3v-1.9c0-2.9-1.1-4.3-4-4.3h-4v10.5h3.2zm1.2 15.5c2.9 0 4.3-1.4 4.3-4.4v-2.9c0-3.6-1.6-4.8-5.1-4.8h-3.5v12.1h4.3z"/>
		<path d="m67.1 17v2.9h-3.8v-3.1c0-2.9-1.3-4.7-4.2-4.7s-4.2 1.8-4.2 4.7v17.2c0 2.9 1.3 4.7 4.2 4.7s4.2-1.8 4.2-4.7v-4.2h3.8v4c0 4.9-2.6 8.2-8.1 8.2s-8.1-3.3-8.1-8.2v-16.8c0-4.9 2.6-8.2 8.1-8.2s8.1 3.2 8.1 8.2z"/>
	</g>
</g>
<g display="none">
	<g display="inline">
		<path d="m25 39.8h-3.6c-0.2-0.6-0.3-1.6-0.4-3.2-1.1 2.4-3.1 3.6-6 3.6-1.8 0-3.2-0.5-4.2-1.6-1-1-1.5-2.4-1.5-4.2s0.5-3.3 1.5-4.4c1-1.2 2.6-2.2 5-3.2 2.1-0.9 3.5-1.5 4.1-2 0.5-0.4 0.8-1 0.8-1.9v-0.6c0-2.3-1.1-3.5-3.4-3.5-1.1 0-2 0.3-2.7 0.9-0.6 0.6-1 1.5-1 2.7v0.7h-3.6v-0.5c0-2.2 0.6-3.8 1.9-5s3.1-1.8 5.4-1.8c4.8 0 7.2 2.4 7.2 7.1v10.4c0 2.9 0.2 5 0.5 6.5zm-8.6-2.6c1.3 0 2.3-0.5 3.1-1.4s1.1-2.2 1.1-3.9v-4.7c-0.4 0.5-1.6 1.2-3.8 2.2-2.4 1.1-3.7 2.7-3.7 4.6 0.1 2.2 1.2 3.2 3.3 3.2z"/>
		<path d="M28,44.9h-1.9l1.8-5h-1.4v-4.7h4.1v4.3L28,44.9z"/>
		<path d="m41.7 16c4.1 0 6.1 2.2 6.1 6.7v10.8c0 4.5-2 6.8-6.1 6.8-2.8 0-4.8-1.3-5.8-3.8l-0.5 3.3h-2.8v-32.5h3.9v11.5c1.1-1.9 2.9-2.8 5.2-2.8zm2.3 17.2v-10.2c0-2.6-1.1-3.9-3.4-3.9-1.3 0-2.3 0.5-3 1.4-0.8 0.9-1.1 2.2-1.1 3.8v7.7c0 1.6 0.4 2.9 1.1 3.8 0.8 0.9 1.8 1.4 3 1.4 2.2 0 3.4-1.3 3.4-4z"/>
		<path d="m50.8 44.9h-1.9l1.8-5h-1.4v-4.7h4.1v4.3l-2.6 5.4z"/>
		<path d="m62.2 40.3c-2.5 0-4.4-0.6-5.6-1.9s-1.9-3.1-1.9-5.6v-9.4c0-2.4 0.6-4.3 1.9-5.5 1.3-1.3 3.2-1.9 5.6-1.9s4.3 0.6 5.5 1.9c1.3 1.3 1.9 3.1 1.9 5.5v1h-3.8v-1.3c0-2.7-1.2-4-3.7-4-2.4 0-3.7 1.3-3.7 4v10c0 2.7 1.2 4 3.7 4 2.4 0 3.7-1.3 3.7-4v-1.8h3.8v1.5c0 2.4-0.6 4.3-1.9 5.6-1.3 1.2-3.1 1.9-5.5 1.9z"/>
	</g>
</g>
<g display="none">
	<g display="inline">
		<g>
			<path d="m12.2 17.3c0-5 2.7-8.2 8.3-8.2s8.3 3.2 8.3 8.2v16.8c0 5-2.7 8.2-8.3 8.2-5.5 0-8.3-3.3-8.3-8.2v-16.8zm4 17.1c0 2.9 1.4 4.7 4.3 4.7s4.3-1.8 4.3-4.7v-17.3c0-3-1.3-4.7-4.3-4.7-2.9 0-4.3 1.8-4.3 4.7v17.3z"/>
		</g>
		<g>
			<path d="M60.9,15.4c-1.3,0.7-3.1,1.3-5,1.4v-3c3.9-0.1,5.3-2,6.2-4.3h2.8V42h-4V15.4z"/>
		</g>
		<g>
			<g>
				<polygon points="46.9 9.3 32.9 42.4 37.2 42.4 51.2 9.3"/>
			</g>
		</g>
	</g>
</g>
<g display="none">
	<g display="inline">
		<g>
			<g>
				<path d="m63.4 18.2c0 9.4-4.6 18.9-12.9 18.9-3.4 0-5.1-1.8-5.2-4.4-1.5 3-4.2 4.8-8.2 4.7-6.1-0.1-7.9-4.5-7.2-9.5l0.8-6.2c0.7-5.2 3.6-9 9.5-9 3.6 0.1 6 1.6 6.9 4.4l0.5-4.1h3.1l-2.3 18c-0.2 1.7 0.4 3.7 2.9 3.7 7.4-0.1 9.4-10.5 9.4-16.4 0-9.5-5.4-15.4-17.5-15.4-16.7 0-23.7 11.8-23.7 25.5 0 11.6 6.4 18.3 20.6 18.3 5 0 9.9-0.9 14.1-3.6l-0.2 2.6c-4.3 2.4-9 3.3-14.1 3.3-16.2 0-23.5-7.9-23.5-20.7 0-14.3 8-27.7 26.9-27.7 14.3 0 20.1 7.2 20.1 17.6zm-29.7 4-0.7 5.8c-0.5 3.6 0.7 7 5.4 7 4.7 0.1 6.8-3.2 7.3-7l0.8-6c0.5-3.5-1-6.5-5.5-6.5-4.6-0.1-6.8 2.9-7.3 6.7z"/>
				<path d="m39.9 49.6c-8.2 0-14.3-2-18.2-5.7-4-3.7-5.9-9.1-5.8-15.6 0-7.3 2-14.3 6.5-19.6 4.3-5.3 11.3-8.7 20.9-8.7 7.3 0 12.5 1.8 15.8 5.1 3.4 3.2 4.9 7.8 4.8 13.2 0 9.5-4.7 19.4-13.5 19.5-2.9 0-4.8-1.3-5.5-3.3-1.7 2.3-4.3 3.7-7.7 3.7h-0.2c-2.8 0-4.8-0.9-6.1-2.4s-1.8-3.5-1.8-5.7c0-0.7 0-1.4 0.1-2l0.8-6.2c0.6-5.3 3.9-9.5 10-9.5h0.2c2.9 0 5.2 1 6.5 2.9l0.3-2.6h4.3l-2.3 18.4v0.6c0.1 1.4 0.5 2.4 2.3 2.5 3.3 0 5.5-2.3 6.9-5.5s1.9-7.1 1.9-10v-0.3c-0.1-9.3-5-14.8-17-14.9-16.3 0-23.1 11.4-23.1 24.9 0.1 11.3 6 17.6 20 17.7 4.9 0 9.7-0.9 13.8-3.5l1-0.7-0.4 4.1-0.3 0.2c-4.3 2.5-9.1 3.4-14.2 3.4zm-22.9-21.3c0.1 12.6 6.9 20.1 22.9 20.1 4.9 0 9.4-0.8 13.5-3.1l0.1-1.1c-4.1 2.3-8.8 3.1-13.4 3.1-7.2 0-12.5-1.7-16-5s-5.2-8-5.2-13.9c0-6.9 1.8-13.4 5.7-18.2 4-4.8 10.1-7.8 18.6-7.8 6.2 0 10.7 1.5 13.7 4.3s4.4 6.8 4.4 11.7v0.3c0 3.1-0.5 7.1-2 10.5s-4 6.2-8 6.2c-1.2 0-2.2-0.5-2.7-1.2-0.6-0.7-0.8-1.6-0.8-2.5 0-0.3 0-0.5 0.1-0.7l2.1-17.2h-1.9l-0.5 3.6-1.2 0.1c-0.9-2.6-2.8-3.9-6.3-4h-0.1c-5.5 0-8.1 3.5-8.8 8.4l-0.8 6.2c-0.1 0.6-0.1 1.3-0.1 1.9 0.1 4 1.7 6.8 6.7 7h0.2c3.5 0 5.9-1.5 7.3-4.1-1.3 1.7-3.2 2.9-6 2.8h-0.1c-2.2 0-3.8-0.7-4.8-1.9s-1.4-2.7-1.4-4.3c0-0.5 0-1 0.1-1.5l0.7-5.9 0.6 0.1-0.6-0.1c0.5-4 3-7.3 7.9-7.2 2.1 0 3.7 0.6 4.7 1.8 1 1.1 1.5 2.6 1.5 4.2 0 0.4 0 0.8-0.1 1.3l-0.8 6c-0.1 0.9-0.3 1.7-0.6 2.5l0.1 2.1c0.2 2.3 1.4 3.7 4.6 3.8 7.8 0 12.3-9.1 12.3-18.3 0.1-10.3-5.2-17-19.3-17.1-18.6 0-26.3 12.9-26.3 27.1zm16.6-0.2c-0.1 0.5-0.1 0.9-0.1 1.3 0.1 2.9 1.1 5 4.9 5h0.1c4.3 0 6-2.9 6.5-6.5l0.8-6c0-0.4 0.1-0.8 0.1-1.1-0.1-2.8-1.3-4.7-5-4.8-4.3 0-6.2 2.6-6.7 6.2l-0.6 5.9z"/>
			</g>
		</g>
	</g>
</g>
<g display="none">
	<g display="inline">
		<path d="m19.9 9.4c4.4 0.6 6.4 3.6 6.4 8v0.9h-3.8v-1.1c0-2.9-1.3-4.7-4.2-4.7-2.8 0-4.1 1.8-4.1 4.7 0 7.3 12.1 7.4 12.1 16.5 0 4.4-2.1 7.5-6.4 8v2.5h-3.3v-2.5c-4.5-0.6-6.5-3.6-6.5-8v-2h3.8v2.3c0 2.9 1.3 4.6 4.2 4.6s4.2-1.7 4.2-4.6c0-7.3-12.1-7.4-12.1-16.5 0-4.5 2-7.4 6.3-8v-2.7h3.3l0.1 2.6z"/>
		<path d="m36.7 12.3c-2.8 0-3.7 1.3-3.7 4.2v18.2c0 2.8 0.9 4.2 3.7 4.2h1.2v3h-1.4c-5.5 0-7.4-2.3-7.4-7.2v-18.2c0-4.9 1.9-7.2 7.4-7.2h1.4v3h-1.2z"/>
		<path d="m44.5 37.4v4.5h-3.9v-4.5h3.9z"/>
		<path d="M52,37.4v4.5h-3.9v-4.5H52z"/>
		<path d="m59.5 37.4v4.5h-3.9v-4.5h3.9z"/>
		<path d="m63.7 9.3c5.5 0 7.4 2.3 7.4 7.2v18.2c0 4.9-1.9 7.2-7.4 7.2h-1.4v-3h1.2c2.8 0 3.7-1.4 3.7-4.2v-18.2c0-2.8-0.9-4.2-3.7-4.2h-1.2v-3h1.4z"/>
	</g>
</g>
<g display="none">
	<g display="inline">
		<rect transform="matrix(.707 -.7072 .7072 .707 -5.5974 36.155)" x="38.8" y=".8" width="4" height="48.1"/>
		<rect transform="matrix(-.7072 -.707 .707 -.7072 52.323 71.664)" x="39" y="1" width="4" height="48.1"/>
	</g>
</g>
<g>
	<g>
		<path d="m21.9 39.1h-3.6c-0.2-0.6-0.3-1.6-0.4-3.2-1.1 2.4-3.1 3.6-6 3.6-1.8 0-3.2-0.5-4.2-1.6-1-1-1.5-2.4-1.5-4.2s0.5-3.3 1.5-4.4c1-1.2 2.6-2.2 5-3.2 2.1-0.9 3.5-1.5 4.1-2 0.5-0.4 0.8-1 0.8-1.9v-0.6c0-2.3-1.1-3.5-3.4-3.5-1.1 0-2 0.3-2.7 0.9-0.6 0.6-1 1.5-1 2.7v0.7h-3.6v-0.5c0-2.2 0.6-3.8 1.9-5s3.1-1.8 5.4-1.8c4.8 0 7.2 2.4 7.2 7.1v10.4c0 2.9 0.1 5 0.5 6.5zm-8.6-2.6c1.3 0 2.3-0.5 3.1-1.4s1.1-2.2 1.1-3.9v-4.7c-0.4 0.5-1.6 1.2-3.8 2.2-2.4 1.1-3.7 2.7-3.7 4.6 0.1 2.1 1.1 3.2 3.3 3.2z"/>
		<path d="M27.5,48.4h-3.4V1.9h3.4V48.4z"/>
		<path d="m39.5 15.3c4.1 0 6.1 2.3 6.1 6.7v10.8c0 4.5-2 6.8-6.1 6.8-2.8 0-4.8-1.3-5.8-3.8l-0.5 3.3h-2.8v-32.5h3.9v11.4c1.1-1.8 2.9-2.7 5.2-2.7zm2.2 17.2v-10.2c0-2.6-1.1-3.9-3.4-3.9-1.3 0-2.3 0.5-3 1.4-0.8 0.9-1.1 2.2-1.1 3.8v7.7c0 1.6 0.4 2.9 1.1 3.8 0.8 0.9 1.8 1.4 3 1.4 2.3 0 3.4-1.3 3.4-4z"/>
		<path d="M51.4,48.4H48V1.9h3.4V48.4z"/>
		<path d="m61.3 39.6c-2.5 0-4.4-0.6-5.6-1.9s-1.9-3.1-1.9-5.6v-9.4c0-2.4 0.6-4.3 1.9-5.5 1.3-1.3 3.2-1.9 5.6-1.9s4.3 0.6 5.5 1.9 1.9 3.1 1.9 5.5v1h-3.7v-1.3c0-2.7-1.2-4-3.7-4-2.4 0-3.7 1.3-3.7 4v10c0 2.7 1.2 4 3.7 4 2.4 0 3.7-1.3 3.7-4v-1.8h3.8v1.5c0 2.4-0.6 4.3-1.9 5.6-1.3 1.2-3.2 1.9-5.6 1.9z"/>
	</g>
</g>
<g display="none">
	<g display="inline">
		<path d="M19.5,25.9l-2.1,3.2V40h-4V7.5h4v15.7l9.6-15.7H31l-9.1,14.8L31.3,40h-4.1L19.5,25.9z"/>
		<path d="M52.7,7.5l5.9,28.3l5.8-28.3h3.7L61.3,40h-5.9L48.6,7.5H52.7z"/>
		<rect x="38" y="31" width="4" height="4.5"/>
		<rect x="38" y="13.3" width="4" height="4.5"/>
	</g>
</g>
<g display="none">
	<g display="inline">
		<g>
			<path d="M20,26.9l-2.1,3.2V41h-4V8.5h4v15.7l9.6-15.7h4.1l-9.1,14.8L31.8,41h-4.1L20,26.9z"/>
			<path d="M53.2,8.5L59,36.8l5.8-28.3h3.7L61.8,41h-5.9L49.1,8.5H53.2z"/>
		</g>
		<rect x="38.5" y="36.5" width="4" height="4.5"/>
		<rect x="38.5" y="8.6" width="4" height="4.5"/>
	</g>
</g>
</svg>
