<svg xmlns="http://www.w3.org/2000/svg" height="25" fill="currentColor" viewBox="0 0 75.4 50"><path d="M22.7 38.8h-3.6c-.2-.6-.3-1.6-.4-3.2-1.1 2.4-3.1 3.6-6 3.6-1.8 0-3.2-.5-4.2-1.6-1-1-1.5-2.4-1.5-4.2s.5-3.3 1.5-4.4c1-1.2 2.6-2.2 5-3.2l4.1-2c.5-.4.8-1 .8-1.9v-.6c0-2.3-1.1-3.5-3.4-3.5-1.1 0-2 .3-2.7.9-.6.6-1 1.5-1 2.7v.7H7.7v-.5c0-2.2.6-3.8 1.9-5s3.1-1.8 5.4-1.8c4.8 0 7.2 2.4 7.2 7.1v10.4c-.1 2.9.1 5 .5 6.5zm-8.6-2.6c1.3 0 2.3-.5 3.1-1.4s1.1-2.2 1.1-3.9v-4.7c-.4.5-1.6 1.2-3.8 2.2-2.4 1.1-3.7 2.7-3.7 4.6.1 2.2 1.1 3.2 3.3 3.2zm11.6 7.7h-1.9l1.8-5h-1.4v-4.7h4.1v4.3l-2.6 5.4zM39.4 15c4.1 0 6.1 2.2 6.1 6.7v10.8c0 4.5-2 6.8-6.1 6.8-2.8 0-4.8-1.3-5.8-3.8l-.5 3.3h-2.8V6.3h3.9v11.5c1.1-1.9 2.9-2.8 5.2-2.8zm2.2 17.2V22c0-2.6-1.1-3.9-3.4-3.9-1.3 0-2.3.5-3 1.4s-1.1 2.2-1.1 3.8V31c0 1.6.4 2.9 1.1 3.8.8.9 1.8 1.4 3 1.4 2.3 0 3.4-1.3 3.4-4zm6.8 11.7h-1.9l1.8-5h-1.4v-4.7H51v4.3l-2.6 5.4zm11.4-4.6c-2.5 0-4.4-.6-5.6-1.9s-1.9-3.1-1.9-5.6v-9.4c0-2.4.6-4.3 1.9-5.5 1.3-1.3 3.2-1.9 5.6-1.9s4.3.6 5.5 1.9c1.3 1.3 1.9 3.1 1.9 5.5v1h-3.8v-1.3c0-2.7-1.2-4-3.7-4-2.4 0-3.7 1.3-3.7 4v10c0 2.7 1.2 4 3.7 4 2.4 0 3.7-1.3 3.7-4v-1.8h3.8v1.5c0 2.4-.6 4.3-1.9 5.6-1.2 1.2-3 1.9-5.5 1.9z"/></svg>
