<svg xmlns="http://www.w3.org/2000/svg" height="25" fill="currentColor" viewBox="0 0 75.4 50"><path d="M15.4 14.7a12.25 12.25 0 0 1-5 1.4v-3c3.9-.1 5.3-2 6.2-4.3h2.8v32.6h-4V14.7zm26.8 2c0 9.8-12.2 13.4-12.3 20.8v.5h11.9v3.3H26v-2.8C26 28.1 38.2 26 38.2 16.9c0-3.4-1.2-5.1-4.2-5.1-2.9 0-4.2 1.9-4.2 4.8v2.9H26v-2.7c0-5 2.5-8.3 8.1-8.3s8.1 3.3 8.1 8.2zm20.3 0v.8c0 3.4-1.5 5.7-4.4 6.7 3 1 4.4 3.5 4.4 6.7v2.5c0 5-2.6 8.2-8.1 8.2s-8.1-3.3-8.1-8.2v-2.2H50v2.5c0 2.9 1.3 4.7 4.2 4.7s4.2-1.7 4.2-5v-2.5c0-3.2-1.5-4.7-4.5-4.8h-2.2v-3.3h2.4c2.7-.1 4.3-1.6 4.3-4.5v-1.5c0-3.4-1.3-5.1-4.2-5.1S50 13.5 50 16.4v1.7h-3.8v-1.5c0-5 2.6-8.2 8.1-8.2 5.6.1 8.2 3.3 8.2 8.3z"/></svg>
