<svg xmlns="http://www.w3.org/2000/svg" height="25" fill="currentColor" viewBox="0 0 75.3 50"><path d="M17.9 9.4c4.4.6 6.4 3.6 6.4 8v.9h-3.8v-1.1c0-2.9-1.3-4.7-4.2-4.7-2.8 0-4.1 1.8-4.1 4.7 0 7.3 12.1 7.4 12.1 16.5 0 4.4-2.1 7.5-6.4 8v2.5h-3.3v-2.5c-4.5-.6-6.5-3.6-6.5-8v-2h3.8V34c0 2.9 1.3 4.6 4.2 4.6s4.2-1.7 4.2-4.6c0-7.3-12.1-7.4-12.1-16.5 0-4.5 2-7.4 6.3-8V6.8h3.3l.1 2.6zm16.8 2.9c-2.8 0-3.7 1.3-3.7 4.2v18.2c0 2.8.9 4.2 3.7 4.2h1.2v3h-1.4c-5.5 0-7.4-2.3-7.4-7.2V16.5c0-4.9 1.9-7.2 7.4-7.2h1.4v3h-1.2zm7.8 25.1v4.5h-3.9v-4.5h3.9zm7.5 0v4.5h-3.9v-4.5H50zm7.5 0v4.5h-3.9v-4.5h3.9zm4.2-28.1c5.5 0 7.4 2.3 7.4 7.2v18.2c0 4.9-1.9 7.2-7.4 7.2h-1.4v-3h1.2c2.8 0 3.7-1.4 3.7-4.2V16.5c0-2.8-.9-4.2-3.7-4.2h-1.2v-3h1.4z"/></svg>
