<svg xmlns="http://www.w3.org/2000/svg" height="25" fill="currentColor" viewBox="0 0 75.3 50"><path d="M21.9 39.1h-3.6c-.2-.6-.3-1.6-.4-3.2-1.1 2.4-3.1 3.6-6 3.6-1.8 0-3.2-.5-4.2-1.6-1-1-1.5-2.4-1.5-4.2s.5-3.3 1.5-4.4c1-1.2 2.6-2.2 5-3.2l4.1-2c.5-.4.8-1 .8-1.9v-.6c0-2.3-1.1-3.5-3.4-3.5-1.1 0-2 .3-2.7.9-.6.6-1 1.5-1 2.7v.7H6.9v-.5c0-2.2.6-3.8 1.9-5s3.1-1.8 5.4-1.8c4.8 0 7.2 2.4 7.2 7.1v10.4c0 2.9.1 5 .5 6.5zm-8.6-2.6c1.3 0 2.3-.5 3.1-1.4s1.1-2.2 1.1-3.9v-4.7c-.4.5-1.6 1.2-3.8 2.2-2.4 1.1-3.7 2.7-3.7 4.6.1 2.1 1.1 3.2 3.3 3.2zm14.2 11.9h-3.4V1.9h3.4v46.5zm12-33.1c4.1 0 6.1 2.3 6.1 6.7v10.8c0 4.5-2 6.8-6.1 6.8-2.8 0-4.8-1.3-5.8-3.8l-.5 3.3h-2.8V6.6h3.9V18c1.1-1.8 2.9-2.7 5.2-2.7zm2.2 17.2V22.3c0-2.6-1.1-3.9-3.4-3.9-1.3 0-2.3.5-3 1.4-.8.9-1.1 2.2-1.1 3.8v7.7c0 1.6.4 2.9 1.1 3.8.8.9 1.8 1.4 3 1.4 2.3 0 3.4-1.3 3.4-4zm9.7 15.9H48V1.9h3.4v46.5zm9.9-8.8c-2.5 0-4.4-.6-5.6-1.9s-1.9-3.1-1.9-5.6v-9.4c0-2.4.6-4.3 1.9-5.5 1.3-1.3 3.2-1.9 5.6-1.9s4.3.6 5.5 1.9 1.9 3.1 1.9 5.5v1H65v-1.3c0-2.7-1.2-4-3.7-4-2.4 0-3.7 1.3-3.7 4v10c0 2.7 1.2 4 3.7 4 2.4 0 3.7-1.3 3.7-4v-1.8h3.8v1.5c0 2.4-.6 4.3-1.9 5.6-1.3 1.2-3.2 1.9-5.6 1.9z"/></svg>
