<svg xmlns="http://www.w3.org/2000/svg" height="25" fill="currentColor" viewBox="0 0 75.3 50"><path d="M61.4 18.2c0 9.4-4.6 18.9-12.9 18.9-3.4 0-5.1-1.8-5.2-4.4-1.5 3-4.2 4.8-8.2 4.7-6.1-.1-7.9-4.5-7.2-9.5l.8-6.2c.7-5.2 3.6-9 9.5-9 3.6.1 6 1.6 6.9 4.4l.5-4.1h3.1l-2.3 18c-.2 1.7.4 3.7 2.9 3.7 7.4-.1 9.4-10.5 9.4-16.4 0-9.5-5.4-15.4-17.5-15.4-16.7 0-23.7 11.8-23.7 25.5 0 11.6 6.4 18.3 20.6 18.3 5 0 9.9-.9 14.1-3.6l-.2 2.6c-4.3 2.4-9 3.3-14.1 3.3-16.2 0-23.5-7.9-23.5-20.7C14.4 14 22.4.6 41.3.6c14.3 0 20.1 7.2 20.1 17.6zm-29.7 4L31 28c-.5 3.6.7 7 5.4 7 4.7.1 6.8-3.2 7.3-7l.8-6c.5-3.5-1-6.5-5.5-6.5-4.6-.1-6.8 2.9-7.3 6.7z"/><path d="M37.9 49.6c-8.2 0-14.3-2-18.2-5.7-4-3.7-5.9-9.1-5.8-15.6 0-7.3 2-14.3 6.5-19.6C24.7 3.4 31.7 0 41.3 0c7.3 0 12.5 1.8 15.8 5.1 3.4 3.2 4.9 7.8 4.8 13.2 0 9.5-4.7 19.4-13.5 19.5-2.9 0-4.8-1.3-5.5-3.3-1.7 2.3-4.3 3.7-7.7 3.7H35c-2.8 0-4.8-.9-6.1-2.4s-1.8-3.5-1.8-5.7c0-.7 0-1.4.1-2l.8-6.2c.6-5.3 3.9-9.5 10-9.5h.2c2.9 0 5.2 1 6.5 2.9l.3-2.6h4.3L47 31.1v.6c.1 1.4.5 2.4 2.3 2.5 3.3 0 5.5-2.3 6.9-5.5s1.9-7.1 1.9-10v-.3c-.1-9.3-5-14.8-17-14.9C24.8 3.5 18 14.9 18 28.4c.1 11.3 6 17.6 20 17.7 4.9 0 9.7-.9 13.8-3.5l1-.7-.4 4.1-.3.2c-4.3 2.5-9.1 3.4-14.2 3.4zM15 28.3c.1 12.6 6.9 20.1 22.9 20.1 4.9 0 9.4-.8 13.5-3.1l.1-1.1c-4.1 2.3-8.8 3.1-13.4 3.1-7.2 0-12.5-1.7-16-5s-5.2-8-5.2-13.9c0-6.9 1.8-13.4 5.7-18.2 4-4.8 10.1-7.8 18.6-7.8 6.2 0 10.7 1.5 13.7 4.3s4.4 6.8 4.4 11.7v.3c0 3.1-.5 7.1-2 10.5s-4 6.2-8 6.2c-1.2 0-2.2-.5-2.7-1.2-.6-.7-.8-1.6-.8-2.5 0-.3 0-.5.1-.7L48 13.8h-1.9l-.5 3.6-1.2.1c-.9-2.6-2.8-3.9-6.3-4H38c-5.5 0-8.1 3.5-8.8 8.4l-.8 6.2c-.1.6-.1 1.3-.1 1.9.1 4 1.7 6.8 6.7 7h.2c3.5 0 5.9-1.5 7.3-4.1-1.3 1.7-3.2 2.9-6 2.8h-.1c-2.2 0-3.8-.7-4.8-1.9s-1.4-2.7-1.4-4.3c0-.5 0-1 .1-1.5l.7-5.9.6.1-.6-.1c.5-4 3-7.3 7.9-7.2 2.1 0 3.7.6 4.7 1.8 1 1.1 1.5 2.6 1.5 4.2 0 .4 0 .8-.1 1.3l-.8 6c-.1.9-.3 1.7-.6 2.5l.1 2.1c.2 2.3 1.4 3.7 4.6 3.8 7.8 0 12.3-9.1 12.3-18.3.1-10.3-5.2-17-19.3-17.1C22.7 1.2 15 14.1 15 28.3zm16.6-.2c-.1.5-.1.9-.1 1.3.1 2.9 1.1 5 4.9 5h.1c4.3 0 6-2.9 6.5-6.5l.8-6c0-.4.1-.8.1-1.1-.1-2.8-1.3-4.7-5-4.8-4.3 0-6.2 2.6-6.7 6.2l-.6 5.9z"/></svg>
