<svg width="322" height="113" viewBox="0 0 322 113" fill="none" xmlns="http://www.w3.org/2000/svg">
<path d="M105.838 93.507C103.82 90.952 100.664 88.697 98.1392 87.019C92.6932 83.398 87.7242 80.816 82.3092 78.812L56.7642 8.313C56.6212 7.862 56.0152 6.117 54.7232 4.347C52.6492 1.503 49.8682 0 46.6832 0C43.4962 0 40.7152 1.503 38.6402 4.348C37.3512 6.116 36.7452 7.86 36.6012 8.313L0.164237 108.581C-0.347763 109.987 0.377237 111.543 1.78424 112.055C2.09024 112.167 2.40324 112.22 2.71124 112.22C3.56724 112.22 4.37824 111.808 4.89024 111.114C4.97524 111.01 5.05524 110.9 5.12624 110.78C10.5762 101.587 18.3372 93.886 27.5712 88.51C37.0822 82.972 47.9622 80.044 59.0352 80.044C64.0712 80.044 69.0322 80.645 73.8302 81.808L73.8292 81.812C75.2852 82.203 76.7162 82.629 78.0852 83.08L82.7422 95.972L82.7522 96C82.7712 96.05 84.6372 101.04 85.9862 104.445C87.5692 108.44 90.4672 111.093 94.1482 111.916C94.9162 112.088 95.7022 112.172 96.4912 112.172C99.4542 112.172 102.463 110.992 104.739 108.857C107.056 106.684 108.299 103.914 108.336 100.846C108.366 98.232 107.456 95.557 105.838 93.507ZM24.8432 83.825C19.8322 86.743 15.2212 90.291 11.1222 94.355L41.7722 9.952C41.7792 9.928 42.2352 8.638 43.1052 7.434C44.0392 6.142 45.0702 5.424 46.6822 5.424C48.2922 5.424 49.3452 6.153 50.2692 7.436C51.1272 8.626 51.5592 9.85 51.5952 9.96L75.7752 76.706C70.3542 75.335 64.7382 74.623 59.0342 74.623C47.0052 74.623 35.1822 77.805 24.8432 83.825ZM101.028 104.902C99.4372 106.394 97.2552 107.054 95.3322 106.624C93.4312 106.199 91.9432 104.755 91.0292 102.448C89.7352 99.181 87.9492 94.412 87.8392 94.116L84.8002 85.705C88.2162 87.266 91.5622 89.16 95.1362 91.537C97.3262 92.993 100.037 94.915 101.581 96.87C102.951 98.604 103.934 102.175 101.028 104.902Z" fill="url(#paint0_linear)"/>
<path d="M109.405 42.8768H106.514L103.727 36.5868H90.7742L87.9522 42.8768H85.1982L96.0442 18.9058H98.5612L109.405 42.8768ZM97.2682 22.0678L91.8282 34.2068H102.674L97.2682 22.0678Z" fill="#333333"/>
<path d="M130.36 32.7111C130.36 34.4561 130.122 35.9861 129.645 37.3011C129.169 38.6151 128.495 39.7151 127.623 40.5991C126.75 41.4831 125.707 42.1462 124.495 42.5882C123.282 43.0292 121.928 43.2511 120.432 43.2511C118.958 43.2511 117.616 43.0292 116.404 42.5882C115.191 42.1462 114.148 41.4882 113.275 40.6152C112.403 39.7432 111.728 38.6611 111.253 37.3691C110.778 36.0771 110.539 34.5931 110.539 32.9151V19.0771H113.225V32.7451C113.225 35.3291 113.866 37.3121 115.146 38.6941C116.426 40.0771 118.211 40.7682 120.501 40.7682C122.699 40.7682 124.445 40.1112 125.737 38.7962C127.029 37.4812 127.675 35.5212 127.675 32.9142V19.0771H130.362V32.7111H130.36Z" fill="#333333"/>
<path d="M143.654 42.8771H140.968V21.5581H132.978V19.0771H151.644V21.5581H143.654V42.8771V42.8771Z" fill="#333333"/>
<path d="M175.507 35.6509C174.917 37.1359 174.09 38.4449 173.025 39.5789C171.96 40.7119 170.679 41.6129 169.183 42.2809C167.687 42.9499 166.033 43.2849 164.219 43.2849C162.405 43.2849 160.756 42.9559 159.272 42.2989C157.788 41.6419 156.512 40.7519 155.447 39.6299C154.382 38.5079 153.56 37.2039 152.982 35.7199C152.404 34.2359 152.115 32.6659 152.115 31.0109C152.115 29.3569 152.41 27.7859 153 26.3019C153.589 24.8179 154.416 23.5089 155.481 22.3749C156.546 21.2409 157.828 20.3409 159.323 19.6719C160.819 19.0029 162.473 18.6689 164.288 18.6689C166.1 18.6689 167.75 18.9969 169.234 19.6539C170.718 20.3119 171.994 21.2019 173.059 22.3229C174.124 23.4449 174.946 24.7489 175.524 26.2329C176.102 27.7179 176.391 29.2879 176.391 30.9419C176.391 32.5969 176.096 34.1669 175.507 35.6509ZM172.905 27.1689C172.44 25.9679 171.789 24.9249 170.951 24.0409C170.112 23.1559 169.12 22.4539 167.975 21.9329C166.83 21.4119 165.579 21.1509 164.218 21.1509C162.857 21.1509 161.606 21.4059 160.461 21.9169C159.315 22.4269 158.336 23.1239 157.52 24.0079C156.705 24.8919 156.064 25.9289 155.599 27.1189C155.134 28.3079 154.902 29.5839 154.902 30.9429C154.902 32.3029 155.134 33.5849 155.599 34.7859C156.064 35.9869 156.715 37.0289 157.554 37.9139C158.392 38.7979 159.384 39.5009 160.529 40.0209C161.674 40.5419 162.926 40.8029 164.287 40.8029C165.646 40.8029 166.898 40.5479 168.044 40.0379C169.189 39.5269 170.169 38.8309 170.984 37.9459C171.8 37.0619 172.44 36.0249 172.905 34.8359C173.37 33.6459 173.602 32.3709 173.602 31.0109C173.603 29.6499 173.37 28.3699 172.905 27.1689Z" fill="#333333"/>
<path d="M191.645 36.3482H191.509L182.839 23.6322V42.8762H180.221V19.0762H182.941L191.611 32.0632L200.281 19.0762H203.001V42.8762H200.314V23.5982L191.645 36.3482Z" fill="#333333"/>
<path d="M229.86 42.8768H226.969L224.182 36.5868H211.228L208.406 42.8768H205.652L216.498 18.9058H219.015L229.86 42.8768ZM217.722 22.0678L212.282 34.2068H223.128L217.722 22.0678Z" fill="#333333"/>
<path d="M238.226 42.8771H235.54V21.5581H227.55V19.0771H246.216V21.5581H238.226V42.8771V42.8771Z" fill="#333333"/>
<path d="M251.847 19.0771V42.8771H249.16V19.0771H251.847Z" fill="#333333"/>
<path d="M279.291 35.6509C278.701 37.1359 277.874 38.4449 276.809 39.5789C275.744 40.7119 274.463 41.6129 272.967 42.2809C271.471 42.9499 269.817 43.2849 268.003 43.2849C266.189 43.2849 264.54 42.9559 263.056 42.2989C261.572 41.6419 260.296 40.7519 259.231 39.6299C258.166 38.5079 257.344 37.2039 256.766 35.7199C256.188 34.2359 255.899 32.6659 255.899 31.0109C255.899 29.3569 256.194 27.7859 256.784 26.3019C257.373 24.8179 258.2 23.5089 259.265 22.3749C260.33 21.2409 261.612 20.3409 263.107 19.6719C264.603 19.0029 266.257 18.6689 268.072 18.6689C269.884 18.6689 271.534 18.9969 273.018 19.6539C274.502 20.3119 275.778 21.2019 276.843 22.3229C277.908 23.4449 278.73 24.7489 279.308 26.2329C279.886 27.7179 280.175 29.2879 280.175 30.9419C280.175 32.5969 279.88 34.1669 279.291 35.6509ZM276.69 27.1689C276.225 25.9679 275.574 24.9249 274.736 24.0409C273.897 23.1559 272.905 22.4539 271.76 21.9329C270.615 21.4119 269.364 21.1509 268.003 21.1509C266.642 21.1509 265.391 21.4059 264.246 21.9169C263.1 22.4269 262.121 23.1239 261.305 24.0079C260.49 24.8919 259.849 25.9289 259.384 27.1189C258.919 28.3079 258.687 29.5839 258.687 30.9429C258.687 32.3029 258.919 33.5849 259.384 34.7859C259.849 35.9869 260.5 37.0289 261.339 37.9139C262.177 38.7979 263.169 39.5009 264.314 40.0209C265.459 40.5419 266.711 40.8029 268.072 40.8029C269.431 40.8029 270.683 40.5479 271.829 40.0379C272.974 39.5269 273.954 38.8309 274.769 37.9459C275.585 37.0619 276.225 36.0249 276.69 34.8359C277.155 33.6459 277.387 32.3709 277.387 31.0109C277.387 29.6499 277.155 28.3699 276.69 27.1689Z" fill="#333333"/>
<path d="M301.513 19.0771H304.131V42.8771H301.988L286.621 23.3601V42.8771H284.003V19.0771H286.519L301.513 38.1502V19.0771V19.0771Z" fill="#333333"/>
<path d="M116.986 54.9067H121.814L132.014 78.8767H126.54L124.363 73.5387H114.3L112.124 78.8767H106.786L116.986 54.9067ZM122.494 68.9147L119.332 61.1967L116.17 68.9147H122.494Z" fill="#333333"/>
<path d="M133.685 55.0771H138.512L149.664 69.7312V55.0771H154.832V78.8771H150.378L138.853 63.7472V78.8771H133.685V55.0771V55.0771Z" fill="#333333"/>
<path d="M165.432 69.4931L156.286 55.0771H162.406L168.084 64.6311L173.864 55.0771H179.813L170.667 69.3911V78.8761H165.431V69.4931H165.432Z" fill="#333333"/>
<path d="M180.402 55.0768H186.012L190.942 71.1928L196.281 55.0078H200.768L206.106 71.1928L211.037 55.0768H216.511L208.385 79.0468H203.829L198.457 63.4758L193.085 79.0468H188.529L180.402 55.0768Z" fill="#333333"/>
<path d="M218.262 55.0771H223.497V64.4952H233.153V55.0771H238.389V78.8771H233.153V69.3231H223.497V78.8771H218.262V55.0771Z" fill="#333333"/>
<path d="M242.524 55.0771H260.442V59.7351H247.692V64.5632H258.912V69.2211H247.692V74.2182H260.612V78.8761H242.524V55.0771V55.0771Z" fill="#333333"/>
<path d="M263.859 55.0771H274.739C277.753 55.0771 280.065 55.8821 281.675 57.4911C283.035 58.8511 283.715 60.6651 283.715 62.9311V62.9981C283.715 64.9251 283.244 66.4951 282.304 67.7071C281.364 68.9201 280.133 69.8101 278.616 70.3761L284.429 78.8761H278.309L273.209 71.2602H273.141H269.095V78.8761H263.86V55.0771H263.859ZM274.399 66.6362C275.691 66.6362 276.682 66.3302 277.374 65.7182C278.065 65.1072 278.411 64.2901 278.411 63.2711V63.2031C278.411 62.0701 278.048 61.2201 277.323 60.6531C276.597 60.0871 275.589 59.8021 274.297 59.8021H269.095V66.6362H274.399Z" fill="#333333"/>
<path d="M286.794 55.0771H304.712V59.7351H291.962V64.5632H303.182V69.2211H291.962V74.2182H304.882V78.8761H286.794V55.0771Z" fill="#333333"/>
<path d="M310.172 17.9421H307.808V17.1021H313.503V17.9421H311.139V24H310.172V17.9421V17.9421Z" fill="#BBBDBF"/>
<path d="M314.831 17.1021H315.847L317.429 20.8341C317.585 21.2151 317.77 21.7629 317.77 21.7629H317.79C317.79 21.7629 317.975 21.2151 318.131 20.8341L319.713 17.1021H320.729L321.286 24H320.328L319.987 19.6528C319.958 19.232 319.978 18.6368 319.978 18.6368H319.958C319.958 18.6368 319.753 19.2718 319.586 19.6528L318.209 22.759H317.349L315.981 19.6528C315.825 19.281 315.609 18.6169 315.609 18.6169H315.59C315.59 18.6169 315.599 19.232 315.57 19.6528L315.238 24H314.271L314.831 17.1021Z" fill="#BBBDBF"/>
<defs>
<linearGradient id="paint0_linear" x1="0.000236979" y1="56.1099" x2="108.336" y2="56.1099" gradientUnits="userSpaceOnUse">
<stop stop-color="#FBD900"/>
<stop offset="0.0342" stop-color="#FACE03"/>
<stop offset="0.1662" stop-color="#F6AA0D"/>
<stop offset="0.3049" stop-color="#F28B16"/>
<stop offset="0.4501" stop-color="#EF741D"/>
<stop offset="0.6046" stop-color="#ED6321"/>
<stop offset="0.7748" stop-color="#EC5924"/>
<stop offset="0.991" stop-color="#EC5625"/>
<stop offset="1" stop-color="#EC5625"/>
</linearGradient>
</defs>
</svg>
