<?xml version="1.0" encoding="UTF-8"?>
<svg fill="none" viewBox="0 0 240 102" xmlns="http://www.w3.org/2000/svg">
<path d="m7.764 10.848c-0.08-0.192-0.188-0.436-0.324-0.732-0.128-0.296-0.268-0.616-0.42-0.96s-0.316-0.696-0.492-1.056c-0.168-0.368-0.328-0.712-0.48-1.032-0.152-0.328-0.296-0.62-0.432-0.876-0.128-0.256-0.232-0.452-0.312-0.588-0.088 0.944-0.16 1.968-0.216 3.072-0.056 1.096-0.104 2.204-0.144 3.324h-1.14c0.032-0.72 0.068-1.444 0.108-2.172 0.04-0.736 0.084-1.456 0.132-2.16 0.056-0.712 0.112-1.404 0.168-2.076 0.064-0.672 0.132-1.308 0.204-1.908h1.02c0.216 0.352 0.448 0.768 0.696 1.248s0.496 0.984 0.744 1.512c0.248 0.52 0.488 1.044 0.72 1.572 0.232 0.52 0.444 0.996 0.636 1.428 0.192-0.432 0.404-0.908 0.636-1.428 0.232-0.528 0.472-1.052 0.72-1.572 0.248-0.528 0.496-1.032 0.744-1.512s0.48-0.896 0.696-1.248h1.02c0.272 2.68 0.476 5.452 0.612 8.316h-1.14c-0.04-1.12-0.088-2.228-0.144-3.324-0.056-1.104-0.128-2.128-0.216-3.072-0.08 0.136-0.188 0.332-0.324 0.588-0.128 0.256-0.268 0.548-0.42 0.876-0.152 0.32-0.316 0.664-0.492 1.032-0.168 0.36-0.328 0.712-0.48 1.056s-0.296 0.664-0.432 0.96c-0.128 0.296-0.232 0.54-0.312 0.732h-0.936zm8.7611 0.348c0.264 0 0.496-4e-3 0.696-0.012 0.208-0.016 0.38-0.04 0.516-0.072v-1.86c-0.08-0.04-0.212-0.072-0.396-0.096-0.176-0.032-0.392-0.048-0.648-0.048-0.168 0-0.348 0.012-0.54 0.036-0.184 0.024-0.356 0.076-0.516 0.156-0.152 0.072-0.28 0.176-0.384 0.312-0.104 0.128-0.156 0.3-0.156 0.516 0 0.4 0.128 0.68 0.384 0.84 0.256 0.152 0.604 0.228 1.044 0.228zm-0.096-5.592c0.448 0 0.824 0.06 1.128 0.18 0.312 0.112 0.56 0.276 0.744 0.492 0.192 0.208 0.328 0.46 0.408 0.756 0.08 0.288 0.12 0.608 0.12 0.96v3.9c-0.096 0.016-0.232 0.04-0.408 0.072-0.168 0.024-0.36 0.048-0.576 0.072s-0.452 0.044-0.708 0.06c-0.248 0.024-0.496 0.036-0.744 0.036-0.352 0-0.676-0.036-0.972-0.108s-0.552-0.184-0.768-0.336c-0.216-0.16-0.384-0.368-0.504-0.624s-0.18-0.564-0.18-0.924c0-0.344 0.068-0.64 0.204-0.888 0.144-0.248 0.336-0.448 0.576-0.6s0.52-0.264 0.84-0.336 0.656-0.108 1.008-0.108c0.112 0 0.228 8e-3 0.348 0.024 0.12 8e-3 0.232 0.024 0.336 0.048 0.112 0.016 0.208 0.032 0.288 0.048s0.136 0.028 0.168 0.036v-0.312c0-0.184-0.02-0.364-0.06-0.54-0.04-0.184-0.112-0.344-0.216-0.48-0.104-0.144-0.248-0.256-0.432-0.336-0.176-0.088-0.408-0.132-0.696-0.132-0.368 0-0.692 0.028-0.972 0.084-0.272 0.048-0.476 0.1-0.612 0.156l-0.132-0.924c0.144-0.064 0.384-0.124 0.72-0.18 0.336-0.064 0.7-0.096 1.092-0.096zm6.9656 6.54c-0.504 0-0.948-0.08-1.332-0.24-0.376-0.16-0.696-0.384-0.96-0.672-0.256-0.288-0.448-0.628-0.576-1.02-0.128-0.4-0.192-0.84-0.192-1.32s0.068-0.92 0.204-1.32c0.144-0.4 0.344-0.744 0.6-1.032 0.256-0.296 0.568-0.524 0.936-0.684 0.376-0.168 0.792-0.252 1.248-0.252 0.28 0 0.56 0.024 0.84 0.072s0.548 0.124 0.804 0.228l-0.252 0.948c-0.168-0.08-0.364-0.144-0.588-0.192-0.216-0.048-0.448-0.072-0.696-0.072-0.624 0-1.104 0.196-1.44 0.588-0.328 0.392-0.492 0.964-0.492 1.716 0 0.336 0.036 0.644 0.108 0.924 0.08 0.28 0.2 0.52 0.36 0.72 0.168 0.2 0.38 0.356 0.636 0.468 0.256 0.104 0.568 0.156 0.936 0.156 0.296 0 0.564-0.028 0.804-0.084s0.428-0.116 0.564-0.18l0.156 0.936c-0.064 0.04-0.156 0.08-0.276 0.12-0.12 0.032-0.256 0.06-0.408 0.084-0.152 0.032-0.316 0.056-0.492 0.072-0.168 0.024-0.332 0.036-0.492 0.036z" fill="#686076"/>
<g filter="url(#f)">
<rect x="3" y="27" width="40" height="40" rx="8" fill="url(#c)"/>
<rect x="3.75" y="27.75" width="38.5" height="38.5" rx="7.25" stroke="#DEDBE3" stroke-width="1.5"/>
<path d="m17.469 56.384c-0.733 0-1.4035-0.179-2.0114-0.5369-0.608-0.3636-1.0909-0.8494-1.4489-1.4574-0.3579-0.608-0.5369-1.2756-0.5369-2.0028 0-0.7387 0.179-1.4091 0.5369-2.0114 0.358-0.608 0.8409-1.0938 1.4489-1.4574 0.6079-0.3636 1.2756-0.5454 2.0028-0.5454h1.6875v-2.216h-1.6875c-0.7272 0-1.3949-0.1789-2.0028-0.5369-0.608-0.3579-1.0909-0.8381-1.4489-1.4403-0.3579-0.608-0.5369-1.2813-0.5369-2.0199s0.179-1.4091 0.5369-2.0114c0.358-0.6022 0.8409-1.0824 1.4489-1.4403 0.6079-0.3637 1.2756-0.5455 2.0028-0.5455 0.7443 0 1.4176 0.1818 2.0199 0.5455 0.608 0.3579 1.0909 0.8381 1.4489 1.4403 0.3636 0.6023 0.5454 1.2728 0.5454 2.0114v1.6619h2.2245v-1.6619c0-0.7386 0.1789-1.4091 0.5369-2.0114 0.358-0.6022 0.8381-1.0824 1.4403-1.4403 0.608-0.3637 1.2784-0.5455 2.0114-0.5455 0.7386 0 1.4091 0.1818 2.0114 0.5455 0.6079 0.3579 1.0909 0.8381 1.4488 1.4403 0.358 0.6023 0.537 1.2728 0.537 2.0114s-0.179 1.4119-0.537 2.0199c-0.3579 0.6022-0.8409 1.0824-1.4488 1.4403-0.6023 0.358-1.2728 0.5369-2.0114 0.5369h-1.6619v2.216h1.6619c0.7386 0 1.4091 0.1818 2.0114 0.5454 0.6079 0.3636 1.0909 0.8494 1.4488 1.4574 0.358 0.6023 0.537 1.2727 0.537 2.0114 0 0.7329-0.179 1.4034-0.537 2.0113-0.3579 0.6023-0.8409 1.0853-1.4488 1.4489-0.6023 0.3579-1.2728 0.5369-2.0114 0.5369-0.733 0-1.4034-0.179-2.0114-0.5369-0.6022-0.3636-1.0823-0.8494-1.4403-1.4574s-0.5369-1.2756-0.5369-2.0028v-1.679h-2.2245v1.679c0 0.7272-0.1818 1.3948-0.5454 2.0028-0.358 0.608-0.8409 1.0938-1.4489 1.4574-0.6023 0.3579-1.2727 0.5369-2.0113 0.5369zm-0.0086-2.3352c0.3125 0 0.5938-0.0739 0.8438-0.2216 0.2557-0.1477 0.4602-0.3494 0.6136-0.6051s0.2301-0.5341 0.2301-0.8352v-1.679h-1.6789c-0.3069 0-0.5881 0.0767-0.8438 0.2301-0.25 0.1477-0.4517 0.3494-0.6051 0.6051-0.1477 0.2557-0.2216 0.5369-0.2216 0.8438 0 0.3011 0.0739 0.5795 0.2216 0.8352 0.1534 0.2557 0.3551 0.4574 0.6051 0.6051 0.2557 0.1477 0.5341 0.2216 0.8352 0.2216zm0-10.227h1.6875v-1.6619c0-0.3068-0.0767-0.5852-0.2301-0.8352-0.1534-0.2557-0.3579-0.4574-0.6136-0.6051-0.25-0.1478-0.5313-0.2216-0.8438-0.2216-0.3011 0-0.5795 0.0738-0.8352 0.2216-0.25 0.1477-0.4517 0.3494-0.6051 0.6051-0.1477 0.25-0.2216 0.5284-0.2216 0.8352s0.0739 0.5881 0.2216 0.8437c0.1534 0.25 0.3551 0.4489 0.6051 0.5966 0.2557 0.1478 0.5341 0.2216 0.8352 0.2216zm8.5654 0h1.6619c0.3125 0 0.5937-0.0738 0.8437-0.2216 0.25-0.1477 0.4489-0.3466 0.5966-0.5966 0.1535-0.2556 0.2302-0.5369 0.2302-0.8437s-0.0767-0.5852-0.2302-0.8352c-0.1477-0.2557-0.3466-0.4574-0.5966-0.6051-0.25-0.1478-0.5312-0.2216-0.8437-0.2216-0.3068 0-0.5881 0.0738-0.8437 0.2216-0.25 0.1477-0.4489 0.3494-0.5966 0.6051-0.1478 0.25-0.2216 0.5284-0.2216 0.8352v1.6619zm1.6704 10.227c0.3068 0 0.5852-0.0739 0.8352-0.2216s0.4489-0.3494 0.5966-0.6051c0.1535-0.2557 0.2302-0.5341 0.2302-0.8352 0-0.3069-0.0767-0.5881-0.2302-0.8438-0.1477-0.2557-0.3466-0.4574-0.5966-0.6051-0.25-0.1534-0.5312-0.2301-0.8437-0.2301h-1.6619v1.679c0 0.3068 0.0738 0.588 0.2216 0.8437 0.1477 0.25 0.3466 0.4489 0.5966 0.5966 0.2556 0.1477 0.5397 0.2216 0.8522 0.2216zm-6.2216-5.6761h2.2245v-2.216h-2.2245v2.216z" fill="#383342"/>
</g>
<path d="m51.954 47.898h3.402v-3.708h1.44v3.708h3.402v1.422h-3.402v3.726h-1.44v-3.726h-3.402v-1.422z" fill="#383342"/>
<g filter="url(#e)">
<rect x="70" y="27" width="41" height="40" rx="8" fill="url(#b)"/>
<rect x="70.75" y="27.75" width="39.5" height="38.5" rx="7.25" stroke="#DEDBE3" stroke-width="1.5"/>
<path d="m92.199 38.546h8.1651v2.8806h-8.1651v-2.8806zm-12.017 2.8806v-2.8806h7.2443l7.3637 14.574h5.5742v2.8807h-7.2447l-7.3551-14.574h-5.5824z" fill="#383342"/>
</g>
<path d="m119.95 47.898h3.402v-3.708h1.44v3.708h3.402v1.422h-3.402v3.726h-1.44v-3.726h-3.402v-1.422z" fill="#383342"/>
<g filter="url(#d)">
<rect x="138" y="27" width="40" height="40" rx="8" fill="url(#a)"/>
<rect x="138.75" y="27.75" width="38.5" height="38.5" rx="7.25" stroke="#DEDBE3" stroke-width="1.5"/>
<path d="M155.92 39.368H159.664V56H155.92V39.368Z" fill="#383342"/>
</g>
<path d="m9.144 96.24c-0.77867 0-1.488-0.128-2.128-0.384s-1.1893-0.6293-1.648-1.12-0.816-1.0933-1.072-1.808c-0.24533-0.7253-0.368-1.552-0.368-2.48s0.13867-1.7493 0.416-2.464c0.288-0.7253 0.672-1.3333 1.152-1.824s1.04-0.864 1.68-1.12 1.3227-0.384 2.048-0.384c0.45867 0 0.8693 0.032 1.232 0.096 0.3733 0.064 0.6933 0.1387 0.96 0.224 0.2773 0.0853 0.5013 0.1707 0.672 0.256s0.288 0.1493 0.352 0.192l-0.448 1.28c-0.096-0.064-0.2347-0.1333-0.416-0.208s-0.3893-0.1493-0.624-0.224c-0.224-0.0747-0.4747-0.1333-0.752-0.176-0.26667-0.0533-0.53867-0.08-0.816-0.08-0.58667 0-1.1147 0.1013-1.584 0.304s-0.86933 0.496-1.2 0.88-0.58667 0.8533-0.768 1.408c-0.17067 0.544-0.256 1.1573-0.256 1.84 0 0.6613 0.07467 1.264 0.224 1.808 0.16 0.544 0.39467 1.0133 0.704 1.408 0.30933 0.384 0.69333 0.6827 1.152 0.896 0.46933 0.2133 1.0133 0.32 1.632 0.32 0.7147 0 1.3067-0.0747 1.776-0.224s0.8213-0.2827 1.056-0.4l0.4 1.28c-0.0747 0.0533-0.208 0.1227-0.4 0.208-0.192 0.0747-0.432 0.1493-0.72 0.224s-0.624 0.1387-1.008 0.192-0.8 0.08-1.248 0.08zm11.848-4.4c0 0.6613-0.096 1.2587-0.288 1.792s-0.464 0.992-0.816 1.376c-0.3413 0.384-0.752 0.6827-1.232 0.896-0.48 0.2027-1.0027 0.304-1.568 0.304s-1.088-0.1013-1.568-0.304c-0.48-0.2133-0.896-0.512-1.248-0.896-0.3413-0.384-0.608-0.8427-0.8-1.376s-0.288-1.1307-0.288-1.792c0-0.6507 0.096-1.2427 0.288-1.776 0.192-0.544 0.4587-1.008 0.8-1.392 0.352-0.384 0.768-0.6773 1.248-0.88 0.48-0.2133 1.0027-0.32 1.568-0.32s1.088 0.1067 1.568 0.32c0.48 0.2027 0.8907 0.496 1.232 0.88 0.352 0.384 0.624 0.848 0.816 1.392 0.192 0.5333 0.288 1.1253 0.288 1.776zm-1.552 0c0-0.9387-0.2133-1.68-0.64-2.224-0.416-0.5547-0.9867-0.832-1.712-0.832s-1.3013 0.2773-1.728 0.832c-0.416 0.544-0.624 1.2853-0.624 2.224s0.208 1.6853 0.624 2.24c0.4267 0.544 1.0027 0.816 1.728 0.816s1.296-0.272 1.712-0.816c0.4267-0.5547 0.64-1.3013 0.64-2.24zm3.3255-3.92c0.3413-0.0853 0.7893-0.176 1.344-0.272 0.5653-0.096 1.216-0.144 1.952-0.144 0.5333 0 0.9813 0.0747 1.344 0.224 0.3627 0.1387 0.6667 0.3467 0.912 0.624 0.0747-0.0533 0.192-0.128 0.352-0.224s0.3573-0.1867 0.592-0.272c0.2347-0.096 0.496-0.176 0.784-0.24 0.288-0.0747 0.5973-0.112 0.928-0.112 0.64 0 1.1627 0.096 1.568 0.288 0.4053 0.1813 0.72 0.4427 0.944 0.784 0.2347 0.3413 0.3893 0.7467 0.464 1.216 0.0853 0.4693 0.128 0.9813 0.128 1.536v4.672h-1.488v-4.352c0-0.4907-0.0267-0.912-0.08-1.264-0.0427-0.352-0.1333-0.6453-0.272-0.88-0.128-0.2347-0.3093-0.4053-0.544-0.512-0.224-0.1173-0.5173-0.176-0.88-0.176-0.5013 0-0.9173 0.0693-1.248 0.208-0.32 0.128-0.5387 0.2453-0.656 0.352 0.0853 0.2773 0.1493 0.5813 0.192 0.912s0.064 0.6773 0.064 1.04v4.672h-1.488v-4.352c0-0.4907-0.0267-0.912-0.08-1.264s-0.1493-0.6453-0.288-0.88c-0.128-0.2347-0.3093-0.4053-0.544-0.512-0.224-0.1173-0.512-0.176-0.864-0.176-0.1493 0-0.3093 0.0053-0.48 0.016s-0.336 0.0267-0.496 0.048c-0.1493 0.0107-0.288 0.0267-0.416 0.048s-0.2133 0.0373-0.256 0.048v7.024h-1.488v-8.08zm13.461 0c0.3413-0.0853 0.7893-0.176 1.344-0.272 0.5653-0.096 1.216-0.144 1.952-0.144 0.5333 0 0.9813 0.0747 1.344 0.224 0.3626 0.1387 0.6666 0.3467 0.912 0.624 0.0746-0.0533 0.192-0.128 0.352-0.224s0.3573-0.1867 0.592-0.272c0.2346-0.096 0.496-0.176 0.784-0.24 0.288-0.0747 0.5973-0.112 0.928-0.112 0.64 0 1.1626 0.096 1.568 0.288 0.4053 0.1813 0.72 0.4427 0.944 0.784 0.2346 0.3413 0.3893 0.7467 0.464 1.216 0.0853 0.4693 0.128 0.9813 0.128 1.536v4.672h-1.488v-4.352c0-0.4907-0.0267-0.912-0.08-1.264-0.0427-0.352-0.1334-0.6453-0.272-0.88-0.128-0.2347-0.3094-0.4053-0.544-0.512-0.224-0.1173-0.5174-0.176-0.88-0.176-0.5014 0-0.9174 0.0693-1.248 0.208-0.32 0.128-0.5387 0.2453-0.656 0.352 0.0853 0.2773 0.1493 0.5813 0.192 0.912 0.0426 0.3307 0.064 0.6773 0.064 1.04v4.672h-1.488v-4.352c0-0.4907-0.0267-0.912-0.08-1.264-0.0534-0.352-0.1494-0.6453-0.288-0.88-0.128-0.2347-0.3094-0.4053-0.544-0.512-0.224-0.1173-0.512-0.176-0.864-0.176-0.1494 0-0.3094 0.0053-0.48 0.016-0.1707 0.0107-0.336 0.0267-0.496 0.048-0.1494 0.0107-0.288 0.0267-0.416 0.048s-0.2134 0.0373-0.256 0.048v7.024h-1.488v-8.08zm16.277 7.008c0.352 0 0.6613-0.0053 0.928-0.016 0.2773-0.0213 0.5067-0.0533 0.688-0.096v-2.48c-0.1067-0.0533-0.2827-0.096-0.528-0.128-0.2347-0.0427-0.5227-0.064-0.864-0.064-0.224 0-0.464 0.016-0.72 0.048-0.2453 0.032-0.4747 0.1013-0.688 0.208-0.2027 0.096-0.3733 0.2347-0.512 0.416-0.1387 0.1707-0.208 0.4-0.208 0.688 0 0.5333 0.1707 0.9067 0.512 1.12 0.3413 0.2027 0.8053 0.304 1.392 0.304zm-0.128-7.456c0.5973 0 1.0987 0.08 1.504 0.24 0.416 0.1493 0.7467 0.368 0.992 0.656 0.256 0.2773 0.4373 0.6133 0.544 1.008 0.1067 0.384 0.16 0.8107 0.16 1.28v5.2c-0.128 0.0213-0.3093 0.0533-0.544 0.096-0.224 0.032-0.48 0.064-0.768 0.096s-0.6027 0.0587-0.944 0.08c-0.3307 0.032-0.6613 0.048-0.992 0.048-0.4693 0-0.9013-0.048-1.296-0.144s-0.736-0.2453-1.024-0.448c-0.288-0.2133-0.512-0.4907-0.672-0.832s-0.24-0.752-0.24-1.232c0-0.4587 0.0907-0.8533 0.272-1.184 0.192-0.3307 0.448-0.5973 0.768-0.8s0.6933-0.352 1.12-0.448 0.8747-0.144 1.344-0.144c0.1493 0 0.304 0.0107 0.464 0.032 0.16 0.0107 0.3093 0.032 0.448 0.064 0.1493 0.0213 0.2773 0.0427 0.384 0.064s0.1813 0.0373 0.224 0.048v-0.416c0-0.2453-0.0267-0.4853-0.08-0.72-0.0533-0.2453-0.1493-0.4587-0.288-0.64-0.1387-0.192-0.3307-0.3413-0.576-0.448-0.2347-0.1173-0.544-0.176-0.928-0.176-0.4907 0-0.9227 0.0373-1.296 0.112-0.3627 0.064-0.6347 0.1333-0.816 0.208l-0.176-1.232c0.192-0.0853 0.512-0.1653 0.96-0.24 0.448-0.0853 0.9333-0.128 1.456-0.128zm5.3514 0.448c0.3413-0.0853 0.7946-0.176 1.36-0.272 0.5653-0.096 1.216-0.144 1.952-0.144 0.6613 0 1.2106 0.096 1.648 0.288 0.4373 0.1813 0.784 0.4427 1.04 0.784 0.2666 0.3307 0.4533 0.7307 0.56 1.2 0.1066 0.4693 0.16 0.9867 0.16 1.552v4.672h-1.488v-4.352c0-0.512-0.0374-0.9493-0.112-1.312-0.064-0.3627-0.176-0.656-0.336-0.88s-0.3734-0.384-0.64-0.48c-0.2667-0.1067-0.5974-0.16-0.992-0.16-0.16 0-0.3254 0.0053-0.496 0.016-0.1707 0.0107-0.336 0.0267-0.496 0.048-0.1494 0.0107-0.288 0.0267-0.416 0.048-0.1174 0.0213-0.2027 0.0373-0.256 0.048v7.024h-1.488v-8.08zm14.244 1.52c-0.1814-0.1493-0.4427-0.2933-0.784-0.432-0.3414-0.1387-0.7147-0.208-1.12-0.208-0.4267 0-0.7947 0.08-1.104 0.24-0.2987 0.1493-0.544 0.3627-0.736 0.64-0.192 0.2667-0.3307 0.5867-0.416 0.96-0.0854 0.3733-0.128 0.7733-0.128 1.2 0 0.9707 0.24 1.7227 0.72 2.256 0.48 0.5227 1.12 0.784 1.92 0.784 0.4053 0 0.7413-0.016 1.008-0.048 0.2773-0.0427 0.4906-0.0853 0.64-0.128v-5.264zm0-5.6 1.488-0.256v12.176c-0.3414 0.096-0.7787 0.192-1.312 0.288-0.5334 0.096-1.1467 0.144-1.84 0.144-0.64 0-1.216-0.1013-1.728-0.304s-0.9494-0.4907-1.312-0.864c-0.3627-0.3733-0.6454-0.8267-0.848-1.36-0.192-0.544-0.288-1.152-0.288-1.824 0-0.64 0.08-1.2267 0.24-1.76 0.1706-0.5333 0.416-0.992 0.736-1.376s0.7093-0.6827 1.168-0.896c0.4693-0.2133 1.0026-0.32 1.6-0.32 0.48 0 0.9013 0.064 1.264 0.192 0.3733 0.128 0.6506 0.2507 0.832 0.368v-4.208zm6.677 6.736h3.024v-3.296h1.28v3.296h3.024v1.264h-3.024v3.312h-1.28v-3.312h-3.024v-1.264zm12.174-0.128c0-0.9493 0.1386-1.7867 0.416-2.512 0.288-0.7253 0.672-1.328 1.152-1.808 0.4906-0.4907 1.056-0.8587 1.696-1.104 0.6506-0.2453 1.3386-0.368 2.064-0.368 0.7146 0 1.3866 0.1227 2.016 0.368 0.64 0.2453 1.2 0.6133 1.68 1.104 0.4802 0.48 0.8582 1.0827 1.1362 1.808 0.288 0.7253 0.432 1.5627 0.432 2.512s-0.144 1.7867-0.432 2.512c-0.278 0.7253-0.656 1.3333-1.1362 1.824-0.48 0.48-1.04 0.8427-1.68 1.088-0.6294 0.2453-1.3014 0.368-2.016 0.368-0.7254 0-1.4134-0.1227-2.064-0.368-0.64-0.2453-1.2054-0.608-1.696-1.088-0.48-0.4907-0.864-1.0987-1.152-1.824-0.2774-0.7253-0.416-1.5627-0.416-2.512zm1.632 0c0 0.672 0.0853 1.2853 0.256 1.84 0.1706 0.544 0.4106 1.008 0.72 1.392 0.32 0.384 0.704 0.6827 1.152 0.896 0.4586 0.2027 0.9706 0.304 1.536 0.304 0.5653 0 1.072-0.1013 1.52-0.304 0.448-0.2133 0.8266-0.512 1.136-0.896 0.32-0.384 0.5653-0.848 0.736-1.392 0.1706-0.5547 0.256-1.168 0.256-1.84s-0.0854-1.28-0.256-1.824c-0.1707-0.5547-0.416-1.024-0.736-1.408-0.3094-0.384-0.688-0.6773-1.136-0.88-0.448-0.2133-0.9547-0.32-1.52-0.32-0.5654 0-1.0774 0.1067-1.536 0.32-0.448 0.2027-0.832 0.496-1.152 0.88-0.3094 0.384-0.5494 0.8533-0.72 1.408-0.1707 0.544-0.256 1.152-0.256 1.824zm16.629 1.408c0-0.9707-0.24-1.7173-0.72-2.24s-1.12-0.784-1.92-0.784c-0.448 0-0.8 0.016-1.056 0.048-0.245 0.032-0.443 0.0693-0.592 0.112v5.248c0.181 0.1493 0.443 0.2933 0.784 0.432s0.715 0.208 1.12 0.208c0.427 0 0.789-0.0747 1.088-0.224 0.309-0.16 0.56-0.3733 0.752-0.64 0.192-0.2773 0.331-0.5973 0.416-0.96 0.085-0.3733 0.128-0.7733 0.128-1.2zm1.552 0c0 0.6293-0.085 1.2107-0.256 1.744-0.16 0.5333-0.4 0.992-0.72 1.376s-0.715 0.6827-1.184 0.896c-0.459 0.2133-0.987 0.32-1.584 0.32-0.48 0-0.907-0.064-1.28-0.192-0.363-0.128-0.635-0.2507-0.816-0.368v3.328h-1.488v-11.024c0.352-0.0853 0.789-0.176 1.312-0.272 0.533-0.1067 1.147-0.16 1.84-0.16 0.64 0 1.216 0.1013 1.728 0.304s0.949 0.4907 1.312 0.864 0.64 0.832 0.832 1.376c0.203 0.5333 0.304 1.136 0.304 1.808zm3.166-4.176h3.152v1.248h-3.152v3.84c0 0.416 0.032 0.7627 0.096 1.04 0.064 0.2667 0.16 0.48 0.288 0.64 0.128 0.1493 0.288 0.256 0.48 0.32s0.416 0.096 0.672 0.096c0.448 0 0.805-0.048 1.072-0.144 0.277-0.1067 0.469-0.1813 0.576-0.224l0.288 1.232c-0.15 0.0747-0.411 0.1653-0.784 0.272-0.374 0.1173-0.8 0.176-1.28 0.176-0.566 0-1.035-0.0693-1.408-0.208-0.363-0.1493-0.656-0.368-0.88-0.656s-0.384-0.64-0.48-1.056c-0.086-0.4267-0.128-0.9173-0.128-1.472v-7.424l1.488-0.256v2.576zm6.213 8.32h-1.488v-8.32h1.488v8.32zm-0.752-9.824c-0.266 0-0.496-0.0853-0.688-0.256-0.181-0.1813-0.272-0.4213-0.272-0.72s0.091-0.5333 0.272-0.704c0.192-0.1813 0.422-0.272 0.688-0.272 0.267 0 0.491 0.0907 0.672 0.272 0.192 0.1707 0.288 0.4053 0.288 0.704s-0.096 0.5387-0.288 0.72c-0.181 0.1707-0.405 0.256-0.672 0.256zm10.335 5.664c0 0.6613-0.096 1.2587-0.288 1.792s-0.464 0.992-0.816 1.376c-0.341 0.384-0.752 0.6827-1.232 0.896-0.48 0.2027-1.003 0.304-1.568 0.304s-1.088-0.1013-1.568-0.304c-0.48-0.2133-0.896-0.512-1.248-0.896-0.341-0.384-0.608-0.8427-0.8-1.376s-0.288-1.1307-0.288-1.792c0-0.6507 0.096-1.2427 0.288-1.776 0.192-0.544 0.459-1.008 0.8-1.392 0.352-0.384 0.768-0.6773 1.248-0.88 0.48-0.2133 1.003-0.32 1.568-0.32s1.088 0.1067 1.568 0.32c0.48 0.2027 0.891 0.496 1.232 0.88 0.352 0.384 0.624 0.848 0.816 1.392 0.192 0.5333 0.288 1.1253 0.288 1.776zm-1.552 0c0-0.9387-0.213-1.68-0.64-2.224-0.416-0.5547-0.987-0.832-1.712-0.832s-1.301 0.2773-1.728 0.832c-0.416 0.544-0.624 1.2853-0.624 2.224s0.208 1.6853 0.624 2.24c0.427 0.544 1.003 0.816 1.728 0.816s1.296-0.272 1.712-0.816c0.427-0.5547 0.64-1.3013 0.64-2.24zm3.326-3.92c0.341-0.0853 0.794-0.176 1.36-0.272 0.565-0.096 1.216-0.144 1.952-0.144 0.661 0 1.21 0.096 1.648 0.288 0.437 0.1813 0.784 0.4427 1.04 0.784 0.266 0.3307 0.453 0.7307 0.56 1.2 0.106 0.4693 0.16 0.9867 0.16 1.552v4.672h-1.488v-4.352c0-0.512-0.038-0.9493-0.112-1.312-0.064-0.3627-0.176-0.656-0.336-0.88s-0.374-0.384-0.64-0.48c-0.267-0.1067-0.598-0.16-0.992-0.16-0.16 0-0.326 0.0053-0.496 0.016-0.171 0.0107-0.336 0.0267-0.496 0.048-0.15 0.0107-0.288 0.0267-0.416 0.048-0.118 0.0213-0.203 0.0373-0.256 0.048v7.024h-1.488v-8.08zm11.818 2.656h3.024v-3.296h1.28v3.296h3.024v1.264h-3.024v3.312h-1.28v-3.312h-3.024v-1.264zm12.623-5.664h1.552v11.088h-1.552v-11.088z" fill="#383342"/>
<defs>
<filter id="f" x="0" y="27" width="46" height="48" color-interpolation-filters="sRGB" filterUnits="userSpaceOnUse">
<feFlood flood-opacity="0" result="BackgroundImageFix"/>
<feColorMatrix in="SourceAlpha" result="hardAlpha" values="0 0 0 0 0 0 0 0 0 0 0 0 0 0 0 0 0 0 127 0"/>
<feMorphology in="SourceAlpha" operator="dilate" radius="3" result="effect1_dropShadow_2887_21312"/>
<feOffset dy="5"/>
<feComposite in2="hardAlpha" operator="out"/>
<feColorMatrix values="0 0 0 0 0.794125 0 0 0 0 0.782 0 0 0 0 0.818 0 0 0 1 0"/>
<feBlend in2="BackgroundImageFix" result="effect1_dropShadow_2887_21312"/>
<feBlend in="SourceGraphic" in2="effect1_dropShadow_2887_21312" result="shape"/>
</filter>
<filter id="e" x="67" y="27" width="47" height="48" color-interpolation-filters="sRGB" filterUnits="userSpaceOnUse">
<feFlood flood-opacity="0" result="BackgroundImageFix"/>
<feColorMatrix in="SourceAlpha" result="hardAlpha" values="0 0 0 0 0 0 0 0 0 0 0 0 0 0 0 0 0 0 127 0"/>
<feMorphology in="SourceAlpha" operator="dilate" radius="3" result="effect1_dropShadow_2887_21312"/>
<feOffset dy="5"/>
<feComposite in2="hardAlpha" operator="out"/>
<feColorMatrix values="0 0 0 0 0.794125 0 0 0 0 0.782 0 0 0 0 0.818 0 0 0 1 0"/>
<feBlend in2="BackgroundImageFix" result="effect1_dropShadow_2887_21312"/>
<feBlend in="SourceGraphic" in2="effect1_dropShadow_2887_21312" result="shape"/>
</filter>
<filter id="d" x="135" y="27" width="46" height="48" color-interpolation-filters="sRGB" filterUnits="userSpaceOnUse">
<feFlood flood-opacity="0" result="BackgroundImageFix"/>
<feColorMatrix in="SourceAlpha" result="hardAlpha" values="0 0 0 0 0 0 0 0 0 0 0 0 0 0 0 0 0 0 127 0"/>
<feMorphology in="SourceAlpha" operator="dilate" radius="3" result="effect1_dropShadow_2887_21312"/>
<feOffset dy="5"/>
<feComposite in2="hardAlpha" operator="out"/>
<feColorMatrix values="0 0 0 0 0.794125 0 0 0 0 0.782 0 0 0 0 0.818 0 0 0 1 0"/>
<feBlend in2="BackgroundImageFix" result="effect1_dropShadow_2887_21312"/>
<feBlend in="SourceGraphic" in2="effect1_dropShadow_2887_21312" result="shape"/>
</filter>
<linearGradient id="c" x1="23" x2="23" y1="27" y2="67" gradientUnits="userSpaceOnUse">
<stop stop-color="#F3F3F6" offset=".49479"/>
<stop stop-color="#DBDAE0" offset="1"/>
</linearGradient>
<linearGradient id="b" x1="90.5" x2="90.5" y1="27" y2="67" gradientUnits="userSpaceOnUse">
<stop stop-color="#F3F3F6" offset=".49479"/>
<stop stop-color="#DBDAE0" offset="1"/>
</linearGradient>
<linearGradient id="a" x1="158" x2="158" y1="27" y2="67" gradientUnits="userSpaceOnUse">
<stop stop-color="#F3F3F6" offset=".49479"/>
<stop stop-color="#DBDAE0" offset="1"/>
</linearGradient>
</defs>
</svg>
