<?xml version="1.0" encoding="UTF-8"?>
<svg fill="none" viewBox="0 0 240 102" xmlns="http://www.w3.org/2000/svg">
<path d="m8.58 6.36c-0.336 1.072-0.676 2.064-1.02 2.976s-0.688 1.8-1.032 2.664h-1.164c-0.424-1.224-0.8-2.516-1.128-3.876-0.32-1.36-0.62-2.84-0.9-4.44h1.224c0.112 0.624 0.228 1.248 0.348 1.872s0.244 1.232 0.372 1.824c0.128 0.584 0.256 1.144 0.384 1.68s0.26 1.032 0.396 1.488c0.32-0.84 0.66-1.76 1.02-2.76 0.36-1.008 0.696-2.048 1.008-3.12h1.008c0.312 1.072 0.652 2.112 1.02 3.12 0.368 1 0.712 1.92 1.032 2.76 0.128-0.448 0.256-0.94 0.384-1.476s0.252-1.096 0.372-1.68c0.128-0.592 0.252-1.2 0.372-1.824 0.12-0.632 0.236-1.26 0.348-1.884h1.188c-0.288 1.6-0.596 3.08-0.924 4.44-0.32 1.36-0.688 2.652-1.104 3.876h-1.164c-0.352-0.864-0.696-1.752-1.032-2.664s-0.672-1.904-1.008-2.976zm7.6405 5.64h-1.116v-6.24h1.116v6.24zm-0.564-7.368c-0.2 0-0.372-0.064-0.516-0.192-0.136-0.136-0.204-0.316-0.204-0.54s0.068-0.4 0.204-0.528c0.144-0.136 0.316-0.204 0.516-0.204s0.368 0.068 0.504 0.204c0.144 0.128 0.216 0.304 0.216 0.528s-0.072 0.404-0.216 0.54c-0.136 0.128-0.304 0.192-0.504 0.192zm2.4832 1.308c0.256-0.064 0.596-0.132 1.02-0.204s0.912-0.108 1.464-0.108c0.496 0 0.908 0.072 1.236 0.216 0.328 0.136 0.588 0.332 0.78 0.588 0.2 0.248 0.34 0.548 0.42 0.9s0.12 0.74 0.12 1.164v3.504h-1.116v-3.264c0-0.384-0.028-0.712-0.084-0.984-0.048-0.272-0.132-0.492-0.252-0.66s-0.28-0.288-0.48-0.36c-0.2-0.08-0.448-0.12-0.744-0.12-0.12 0-0.244 4e-3 -0.372 0.012s-0.252 0.02-0.372 0.036c-0.112 8e-3 -0.216 0.02-0.312 0.036-0.088 0.016-0.152 0.028-0.192 0.036v5.268h-1.116v-6.06zm10.923 1.14c-0.136-0.112-0.332-0.22-0.588-0.324s-0.536-0.156-0.84-0.156c-0.32 0-0.596 0.06-0.828 0.18-0.224 0.112-0.408 0.272-0.552 0.48-0.144 0.2-0.248 0.44-0.312 0.72s-0.096 0.58-0.096 0.9c0 0.728 0.18 1.292 0.54 1.692 0.36 0.392 0.84 0.588 1.44 0.588 0.304 0 0.556-0.012 0.756-0.036 0.208-0.032 0.368-0.064 0.48-0.096v-3.948zm0-4.2 1.116-0.192v9.132c-0.256 0.072-0.584 0.144-0.984 0.216s-0.86 0.108-1.38 0.108c-0.48 0-0.912-0.076-1.296-0.228s-0.712-0.368-0.984-0.648-0.484-0.62-0.636-1.02c-0.144-0.408-0.216-0.864-0.216-1.368 0-0.48 0.06-0.92 0.18-1.32 0.128-0.4 0.312-0.744 0.552-1.032s0.532-0.512 0.876-0.672c0.352-0.16 0.752-0.24 1.2-0.24 0.36 0 0.676 0.048 0.948 0.144 0.28 0.096 0.488 0.188 0.624 0.276v-3.156zm8.5424 6c0 0.496-0.072 0.944-0.216 1.344s-0.348 0.744-0.612 1.032c-0.256 0.288-0.564 0.512-0.924 0.672-0.36 0.152-0.752 0.228-1.176 0.228s-0.816-0.076-1.176-0.228c-0.36-0.16-0.672-0.384-0.936-0.672-0.256-0.288-0.456-0.632-0.6-1.032s-0.216-0.848-0.216-1.344c0-0.488 0.072-0.932 0.216-1.332 0.144-0.408 0.344-0.756 0.6-1.044 0.264-0.288 0.576-0.508 0.936-0.66 0.36-0.16 0.752-0.24 1.176-0.24s0.816 0.08 1.176 0.24c0.36 0.152 0.668 0.372 0.924 0.66 0.264 0.288 0.468 0.636 0.612 1.044 0.144 0.4 0.216 0.844 0.216 1.332zm-1.164 0c0-0.704-0.16-1.26-0.48-1.668-0.312-0.416-0.74-0.624-1.284-0.624s-0.976 0.208-1.296 0.624c-0.312 0.408-0.468 0.964-0.468 1.668s0.156 1.264 0.468 1.68c0.32 0.408 0.752 0.612 1.296 0.612s0.972-0.204 1.284-0.612c0.32-0.416 0.48-0.976 0.48-1.68zm7.6818 3.12c-0.224-0.576-0.464-1.232-0.72-1.968-0.248-0.744-0.476-1.516-0.684-2.316-0.208 0.8-0.436 1.572-0.684 2.316-0.248 0.736-0.484 1.392-0.708 1.968h-0.972c-0.368-0.824-0.728-1.764-1.08-2.82s-0.684-2.196-0.996-3.42h1.2c0.08 0.376 0.176 0.784 0.288 1.224s0.228 0.88 0.348 1.32c0.128 0.44 0.26 0.864 0.396 1.272s0.264 0.764 0.384 1.068c0.136-0.376 0.268-0.772 0.396-1.188 0.136-0.424 0.264-0.848 0.384-1.272 0.12-0.432 0.232-0.852 0.336-1.26 0.112-0.416 0.208-0.804 0.288-1.164h0.924c0.072 0.36 0.16 0.748 0.264 1.164 0.104 0.408 0.216 0.828 0.336 1.26 0.12 0.424 0.244 0.848 0.372 1.272 0.136 0.416 0.272 0.812 0.408 1.188 0.12-0.304 0.244-0.66 0.372-1.068 0.136-0.408 0.268-0.832 0.396-1.272s0.248-0.88 0.36-1.32 0.208-0.848 0.288-1.224h1.152c-0.312 1.224-0.644 2.364-0.996 3.42s-0.712 1.996-1.08 2.82h-0.972zm5.6801-0.804c0.456 0 0.792-0.06 1.008-0.18 0.224-0.12 0.336-0.312 0.336-0.576 0-0.272-0.108-0.488-0.324-0.648s-0.572-0.34-1.068-0.54c-0.24-0.096-0.472-0.192-0.696-0.288-0.216-0.104-0.404-0.224-0.564-0.36s-0.288-0.3-0.384-0.492-0.144-0.428-0.144-0.708c0-0.552 0.204-0.988 0.612-1.308 0.408-0.328 0.964-0.492 1.668-0.492 0.176 0 0.352 0.012 0.528 0.036 0.176 0.016 0.34 0.04 0.492 0.072 0.152 0.024 0.284 0.052 0.396 0.084 0.12 0.032 0.212 0.06 0.276 0.084l-0.204 0.96c-0.12-0.064-0.308-0.128-0.564-0.192-0.256-0.072-0.564-0.108-0.924-0.108-0.312 0-0.584 0.064-0.816 0.192-0.232 0.12-0.348 0.312-0.348 0.576 0 0.136 0.024 0.256 0.072 0.36 0.056 0.104 0.136 0.2 0.24 0.288 0.112 0.08 0.248 0.156 0.408 0.228s0.352 0.148 0.576 0.228c0.296 0.112 0.56 0.224 0.792 0.336 0.232 0.104 0.428 0.228 0.588 0.372 0.168 0.144 0.296 0.32 0.384 0.528 0.088 0.2 0.132 0.448 0.132 0.744 0 0.576-0.216 1.012-0.648 1.308-0.424 0.296-1.032 0.444-1.824 0.444-0.552 0-0.984-0.048-1.296-0.144-0.312-0.088-0.524-0.156-0.636-0.204l0.204-0.96c0.128 0.048 0.332 0.12 0.612 0.216s0.652 0.144 1.116 0.144z" fill="#686076"/>
<g filter="url(#f)">
<rect x="3" y="27" width="61" height="40" rx="8" fill="url(#c)"/>
<rect x="3.75" y="27.75" width="59.5" height="38.5" rx="7.25" stroke="#DEDBE3" stroke-width="1.5"/>
<path d="m27.918 44.656h-3.7329c-0.0682-0.4829-0.2074-0.9119-0.4177-1.2869-0.2102-0.3807-0.4801-0.7045-0.8096-0.9716-0.3296-0.267-0.7102-0.4716-1.1421-0.6136-0.4261-0.1421-0.8892-0.2131-1.3892-0.2131-0.9034 0-1.6903 0.2245-2.3608 0.6733-0.6704 0.4432-1.1903 1.0909-1.5596 1.9432-0.3693 0.8466-0.554 1.875-0.554 3.0852 0 1.2443 0.1847 2.2898 0.554 3.1364 0.375 0.8466 0.8977 1.4858 1.5682 1.9176 0.6704 0.4318 1.446 0.6477 2.3267 0.6477 0.4943 0 0.9517-0.0653 1.3721-0.196 0.4262-0.1307 0.804-0.321 1.1335-0.571 0.3296-0.2557 0.6023-0.5654 0.8182-0.929 0.2216-0.3636 0.375-0.7784 0.4603-1.2443l3.7329 0.017c-0.0966 0.8012-0.3381 1.5739-0.7244 2.3182-0.3807 0.7387-0.8949 1.4006-1.5426 1.9858-0.6421 0.5796-1.4091 1.0398-2.3012 1.3807-0.8863 0.3352-1.8892 0.5028-3.0085 0.5028-1.5568 0-2.9489-0.3522-4.1761-1.0568-1.2216-0.7045-2.1875-1.7244-2.8978-3.0596-0.7045-1.3353-1.0568-2.9517-1.0568-4.8495 0-1.9034 0.358-3.5227 1.0739-4.8579 0.7159-1.3353 1.6875-2.3523 2.9148-3.0512 1.2272-0.7045 2.6079-1.0568 4.142-1.0568 1.0114 0 1.9489 0.1421 2.8125 0.4262 0.8693 0.284 1.6392 0.6988 2.3097 1.2443 0.6704 0.5397 1.2159 1.2017 1.6363 1.9858 0.4262 0.7841 0.6989 1.6818 0.8182 2.6931zm9.9052-1.7471v2.7273h-7.8835v-2.7273h7.8835zm-6.0937-3.1364h3.6306v12.205c0 0.3352 0.0512 0.5966 0.1534 0.7841 0.1023 0.1818 0.2444 0.3096 0.4262 0.3835 0.1875 0.0738 0.4034 0.1108 0.6477 0.1108 0.1705 0 0.3409-0.0142 0.5114-0.0426 0.1704-0.0341 0.3011-0.0597 0.392-0.0767l0.571 2.7017c-0.1818 0.0568-0.4375 0.1221-0.767 0.196-0.3295 0.0795-0.7301 0.1278-1.2017 0.1449-0.875 0.0341-1.6421-0.0824-2.3011-0.3495-0.6535-0.267-1.162-0.6818-1.5256-1.2443s-0.5426-1.2727-0.5369-2.1307v-12.682zm8.8228 16.227v-13.091h3.5199v2.2841h0.1363c0.2387-0.8125 0.6392-1.4262 1.2017-1.8409 0.5625-0.4205 1.2102-0.6307 1.9432-0.6307 0.1818 0 0.3778 0.0114 0.5881 0.0341 0.2102 0.0227 0.3949 0.054 0.5539 0.0937v3.2216c-0.1704-0.0511-0.4062-0.0966-0.7073-0.1363-0.3012-0.0398-0.5767-0.0597-0.8267-0.0597-0.5341 0-1.0114 0.1165-1.4319 0.3494-0.4147 0.2273-0.7443 0.5455-0.9886 0.9546-0.2386 0.4091-0.358 0.8807-0.358 1.4148v7.4062h-3.6306zm13.815-17.454v17.454h-3.6307v-17.454h3.6307z" fill="#383342"/>
</g>
<path d="m72.954 47.898h3.402v-3.708h1.44v3.708h3.402v1.422h-3.402v3.726h-1.44v-3.726h-3.402v-1.422z" fill="#383342"/>
<g filter="url(#e)">
<rect x="91" y="27" width="74" height="40" rx="8" fill="url(#b)"/>
<rect x="91.75" y="27.75" width="72.5" height="38.5" rx="7.25" stroke="#DEDBE3" stroke-width="1.5"/>
<path d="m109.99 43.565c-0.068-0.6875-0.361-1.2216-0.878-1.6022-0.517-0.3807-1.219-0.5711-2.105-0.5711-0.602 0-1.111 0.0853-1.526 0.2557-0.414 0.1648-0.733 0.3949-0.954 0.6904-0.216 0.2954-0.324 0.6307-0.324 1.0057-0.011 0.3124 0.054 0.5852 0.196 0.8181 0.148 0.233 0.349 0.4347 0.605 0.6051 0.256 0.1648 0.551 0.3097 0.886 0.4347 0.336 0.1193 0.694 0.2216 1.074 0.3068l1.568 0.375c0.762 0.1705 1.461 0.3977 2.097 0.6818s1.188 0.6336 1.653 1.0483c0.466 0.4148 0.827 0.9034 1.083 1.4659 0.261 0.5625 0.395 1.2074 0.4 1.9347-5e-3 1.0682-0.278 1.9943-0.818 2.7784-0.534 0.7784-1.307 1.3835-2.318 1.8154-1.006 0.4261-2.219 0.6392-3.639 0.6392-1.409 0-2.637-0.216-3.682-0.6478-1.04-0.4318-1.852-1.071-2.438-1.9176-0.579-0.8523-0.883-1.9062-0.9115-3.1619h3.5715c0.039 0.5852 0.207 1.0738 0.502 1.4659 0.302 0.3864 0.702 0.679 1.202 0.8778 0.506 0.1932 1.077 0.2898 1.713 0.2898 0.625 0 1.168-0.0909 1.628-0.2727 0.466-0.1818 0.827-0.4347 1.082-0.7585 0.256-0.3239 0.384-0.6961 0.384-1.1165 0-0.3921-0.117-0.7216-0.349-0.9887-0.228-0.267-0.563-0.4943-1.006-0.6818-0.438-0.1875-0.975-0.3579-1.611-0.5113l-1.901-0.4773c-1.471-0.358-2.633-0.9176-3.485-1.679-0.853-0.7614-1.276-1.7869-1.27-3.0767-6e-3 -1.0568 0.275-1.9801 0.844-2.7699 0.573-0.7898 1.36-1.4062 2.36-1.8494s2.137-0.6648 3.409-0.6648c1.296 0 2.427 0.2216 3.392 0.6648 0.972 0.4432 1.728 1.0596 2.268 1.8494 0.539 0.7898 0.818 1.7046 0.835 2.7443h-3.537zm10.184 4.8665v7.5682h-3.631v-17.454h3.529v6.6733h0.153c0.296-0.7728 0.773-1.3779 1.432-1.8154 0.659-0.4432 1.486-0.6648 2.48-0.6648 0.909 0 1.702 0.1989 2.378 0.5966 0.682 0.3921 1.21 0.9574 1.585 1.696 0.381 0.733 0.568 1.6108 0.563 2.6336v8.3352h-3.631v-7.6875c6e-3 -0.8068-0.199-1.4347-0.614-1.8835-0.409-0.4489-0.983-0.6733-1.721-0.6733-0.494 0-0.932 0.1051-1.313 0.3153-0.375 0.2102-0.67 0.5171-0.886 0.9205-0.21 0.3977-0.318 0.8778-0.324 1.4403zm11.71 7.5682v-13.091h3.631v13.091h-3.631zm1.824-14.778c-0.54 0-1.003-0.179-1.389-0.5369-0.381-0.3637-0.571-0.7983-0.571-1.304 0-0.5 0.19-0.929 0.571-1.2869 0.386-0.3637 0.849-0.5455 1.389-0.5455s1 0.1818 1.381 0.5455c0.386 0.3579 0.579 0.7869 0.579 1.2869 0 0.5057-0.193 0.9403-0.579 1.304-0.381 0.3579-0.841 0.5369-1.381 0.5369zm12.119 1.6875v2.7273h-8.08v-2.7273h8.08zm-6.23 13.091v-14.037c0-0.9489 0.184-1.7358 0.554-2.3608 0.375-0.625 0.886-1.0938 1.534-1.4063s1.383-0.4687 2.207-0.4687c0.557 0 1.066 0.0426 1.526 0.1278 0.466 0.0852 0.812 0.1619 1.04 0.2301l-0.648 2.7273c-0.142-0.0455-0.318-0.0881-0.529-0.1278-0.204-0.0398-0.414-0.0597-0.63-0.0597-0.534 0-0.907 0.125-1.117 0.375-0.21 0.2443-0.315 0.5881-0.315 1.0312v13.969h-3.622zm15.775-13.091v2.7273h-7.884v-2.7273h7.884zm-6.094-3.1364h3.631v12.205c0 0.3352 0.051 0.5966 0.153 0.7841 0.103 0.1818 0.245 0.3096 0.426 0.3835 0.188 0.0738 0.404 0.1108 0.648 0.1108 0.171 0 0.341-0.0142 0.512-0.0426 0.17-0.0341 0.301-0.0597 0.392-0.0767l0.571 2.7017c-0.182 0.0568-0.438 0.1221-0.767 0.196-0.33 0.0795-0.731 0.1278-1.202 0.1449-0.875 0.0341-1.642-0.0824-2.301-0.3495-0.654-0.267-1.162-0.6818-1.526-1.2443s-0.542-1.2727-0.537-2.1307v-12.682z" fill="#383342"/>
</g>
<path d="m173.95 47.898h3.402v-3.708h1.44v3.708h3.402v1.422h-3.402v3.726h-1.44v-3.726h-3.402v-1.422z" fill="#383342"/>
<g filter="url(#d)">
<rect x="192" y="27" width="40" height="40" rx="8" fill="url(#a)"/>
<rect x="192.75" y="27.75" width="38.5" height="38.5" rx="7.25" stroke="#DEDBE3" stroke-width="1.5"/>
<path d="M209.92 39.368H213.664V56H209.92V39.368Z" fill="#383342"/>
</g>
<path d="m9.144 96.24c-0.77867 0-1.488-0.128-2.128-0.384s-1.1893-0.6293-1.648-1.12-0.816-1.0933-1.072-1.808c-0.24533-0.7253-0.368-1.552-0.368-2.48s0.13867-1.7493 0.416-2.464c0.288-0.7253 0.672-1.3333 1.152-1.824s1.04-0.864 1.68-1.12 1.3227-0.384 2.048-0.384c0.45867 0 0.8693 0.032 1.232 0.096 0.3733 0.064 0.6933 0.1387 0.96 0.224 0.2773 0.0853 0.5013 0.1707 0.672 0.256s0.288 0.1493 0.352 0.192l-0.448 1.28c-0.096-0.064-0.2347-0.1333-0.416-0.208s-0.3893-0.1493-0.624-0.224c-0.224-0.0747-0.4747-0.1333-0.752-0.176-0.26667-0.0533-0.53867-0.08-0.816-0.08-0.58667 0-1.1147 0.1013-1.584 0.304s-0.86933 0.496-1.2 0.88-0.58667 0.8533-0.768 1.408c-0.17067 0.544-0.256 1.1573-0.256 1.84 0 0.6613 0.07467 1.264 0.224 1.808 0.16 0.544 0.39467 1.0133 0.704 1.408 0.30933 0.384 0.69333 0.6827 1.152 0.896 0.46933 0.2133 1.0133 0.32 1.632 0.32 0.7147 0 1.3067-0.0747 1.776-0.224s0.8213-0.2827 1.056-0.4l0.4 1.28c-0.0747 0.0533-0.208 0.1227-0.4 0.208-0.192 0.0747-0.432 0.1493-0.72 0.224s-0.624 0.1387-1.008 0.192-0.8 0.08-1.248 0.08zm11.848-4.4c0 0.6613-0.096 1.2587-0.288 1.792s-0.464 0.992-0.816 1.376c-0.3413 0.384-0.752 0.6827-1.232 0.896-0.48 0.2027-1.0027 0.304-1.568 0.304s-1.088-0.1013-1.568-0.304c-0.48-0.2133-0.896-0.512-1.248-0.896-0.3413-0.384-0.608-0.8427-0.8-1.376s-0.288-1.1307-0.288-1.792c0-0.6507 0.096-1.2427 0.288-1.776 0.192-0.544 0.4587-1.008 0.8-1.392 0.352-0.384 0.768-0.6773 1.248-0.88 0.48-0.2133 1.0027-0.32 1.568-0.32s1.088 0.1067 1.568 0.32c0.48 0.2027 0.8907 0.496 1.232 0.88 0.352 0.384 0.624 0.848 0.816 1.392 0.192 0.5333 0.288 1.1253 0.288 1.776zm-1.552 0c0-0.9387-0.2133-1.68-0.64-2.224-0.416-0.5547-0.9867-0.832-1.712-0.832s-1.3013 0.2773-1.728 0.832c-0.416 0.544-0.624 1.2853-0.624 2.224s0.208 1.6853 0.624 2.24c0.4267 0.544 1.0027 0.816 1.728 0.816s1.296-0.272 1.712-0.816c0.4267-0.5547 0.64-1.3013 0.64-2.24zm3.3255-3.92c0.3413-0.0853 0.7947-0.176 1.36-0.272s1.216-0.144 1.952-0.144c0.6613 0 1.2107 0.096 1.648 0.288 0.4373 0.1813 0.784 0.4427 1.04 0.784 0.2667 0.3307 0.4533 0.7307 0.56 1.2s0.16 0.9867 0.16 1.552v4.672h-1.488v-4.352c0-0.512-0.0373-0.9493-0.112-1.312-0.064-0.3627-0.176-0.656-0.336-0.88s-0.3733-0.384-0.64-0.48c-0.2667-0.1067-0.5973-0.16-0.992-0.16-0.16 0-0.3253 0.0053-0.496 0.016s-0.336 0.0267-0.496 0.048c-0.1493 0.0107-0.288 0.0267-0.416 0.048-0.1173 0.0213-0.2027 0.0373-0.256 0.048v7.024h-1.488v-8.08zm10.26-0.24h3.152v1.248h-3.152v3.84c0 0.416 0.032 0.7627 0.096 1.04 0.064 0.2667 0.16 0.48 0.288 0.64 0.128 0.1493 0.288 0.256 0.48 0.32s0.416 0.096 0.672 0.096c0.448 0 0.8053-0.048 1.072-0.144 0.2773-0.1067 0.4693-0.1813 0.576-0.224l0.288 1.232c-0.1493 0.0747-0.4107 0.1653-0.784 0.272-0.3733 0.1173-0.8 0.176-1.28 0.176-0.5653 0-1.0347-0.0693-1.408-0.208-0.3627-0.1493-0.656-0.368-0.88-0.656s-0.384-0.64-0.48-1.056c-0.0853-0.4267-0.128-0.9173-0.128-1.472v-7.424l1.488-0.256v2.576zm7.7975-0.176c0.128 0 0.272 0.0107 0.432 0.032 0.1707 0.0107 0.336 0.032 0.496 0.064 0.16 0.0213 0.304 0.048 0.432 0.08 0.1387 0.0213 0.24 0.0427 0.304 0.064l-0.256 1.296c-0.1173-0.0427-0.3147-0.0907-0.592-0.144-0.2667-0.064-0.6133-0.096-1.04-0.096-0.2773 0-0.5547 0.032-0.832 0.096-0.2667 0.0533-0.4427 0.0907-0.528 0.112v6.992h-1.488v-7.968c0.352-0.128 0.7893-0.2453 1.312-0.352 0.5227-0.1173 1.1093-0.176 1.76-0.176zm10.124 4.336c0 0.6613-0.096 1.2587-0.288 1.792s-0.464 0.992-0.816 1.376c-0.3414 0.384-0.752 0.6827-1.232 0.896-0.48 0.2027-1.0027 0.304-1.568 0.304-0.5654 0-1.088-0.1013-1.568-0.304-0.48-0.2133-0.896-0.512-1.248-0.896-0.3414-0.384-0.608-0.8427-0.8-1.376s-0.288-1.1307-0.288-1.792c0-0.6507 0.096-1.2427 0.288-1.776 0.192-0.544 0.4586-1.008 0.8-1.392 0.352-0.384 0.768-0.6773 1.248-0.88 0.48-0.2133 1.0026-0.32 1.568-0.32 0.5653 0 1.088 0.1067 1.568 0.32 0.48 0.2027 0.8906 0.496 1.232 0.88 0.352 0.384 0.624 0.848 0.816 1.392 0.192 0.5333 0.288 1.1253 0.288 1.776zm-1.552 0c0-0.9387-0.2134-1.68-0.64-2.224-0.416-0.5547-0.9867-0.832-1.712-0.832-0.7254 0-1.3014 0.2773-1.728 0.832-0.416 0.544-0.624 1.2853-0.624 2.224s0.208 1.6853 0.624 2.24c0.4266 0.544 1.0026 0.816 1.728 0.816 0.7253 0 1.296-0.272 1.712-0.816 0.4266-0.5547 0.64-1.3013 0.64-2.24zm5.8215 4.32c-0.9174-0.0213-1.568-0.2187-1.952-0.592s-0.576-0.9547-0.576-1.744v-9.984l1.488-0.256v10c0 0.2453 0.0213 0.448 0.064 0.608 0.0426 0.16 0.112 0.288 0.208 0.384s0.224 0.1707 0.384 0.224c0.16 0.0427 0.3573 0.08 0.592 0.112l-0.208 1.248zm4.5101-5.584h3.024v-3.296h1.28v3.296h3.024v1.264h-3.024v3.312h-1.28v-3.312h-3.024v-1.264zm15.198 4.32c1.6213 0 2.432-0.5547 2.432-1.664 0-0.3413-0.0747-0.6293-0.224-0.864-0.1387-0.2453-0.3307-0.4533-0.576-0.624-0.2454-0.1813-0.528-0.336-0.848-0.464-0.3094-0.128-0.64-0.256-0.992-0.384-0.4054-0.1387-0.7894-0.2933-1.152-0.464-0.3627-0.1813-0.6774-0.3893-0.944-0.624-0.2667-0.2453-0.48-0.5333-0.64-0.864-0.1494-0.3307-0.224-0.7307-0.224-1.2 0-0.9707 0.3306-1.728 0.992-2.272 0.6613-0.544 1.5733-0.816 2.736-0.816 0.672 0 1.28 0.0747 1.824 0.224 0.5546 0.1387 0.96 0.2933 1.216 0.464l-0.496 1.264c-0.224-0.1387-0.56-0.272-1.008-0.4-0.4374-0.1387-0.9494-0.208-1.536-0.208-0.2987 0-0.576 0.032-0.832 0.096s-0.48 0.16-0.672 0.288-0.3467 0.2933-0.464 0.496c-0.1067 0.192-0.16 0.4213-0.16 0.688 0 0.2987 0.0586 0.5493 0.176 0.752 0.1173 0.2027 0.2826 0.384 0.496 0.544 0.2133 0.1493 0.4586 0.288 0.736 0.416 0.288 0.128 0.6026 0.256 0.944 0.384 0.48 0.192 0.9173 0.384 1.312 0.576 0.4053 0.192 0.752 0.4213 1.04 0.688 0.2986 0.2667 0.528 0.5867 0.688 0.96 0.16 0.3627 0.24 0.8053 0.24 1.328 0 0.9707-0.3574 1.7173-1.072 2.24-0.704 0.5227-1.7014 0.784-2.992 0.784-0.4374 0-0.8427-0.032-1.216-0.096-0.3627-0.0533-0.688-0.1173-0.976-0.192-0.288-0.0853-0.5387-0.1707-0.752-0.256-0.2027-0.096-0.3627-0.176-0.48-0.24l0.464-1.28c0.2453 0.1387 0.6186 0.2933 1.12 0.464 0.5013 0.1707 1.1146 0.256 1.84 0.256zm5.5236 1.104v-12.16l1.488-0.256v4.256c0.2773-0.1067 0.5707-0.1867 0.88-0.24 0.32-0.064 0.6347-0.096 0.944-0.096 0.6613 0 1.2107 0.096 1.648 0.288 0.4373 0.1813 0.784 0.4427 1.04 0.784 0.2667 0.3307 0.4533 0.7307 0.56 1.2s0.16 0.9867 0.16 1.552v4.672h-1.488v-4.352c0-0.512-0.0373-0.9493-0.112-1.312-0.064-0.3627-0.176-0.656-0.336-0.88s-0.3733-0.384-0.64-0.48c-0.2667-0.1067-0.5973-0.16-0.992-0.16-0.16 0-0.3253 0.0107-0.496 0.032s-0.336 0.048-0.496 0.08c-0.1493 0.0213-0.288 0.048-0.416 0.08-0.1173 0.032-0.2027 0.0587-0.256 0.08v6.912h-1.488zm10.309 0h-1.488v-8.32h1.488v8.32zm-0.752-9.824c-0.2666 0-0.496-0.0853-0.688-0.256-0.1813-0.1813-0.272-0.4213-0.272-0.72s0.0907-0.5333 0.272-0.704c0.192-0.1813 0.4214-0.272 0.688-0.272 0.2667 0 0.4907 0.0907 0.672 0.272 0.192 0.1707 0.288 0.4053 0.288 0.704s-0.096 0.5387-0.288 0.72c-0.1813 0.1707-0.4053 0.256-0.672 0.256zm6.2389-2.592c0.4373 0 0.8107 0.032 1.12 0.096 0.32 0.064 0.544 0.1227 0.672 0.176l-0.272 1.28c-0.128-0.064-0.3093-0.1227-0.544-0.176-0.2347-0.064-0.5227-0.096-0.864-0.096-0.6933 0-1.1787 0.192-1.456 0.576-0.2773 0.3733-0.416 0.88-0.416 1.52v0.72h3.2v1.248h-3.2v7.072h-1.488v-9.072c0-1.0667 0.2613-1.888 0.784-2.464 0.5227-0.5867 1.344-0.88 2.464-0.88zm3.996 4.096h3.152v1.248h-3.152v3.84c0 0.416 0.032 0.7627 0.096 1.04 0.064 0.2667 0.16 0.48 0.288 0.64 0.128 0.1493 0.288 0.256 0.48 0.32s0.416 0.096 0.672 0.096c0.448 0 0.805-0.048 1.072-0.144 0.277-0.1067 0.469-0.1813 0.576-0.224l0.288 1.232c-0.149 0.0747-0.411 0.1653-0.784 0.272-0.373 0.1173-0.8 0.176-1.28 0.176-0.565 0-1.035-0.0693-1.408-0.208-0.3628-0.1493-0.6561-0.368-0.8801-0.656s-0.384-0.64-0.48-1.056c-0.0854-0.4267-0.128-0.9173-0.128-1.472v-7.424l1.4881-0.256v2.576zm7.676 2.896h3.024v-3.296h1.28v3.296h3.024v1.264h-3.024v3.312h-1.28v-3.312h-3.024v-1.264zm12.623-5.664h1.552v11.088h-1.552v-11.088z" fill="#383342"/>
<defs>
<filter id="f" x="0" y="27" width="67" height="48" color-interpolation-filters="sRGB" filterUnits="userSpaceOnUse">
<feFlood flood-opacity="0" result="BackgroundImageFix"/>
<feColorMatrix in="SourceAlpha" result="hardAlpha" values="0 0 0 0 0 0 0 0 0 0 0 0 0 0 0 0 0 0 127 0"/>
<feMorphology in="SourceAlpha" operator="dilate" radius="3" result="effect1_dropShadow_2887_21326"/>
<feOffset dy="5"/>
<feComposite in2="hardAlpha" operator="out"/>
<feColorMatrix values="0 0 0 0 0.794125 0 0 0 0 0.782 0 0 0 0 0.818 0 0 0 1 0"/>
<feBlend in2="BackgroundImageFix" result="effect1_dropShadow_2887_21326"/>
<feBlend in="SourceGraphic" in2="effect1_dropShadow_2887_21326" result="shape"/>
</filter>
<filter id="e" x="88" y="27" width="80" height="48" color-interpolation-filters="sRGB" filterUnits="userSpaceOnUse">
<feFlood flood-opacity="0" result="BackgroundImageFix"/>
<feColorMatrix in="SourceAlpha" result="hardAlpha" values="0 0 0 0 0 0 0 0 0 0 0 0 0 0 0 0 0 0 127 0"/>
<feMorphology in="SourceAlpha" operator="dilate" radius="3" result="effect1_dropShadow_2887_21326"/>
<feOffset dy="5"/>
<feComposite in2="hardAlpha" operator="out"/>
<feColorMatrix values="0 0 0 0 0.794125 0 0 0 0 0.782 0 0 0 0 0.818 0 0 0 1 0"/>
<feBlend in2="BackgroundImageFix" result="effect1_dropShadow_2887_21326"/>
<feBlend in="SourceGraphic" in2="effect1_dropShadow_2887_21326" result="shape"/>
</filter>
<filter id="d" x="189" y="27" width="46" height="48" color-interpolation-filters="sRGB" filterUnits="userSpaceOnUse">
<feFlood flood-opacity="0" result="BackgroundImageFix"/>
<feColorMatrix in="SourceAlpha" result="hardAlpha" values="0 0 0 0 0 0 0 0 0 0 0 0 0 0 0 0 0 0 127 0"/>
<feMorphology in="SourceAlpha" operator="dilate" radius="3" result="effect1_dropShadow_2887_21326"/>
<feOffset dy="5"/>
<feComposite in2="hardAlpha" operator="out"/>
<feColorMatrix values="0 0 0 0 0.794125 0 0 0 0 0.782 0 0 0 0 0.818 0 0 0 1 0"/>
<feBlend in2="BackgroundImageFix" result="effect1_dropShadow_2887_21326"/>
<feBlend in="SourceGraphic" in2="effect1_dropShadow_2887_21326" result="shape"/>
</filter>
<linearGradient id="c" x1="33.5" x2="33.5" y1="27" y2="67" gradientUnits="userSpaceOnUse">
<stop stop-color="#F3F3F6" offset=".49479"/>
<stop stop-color="#DBDAE0" offset="1"/>
</linearGradient>
<linearGradient id="b" x1="128" x2="128" y1="27" y2="67" gradientUnits="userSpaceOnUse">
<stop stop-color="#F3F3F6" offset=".49479"/>
<stop stop-color="#DBDAE0" offset="1"/>
</linearGradient>
<linearGradient id="a" x1="212" x2="212" y1="27" y2="67" gradientUnits="userSpaceOnUse">
<stop stop-color="#F3F3F6" offset=".49479"/>
<stop stop-color="#DBDAE0" offset="1"/>
</linearGradient>
</defs>
</svg>
