<svg width="735" height="127" viewBox="0 0 735 127" fill="none" xmlns="http://www.w3.org/2000/svg">
<path d="M0 14.433C0 6.46187 6.46187 0 14.433 0H112.567C120.538 0 127 6.46187 127 14.433V112.567C127 120.538 120.538 127 112.567 127H14.433C6.46187 127 0 120.538 0 112.567V14.433Z" fill="#5A19DA"/>
<path fill-rule="evenodd" clip-rule="evenodd" d="M50.5944 19.8761C47.1729 19.8761 44.3993 22.6498 44.3993 26.0712V51.9237C44.3993 55.3452 47.1729 58.1188 50.5944 58.1188H76.4469C79.8684 58.1188 82.642 55.3452 82.642 51.9237V26.0712C82.642 22.6498 79.8684 19.8761 76.4469 19.8761H50.5944ZM64.513 29.9684C64.473 27.6432 66.3314 25.7258 68.6637 25.6857C70.9961 25.6457 72.9196 27.4982 72.9597 29.8235C72.9997 32.1487 71.1416 34.0658 68.809 34.1058C67.9296 34.121 67.1083 33.867 66.4238 33.42L59.676 37.5506C59.7925 37.9241 59.8585 38.3206 59.8657 38.7317C59.8753 39.2968 59.7729 39.8377 59.5788 40.3335L66.2767 44.4334C66.9501 43.9517 67.7723 43.6623 68.6637 43.6469C70.9961 43.6068 72.9196 45.4594 72.9597 47.7846C72.9997 50.1098 71.1416 52.0272 68.809 52.0672C66.4766 52.1073 64.5534 50.2547 64.513 47.9295C64.5097 47.7291 64.5202 47.5317 64.5442 47.3384L57.075 42.7664C56.6498 42.9191 56.1923 43.0061 55.715 43.0141C53.3826 43.0541 51.4594 41.2016 51.4191 38.8766C51.379 36.5514 53.2374 34.634 55.5698 34.594C56.2241 34.5826 56.8464 34.7204 57.4038 34.9758L64.5696 30.5896C64.536 30.3872 64.5169 30.1796 64.513 29.9684Z" fill="white"/>
<path fill-rule="evenodd" clip-rule="evenodd" d="M26.3301 68.4439C22.9087 68.4439 20.135 71.2178 20.135 74.639V100.492C20.135 103.913 22.9087 106.687 26.3301 106.687H52.1827C55.604 106.687 58.3778 103.913 58.3778 100.492V74.639C58.3778 71.2178 55.604 68.4439 52.1827 68.4439H26.3301ZM41.7069 85.1232H48.908C49.4417 85.1232 49.9345 85.2965 50.336 85.5892C50.9547 86.0276 51.3586 86.7493 51.3586 87.5654C51.3586 88.2192 51.0991 88.8128 50.6778 89.2482C50.2308 89.715 49.6016 90.0074 48.908 90.0074H41.7069V97.2254C41.7069 98.3949 40.8645 99.3847 39.7536 99.6163C39.5931 99.6497 39.4269 99.6674 39.2569 99.6674C37.8913 99.6674 36.8061 98.5821 36.8061 97.2254V90.0074H29.6046C28.2391 90.0074 27.1542 88.9221 27.1542 87.5654C27.1542 86.9116 27.4135 86.3183 27.8349 85.8827C28.2819 85.4158 28.9111 85.1232 29.6046 85.1232H36.8061V77.9054C36.8061 76.7359 37.6484 75.7459 38.7591 75.5142C38.9198 75.4808 39.0857 75.4631 39.2558 75.4631C40.6213 75.4631 41.7069 76.5487 41.7069 77.9054V85.1232Z" fill="white"/>
<path d="M82.9896 79.5583H87.3968V83.0693C87.3968 84.1971 88.2847 85.1124 89.3866 85.1124H92.6593V95.8146H82.9896V79.5583Z" fill="white"/>
<path fill-rule="evenodd" clip-rule="evenodd" d="M68.7029 74.639C68.7029 71.2178 71.4765 68.4439 74.898 68.4439H100.751C104.172 68.4439 106.946 71.2178 106.946 74.639V100.492C106.946 103.913 104.172 106.687 100.751 106.687H74.898C71.4765 106.687 68.7029 103.913 68.7029 100.492V74.639ZM89.9127 75.4204L96.8362 82.5301C97.0993 82.8242 97.2638 83.1999 97.2638 83.6251V97.3889C97.264 97.3953 97.264 97.4016 97.2639 97.4079C97.2639 97.4111 97.2638 97.4142 97.2638 97.4173C97.2312 99.0711 95.9276 100.394 94.3202 100.394H81.3284C79.7213 100.394 78.4179 99.0556 78.3847 97.4173V77.9557C78.4173 76.3019 79.721 74.9792 81.3284 74.9792H88.8769C89.2551 74.9792 89.6333 75.1426 89.9127 75.4204Z" fill="white"/>
<path d="M253.567 29.4574C255.944 31.6564 258.804 32.7558 262.146 32.7558C265.456 32.7558 268.291 31.6564 270.653 29.4574C273.015 27.2586 274.195 24.6024 274.195 21.4886C274.195 18.407 273.015 15.7669 270.653 13.568C268.291 11.3691 265.439 10.2697 262.098 10.2697C258.788 10.2697 255.944 11.3691 253.567 13.568C251.189 15.7669 250 18.407 250 21.4886C250 24.6024 251.189 27.2586 253.567 29.4574Z" fill="#5A19DA"/>
<path d="M250.289 112.705C250.289 114.156 251.464 115.333 252.913 115.333H271.234C272.683 115.333 273.858 114.156 273.858 112.705V44.0033C273.858 42.5514 272.683 41.3747 271.234 41.3747H252.913C251.464 41.3747 250.289 42.5514 250.289 44.0033V112.705Z" fill="#5A19DA"/>
<path fill-rule="evenodd" clip-rule="evenodd" d="M165.04 115.333C163.591 115.333 162.416 114.156 162.416 112.704V19.3504C162.416 17.8987 163.591 16.7218 165.04 16.7218H203.191C210.582 16.7218 216.968 18.1582 222.35 21.0312C227.732 23.9041 231.885 27.9008 234.809 33.0205C237.733 38.1406 239.195 44.0869 239.195 50.8602C239.195 57.6654 237.709 63.6118 234.737 68.6998C231.765 73.7875 227.532 77.7279 222.037 80.5205C216.542 83.3134 210.02 84.7095 202.468 84.7095H186.274V112.704C186.274 114.156 185.099 115.333 183.65 115.333H165.04ZM186.274 65.9312H198.034C201.633 65.9312 204.645 65.305 207.071 64.0533C209.497 62.8015 211.337 61.0439 212.59 58.7808C213.843 56.5177 214.47 53.8775 214.47 50.8602C214.47 47.8105 213.843 45.1706 212.59 42.9395C211.337 40.7085 209.489 38.9832 207.047 37.7634C204.605 36.5434 201.601 35.9335 198.034 35.9335H186.274V65.9312Z" fill="#5A19DA"/>
<path d="M307.208 42.825L318.676 65.7386L330.571 42.7919C331.02 41.9211 331.92 41.3747 332.897 41.3747H350.59C352.594 41.3747 353.857 43.5356 352.877 45.288L334.389 78.3538L353.546 111.384C354.562 113.136 353.301 115.333 351.278 115.333H333.814C332.859 115.333 331.981 114.815 331.518 113.979L318.676 90.7766L306.165 113.955C305.708 114.804 304.821 115.333 303.858 115.333H286.08C284.057 115.333 282.793 113.134 283.812 111.382L303.013 78.3538L284.731 45.2764C283.765 43.5243 285.029 41.3747 287.027 41.3747H304.863C305.856 41.3747 306.762 41.936 307.208 42.825Z" fill="#5A19DA"/>
<path d="M367.869 115.333C366.418 115.333 365.245 114.156 365.245 112.705V44.0033C365.245 42.5514 366.418 41.3747 367.869 41.3747H386.189C387.637 41.3747 388.812 42.5514 388.812 44.0033V112.705C388.812 114.156 387.637 115.333 386.189 115.333H367.869Z" fill="#5A19DA"/>
<path d="M368.521 29.4574C370.9 31.6564 373.76 32.7558 377.102 32.7558C380.411 32.7558 383.246 31.6564 385.608 29.4574C387.97 27.2586 389.151 24.6024 389.151 21.4886C389.151 18.407 387.97 15.7669 385.608 13.568C383.246 11.3691 380.394 10.2697 377.052 10.2697C373.743 10.2697 370.9 11.3691 368.521 13.568C366.143 15.7669 364.954 18.407 364.954 21.4886C364.954 24.6024 366.143 27.2586 368.521 29.4574Z" fill="#5A19DA"/>
<path fill-rule="evenodd" clip-rule="evenodd" d="M417.717 112.131C423.324 115.197 430 116.73 437.743 116.73C444.201 116.73 449.889 115.742 454.805 113.768C459.722 111.794 463.697 109.017 466.733 105.438C469.128 102.615 470.86 99.3971 471.925 95.7848C472.382 94.2373 471.185 92.7569 469.574 92.7103L452.873 92.2271C451.752 92.1948 450.761 92.8997 450.2 93.8737C449.671 94.7898 449.022 95.6031 448.251 96.3138C447.029 97.4372 445.567 98.2881 443.863 98.8659C442.162 99.4435 440.265 99.7326 438.176 99.7326C435.156 99.7326 432.554 99.1064 430.369 97.8546C428.183 96.6028 426.495 94.8453 425.306 92.5822C424.117 90.3191 423.525 87.6789 423.525 84.6615V84.0356H470.254C471.705 84.0356 472.878 82.8587 472.878 81.407V78.1613C472.878 72.0943 471.994 66.7095 470.227 62.0069C468.459 57.3043 465.987 53.348 462.805 50.1379C459.625 46.9279 455.849 44.5044 451.48 42.8672C447.108 41.2303 442.288 40.4117 437.019 40.4117C429.565 40.4117 423.09 42.0086 417.596 45.2026C412.101 48.3964 407.842 52.8585 404.823 58.5884C401.803 64.3181 400.291 71.0029 400.291 78.6428C400.291 86.5074 401.794 93.2884 404.798 98.9863C407.804 104.684 412.109 109.066 417.717 112.131ZM423.539 70.361C423.655 67.9798 424.293 65.8371 425.452 63.9329C426.672 61.9266 428.329 60.3377 430.415 59.166C432.505 57.9943 434.867 57.4084 437.501 57.4084C440.105 57.4084 442.409 57.9622 444.419 59.0696C446.426 60.1773 448.009 61.7101 449.165 63.6681C450.321 65.6262 450.916 67.8572 450.949 70.361H423.539Z" fill="#5A19DA"/>
<path fill-rule="evenodd" clip-rule="evenodd" d="M484.359 112.704C484.359 114.156 485.532 115.333 486.983 115.333H528.652C535.947 115.333 542.146 114.137 547.256 111.746C552.365 109.354 556.271 106.08 558.969 101.923C561.667 97.7662 563.018 93.0396 563.018 87.7432C563.018 82.9923 561.989 78.8755 559.932 75.3927C557.876 71.9099 555.153 69.1893 551.762 67.231C548.373 65.273 544.687 64.1977 540.701 64.0052V63.042C544.332 62.2717 547.531 60.9235 550.292 58.9976C553.056 57.0716 555.225 54.6401 556.8 51.7028C558.374 48.7658 559.162 45.4193 559.162 41.6634C559.162 36.7201 557.901 32.3706 555.379 28.6147C552.855 24.8592 549.097 21.9381 544.101 19.8515C539.105 17.7651 532.911 16.7218 525.519 16.7218H486.983C485.532 16.7218 484.359 17.8987 484.359 19.3504V112.704ZM522.965 96.1213H508.215V72.6238H523.4C526.45 72.6238 529.071 73.1296 531.254 74.1407C533.439 75.152 535.127 76.5802 536.316 78.4261C537.505 80.272 538.1 82.4627 538.1 84.9986C538.1 88.4975 536.869 91.226 534.411 93.184C531.953 95.142 528.137 96.1213 522.965 96.1213ZM521.423 57.264H508.215V35.6447H521.809C525.792 35.6447 528.958 36.5917 531.303 38.4857C533.649 40.3796 534.821 42.9795 534.821 46.286C534.821 48.5971 534.251 50.5714 533.112 52.2083C531.969 53.8455 530.386 55.0973 528.363 55.9639C526.34 56.8308 524.025 57.264 521.423 57.264Z" fill="#5A19DA"/>
<path d="M574.745 41.3747C573.297 41.3747 572.122 42.5517 572.122 44.0033V112.705C572.122 114.156 573.297 115.333 574.745 115.333H593.065C594.516 115.333 595.691 114.156 595.691 112.705V75.176C595.691 72.2227 596.325 69.6468 597.594 67.4478C598.863 65.249 600.613 63.5318 602.849 62.2957C605.081 61.06 607.595 60.4421 610.391 60.4421C611.804 60.4421 613.42 60.5545 615.234 60.7792C615.52 60.8145 615.798 60.8521 616.068 60.8913C617.849 61.1522 619.644 59.8198 619.644 58.017V43.2057C619.644 42.0357 618.873 40.9912 617.725 40.7808C617.301 40.703 616.863 40.6362 616.415 40.5801C615.258 40.4357 614.133 40.3634 613.042 40.3634C608.993 40.3634 605.442 41.5591 602.389 43.9506C599.336 46.3421 597.137 49.9776 595.788 54.8566H595.014V44.0033C595.014 42.5517 593.842 41.3747 592.391 41.3747H574.745Z" fill="#5A19DA"/>
<path d="M630.415 112.705C630.415 114.156 631.591 115.333 633.039 115.333H651.361C652.809 115.333 653.985 114.156 653.985 112.705V44.0033C653.985 42.5514 652.809 41.3747 651.361 41.3747H633.039C631.591 41.3747 630.415 42.5514 630.415 44.0033V112.705Z" fill="#5A19DA"/>
<path d="M642.272 32.7558C638.93 32.7558 636.07 31.6564 633.694 29.4574C631.316 27.2586 630.126 24.6024 630.126 21.4886C630.126 18.407 631.316 15.7669 633.694 13.568C636.07 11.3691 638.913 10.2697 642.225 10.2697C645.567 10.2697 648.416 11.3691 650.778 13.568C653.14 15.7669 654.321 18.407 654.321 21.4886C654.321 24.6024 653.14 27.2586 650.778 29.4574C648.416 31.6564 645.581 32.7558 642.272 32.7558Z" fill="#5A19DA"/>
<path d="M687.335 42.825L698.803 65.7386L710.695 42.7919C711.147 41.9211 712.044 41.3747 713.024 41.3747H730.714C732.718 41.3747 733.984 43.5356 733.004 45.288L714.514 78.3538L733.673 111.384C734.689 113.136 733.428 115.333 731.405 115.333H713.941C712.986 115.333 712.108 114.815 711.645 113.979L698.803 90.7766L686.292 113.955C685.832 114.804 684.948 115.333 683.985 115.333H666.207C664.181 115.333 662.92 113.134 663.939 111.382L683.137 78.3538L664.858 45.2764C663.889 43.5243 665.156 41.3747 667.154 41.3747H684.99C685.981 41.3747 686.889 41.936 687.335 42.825Z" fill="#5A19DA"/>
</svg>
