<svg width="24" height="24" viewBox="0 0 24 24" fill="none" xmlns="http://www.w3.org/2000/svg">
<g id="Frame 38959">
<rect width="24" height="24" rx="2.4" fill="url(#paint0_linear_3090_36476)"/>
<path id="Vector" d="M16.3992 6.60001H9.19922C8.66879 6.60001 8.16008 6.82243 7.78501 7.21834C7.40993 7.61425 7.19922 8.15122 7.19922 8.71112V12.5111C7.19922 12.8471 7.32565 13.1692 7.55069 13.4068C7.77573 13.6443 8.08096 13.7778 8.39922 13.7778H10.7992L10.4047 16.2409C10.4011 16.2641 10.3993 16.2876 10.3992 16.3111C10.3992 16.759 10.5678 17.1886 10.8678 17.5053C11.1679 17.8221 11.5749 18 11.9992 18C12.4236 18 12.8305 17.8221 13.1306 17.5053C13.4306 17.1886 13.5992 16.759 13.5992 16.3111C13.5991 16.2876 13.5973 16.2641 13.5937 16.2409L13.1992 13.7778H15.5992C15.9175 13.7778 16.2227 13.6443 16.4477 13.4068C16.6728 13.1692 16.7992 12.8471 16.7992 12.5111V7.02223C16.7992 6.91025 16.7571 6.80285 16.6821 6.72367C16.607 6.64449 16.5053 6.60001 16.3992 6.60001ZM9.19922 7.44445H14.3992V9.55556C14.3992 9.66754 14.4414 9.77494 14.5164 9.85412C14.5914 9.9333 14.6931 9.97778 14.7992 9.97778C14.9053 9.97778 15.007 9.9333 15.0821 9.85412C15.1571 9.77494 15.1992 9.66754 15.1992 9.55556V7.44445H15.9992V10.8222H7.99922V8.71112C7.99922 8.37518 8.12565 8.05299 8.35069 7.81545C8.57573 7.5779 8.88096 7.44445 9.19922 7.44445ZM15.5992 12.9333H13.1992C13.0846 12.9333 12.9713 12.9593 12.8671 13.0096C12.7628 13.0598 12.67 13.1331 12.5949 13.2244C12.5198 13.3158 12.4642 13.4232 12.4318 13.5392C12.3994 13.6553 12.391 13.7773 12.4072 13.8971V13.9076L12.7992 16.3428C12.7992 16.5667 12.7149 16.7815 12.5649 16.9399C12.4149 17.0983 12.2114 17.1872 11.9992 17.1872C11.787 17.1872 11.5836 17.0983 11.4335 16.9399C11.2835 16.7815 11.1992 16.5667 11.1992 16.3428L11.5892 13.9076V13.8971C11.6054 13.7775 11.5971 13.6556 11.5648 13.5397C11.5325 13.4238 11.4771 13.3166 11.4022 13.2252C11.3273 13.1339 11.2347 13.0606 11.1307 13.0102C11.0267 12.9599 10.9137 12.9336 10.7992 12.9333H8.39922C8.29313 12.9333 8.19139 12.8889 8.11638 12.8097C8.04136 12.7305 7.99922 12.6231 7.99922 12.5111V11.6667H15.9992V12.5111C15.9992 12.6231 15.9571 12.7305 15.8821 12.8097C15.807 12.8889 15.7053 12.9333 15.5992 12.9333Z" fill="#A6B4FF"/>
</g>
<defs>
<linearGradient id="paint0_linear_3090_36476" x1="21.9" y1="0.9" x2="0.900001" y2="23.4" gradientUnits="userSpaceOnUse">
<stop stop-color="#3E37C1"/>
<stop offset="1" stop-color="#350F9C"/>
</linearGradient>
</defs>
</svg>
