<svg width="554" height="466" viewBox="0 0 554 466" fill="none" xmlns="http://www.w3.org/2000/svg">
<g clip-path="url(#clip0_765_7014)">
<path d="M85.5295 89.9607C50.9595 104.211 22.7295 133.161 9.35953 168.091C-4.01047 203.021 -2.33047 243.411 13.8795 277.111C31.7595 314.261 64.9795 341.191 92.8895 371.541C119.94 400.951 143.79 435.361 179.52 453.241C207.13 467.061 240.31 469.331 269.54 459.391C296.48 450.231 319.94 431.331 347.96 426.341C368.52 422.671 389.56 426.881 410.42 427.801C431.28 428.721 454.16 425.441 468.58 410.331C481.38 396.921 484.65 377.311 487.33 358.961C491.84 328.111 496.34 297.261 500.85 266.421C504.51 241.391 508 214.931 498.33 191.561C489.42 170.031 470.55 154.321 451.14 141.441C405.48 111.151 352.76 91.5607 298.4 84.6807" fill="#B395EE"/>
<path d="M333.2 37.3706C332.14 32.7006 334.42 27.4706 338.57 25.0606C342.72 22.6506 348.39 23.2706 351.92 26.5006C353.01 21.9006 356.82 17.8606 361.51 17.2406C366.2 16.6206 371.27 20.0606 371.77 24.7606C373.35 21.5406 377.56 20.1706 381 21.1906C384.44 22.2106 387.05 25.1706 388.43 28.4806C389.33 30.6506 390.18 33.5706 390.02 35.9506C389.81 39.2306 389.25 38.7906 385.97 38.7506C380.02 38.6706 374.07 38.4406 368.12 38.2906C364.97 38.1906 333.48 38.6306 333.2 37.3706Z" fill="#9ABEF4"/>
<path d="M496.429 20.9607C495.369 16.2907 497.649 11.0607 501.799 8.65067C505.939 6.24067 511.619 6.86067 515.149 10.0907C516.239 5.49067 520.049 1.45067 524.739 0.83067C529.429 0.21067 534.499 3.65067 534.999 8.35067C536.579 5.13067 540.789 3.76067 544.229 4.78067C547.669 5.80067 550.279 8.76067 551.659 12.0707C552.559 14.2407 553.409 17.1607 553.249 19.5407C553.039 22.8207 552.479 22.3807 549.199 22.3407C543.249 22.2607 537.299 22.0307 531.349 21.8807C528.199 21.7907 496.719 22.2307 496.429 20.9607Z" fill="#9ABEF4"/>
<path d="M457.38 77.7907C457.6 75.4507 457.83 73.0607 458.83 70.8907C459.83 68.7207 461.74 66.7707 464.26 66.2107C466.78 65.6507 469.84 66.8707 470.54 69.1507C471.36 66.0907 472.22 62.9407 474.26 60.3907C476.3 57.8407 480.91 56.0507 484.32 56.7407C486.66 57.2107 488.58 58.7907 489.86 60.6307C491.14 62.4707 491.85 64.5707 492.56 66.6507C492.64 64.5107 494.08 62.4607 496.18 61.4807C498.28 60.5007 500.96 60.6307 502.96 61.8107C505.83 63.5007 506.72 66.6707 507.65 69.4507C508.14 70.9407 508.57 72.2907 508.82 73.8307C509.06 75.3007 509.04 77.3607 509.04 77.3607C509.03 77.5407 503.68 77.2407 501.59 77.2707C498.89 77.3107 496.18 77.3407 493.48 77.3807C488 77.4507 482.51 77.5307 477.03 77.6007C470.83 77.6607 463.56 77.7007 457.38 77.7907Z" fill="#4F8EEB"/>
<path d="M399.409 67.1807H34.6193C23.6893 67.1807 14.9893 75.8707 14.9893 86.8107V306.431C14.9893 317.371 23.6793 326.071 34.6193 326.071H165.279L152.659 365.901H116.489C113.689 365.901 111.159 368.141 111.159 371.231V374.311C111.159 377.111 113.399 379.641 116.489 379.641H148.179H285.569H317.259C320.059 379.641 322.589 377.401 322.589 374.311V371.231C322.589 368.431 320.349 365.901 317.259 365.901H281.369L268.749 326.071H399.409C410.339 326.071 419.039 317.381 419.039 306.431V86.8107C419.039 75.8807 410.339 67.1807 399.409 67.1807Z" fill="#5217C6"/>
<path d="M36.0196 78.6807H398.01C402.5 78.6807 406.14 82.3307 406.14 86.8107V277.541C406.14 282.031 402.49 285.671 398.01 285.671H36.0196C31.5396 285.671 27.8896 282.021 27.8896 277.541V86.5307C28.1696 82.0507 31.8196 78.6807 36.0196 78.6807Z" fill="#EFEEF1"/>
<path d="M215.189 316.528C221.079 316.528 225.849 311.758 225.849 305.868C225.849 299.978 221.079 295.208 215.189 295.208C209.309 295.208 204.539 299.978 204.539 305.868C204.539 311.758 209.309 316.528 215.189 316.528Z" fill="#F0EFF2"/>
<path d="M125.899 224.728L189.059 305.148L257.889 124.948L125.899 224.728ZM232.959 159.048L208.879 221.308L189.069 192.398L232.959 159.048ZM185.999 280.488L143.829 226.788L180.029 199.278L203.919 234.158L185.999 280.488Z" fill="#38A081"/>
<path d="M358.73 390.048C358.73 390.048 361.64 393.478 364.31 397.088C366.98 400.708 367.11 403.968 367.11 403.968C367.11 403.968 364.16 405.458 359.31 407.328C351.97 410.158 342.21 415.388 338.52 415.168C334.14 414.908 334.43 409.928 339.97 406.008C343.39 403.588 346.84 402.078 346.81 398.758C346.79 396.398 344.49 392.688 344.49 392.688" fill="#F8E391"/>
<path d="M299.549 396.148C299.549 396.148 299.859 401.648 300.809 406.368C301.749 411.088 301.599 415.838 300.339 416.308C299.079 416.778 293.969 416.988 289.099 417.098C284.219 417.208 268.759 418.318 265.909 418.318C263.629 418.318 264.479 411.598 269.919 410.108C272.349 409.438 275.689 408.758 278.239 408.318C281.329 407.778 283.799 405.748 284.409 404.548C285.509 402.348 285.099 396.158 285.099 396.158" fill="#F8E391"/>
<path d="M284.14 233.168C284.14 233.168 278.48 251.248 276.6 269.008C274.72 286.768 276.44 308.778 276.6 316.328C276.76 323.878 284.28 402.068 284.28 402.068H301.41C307.15 351.968 306.11 351.288 306.93 338.178C307.72 325.758 303.03 318.688 303.09 315.538C303.15 312.398 303.78 305.988 303.78 305.988L307.01 299.818L313.79 226.088L284.14 233.168Z" fill="#383342"/>
<path d="M333.82 210.208C333.82 210.208 335.08 210.918 338.06 217.758C344.82 233.258 341.36 248.888 339.79 262.558C338.22 276.238 335.23 311.288 335.23 311.288C335.23 311.288 341.99 321.038 345.76 332.358C349.53 343.678 360.61 391.098 360.61 391.098L345.69 397.038C345.69 397.038 307.15 318.848 304.53 310.038C301.91 301.238 303.92 262.198 305.37 252.818C305.51 251.918 304.74 231.588 304.74 231.588" fill="#928C9D"/>
<path d="M333.5 268.538L198.46 210.428C197.23 217.428 194.39 223.878 190.31 229.358C190.33 229.368 190.36 229.398 190.36 229.398L323.36 287.648C323.36 287.648 327.37 287.648 331.14 280.808C334.92 273.958 333.5 268.538 333.5 268.538Z" fill="#CBC7D1"/>
<path d="M198.15 210.288C198.15 210.288 185.95 208.118 174.5 206.088C173.95 209.328 172.64 212.308 170.75 214.848C179.94 221.668 189.76 228.948 190.31 229.358C194.39 223.878 197.23 217.428 198.46 210.428L198.15 210.288Z" fill="#FFE5B0"/>
<path d="M154.759 202.978C154.839 203.038 162.539 208.748 170.759 214.838C172.639 212.308 173.949 209.328 174.509 206.078C164.469 204.298 155.009 202.618 154.909 202.598C154.699 202.578 154.589 202.858 154.759 202.978Z" fill="#2D3066"/>
<path d="M193.14 225.068L328.99 284.008" stroke="#FFE5B0" stroke-width="2"/>
<path d="M197.01 216.328L333.31 275.168" stroke="#FFE5B0" stroke-width="2"/>
<path d="M272.97 183.648C270.89 187.068 263.11 196.268 259.51 200.508C255.91 204.748 241.25 217.848 238.78 217.728C236.3 217.608 228.09 208.408 224.55 200.158C221.01 191.908 213.22 174.628 212.52 170.468C211.82 166.318 217.69 163.688 219.78 167.678C221.88 171.698 235.48 194.018 237.13 197.088C238.78 200.158 239.49 200.158 239.49 200.158C239.49 200.158 250.18 187.578 253.95 183.338C257.72 179.098 265.15 169.858 265.15 169.858L272.97 183.648Z" fill="#973F5B"/>
<path d="M338.059 217.758C338.059 217.758 328.089 183.328 325.839 172.798L321.599 175.708C321.519 190.048 279.579 180.288 277.739 184.238C275.789 188.418 285.049 215.778 284.139 233.168C289.059 233.148 302.049 232.978 309.299 231.748C321.399 229.708 332.399 223.108 338.059 217.758Z" fill="#9065E6"/>
<path d="M220.009 168.028C217.699 163.738 215.699 154.888 210.239 155.948C204.689 157.028 207.729 163.148 211.179 169.648C213.529 174.078 214.329 175.158 214.329 175.158L220.009 168.028Z" fill="#973F5B"/>
<path d="M268.66 193.388C269.71 192.258 273.93 183.488 274.81 181.838L271.26 154.708C266 159.658 258.22 171.738 254.52 178.978C259.42 183.308 266.35 189.748 268.66 193.388Z" fill="#CCB8F4"/>
<path d="M266.65 229.388C262.09 231.118 253.129 235.208 252.339 238.668C251.549 242.128 253.28 244.328 255.8 243.698C258.32 243.068 261.619 240.078 264.599 238.828C267.579 237.578 272.539 235.528 272.539 235.528L269.479 228.608L266.65 229.388Z" fill="#973F5B"/>
<path d="M309.449 202.978C310.709 200.778 305.829 160.378 305.829 160.378C305.829 160.378 304.919 148.048 311.829 141.318C308.949 141.058 305.719 141.188 302.209 141.638L284.129 147.518C279.099 148.278 271.239 154.728 271.239 154.728C271.239 154.728 271.959 173.658 273.689 178.998C275.419 184.348 280.199 201.728 281.459 207.078C281.899 208.948 282.359 212.718 282.769 216.808C292.899 210.658 308.799 204.128 309.449 202.978Z" fill="#9065E6"/>
<path d="M277.099 129.938C273.679 130.338 268.369 127.108 268.489 120.858C268.609 114.608 268.179 107.708 273.839 105.708C279.499 103.708 286.099 98.9177 292.229 102.568C298.359 106.228 304.529 111.178 304.409 119.078C304.289 126.978 299.499 131.538 296.549 133.628C293.599 135.718 287.819 136.068 287.819 136.068L277.099 129.938Z" fill="#383342"/>
<path d="M283.039 141.848C279.479 141.218 275.489 137.448 274.239 132.888C272.979 128.328 272.179 117.648 274.239 115.748C275.689 114.408 276.359 115.468 278.799 115.038C280.659 114.708 282.039 112.758 285.059 113.698C288.079 114.638 289.019 119.198 289.809 120.928C290.599 122.658 291.579 124.808 293.209 123.858C295.919 122.268 298.299 124.898 297.509 127.628C296.719 130.358 293.109 132.088 292.949 133.818C292.789 135.548 293.259 141.368 295.469 141.838C297.669 142.308 300.179 142.268 300.179 142.268C300.179 142.268 300.499 149.378 294.209 152.368C287.919 155.358 284.459 153.498 282.099 148.148C282.099 148.148 284.559 147.018 285.059 145.768C285.549 144.518 284.969 142.188 283.039 141.848Z" fill="#973F5B"/>
<path d="M326.899 166.308C326.899 166.308 324.419 205.388 323.009 208.728C321.599 212.068 312.399 217.838 306.499 220.668C300.599 223.498 276.899 233.718 272.539 235.528C268.179 237.338 267.269 231.758 267.269 231.758C267.269 231.758 263.579 230.628 266.209 229.568C268.839 228.508 282.689 219.068 290.349 213.248C295.689 209.188 304.809 204.018 305.709 202.618C306.619 201.218 307.319 167.498 307.319 167.498L326.899 166.308Z" fill="#973F5B"/>
<path d="M305.21 177.718C311.22 176.408 314.93 175.358 320.03 175.808C322.56 176.028 325.46 176.368 327.49 176.658C327.31 169.208 327.17 155.168 326.43 152.118C325.01 146.268 320.32 142.968 314.93 141.778C313.95 141.558 312.92 141.408 311.84 141.308C304.93 148.038 305.84 160.368 305.84 160.368C305.84 160.368 305.3 171.898 305.21 177.718Z" fill="#CCB8F4"/>
<path d="M130.489 72.0907C128.109 72.0207 125.759 72.5607 123.429 73.0207C121.089 73.4807 118.699 73.8707 116.339 73.5207C114.999 73.3207 113.579 72.7707 112.949 71.5707C112.299 70.3307 112.749 68.7407 113.649 67.6607C114.559 66.5907 115.839 65.9207 117.089 65.2807C121.079 63.2307 125.759 60.7807 128.319 57.0907C130.879 53.4007 129.899 47.0607 125.539 45.9707C122.349 45.1707 119.139 47.5407 117.489 50.3807C115.839 53.2207 115.209 56.5307 113.839 59.5207C112.469 62.5007 109.819 66.3107 107.529 65.2607C105.239 64.2107 107.499 57.8707 108.759 54.0207C110.019 50.1707 109.419 44.8007 105.939 42.7307C102.939 40.9407 98.7691 42.9107 97.2391 46.0507C95.7091 49.1807 96.2191 52.9507 97.3791 56.2407C98.4791 59.3607 100.139 62.3907 100.229 65.7007C100.309 69.0107 97.9891 72.7307 94.6791 72.6007C91.9191 72.4907 89.9091 69.7807 89.3391 67.0807C88.7691 64.3807 89.1991 61.5707 89.0291 58.8207C88.8491 56.0607 87.8291 53.0607 85.3691 51.8107C82.0591 50.1207 77.8591 52.6507 76.3991 56.0607C74.9391 59.4707 75.4391 63.3707 75.9591 67.0507C76.8791 73.5107 77.7991 79.9707 78.7191 86.4207C78.9691 88.2007 79.2191 90.0507 78.6891 91.7707C78.1591 93.4907 76.6091 95.0307 74.8091 94.9407C72.4791 94.8207 71.1291 92.2207 70.7191 89.9207C70.0591 86.1907 70.5991 82.3607 70.8891 78.5807C71.1791 74.8007 71.1891 70.8407 69.5691 67.4107C67.9491 63.9807 64.2791 61.2607 60.5391 61.8607C55.9891 62.5907 53.4491 67.5807 52.6591 72.1207C50.4391 84.9707 56.3791 98.1907 54.1291 111.031C53.5291 114.471 51.4591 118.461 47.9691 118.371C45.0191 118.291 43.0591 115.221 42.3491 112.351C40.9891 106.851 42.1991 101.041 41.4691 95.4207C40.7491 89.8007 36.8091 83.6907 31.1491 83.9207C30.0091 83.9707 28.9491 84.2807 27.9791 84.7707C27.9291 85.6007 27.8891 86.2107 27.8691 86.5207V168.251C34.9091 169.221 41.9691 170.031 49.0391 170.671C52.0391 170.941 55.0991 171.171 58.0491 170.551C60.9991 169.931 63.8791 168.331 65.3591 165.701C66.8391 163.081 66.5391 159.361 64.1991 157.461C62.1191 155.771 59.1691 155.861 56.4991 155.881C50.1291 155.931 43.7591 155.151 37.5991 153.541C36.1191 153.151 34.5091 152.611 33.7691 151.271C32.9391 149.761 33.6591 147.751 34.9891 146.661C36.3191 145.561 38.0991 145.191 39.8191 145.031C51.4291 143.921 62.3691 150.641 73.9891 151.641C76.9591 151.901 80.1091 151.731 82.6891 150.231C85.2691 148.731 87.0691 145.571 86.2191 142.711C85.0891 138.911 80.4491 137.661 76.5391 137.031C72.3891 136.351 68.2391 135.681 64.0891 135.001C62.1191 134.681 60.1091 134.351 58.3391 133.431C56.5691 132.521 55.0291 130.911 54.7291 128.931C54.4191 126.941 55.4391 124.911 56.9791 123.621C58.5191 122.321 60.4991 121.681 62.4891 121.351C70.4091 120.061 78.2191 123.471 86.0591 125.181C91.9991 126.481 98.1491 126.811 104.199 126.151C107.729 125.771 111.769 124.621 113.109 121.331C114.319 118.351 112.599 114.831 109.989 112.951C107.379 111.071 104.109 110.451 100.939 109.871C94.3591 108.671 88.6391 108.061 82.1491 106.491C80.4991 106.091 80.2091 103.611 80.9691 102.611C81.7291 101.611 82.9691 101.101 84.1891 100.771C89.3791 99.3707 94.8991 100.481 100.019 102.111C105.139 103.751 110.119 105.921 115.429 106.731C117.709 107.081 120.099 107.151 122.259 106.341C124.419 105.531 126.299 103.691 126.619 101.401C126.969 98.9007 125.359 96.4407 123.239 95.0607C121.119 93.6807 118.569 93.1807 116.069 92.7707C113.579 92.3607 111.019 92.0207 108.759 90.8907C106.709 89.8707 104.829 87.7907 105.259 85.5407C105.709 83.2307 108.299 82.0407 110.619 81.6307C116.799 80.5207 122.599 82.7807 128.809 83.7407C130.319 83.9807 131.869 84.1707 133.379 83.9307C134.889 83.7007 136.869 82.4207 137.749 81.1707C139.109 79.2207 138.579 76.3607 136.959 74.6207C135.339 72.9007 132.869 72.1507 130.489 72.0907Z" fill="#64E1BD"/>
</g>
<defs>
<clipPath id="clip0_765_7014">
<rect width="554" height="466" fill="white"/>
</clipPath>
</defs>
</svg>
