<?xml version="1.0" encoding="UTF-8" standalone="no"?>
<svg
   xmlns:dc="http://purl.org/dc/elements/1.1/"
   xmlns:cc="http://creativecommons.org/ns#"
   xmlns:rdf="http://www.w3.org/1999/02/22-rdf-syntax-ns#"
   xmlns:svg="http://www.w3.org/2000/svg"
   xmlns="http://www.w3.org/2000/svg"
   xmlns:sodipodi="http://sodipodi.sourceforge.net/DTD/sodipodi-0.dtd"
   xmlns:inkscape="http://www.inkscape.org/namespaces/inkscape"
   version="1.1"
   id="svg2"
   xml:space="preserve"
   width="1066.6667"
   height="1066.6667"
   viewBox="0 0 1066.6667 1066.6667"
   sodipodi:docname="zoomfondo-blanco-vertical-seeklogo.com.ai"><metadata
     id="metadata8"><rdf:RDF><cc:Work
         rdf:about=""><dc:format>image/svg+xml</dc:format><dc:type
           rdf:resource="http://purl.org/dc/dcmitype/StillImage" /></cc:Work></rdf:RDF></metadata><defs
     id="defs6"><clipPath
       clipPathUnits="userSpaceOnUse"
       id="clipPath20"><path
         d="M 0,800 H 800 V 0 H 0 Z"
         id="path18" /></clipPath></defs><sodipodi:namedview
     pagecolor="#ffffff"
     bordercolor="#666666"
     borderopacity="1"
     objecttolerance="10"
     gridtolerance="10"
     guidetolerance="10"
     inkscape:pageopacity="0"
     inkscape:pageshadow="2"
     inkscape:window-width="640"
     inkscape:window-height="480"
     id="namedview4" /><g
     id="g10"
     inkscape:groupmode="layer"
     inkscape:label="zoomfondo-blanco-vertical-seeklogo.com"
     transform="matrix(1.3333333,0,0,-1.3333333,0,1066.6667)"><path
       d="M 0,0 H 800 V 800 H 0 Z"
       style="fill:#ffffff;fill-opacity:1;fill-rule:nonzero;stroke:none"
       id="path12" /><g
       id="g14"><g
         id="g16"
         clip-path="url(#clipPath20)"><g
           id="g22"
           transform="translate(81.4448,265.6895)"><path
             d="m 0,0 h 115.52 c 0,0 22.64,-0.58 19.737,-27.864 L 49.923,-113.78 h 64.436 c 0,0 31.348,3.482 28.445,-29.025 H 31.927 c 0,0 -23.801,-1.16 -24.381,29.025 l 85.915,85.334 H 29.025 c 0,0 -32.508,0.002 -29.025,28.446"
             style="fill:#008dff;fill-opacity:1;fill-rule:nonzero;stroke:none"
             id="path24" /></g><g
           id="g26"
           transform="translate(577.9307,498.3916)"><path
             d="m 0,0 c 0,99.031 -80.28,179.311 -179.308,179.311 -99.029,0 -179.309,-80.28 -179.309,-179.311 0,-99.025 80.28,-179.301 179.309,-179.301 C -80.28,-179.301 0,-99.025 0,0"
             style="fill:#008dff;fill-opacity:1;fill-rule:nonzero;stroke:none"
             id="path28" /></g><g
           id="g30"
           transform="translate(360.8193,194.2832)"><path
             d="m 0,0 c 0,39.76 -32.23,71.987 -71.986,71.987 -39.757,0 -71.987,-32.227 -71.987,-71.987 0,-39.759 32.23,-71.986 71.987,-71.986 C -32.23,-71.986 0,-39.759 0,0 m -71.986,-43.541 c -24.047,0 -43.542,19.493 -43.542,43.541 0,24.048 19.495,43.542 43.542,43.542 24.047,0 43.541,-19.494 43.541,-43.542 0,-24.048 -19.494,-43.541 -43.541,-43.541"
             style="fill:#008dff;fill-opacity:1;fill-rule:nonzero;stroke:none"
             id="path32" /></g><g
           id="g34"
           transform="translate(511.7627,194.2832)"><path
             d="m 0,0 c 0,39.76 -32.228,71.987 -71.985,71.987 -39.756,0 -71.986,-32.227 -71.986,-71.987 0,-39.759 32.23,-71.986 71.986,-71.986 C -32.228,-71.986 0,-39.759 0,0 m -71.985,-43.541 c -24.046,0 -43.541,19.493 -43.541,43.541 0,24.048 19.495,43.542 43.541,43.542 24.047,0 43.542,-19.494 43.542,-43.542 0,-24.048 -19.495,-43.541 -43.542,-43.541"
             style="fill:#008dff;fill-opacity:1;fill-rule:nonzero;stroke:none"
             id="path36" /></g><g
           id="g38"
           transform="translate(518.5645,266.2705)"><path
             d="m 0,0 v -143.393 c 0,0 27.286,-5.217 28.445,23.807 v 61.534 c 0,0 1.162,29.027 29.607,29.607 0,0 27.282,-1.16 28.443,-28.447 v -63.276 c 0,0 1.742,-25.551 29.607,-23.225 v 85.921 c 0,0 0.58,30.768 29.605,29.027 0,0 24.381,-1.742 26.123,-24.382 v -59.793 c 0,0 -2.321,-34.259 29.606,-30.773 v 88.243 c 0,0 -1.741,49.347 -52.826,55.15 0,0 -32.51,1.16 -47.893,-19.738 0,0 -34.032,38.558 -74.595,9.288 0,0 -9.289,9.291 -26.122,10.45"
             style="fill:#008dff;fill-opacity:1;fill-rule:nonzero;stroke:none"
             id="path40" /></g><g
           id="g42"
           transform="translate(282.666,563.7061)"><path
             d="m 0,0 h 132.063 c 0,0 32.21,-3.221 33.284,-28.989 V -128.84 H 37.579 c 0,0 -36.506,-4.295 -37.579,33.283 z"
             style="fill:#ffffff;fill-opacity:1;fill-rule:nonzero;stroke:none"
             id="path44" /></g><g
           id="g46"
           transform="translate(512.4316,563.7061)"><path
             d="m 0,0 v -128.99 l -56.904,37.728 v 52.61 z"
             style="fill:#ffffff;fill-opacity:1;fill-rule:nonzero;stroke:none"
             id="path48" /></g></g></g></g></svg>
