<?xml version="1.0" encoding="UTF-8"?>
<svg version="1.1" viewBox="0 0 1066.7 1066.7" xml:space="preserve" xmlns="http://www.w3.org/2000/svg" xmlns:cc="http://creativecommons.org/ns#" xmlns:dc="http://purl.org/dc/elements/1.1/" xmlns:rdf="http://www.w3.org/1999/02/22-rdf-syntax-ns#"><metadata><rdf:RDF><cc:Work rdf:about=""><dc:format>image/svg+xml</dc:format><dc:type rdf:resource="http://purl.org/dc/dcmitype/StillImage"/></cc:Work></rdf:RDF></metadata><defs><clipPath id="a"><path d="m0 800h800v-800h-800z"/></clipPath></defs><g transform="matrix(1.3333 0 0 -1.3333 0 1066.7)"><path d="m0 0h800v800h-800z" fill="none"/><g clip-path="url(#a)"><g transform="translate(81.445 265.69)"><path d="m0 0h115.52s22.64-0.58 19.737-27.864l-85.334-85.916h64.436s31.348 3.482 28.445-29.025h-110.88s-23.801-1.16-24.381 29.025l85.915 85.334h-64.436s-32.508 2e-3 -29.025 28.446" fill="#008dff"/></g><g transform="translate(577.93 498.39)"><path d="m0 0c0 99.031-80.28 179.31-179.31 179.31-99.029 0-179.31-80.28-179.31-179.31 0-99.025 80.28-179.3 179.31-179.3 99.028 0 179.31 80.276 179.31 179.3" fill="#008dff"/></g><g transform="translate(360.82 194.28)"><path d="m0 0c0 39.76-32.23 71.987-71.986 71.987-39.757 0-71.987-32.227-71.987-71.987 0-39.759 32.23-71.986 71.987-71.986 39.756 0 71.986 32.227 71.986 71.986m-71.986-43.541c-24.047 0-43.542 19.493-43.542 43.541s19.495 43.542 43.542 43.542 43.541-19.494 43.541-43.542-19.494-43.541-43.541-43.541" fill="#008dff"/></g><g transform="translate(511.76 194.28)"><path d="m0 0c0 39.76-32.228 71.987-71.985 71.987-39.756 0-71.986-32.227-71.986-71.987 0-39.759 32.23-71.986 71.986-71.986 39.757 0 71.985 32.227 71.985 71.986m-71.985-43.541c-24.046 0-43.541 19.493-43.541 43.541s19.495 43.542 43.541 43.542c24.047 0 43.542-19.494 43.542-43.542s-19.495-43.541-43.542-43.541" fill="#008dff"/></g><g transform="translate(518.56 266.27)"><path d="m0 0v-143.39s27.286-5.217 28.445 23.807v61.534s1.162 29.027 29.607 29.607c0 0 27.282-1.16 28.443-28.447v-63.276s1.742-25.551 29.607-23.225v85.921s0.58 30.768 29.605 29.027c0 0 24.381-1.742 26.123-24.382v-59.793s-2.321-34.259 29.606-30.773v88.243s-1.741 49.347-52.826 55.15c0 0-32.51 1.16-47.893-19.738 0 0-34.032 38.558-74.595 9.288 0 0-9.289 9.291-26.122 10.45" fill="#008dff"/></g><g transform="translate(282.67 563.71)"><path d="m0 0h132.06s32.21-3.221 33.284-28.989v-99.851h-127.77s-36.506-4.295-37.579 33.283z" fill="#fff"/></g><g transform="translate(512.43 563.71)"><path d="m0 0v-128.99l-56.904 37.728v52.61z" fill="#fff"/></g></g></g></svg>
