<svg width="127" height="127" viewBox="0 0 127 127" fill="none" xmlns="http://www.w3.org/2000/svg">
<path d="M0 14.433C0 6.46187 6.46187 0 14.433 0H112.567C120.538 0 127 6.46187 127 14.433V112.567C127 120.538 120.538 127 112.567 127H14.433C6.46187 127 0 120.538 0 112.567V14.433Z" fill="#5A19DA"/>
<path fill-rule="evenodd" clip-rule="evenodd" d="M50.5943 19.8761C47.1727 19.8761 44.3992 22.6498 44.3992 26.0712V51.9237C44.3992 55.3452 47.1727 58.1188 50.5943 58.1188H76.4468C79.8683 58.1188 82.6419 55.3452 82.6419 51.9237V26.0712C82.6419 22.6498 79.8683 19.8761 76.4468 19.8761H50.5943ZM64.5129 29.9684C64.4729 27.6432 66.3312 25.7258 68.6636 25.6857C70.996 25.6457 72.9195 27.4982 72.9595 29.8235C72.9996 32.1487 71.1415 34.0658 68.8088 34.1058C67.9295 34.121 67.1081 33.867 66.4237 33.42L59.6759 37.5506C59.7924 37.9241 59.8584 38.3206 59.8656 38.7317C59.8752 39.2968 59.7728 39.8377 59.5787 40.3335L66.2766 44.4334C66.9499 43.9517 67.7721 43.6623 68.6636 43.6469C70.996 43.6068 72.9195 45.4594 72.9595 47.7846C72.9996 50.1098 71.1415 52.0272 68.8088 52.0672C66.4765 52.1073 64.5532 50.2547 64.5129 47.9295C64.5096 47.7291 64.5201 47.5317 64.5441 47.3384L57.0749 42.7664C56.6497 42.9191 56.1922 43.0061 55.7149 43.0141C53.3825 43.0541 51.4593 41.2016 51.419 38.8766C51.3789 36.5514 53.2373 34.634 55.5696 34.594C56.224 34.5826 56.8463 34.7204 57.4037 34.9758L64.5695 30.5896C64.5358 30.3872 64.5168 30.1796 64.5129 29.9684Z" fill="white"/>
<path fill-rule="evenodd" clip-rule="evenodd" d="M26.33 68.4439C22.9085 68.4439 20.1349 71.2178 20.1349 74.639V100.492C20.1349 103.913 22.9085 106.687 26.33 106.687H52.1826C55.6039 106.687 58.3777 103.913 58.3777 100.492V74.639C58.3777 71.2178 55.6039 68.4439 52.1826 68.4439H26.33ZM41.7067 85.1232H48.9079C49.4416 85.1232 49.9344 85.2965 50.3358 85.5892C50.9546 86.0276 51.3585 86.7493 51.3585 87.5654C51.3585 88.2192 51.0989 88.8128 50.6776 89.2482C50.2307 89.715 49.6015 90.0074 48.9079 90.0074H41.7067V97.2254C41.7067 98.3949 40.8644 99.3847 39.7534 99.6163C39.593 99.6497 39.4268 99.6674 39.2568 99.6674C37.8912 99.6674 36.8059 98.5821 36.8059 97.2254V90.0074H29.6045C28.239 90.0074 27.1541 88.9221 27.1541 87.5654C27.1541 86.9116 27.4134 86.3183 27.8348 85.8827C28.2817 85.4158 28.9109 85.1232 29.6045 85.1232H36.8059V77.9054C36.8059 76.7359 37.6483 75.7459 38.759 75.5142C38.9197 75.4808 39.0856 75.4631 39.2557 75.4631C40.6212 75.4631 41.7067 76.5487 41.7067 77.9054V85.1232Z" fill="white"/>
<path d="M82.9895 79.5583H87.3967V83.0693C87.3967 84.1971 88.2846 85.1124 89.3864 85.1124H92.6592V95.8146H82.9895V79.5583Z" fill="white"/>
<path fill-rule="evenodd" clip-rule="evenodd" d="M68.7028 74.639C68.7028 71.2178 71.4764 68.4439 74.8979 68.4439H100.75C104.172 68.4439 106.946 71.2178 106.946 74.639V100.492C106.946 103.913 104.172 106.687 100.75 106.687H74.8979C71.4764 106.687 68.7028 103.913 68.7028 100.492V74.639ZM89.9126 75.4204L96.8361 82.5301C97.0992 82.8242 97.2637 83.1999 97.2637 83.6251V97.3889C97.2639 97.3953 97.2638 97.4016 97.2638 97.4079C97.2637 97.4111 97.2637 97.4142 97.2637 97.4173C97.2311 99.0711 95.9275 100.394 94.3201 100.394H81.3282C79.7211 100.394 78.4177 99.0556 78.3846 97.4173V77.9557C78.4172 76.3019 79.7209 74.9792 81.3282 74.9792H88.8767C89.255 74.9792 89.6332 75.1426 89.9126 75.4204Z" fill="white"/>
</svg>
