<svg width="40" height="42" viewBox="0 0 40 42" fill="none" xmlns="http://www.w3.org/2000/svg">
<path d="M38.8511 34.3344C38.1167 33.3797 36.9416 32.5718 36.0236 31.9475C34.0406 30.6256 32.2046 29.6708 30.2216 28.9364L20.8577 3.04787C20.821 2.86426 20.6007 2.24 20.1233 1.57902C19.3521 0.55082 18.3239 0 17.1856 0C16.0105 0 14.9823 0.55082 14.2479 1.57902C13.7705 2.24 13.5502 2.86426 13.5134 3.04787L0.073438 39.8793C-0.110169 40.3934 0.146881 40.981 0.660979 41.1646C0.771143 41.2013 0.881307 41.238 0.991471 41.238C1.32196 41.238 1.61573 41.0911 1.79934 40.8341C1.83606 40.7974 1.87278 40.7607 1.87278 40.7239C3.85573 37.3456 6.72 34.518 10.0984 32.5351C13.6236 30.4787 17.6262 29.377 21.6656 29.377C23.5016 29.377 25.3377 29.5974 27.1003 30.038C27.6511 30.1849 28.1652 30.3318 28.6793 30.5154L30.3685 35.2525C30.3685 35.2892 31.0662 37.0885 31.5436 38.337C32.1311 39.8059 33.1961 40.7607 34.5547 41.0911C34.8485 41.1646 35.1423 41.2013 35.3993 41.2013C36.501 41.2013 37.6026 40.7607 38.4105 39.9895C39.2551 39.1816 39.7325 38.1902 39.7325 37.0518C39.8059 36.0603 39.4754 35.1056 38.8511 34.3344ZM9.10688 30.7725C7.27081 31.8374 5.58163 33.1593 4.07606 34.6282L15.3495 3.67213C15.3495 3.67213 15.5331 3.19475 15.8269 2.7541C16.1574 2.27672 16.5613 2.01967 17.1488 2.01967C17.7364 2.01967 18.1403 2.27672 18.4708 2.7541C18.8013 3.19475 18.9482 3.63541 18.9482 3.67213L27.8348 28.1652C25.8518 27.6511 23.7954 27.3941 21.7023 27.3941C17.259 27.3941 12.9259 28.5692 9.10688 30.7725ZM37.0885 38.5207C36.501 39.0715 35.6931 39.3285 34.9954 39.1449C34.2977 38.998 33.7469 38.4472 33.4164 37.6026C32.939 36.3908 32.278 34.6649 32.2413 34.5548L31.1397 31.4702C32.3882 32.0577 33.6367 32.7554 34.922 33.6C35.7298 34.1508 36.7213 34.8485 37.2721 35.5462C37.8229 36.2072 38.1534 37.5292 37.0885 38.5207Z" fill="url(#paint0_linear)"/>
<path d="M21.6656 27.3941C17.259 27.3941 12.8892 28.5692 9.1069 30.7725C7.27083 31.8374 5.58166 33.1594 4.07608 34.6282L3.78231 35.4361L1.8728 40.6505C3.85575 37.2721 6.72002 34.4446 10.0984 32.4984C13.6236 30.4787 17.6262 29.3771 21.6656 29.3771C23.5017 29.3771 25.3377 29.5974 27.1003 30.038C27.6512 30.1849 28.1653 30.3318 28.6794 30.5154L27.8348 28.1653C25.8518 27.6512 23.7587 27.3941 21.6656 27.3941Z" fill="url(#paint1_linear)"/>
<path d="M38.8511 34.3344C38.1167 33.3797 36.9416 32.5718 36.0236 31.9475C34.0406 30.6256 32.2046 29.6708 30.2216 28.9364L31.1397 31.4702C32.3882 32.0577 33.6367 32.7554 34.9219 33.6C35.7298 34.1508 36.7213 34.8485 37.2721 35.5462C37.5292 35.8767 37.7495 36.4275 37.7495 36.9784H39.7324C39.8059 36.0603 39.4387 35.0689 38.8511 34.3344Z" fill="url(#paint2_linear)"/>
<defs>
<linearGradient id="paint0_linear" x1="-4.59005e-06" y1="20.6043" x2="39.7825" y2="20.6043" gradientUnits="userSpaceOnUse">
<stop stop-color="#FBD900"/>
<stop offset="0.0341521" stop-color="#FACE03"/>
<stop offset="0.1662" stop-color="#F6AA0D"/>
<stop offset="0.3049" stop-color="#F28B16"/>
<stop offset="0.4501" stop-color="#EF741D"/>
<stop offset="0.6046" stop-color="#ED6321"/>
<stop offset="0.7748" stop-color="#EC5924"/>
<stop offset="0.991" stop-color="#EC5625"/>
<stop offset="1" stop-color="#EC5625"/>
</linearGradient>
<linearGradient id="paint1_linear" x1="1.89392" y1="34.0316" x2="28.6734" y2="34.0316" gradientUnits="userSpaceOnUse">
<stop offset="0.2768" stop-color="white" stop-opacity="0"/>
<stop offset="0.3217" stop-color="#F7F7F7" stop-opacity="0.0104573"/>
<stop offset="0.3906" stop-color="#E2E2E2" stop-opacity="0.0265216"/>
<stop offset="0.475" stop-color="#BFBFBF" stop-opacity="0.0461934"/>
<stop offset="0.5716" stop-color="#8F8E8E" stop-opacity="0.0687083"/>
<stop offset="0.6786" stop-color="#514F50" stop-opacity="0.0936345"/>
<stop offset="0.7917" stop-color="#080506" stop-opacity="0.12"/>
<stop offset="0.905" stop-color="#080506" stop-opacity="0.23"/>
</linearGradient>
<linearGradient id="paint2_linear" x1="30.2248" y1="32.9754" x2="39.782" y2="32.9754" gradientUnits="userSpaceOnUse">
<stop offset="0.1078" stop-color="#080506" stop-opacity="0.23"/>
<stop offset="0.2389" stop-color="#080506" stop-opacity="0.2"/>
<stop offset="0.3008" stop-color="#171415" stop-opacity="0.1806"/>
<stop offset="0.4209" stop-color="#3F3D3E" stop-opacity="0.143"/>
<stop offset="0.5871" stop-color="#807E7F" stop-opacity="0.0908729"/>
<stop offset="0.7909" stop-color="#D8D7D7" stop-opacity="0.0270024"/>
<stop offset="0.8771" stop-color="white" stop-opacity="0"/>
</linearGradient>
</defs>
</svg>
