<svg xmlns="http://www.w3.org/2000/svg" width="140" height="28" fill="none"><g clip-path="url(#a)"><path fill="#fff" stroke="#5A19DA" stroke-linecap="square" stroke-width="1.484" d="M.44 4.758c0-1.107.907-2.016 2.04-2.016h18.924c1.134 0 2.041.909 2.041 2.016v18.75a2.029 2.029 0 0 1-2.04 2.017H2.48A2.029 2.029 0 0 1 .44 23.509V4.758Z"/><path fill="#5A19DA" fill-rule="evenodd" d="M9.454 5.798c-.66 0-1.195.53-1.195 1.184v4.94a1.19 1.19 0 0 0 1.195 1.183h4.985c.66 0 1.195-.53 1.195-1.184v-4.94a1.19 1.19 0 0 0-1.195-1.183H9.454Zm2.684 1.928a.81.81 0 0 1 .8-.818.81.81 0 0 1 .829.79.818.818 0 0 1-1.26.687l-1.302.79a.797.797 0 0 1-.019.532l1.292.783a.817.817 0 0 1 .46-.15.81.81 0 0 1 .829.79.81.81 0 0 1-.8.819.81.81 0 0 1-.823-.904l-1.44-.873a.81.81 0 0 1-1.09-.743.81.81 0 0 1 .8-.819.82.82 0 0 1 .353.073l1.382-.838a.8.8 0 0 1-.011-.119ZM4.775 15.078c-.66 0-1.195.53-1.195 1.184v4.94a1.19 1.19 0 0 0 1.195 1.183H9.76c.66 0 1.195-.53 1.195-1.184v-4.94a1.19 1.19 0 0 0-1.195-1.183H4.775Zm2.965 3.187H9.13c.103 0 .198.033.275.09a.46.46 0 0 1 .066.698.474.474 0 0 1-.341.145H7.74v1.38a.47.47 0 0 1-.472.466.467.467 0 0 1-.473-.466v-1.38H5.406a.467.467 0 0 1-.472-.466.474.474 0 0 1 .473-.467h1.388v-1.38a.47.47 0 0 1 .472-.466c.264 0 .473.208.473.467v1.379Z" clip-rule="evenodd"/><path fill="#5A19DA" d="M15.7 17.202h.85v.67c0 .216.172.391.384.391h.631v2.045h-1.864v-3.106Z"/><path fill="#5A19DA" fill-rule="evenodd" d="M12.946 16.262a1.19 1.19 0 0 1 1.194-1.184h4.986c.66 0 1.194.53 1.194 1.184v4.94a1.19 1.19 0 0 1-1.194 1.183H14.14a1.19 1.19 0 0 1-1.194-1.184v-4.94Zm4.09.149 1.335 1.359c.05.056.082.128.082.209v2.635a.573.573 0 0 1-.567.569H15.38a.575.575 0 0 1-.567-.569v-3.719a.573.573 0 0 1 .567-.568h1.456a.29.29 0 0 1 .2.084Z" clip-rule="evenodd"/><path fill="#5A19DA" d="M48.03 7.645c.453.417.996.626 1.63.626.629 0 1.168-.209 1.616-.626.449-.418.673-.922.673-1.514 0-.585-.224-1.087-.673-1.504A2.3 2.3 0 0 0 49.651 4c-.628 0-1.169.209-1.62.627-.452.417-.678.919-.678 1.504 0 .592.226 1.096.678 1.514ZM47.408 23.458c0 .275.224.499.499.499h3.48a.499.499 0 0 0 .498-.5v-13.05c0-.275-.223-.499-.498-.499h-3.48a.499.499 0 0 0-.499.5v13.05Z"/><path fill="#5A19DA" fill-rule="evenodd" d="M31.216 23.957a.499.499 0 0 1-.498-.5V5.726c0-.276.223-.5.498-.5h7.247c1.403 0 2.616.273 3.639.82 1.022.545 1.81 1.304 2.366 2.277.556.972.833 2.102.833 3.388 0 1.293-.282 2.422-.847 3.389-.564.966-1.368 1.715-2.412 2.245-1.043.53-2.282.796-3.717.796H35.25v5.318c0 .275-.223.499-.498.499h-3.535Zm4.033-9.384h2.234c.684 0 1.256-.119 1.717-.357.46-.237.81-.571 1.048-1.001.238-.43.357-.932.357-1.505 0-.58-.12-1.08-.357-1.504a2.404 2.404 0 0 0-1.053-.984c-.464-.231-1.034-.347-1.712-.347H35.25v5.698Z" clip-rule="evenodd"/><path fill="#5A19DA" d="m58.22 10.184 2.178 4.352 2.259-4.358a.497.497 0 0 1 .442-.27h3.36a.5.5 0 0 1 .435.744l-3.512 6.28 3.639 6.275a.5.5 0 0 1-.431.75h-3.317a.498.498 0 0 1-.436-.257l-2.44-4.408-2.376 4.403a.497.497 0 0 1-.438.262h-3.377a.5.5 0 0 1-.43-.75l3.646-6.274-3.472-6.283a.5.5 0 0 1 .436-.742h3.388c.189 0 .36.107.445.276ZM69.741 23.957a.499.499 0 0 1-.498-.5v-13.05c0-.275.223-.499.498-.499h3.48c.275 0 .498.224.498.5v13.05c0 .275-.223.499-.498.499h-3.48ZM69.865 7.645c.452.417.995.626 1.63.626.628 0 1.167-.209 1.615-.626.45-.418.673-.922.673-1.514 0-.585-.224-1.087-.672-1.504A2.3 2.3 0 0 0 71.484 4c-.628 0-1.168.209-1.62.627-.452.417-.677.919-.677 1.504 0 .592.225 1.096.677 1.514Z"/><path fill="#5A19DA" fill-rule="evenodd" d="M79.21 23.349c1.064.582 2.332.873 3.803.873 1.227 0 2.307-.187 3.24-.562.934-.375 1.69-.903 2.266-1.583a4.979 4.979 0 0 0 .986-1.833c.087-.294-.14-.575-.446-.584l-3.172-.092c-.213-.006-.401.128-.508.313-.1.174-.224.328-.37.463a2.31 2.31 0 0 1-.834.485c-.323.11-.683.165-1.08.165-.573 0-1.068-.12-1.483-.357a2.434 2.434 0 0 1-.961-1.002c-.226-.43-.339-.931-.339-1.504v-.119h8.876a.499.499 0 0 0 .498-.5v-.616c0-1.152-.168-2.175-.503-3.068-.336-.894-.806-1.645-1.41-2.255a5.902 5.902 0 0 0-2.151-1.381c-.83-.311-1.746-.466-2.747-.466-1.415 0-2.645.303-3.689.91a6.246 6.246 0 0 0-2.426 2.542c-.574 1.089-.86 2.358-.86 3.81 0 1.494.285 2.782.855 3.864a5.944 5.944 0 0 0 2.454 2.497Zm1.105-7.934c.022-.453.143-.86.363-1.222.232-.38.547-.682.943-.905a2.704 2.704 0 0 1 1.346-.334c.495 0 .932.105 1.314.316.381.21.682.501.901.873.22.372.333.796.34 1.271h-5.207ZM91.867 23.458c0 .275.223.499.498.499h7.915c1.386 0 2.563-.227 3.533-.681.971-.455 1.713-1.077 2.225-1.866.513-.79.769-1.688.769-2.694 0-.902-.195-1.684-.586-2.346a4.238 4.238 0 0 0-1.552-1.55 4.573 4.573 0 0 0-2.1-.613v-.183a4.933 4.933 0 0 0 1.821-.768 3.931 3.931 0 0 0 1.236-1.386c.299-.558.449-1.193.449-1.907 0-.939-.24-1.765-.719-2.478-.479-.714-1.193-1.269-2.142-1.665-.949-.396-2.125-.594-3.53-.594h-7.319a.499.499 0 0 0-.498.499v17.733Zm7.333-3.15h-2.802v-4.464h2.884c.58 0 1.077.096 1.492.288.415.192.736.464.962.814.225.351.338.767.338 1.249 0 .665-.233 1.183-.7 1.555-.467.372-1.192.558-2.174.558Zm-.293-7.381h-2.509V8.82h2.582c.757 0 1.358.18 1.803.54.446.36.669.853.669 1.481 0 .44-.109.814-.325 1.125a2.058 2.058 0 0 1-.902.714 3.32 3.32 0 0 1-1.318.247Z" clip-rule="evenodd"/><path fill="#5A19DA" d="M109.035 9.908a.5.5 0 0 0-.499.5v13.05a.5.5 0 0 0 .499.499h3.479a.499.499 0 0 0 .499-.5V16.33c0-.56.12-1.05.362-1.468a2.56 2.56 0 0 1 .998-.979 2.906 2.906 0 0 1 1.432-.352 7.574 7.574 0 0 1 1.078.086c.339.05.68-.204.68-.546v-2.814a.459.459 0 0 0-.365-.46 5.157 5.157 0 0 0-.889-.08c-.769 0-1.444.227-2.024.682-.58.454-.997 1.145-1.253 2.071h-.147v-2.061c0-.276-.223-.5-.499-.5h-3.351ZM119.609 23.458c0 .275.223.499.498.499h3.48a.499.499 0 0 0 .498-.5v-13.05c0-.275-.223-.499-.498-.499h-3.48a.499.499 0 0 0-.498.5v13.05ZM121.861 8.271a2.317 2.317 0 0 1-1.63-.626c-.451-.418-.677-.922-.677-1.514 0-.585.226-1.087.677-1.504A2.305 2.305 0 0 1 121.852 4c.634 0 1.176.209 1.624.627.449.417.673.919.673 1.504 0 .592-.224 1.096-.673 1.514a2.286 2.286 0 0 1-1.615.626ZM130.42 10.184l2.178 4.352 2.259-4.358a.498.498 0 0 1 .442-.27h3.36a.5.5 0 0 1 .435.744l-3.512 6.28 3.639 6.275a.5.5 0 0 1-.431.75h-3.317a.499.499 0 0 1-.436-.257l-2.439-4.408-2.376 4.403a.5.5 0 0 1-.439.262h-3.376a.5.5 0 0 1-.431-.75l3.646-6.274-3.471-6.283a.5.5 0 0 1 .436-.742h3.387a.5.5 0 0 1 .446.276Z"/></g><defs><clipPath id="a"><path fill="#fff" d="M0 0h140v28H0z"/></clipPath></defs></svg>
