<svg xmlns="http://www.w3.org/2000/svg" width="378" height="66" fill="none"><g clip-path="url(#a)"><path fill="#fff" stroke="#5A19DA" stroke-linecap="square" stroke-width="4" d="M2 7.434C2 4.45 4.446 2 7.503 2h51.011c3.056 0 5.503 2.45 5.503 5.434v50.547c0 2.984-2.447 5.434-5.503 5.434H7.502C4.446 63.415 2 60.965 2 57.981V7.434Z"/><path fill="#5A19DA" fill-rule="evenodd" d="M26.3 10.238c-1.779 0-3.22 1.428-3.22 3.19v13.317c0 1.762 1.441 3.19 3.22 3.19h13.438c1.779 0 3.22-1.428 3.22-3.19V13.429c0-1.763-1.441-3.191-3.22-3.191H26.3Zm7.235 5.198c-.021-1.198.945-2.185 2.157-2.206 1.213-.02 2.213.934 2.233 2.131.021 1.198-.944 2.186-2.157 2.206a2.206 2.206 0 0 1-1.24-.353l-3.508 2.128a2.154 2.154 0 0 1-.05 1.433l3.482 2.112c.35-.248.777-.398 1.24-.405 1.213-.021 2.213.933 2.233 2.13.021 1.199-.944 2.186-2.157 2.207-1.212.02-2.212-.934-2.233-2.131a2.144 2.144 0 0 1 .016-.305l-3.883-2.355a2.216 2.216 0 0 1-.706.128c-1.213.02-2.213-.934-2.234-2.131-.02-1.198.946-2.186 2.158-2.206.34-.006.664.065.953.196l3.725-2.259a2.172 2.172 0 0 1-.03-.32ZM13.687 35.254c-1.779 0-3.22 1.429-3.22 3.191v13.316c0 1.762 1.441 3.191 3.22 3.191h13.438c1.779 0 3.22-1.428 3.22-3.19V38.444c0-1.762-1.441-3.19-3.22-3.19H13.687Zm7.993 8.591h3.743c.278 0 .534.09.742.24a1.242 1.242 0 0 1 .178 1.885c-.232.24-.56.391-.92.391H21.68v3.718a1.269 1.269 0 0 1-1.274 1.258 1.26 1.26 0 0 1-1.274-1.258V46.36H15.39a1.26 1.26 0 0 1-1.274-1.258c0-.337.135-.642.354-.867.232-.24.56-.39.92-.39h3.743v-3.718a1.27 1.27 0 0 1 1.274-1.258c.71 0 1.274.559 1.274 1.258v3.717Z" clip-rule="evenodd"/><path fill="#5A19DA" d="M43.14 40.979h2.29v1.808c0 .581.462 1.053 1.035 1.053h1.7v5.512H43.14V40.98Z"/><path fill="#5A19DA" fill-rule="evenodd" d="M35.713 38.445c0-1.762 1.442-3.19 3.22-3.19h13.439c1.778 0 3.22 1.428 3.22 3.19v13.316c0 1.762-1.442 3.191-3.22 3.191H38.933c-1.778 0-3.22-1.428-3.22-3.19V38.444Zm11.025.402 3.599 3.663a.834.834 0 0 1 .222.564v7.089a.33.33 0 0 1 0 .01v.005c-.017.852-.694 1.533-1.53 1.533h-6.753c-.836 0-1.513-.69-1.53-1.533V40.153c.017-.851.694-1.533 1.53-1.533H46.2c.196 0 .393.084.538.227Z" clip-rule="evenodd"/><path fill="#5A19DA" d="M130.291 15.276c1.217 1.126 2.682 1.69 4.393 1.69 1.694 0 3.146-.564 4.355-1.69 1.21-1.126 1.814-2.486 1.814-4.08 0-1.578-.604-2.93-1.814-4.056-1.209-1.126-2.669-1.689-4.38-1.689-1.695 0-3.151.563-4.368 1.69-1.217 1.125-1.826 2.477-1.826 4.055 0 1.594.609 2.954 1.826 4.08ZM128.613 57.903c0 .743.601 1.346 1.343 1.346h9.381c.742 0 1.343-.603 1.343-1.346V22.725c0-.744-.601-1.347-1.343-1.347h-9.381c-.742 0-1.343.603-1.343 1.346v35.179Z"/><path fill="#5A19DA" fill-rule="evenodd" d="M84.964 59.249a1.345 1.345 0 0 1-1.343-1.346V10.1c0-.743.601-1.346 1.343-1.346h19.534c3.784 0 7.054.736 9.81 2.207 2.755 1.47 4.882 3.517 6.379 6.139 1.497 2.621 2.246 5.666 2.246 9.134 0 3.485-.761 6.53-2.283 9.135-1.522 2.605-3.689 4.623-6.503 6.053-2.813 1.43-6.153 2.145-10.019 2.145h-8.292v14.335c0 .743-.601 1.346-1.343 1.346h-9.529Zm10.872-25.296h6.022c1.842 0 3.385-.321 4.627-.962s2.184-1.54 2.826-2.7c.641-1.159.962-2.51.962-4.056 0-1.561-.321-2.913-.962-4.055-.642-1.143-1.588-2.026-2.838-2.65-1.251-.625-2.789-.938-4.615-.938h-6.022v15.36Z" clip-rule="evenodd"/><path fill="#5A19DA" d="m157.756 22.121 5.872 11.733 6.09-11.75c.23-.446.691-.726 1.191-.726h9.059a1.346 1.346 0 0 1 1.171 2.004l-9.466 16.932 9.809 16.913a1.346 1.346 0 0 1-1.162 2.022h-8.942c-.489 0-.938-.266-1.175-.693l-6.575-11.881-6.406 11.868a1.342 1.342 0 0 1-1.181.706h-9.103a1.346 1.346 0 0 1-1.161-2.023l9.831-16.912-9.36-16.938a1.346 1.346 0 0 1 1.175-1.998h9.132c.509 0 .973.288 1.201.743ZM188.815 59.249a1.344 1.344 0 0 1-1.343-1.346V22.725c0-.744.6-1.347 1.343-1.347h9.38c.741 0 1.343.603 1.343 1.346v35.179c0 .743-.602 1.346-1.343 1.346h-9.38ZM189.149 15.276c1.218 1.126 2.682 1.69 4.393 1.69 1.695 0 3.146-.564 4.356-1.69 1.209-1.126 1.814-2.486 1.814-4.08 0-1.578-.605-2.93-1.814-4.056-1.21-1.126-2.67-1.689-4.381-1.689-1.694 0-3.15.563-4.368 1.69-1.218 1.125-1.827 2.477-1.827 4.055 0 1.594.609 2.954 1.827 4.08Z"/><path fill="#5A19DA" fill-rule="evenodd" d="M214.338 57.61c2.871 1.569 6.289 2.354 10.254 2.354 3.306 0 6.218-.506 8.735-1.517 2.518-1.01 4.553-2.432 6.108-4.265a13.434 13.434 0 0 0 2.658-4.943c.234-.792-.379-1.55-1.204-1.574l-8.551-.248c-.574-.016-1.081.345-1.369.843a5.25 5.25 0 0 1-.998 1.25 6.222 6.222 0 0 1-2.246 1.307c-.871.295-1.842.444-2.912.444-1.546 0-2.878-.321-3.997-.962a6.55 6.55 0 0 1-2.592-2.7c-.609-1.159-.912-2.51-.912-4.056v-.32h23.925c.743 0 1.344-.603 1.344-1.346v-1.662c0-3.107-.453-5.864-1.358-8.272-.905-2.408-2.17-4.434-3.8-6.077-1.628-1.644-3.561-2.885-5.798-3.723-2.238-.838-4.706-1.258-7.404-1.258-3.817 0-7.132.818-9.945 2.454-2.814 1.635-4.994 3.92-6.54 6.854-1.547 2.934-2.32 6.357-2.32 10.269 0 4.027.769 7.499 2.307 10.416 1.539 2.918 3.744 5.162 6.615 6.731Zm2.981-21.39c.059-1.218.386-2.316.979-3.29a6.843 6.843 0 0 1 2.541-2.442c1.07-.6 2.28-.9 3.628-.9 1.334 0 2.514.284 3.542.851a6.31 6.31 0 0 1 2.43 2.355c.592 1.002.897 2.145.914 3.427h-14.034ZM248.459 57.903c0 .743.601 1.346 1.344 1.346h21.335c3.735 0 6.909-.613 9.525-1.837 2.616-1.225 4.616-2.901 5.997-5.03 1.382-2.128 2.074-4.548 2.074-7.26 0-2.433-.528-4.541-1.58-6.325-1.053-1.783-2.447-3.176-4.184-4.179a12.342 12.342 0 0 0-5.663-1.652v-.493c1.859-.394 3.497-1.085 4.911-2.07a10.61 10.61 0 0 0 3.332-3.736c.806-1.504 1.209-3.218 1.209-5.14 0-2.532-.646-4.76-1.937-6.682-1.292-1.923-3.216-3.419-5.774-4.488-2.558-1.068-5.73-1.602-9.514-1.602h-19.731c-.743 0-1.344.603-1.344 1.346v47.802Zm19.767-8.492h-7.552V37.38h7.775c1.561 0 2.903.258 4.021.776 1.119.518 1.983 1.25 2.592 2.195.609.945.913 2.067.913 3.365 0 1.792-.63 3.189-1.889 4.191-1.258 1.003-3.212 1.504-5.86 1.504Zm-.789-19.896h-6.763v-11.07h6.96c2.039 0 3.66.484 4.861 1.454 1.201.97 1.801 2.301 1.801 3.994 0 1.184-.291 2.195-.875 3.033-.585.838-1.395 1.48-2.431 1.923-1.036.444-2.222.666-3.553.666Z" clip-rule="evenodd"/><path fill="#5A19DA" d="M294.738 21.378c-.741 0-1.343.603-1.343 1.346v35.179c0 .743.602 1.346 1.343 1.346h9.38c.743 0 1.345-.603 1.345-1.346V38.686c0-1.512.324-2.83.974-3.957a6.905 6.905 0 0 1 2.69-2.638c1.143-.633 2.43-.95 3.862-.95.723 0 1.551.059 2.479.174.147.018.289.037.428.057.911.134 1.83-.549 1.83-1.472v-7.584c0-.6-.394-1.134-.982-1.242a13.943 13.943 0 0 0-2.397-.214c-2.074 0-3.892.613-5.455 1.837-1.563 1.225-2.689 3.087-3.38 5.585h-.396v-5.558c0-.743-.601-1.346-1.343-1.346h-9.035ZM323.242 57.903c0 .743.601 1.346 1.343 1.346h9.381c.742 0 1.344-.603 1.344-1.346V22.725c0-.744-.602-1.347-1.344-1.347h-9.381c-.742 0-1.343.603-1.343 1.346v35.179ZM329.312 16.965c-1.711 0-3.175-.563-4.392-1.689-1.217-1.126-1.826-2.486-1.826-4.08 0-1.578.609-2.93 1.826-4.056s2.673-1.689 4.368-1.689c1.711 0 3.17.563 4.379 1.69 1.21 1.125 1.814 2.477 1.814 4.055 0 1.594-.604 2.954-1.814 4.08-1.209 1.126-2.661 1.69-4.355 1.69ZM352.385 22.121l5.872 11.733 6.089-11.75a1.343 1.343 0 0 1 1.192-.726h9.058a1.346 1.346 0 0 1 1.172 2.004l-9.467 16.932 9.81 16.913a1.346 1.346 0 0 1-1.162 2.022h-8.941c-.489 0-.939-.266-1.176-.693l-6.575-11.881-6.406 11.868a1.343 1.343 0 0 1-1.181.706h-9.102a1.346 1.346 0 0 1-1.162-2.023l9.83-16.912-9.359-16.938a1.346 1.346 0 0 1 1.175-1.998h9.132c.508 0 .973.288 1.201.743Z"/></g><defs><clipPath id="a"><path fill="#fff" d="M0 0h377.395v65.415H0z"/></clipPath></defs></svg>
