<svg xmlns="http://www.w3.org/2000/svg" width="128" height="128" fill="none"><rect width="128" height="128" fill="#fff" rx="16"/><path stroke="#5A19DA" stroke-linecap="square" stroke-width="8" d="M4 14.547C4 8.722 8.722 4 14.547 4h98.906C119.278 4 124 8.722 124 14.547v98.906c0 5.825-4.722 10.547-10.547 10.547H14.547C8.722 124 4 119.278 4 113.453V14.547Z"/><path fill="#5A19DA" fill-rule="evenodd" d="M50.993 20.033a6.244 6.244 0 0 0-6.244 6.243v26.057a6.244 6.244 0 0 0 6.244 6.244h26.056a6.244 6.244 0 0 0 6.244-6.244V26.277a6.244 6.244 0 0 0-6.244-6.244H50.993ZM65.02 30.204a4.25 4.25 0 0 1 4.183-4.316 4.251 4.251 0 0 1 4.33 4.17 4.25 4.25 0 0 1-4.183 4.316 4.248 4.248 0 0 1-2.404-.69l-6.801 4.162a4.245 4.245 0 0 1-.098 2.805l6.75 4.132a4.247 4.247 0 0 1 2.406-.792 4.251 4.251 0 0 1 4.33 4.17 4.25 4.25 0 0 1-4.183 4.316 4.251 4.251 0 0 1-4.299-4.766l-7.528-4.608a4.26 4.26 0 0 1-1.37.25 4.251 4.251 0 0 1-4.33-4.17 4.25 4.25 0 0 1 4.183-4.317 4.25 4.25 0 0 1 1.849.385l7.222-4.42a4.286 4.286 0 0 1-.057-.627ZM26.537 68.983a6.244 6.244 0 0 0-6.243 6.244v26.056a6.244 6.244 0 0 0 6.243 6.244h26.056a6.244 6.244 0 0 0 6.244-6.244V75.227a6.244 6.244 0 0 0-6.244-6.244H26.537Zm15.498 16.81h7.258c.538 0 1.035.175 1.44.47a2.436 2.436 0 0 1 .344 3.688c-.45.47-1.085.765-1.784.765h-7.258v7.275a2.478 2.478 0 0 1-2.47 2.461 2.453 2.453 0 0 1-2.47-2.461v-7.275h-7.257a2.452 2.452 0 0 1-2.47-2.461c0-.659.261-1.257.686-1.696a2.466 2.466 0 0 1 1.784-.766h7.258V78.52a2.478 2.478 0 0 1 2.469-2.462 2.453 2.453 0 0 1 2.47 2.462v7.274Z" clip-rule="evenodd"/><path fill="#5A19DA" d="M83.643 80.185h4.442v3.538c0 1.137.895 2.06 2.005 2.06h3.299v10.786h-9.746V80.185Z"/><path fill="#5A19DA" fill-rule="evenodd" d="M69.244 75.227a6.244 6.244 0 0 1 6.244-6.244h26.056a6.244 6.244 0 0 1 6.244 6.244v26.056a6.245 6.245 0 0 1-6.244 6.244H75.488a6.244 6.244 0 0 1-6.244-6.244V75.227Zm21.377.787 6.978 7.166c.265.296.43.675.43 1.104v13.901c-.032 1.666-1.346 2.999-2.966 2.999H81.969c-1.62 0-2.934-1.348-2.967-3V78.57c.033-1.667 1.347-3 2.967-3h7.608c.38 0 .762.164 1.044.444Z" clip-rule="evenodd"/></svg>
