<?xml version="1.0" encoding="UTF-8"?>
<svg fill="none" viewBox="0 0 237 290" xmlns="http://www.w3.org/2000/svg">
<rect x=".5" y=".5" width="236" height="289" rx="7.5" fill="#EFEEF1"/>
<rect x=".5" y=".5" width="236" height="289" rx="7.5" stroke="#CBC7D1"/>
<path d="m26.48 24.448c0 0.96-0.1493 1.7973-0.448 2.512-0.2987 0.704-0.72 1.2907-1.264 1.76-0.544 0.4587-1.1947 0.8053-1.952 1.04-0.7573 0.224-1.5893 0.336-2.496 0.336-0.448 0-0.944-0.0213-1.488-0.064-0.5333-0.032-1.0187-0.1013-1.456-0.208v-10.752c0.4373-0.1067 0.9227-0.176 1.456-0.208 0.544-0.0427 1.04-0.064 1.488-0.064 0.9067 0 1.7387 0.1173 2.496 0.352 0.7573 0.224 1.408 0.5707 1.952 1.04 0.544 0.4587 0.9653 1.0453 1.264 1.76 0.2987 0.704 0.448 1.536 0.448 2.496zm-6.032 4.288c1.472 0 2.5707-0.3733 3.296-1.12 0.7253-0.7573 1.088-1.8133 1.088-3.168s-0.3627-2.4053-1.088-3.152c-0.7253-0.7573-1.824-1.136-3.296-1.136-0.4373 0-0.7787 0.0053-1.024 0.016-0.2347 0.0107-0.4 0.0213-0.496 0.032v8.48c0.096 0.0107 0.2613 0.0213 0.496 0.032 0.2453 0.0107 0.5867 0.016 1.024 0.016zm15.262-2.896c0 0.6613-0.096 1.2587-0.288 1.792s-0.464 0.992-0.816 1.376c-0.3414 0.384-0.752 0.6827-1.232 0.896-0.48 0.2027-1.0027 0.304-1.568 0.304-0.5654 0-1.088-0.1013-1.568-0.304-0.48-0.2133-0.896-0.512-1.248-0.896-0.3414-0.384-0.608-0.8427-0.8-1.376s-0.288-1.1307-0.288-1.792c0-0.6507 0.096-1.2427 0.288-1.776 0.192-0.544 0.4586-1.008 0.8-1.392 0.352-0.384 0.768-0.6773 1.248-0.88 0.48-0.2133 1.0026-0.32 1.568-0.32 0.5653 0 1.088 0.1067 1.568 0.32 0.48 0.2027 0.8906 0.496 1.232 0.88 0.352 0.384 0.624 0.848 0.816 1.392 0.192 0.5333 0.288 1.1253 0.288 1.776zm-1.552 0c0-0.9387-0.2134-1.68-0.64-2.224-0.416-0.5547-0.9867-0.832-1.712-0.832-0.7254 0-1.3014 0.2773-1.728 0.832-0.416 0.544-0.624 1.2853-0.624 2.224s0.208 1.6853 0.624 2.24c0.4266 0.544 1.0026 0.816 1.728 0.816 0.7253 0 1.296-0.272 1.712-0.816 0.4266-0.5547 0.64-1.3013 0.64-2.24zm6.9415 4.352c-0.672 0-1.264-0.1067-1.776-0.32-0.5014-0.2133-0.928-0.512-1.28-0.896-0.3414-0.384-0.5974-0.8373-0.768-1.36-0.1707-0.5333-0.256-1.12-0.256-1.76s0.0906-1.2267 0.272-1.76c0.192-0.5333 0.4586-0.992 0.8-1.376 0.3413-0.3947 0.7573-0.6987 1.248-0.912 0.5013-0.224 1.056-0.336 1.664-0.336 0.3733 0 0.7466 0.032 1.12 0.096 0.3733 0.064 0.7306 0.1653 1.072 0.304l-0.336 1.264c-0.224-0.1067-0.4854-0.192-0.784-0.256-0.288-0.064-0.5974-0.096-0.928-0.096-0.832 0-1.472 0.2613-1.92 0.784-0.4374 0.5227-0.656 1.2853-0.656 2.288 0 0.448 0.048 0.8587 0.144 1.232 0.1066 0.3733 0.2666 0.6933 0.48 0.96 0.224 0.2667 0.5066 0.4747 0.848 0.624 0.3413 0.1387 0.7573 0.208 1.248 0.208 0.3946 0 0.752-0.0373 1.072-0.112s0.5706-0.1547 0.752-0.24l0.208 1.248c-0.0854 0.0533-0.208 0.1067-0.368 0.16-0.16 0.0427-0.3414 0.08-0.544 0.112-0.2027 0.0427-0.4214 0.0747-0.656 0.096-0.224 0.032-0.4427 0.048-0.656 0.048zm6.5095-4.768c0.32 0.2453 0.656 0.5493 1.008 0.912 0.3626 0.3627 0.7146 0.7573 1.056 1.184 0.352 0.416 0.6826 0.8427 0.992 1.28 0.3093 0.4267 0.5706 0.8267 0.784 1.2h-1.744c-0.224-0.3733-0.4854-0.752-0.784-1.136-0.288-0.3947-0.592-0.768-0.912-1.12-0.32-0.3627-0.6454-0.6933-0.976-0.992-0.3307-0.2987-0.6454-0.5493-0.944-0.752v4h-1.488v-12.16l1.488-0.256v7.584c0.256-0.256 0.5386-0.5387 0.848-0.848 0.3093-0.3093 0.6133-0.624 0.912-0.944 0.2986-0.32 0.5813-0.624 0.848-0.912 0.2666-0.2987 0.496-0.56 0.688-0.784h1.744c-0.2454 0.2667-0.512 0.56-0.8 0.88s-0.5867 0.6453-0.896 0.976c-0.3094 0.32-0.624 0.6453-0.944 0.976-0.3094 0.32-0.6027 0.624-0.88 0.912zm11.086 3.472c1.6213 0 2.432-0.5547 2.432-1.664 0-0.3413-0.0747-0.6293-0.224-0.864-0.1387-0.2453-0.3307-0.4533-0.576-0.624-0.2454-0.1813-0.528-0.336-0.848-0.464-0.3094-0.128-0.64-0.256-0.992-0.384-0.4054-0.1387-0.7894-0.2933-1.152-0.464-0.3627-0.1813-0.6774-0.3893-0.944-0.624-0.2667-0.2453-0.48-0.5333-0.64-0.864-0.1494-0.3307-0.224-0.7307-0.224-1.2 0-0.9707 0.3306-1.728 0.992-2.272 0.6613-0.544 1.5733-0.816 2.736-0.816 0.672 0 1.28 0.0747 1.824 0.224 0.5546 0.1387 0.96 0.2933 1.216 0.464l-0.496 1.264c-0.224-0.1387-0.56-0.272-1.008-0.4-0.4374-0.1387-0.9494-0.208-1.536-0.208-0.2987 0-0.576 0.032-0.832 0.096s-0.48 0.16-0.672 0.288-0.3467 0.2933-0.464 0.496c-0.1067 0.192-0.16 0.4213-0.16 0.688 0 0.2987 0.0586 0.5493 0.176 0.752 0.1173 0.2027 0.2826 0.384 0.496 0.544 0.2133 0.1493 0.4586 0.288 0.736 0.416 0.288 0.128 0.6026 0.256 0.944 0.384 0.48 0.192 0.9173 0.384 1.312 0.576 0.4053 0.192 0.752 0.4213 1.04 0.688 0.2986 0.2667 0.528 0.5867 0.688 0.96 0.16 0.3627 0.24 0.8053 0.24 1.328 0 0.9707-0.3574 1.7173-1.072 2.24-0.704 0.5227-1.7014 0.784-2.992 0.784-0.4374 0-0.8427-0.032-1.216-0.096-0.3627-0.0533-0.688-0.1173-0.976-0.192-0.288-0.0853-0.5387-0.1707-0.752-0.256-0.2027-0.096-0.3627-0.176-0.48-0.24l0.464-1.28c0.2453 0.1387 0.6186 0.2933 1.12 0.464 0.5013 0.1707 1.1146 0.256 1.84 0.256zm7.0116 1.104h-1.488v-8.32h1.488v8.32zm-0.752-9.824c-0.2667 0-0.496-0.0853-0.688-0.256-0.1814-0.1813-0.272-0.4213-0.272-0.72s0.0906-0.5333 0.272-0.704c0.192-0.1813 0.4213-0.272 0.688-0.272 0.2666 0 0.4906 0.0907 0.672 0.272 0.192 0.1707 0.288 0.4053 0.288 0.704s-0.096 0.5387-0.288 0.72c-0.1814 0.1707-0.4054 0.256-0.672 0.256zm8.3668 3.264c-0.1813-0.1493-0.4426-0.2933-0.784-0.432-0.3413-0.1387-0.7146-0.208-1.12-0.208-0.4266 0-0.7946 0.08-1.104 0.24-0.2986 0.1493-0.544 0.3627-0.736 0.64-0.192 0.2667-0.3306 0.5867-0.416 0.96-0.0853 0.3733-0.128 0.7733-0.128 1.2 0 0.9707 0.24 1.7227 0.72 2.256 0.48 0.5227 1.12 0.784 1.92 0.784 0.4054 0 0.7414-0.016 1.008-0.048 0.2774-0.0427 0.4907-0.0853 0.64-0.128v-5.264zm0-5.6 1.488-0.256v12.176c-0.3413 0.096-0.7786 0.192-1.312 0.288-0.5333 0.096-1.1466 0.144-1.84 0.144-0.64 0-1.216-0.1013-1.728-0.304s-0.9493-0.4907-1.312-0.864c-0.3626-0.3733-0.6453-0.8267-0.848-1.36-0.192-0.544-0.288-1.152-0.288-1.824 0-0.64 0.08-1.2267 0.24-1.76 0.1707-0.5333 0.416-0.992 0.736-1.376s0.7094-0.6827 1.168-0.896c0.4694-0.2133 1.0027-0.32 1.6-0.32 0.48 0 0.9014 0.064 1.264 0.192 0.3734 0.128 0.6507 0.2507 0.832 0.368v-4.208zm3.2619 8.016c0-0.736 0.1067-1.376 0.32-1.92 0.2134-0.5547 0.496-1.0133 0.848-1.376s0.7574-0.6347 1.216-0.816c0.4587-0.1813 0.928-0.272 1.408-0.272 1.12 0 1.9787 0.352 2.576 1.056 0.5974 0.6933 0.896 1.7547 0.896 3.184v0.256c0 0.096-0.0053 0.1867-0.016 0.272h-5.696c0.064 0.864 0.3147 1.52 0.752 1.968 0.4374 0.448 1.12 0.672 2.048 0.672 0.5227 0 0.96-0.0427 1.312-0.128 0.3627-0.096 0.6347-0.1867 0.816-0.272l0.208 1.248c-0.1813 0.096-0.5013 0.1973-0.96 0.304-0.448 0.1067-0.96 0.16-1.536 0.16-0.7253 0-1.3546-0.1067-1.888-0.32-0.5226-0.224-0.9546-0.528-1.296-0.912-0.3413-0.384-0.5973-0.8373-0.768-1.36-0.16-0.5333-0.24-1.1147-0.24-1.744zm5.712-0.816c0.0107-0.672-0.16-1.2213-0.512-1.648-0.3413-0.4373-0.816-0.656-1.424-0.656-0.3413 0-0.6453 0.0693-0.912 0.208-0.256 0.128-0.4746 0.2987-0.656 0.512-0.1813 0.2133-0.3253 0.4587-0.432 0.736-0.096 0.2773-0.16 0.56-0.192 0.848h4.128z" fill="#383342"/>
<mask id="c" fill="white">
<rect x="103" y="17" width="13" height="13" rx=".5"/>
</mask>
<rect x="103" y="17" width="13" height="13" rx=".5" mask="url(#c)" stroke="#383342" stroke-width="3"/>
<line x1="103" x2="115" y1="19.5" y2="19.5" stroke="#383342" stroke-width="3"/>
<path d="m101.5 18.5v12.5c0 0.2761 0.224 0.5 0.5 0.5h10.5" stroke="#383342"/>
<mask id="b" fill="white">
<rect x="124" y="17" width="14" height="14" rx=".5"/>
</mask>
<rect x="124" y="17" width="14" height="14" rx=".5" mask="url(#b)" stroke="#383342" stroke-width="3"/>
<line x1="128.25" x2="128.25" y1="30" y2="18" stroke="#383342" stroke-width="1.5"/>
<mask id="a" fill="white">
<rect x="146" y="17" width="14" height="14" rx=".5"/>
</mask>
<rect x="146" y="17" width="14" height="14" rx=".5" mask="url(#a)" stroke="#0D6EFD" stroke-width="3"/>
<line x1="147" x2="159" y1="26.25" y2="26.25" stroke="#0D6EFD" stroke-width="1.5"/>
<mask id="d" fill="white">
<rect x="168" y="17" width="14" height="14" rx=".5"/>
</mask>
<rect x="168" y="17" width="14" height="14" rx=".5" mask="url(#d)" stroke="#383342" stroke-width="3"/>
<line x1="177.75" x2="177.75" y1="18" y2="30" stroke="#383342" stroke-width="1.5"/>
<rect x="16" y="44" width="205" height="1" fill="#CBC7D1"/>
<path d="m19.952 69.896c1.6213 0 2.432-0.5547 2.432-1.664 0-0.3413-0.0747-0.6293-0.224-0.864-0.1387-0.2453-0.3307-0.4533-0.576-0.624-0.2453-0.1813-0.528-0.336-0.848-0.464-0.3093-0.128-0.64-0.256-0.992-0.384-0.4053-0.1387-0.7893-0.2933-1.152-0.464-0.3627-0.1813-0.6773-0.3893-0.944-0.624-0.2667-0.2453-0.48-0.5333-0.64-0.864-0.1493-0.3307-0.224-0.7307-0.224-1.2 0-0.9707 0.3307-1.728 0.992-2.272s1.5733-0.816 2.736-0.816c0.672 0 1.28 0.0747 1.824 0.224 0.5547 0.1387 0.96 0.2933 1.216 0.464l-0.496 1.264c-0.224-0.1387-0.56-0.272-1.008-0.4-0.4373-0.1387-0.9493-0.208-1.536-0.208-0.2987 0-0.576 0.032-0.832 0.096s-0.48 0.16-0.672 0.288-0.3467 0.2933-0.464 0.496c-0.1067 0.192-0.16 0.4213-0.16 0.688 0 0.2987 0.0587 0.5493 0.176 0.752s0.2827 0.384 0.496 0.544c0.2133 0.1493 0.4587 0.288 0.736 0.416 0.288 0.128 0.6027 0.256 0.944 0.384 0.48 0.192 0.9173 0.384 1.312 0.576 0.4053 0.192 0.752 0.4213 1.04 0.688 0.2987 0.2667 0.528 0.5867 0.688 0.96 0.16 0.3627 0.24 0.8053 0.24 1.328 0 0.9707-0.3573 1.7173-1.072 2.24-0.704 0.5227-1.7013 0.784-2.992 0.784-0.4373 0-0.8427-0.032-1.216-0.096-0.3627-0.0533-0.688-0.1173-0.976-0.192-0.288-0.0853-0.5387-0.1707-0.752-0.256-0.2027-0.096-0.3627-0.176-0.48-0.24l0.464-1.28c0.2453 0.1387 0.6187 0.2933 1.12 0.464s1.1147 0.256 1.84 0.256zm5.5236 1.104v-12.16l1.488-0.256v4.256c0.2774-0.1067 0.5707-0.1867 0.88-0.24 0.32-0.064 0.6347-0.096 0.944-0.096 0.6614 0 1.2107 0.096 1.648 0.288 0.4374 0.1813 0.784 0.4427 1.04 0.784 0.2667 0.3307 0.4534 0.7307 0.56 1.2 0.1067 0.4693 0.16 0.9867 0.16 1.552v4.672h-1.488v-4.352c0-0.512-0.0373-0.9493-0.112-1.312-0.064-0.3627-0.176-0.656-0.336-0.88s-0.3733-0.384-0.64-0.48c-0.2666-0.1067-0.5973-0.16-0.992-0.16-0.16 0-0.3253 0.0107-0.496 0.032-0.1706 0.0213-0.336 0.048-0.496 0.08-0.1493 0.0213-0.288 0.048-0.416 0.08-0.1173 0.032-0.2026 0.0587-0.256 0.08v6.912h-1.488zm16.165-4.16c0 0.6613-0.096 1.2587-0.288 1.792s-0.464 0.992-0.816 1.376c-0.3414 0.384-0.752 0.6827-1.232 0.896-0.48 0.2027-1.0027 0.304-1.568 0.304-0.5654 0-1.088-0.1013-1.568-0.304-0.48-0.2133-0.896-0.512-1.248-0.896-0.3414-0.384-0.608-0.8427-0.8-1.376s-0.288-1.1307-0.288-1.792c0-0.6507 0.096-1.2427 0.288-1.776 0.192-0.544 0.4586-1.008 0.8-1.392 0.352-0.384 0.768-0.6773 1.248-0.88 0.48-0.2133 1.0026-0.32 1.568-0.32 0.5653 0 1.088 0.1067 1.568 0.32 0.48 0.2027 0.8906 0.496 1.232 0.88 0.352 0.384 0.624 0.848 0.816 1.392 0.192 0.5333 0.288 1.1253 0.288 1.776zm-1.552 0c0-0.9387-0.2134-1.68-0.64-2.224-0.416-0.5547-0.9867-0.832-1.712-0.832-0.7254 0-1.3014 0.2773-1.728 0.832-0.416 0.544-0.624 1.2853-0.624 2.224s0.208 1.6853 0.624 2.24c0.4266 0.544 1.0026 0.816 1.728 0.816 0.7253 0 1.296-0.272 1.712-0.816 0.4266-0.5547 0.64-1.3013 0.64-2.24zm9.9223 4.16c-0.2986-0.768-0.6186-1.6427-0.96-2.624-0.3306-0.992-0.6346-2.0213-0.912-3.088-0.2773 1.0667-0.5813 2.096-0.912 3.088-0.3306 0.9813-0.6453 1.856-0.944 2.624h-1.296c-0.4906-1.0987-0.9706-2.352-1.44-3.76-0.4693-1.408-0.912-2.928-1.328-4.56h1.6c0.1067 0.5013 0.2347 1.0453 0.384 1.632 0.1494 0.5867 0.304 1.1733 0.464 1.76 0.1707 0.5867 0.3467 1.152 0.528 1.696 0.1814 0.544 0.352 1.0187 0.512 1.424 0.1814-0.5013 0.3574-1.0293 0.528-1.584 0.1814-0.5653 0.352-1.1307 0.512-1.696 0.16-0.576 0.3094-1.136 0.448-1.68 0.1494-0.5547 0.2774-1.072 0.384-1.552h1.232c0.096 0.48 0.2134 0.9973 0.352 1.552 0.1387 0.544 0.288 1.104 0.448 1.68 0.16 0.5653 0.3254 1.1307 0.496 1.696 0.1814 0.5547 0.3627 1.0827 0.544 1.584 0.16-0.4053 0.3254-0.88 0.496-1.424 0.1814-0.544 0.3574-1.1093 0.528-1.696 0.1707-0.5867 0.3307-1.1733 0.48-1.76 0.1494-0.5867 0.2774-1.1307 0.384-1.632h1.536c-0.416 1.632-0.8586 3.152-1.328 4.56-0.4693 1.408-0.9493 2.6613-1.44 3.76h-1.296zm12.317 0.192c-0.672 0-1.264-0.1067-1.776-0.32-0.5014-0.2133-0.928-0.512-1.28-0.896-0.3414-0.384-0.5974-0.8373-0.768-1.36-0.1707-0.5333-0.256-1.12-0.256-1.76s0.0906-1.2267 0.272-1.76c0.192-0.5333 0.4586-0.992 0.8-1.376 0.3413-0.3947 0.7573-0.6987 1.248-0.912 0.5013-0.224 1.056-0.336 1.664-0.336 0.3733 0 0.7466 0.032 1.12 0.096 0.3733 0.064 0.7306 0.1653 1.072 0.304l-0.336 1.264c-0.224-0.1067-0.4854-0.192-0.784-0.256-0.288-0.064-0.5974-0.096-0.928-0.096-0.832 0-1.472 0.2613-1.92 0.784-0.4374 0.5227-0.656 1.2853-0.656 2.288 0 0.448 0.048 0.8587 0.144 1.232 0.1066 0.3733 0.2666 0.6933 0.48 0.96 0.224 0.2667 0.5066 0.4747 0.848 0.624 0.3413 0.1387 0.7573 0.208 1.248 0.208 0.3946 0 0.752-0.0373 1.072-0.112s0.5706-0.1547 0.752-0.24l0.208 1.248c-0.0854 0.0533-0.208 0.1067-0.368 0.16-0.16 0.0427-0.3414 0.08-0.544 0.112-0.2027 0.0427-0.4214 0.0747-0.656 0.096-0.224 0.032-0.4427 0.048-0.656 0.048zm10.642-4.352c0 0.6613-0.096 1.2587-0.288 1.792s-0.464 0.992-0.816 1.376c-0.3413 0.384-0.752 0.6827-1.232 0.896-0.48 0.2027-1.0026 0.304-1.568 0.304-0.5653 0-1.088-0.1013-1.568-0.304-0.48-0.2133-0.896-0.512-1.248-0.896-0.3413-0.384-0.608-0.8427-0.8-1.376s-0.288-1.1307-0.288-1.792c0-0.6507 0.096-1.2427 0.288-1.776 0.192-0.544 0.4587-1.008 0.8-1.392 0.352-0.384 0.768-0.6773 1.248-0.88 0.48-0.2133 1.0027-0.32 1.568-0.32 0.5654 0 1.088 0.1067 1.568 0.32 0.48 0.2027 0.8907 0.496 1.232 0.88 0.352 0.384 0.624 0.848 0.816 1.392 0.192 0.5333 0.288 1.1253 0.288 1.776zm-1.552 0c0-0.9387-0.2133-1.68-0.64-2.224-0.416-0.5547-0.9866-0.832-1.712-0.832-0.7253 0-1.3013 0.2773-1.728 0.832-0.416 0.544-0.624 1.2853-0.624 2.224s0.208 1.6853 0.624 2.24c0.4267 0.544 1.0027 0.816 1.728 0.816 0.7254 0 1.296-0.272 1.712-0.816 0.4267-0.5547 0.64-1.3013 0.64-2.24zm3.3255-3.92c0.3414-0.0853 0.7947-0.176 1.36-0.272 0.5654-0.096 1.216-0.144 1.952-0.144 0.6614 0 1.2107 0.096 1.648 0.288 0.4374 0.1813 0.784 0.4427 1.04 0.784 0.2667 0.3307 0.4534 0.7307 0.56 1.2 0.1067 0.4693 0.16 0.9867 0.16 1.552v4.672h-1.488v-4.352c0-0.512-0.0373-0.9493-0.112-1.312-0.064-0.3627-0.176-0.656-0.336-0.88s-0.3733-0.384-0.64-0.48c-0.2666-0.1067-0.5973-0.16-0.992-0.16-0.16 0-0.3253 0.0053-0.496 0.016-0.1706 0.0107-0.336 0.0267-0.496 0.048-0.1493 0.0107-0.288 0.0267-0.416 0.048-0.1173 0.0213-0.2026 0.0373-0.256 0.048v7.024h-1.488v-8.08zm10.804 7.008c0.608 0 1.056-0.08 1.344-0.24 0.2987-0.16 0.448-0.416 0.448-0.768 0-0.3627-0.144-0.6507-0.432-0.864s-0.7626-0.4533-1.424-0.72c-0.32-0.128-0.6293-0.256-0.928-0.384-0.288-0.1387-0.5386-0.2987-0.752-0.48-0.2133-0.1813-0.384-0.4-0.512-0.656s-0.192-0.5707-0.192-0.944c0-0.736 0.272-1.3173 0.816-1.744 0.544-0.4373 1.2854-0.656 2.224-0.656 0.2347 0 0.4694 0.016 0.704 0.048 0.2347 0.0213 0.4534 0.0533 0.656 0.096 0.2027 0.032 0.3787 0.0693 0.528 0.112 0.16 0.0427 0.2827 0.08 0.368 0.112l-0.272 1.28c-0.16-0.0853-0.4106-0.1707-0.752-0.256-0.3413-0.096-0.752-0.144-1.232-0.144-0.416 0-0.7786 0.0853-1.088 0.256-0.3093 0.16-0.464 0.416-0.464 0.768 0 0.1813 0.032 0.3413 0.096 0.48 0.0747 0.1387 0.1814 0.2667 0.32 0.384 0.1494 0.1067 0.3307 0.208 0.544 0.304 0.2134 0.096 0.4694 0.1973 0.768 0.304 0.3947 0.1493 0.7467 0.2987 1.056 0.448 0.3094 0.1387 0.5707 0.304 0.784 0.496 0.224 0.192 0.3947 0.4267 0.512 0.704 0.1174 0.2667 0.176 0.5973 0.176 0.992 0 0.768-0.288 1.3493-0.864 1.744-0.5653 0.3947-1.376 0.592-2.432 0.592-0.736 0-1.312-0.064-1.728-0.192-0.416-0.1173-0.6986-0.208-0.848-0.272l0.272-1.28c0.1707 0.064 0.4427 0.16 0.816 0.288 0.3734 0.128 0.8694 0.192 1.488 0.192zm12.229-3.088c0 0.6613-0.096 1.2587-0.288 1.792s-0.464 0.992-0.816 1.376c-0.3414 0.384-0.752 0.6827-1.232 0.896-0.48 0.2027-1.0027 0.304-1.568 0.304-0.5654 0-1.088-0.1013-1.568-0.304-0.48-0.2133-0.896-0.512-1.248-0.896-0.3414-0.384-0.608-0.8427-0.8-1.376s-0.288-1.1307-0.288-1.792c0-0.6507 0.096-1.2427 0.288-1.776 0.192-0.544 0.4586-1.008 0.8-1.392 0.352-0.384 0.768-0.6773 1.248-0.88 0.48-0.2133 1.0026-0.32 1.568-0.32 0.5653 0 1.088 0.1067 1.568 0.32 0.48 0.2027 0.8906 0.496 1.232 0.88 0.352 0.384 0.624 0.848 0.816 1.392 0.192 0.5333 0.288 1.1253 0.288 1.776zm-1.552 0c0-0.9387-0.2134-1.68-0.64-2.224-0.416-0.5547-0.9867-0.832-1.712-0.832-0.7254 0-1.3014 0.2773-1.728 0.832-0.416 0.544-0.624 1.2853-0.624 2.224s0.208 1.6853 0.624 2.24c0.4266 0.544 1.0026 0.816 1.728 0.816 0.7253 0 1.296-0.272 1.712-0.816 0.4266-0.5547 0.64-1.3013 0.64-2.24zm5.8217 4.32c-0.918-0.0213-1.568-0.2187-1.952-0.592-0.3842-0.3733-0.5762-0.9547-0.5762-1.744v-9.984l1.4882-0.256v10c0 0.2453 0.021 0.448 0.064 0.608 0.042 0.16 0.112 0.288 0.208 0.384s0.224 0.1707 0.384 0.224c0.16 0.0427 0.357 0.08 0.592 0.112l-0.208 1.248zm1.095-4.304c0-0.736 0.106-1.376 0.32-1.92 0.213-0.5547 0.496-1.0133 0.848-1.376s0.757-0.6347 1.216-0.816c0.458-0.1813 0.928-0.272 1.408-0.272 1.12 0 1.978 0.352 2.576 1.056 0.597 0.6933 0.896 1.7547 0.896 3.184v0.256c0 0.096-6e-3 0.1867-0.016 0.272h-5.696c0.064 0.864 0.314 1.52 0.752 1.968 0.437 0.448 1.12 0.672 2.048 0.672 0.522 0 0.96-0.0427 1.312-0.128 0.362-0.096 0.634-0.1867 0.816-0.272l0.208 1.248c-0.182 0.096-0.502 0.1973-0.96 0.304-0.448 0.1067-0.96 0.16-1.536 0.16-0.726 0-1.355-0.1067-1.888-0.32-0.523-0.224-0.955-0.528-1.296-0.912-0.342-0.384-0.598-0.8373-0.768-1.36-0.16-0.5333-0.24-1.1147-0.24-1.744zm5.712-0.816c0.01-0.672-0.16-1.2213-0.512-1.648-0.342-0.4373-0.816-0.656-1.424-0.656-0.342 0-0.646 0.0693-0.912 0.208-0.256 0.128-0.475 0.2987-0.656 0.512-0.182 0.2133-0.326 0.4587-0.432 0.736-0.096 0.2773-0.16 0.56-0.192 0.848h4.128zm12.128-1.6c-0.181-0.1493-0.442-0.2933-0.784-0.432-0.341-0.1387-0.714-0.208-1.12-0.208-0.426 0-0.794 0.08-1.104 0.24-0.298 0.1493-0.544 0.3627-0.736 0.64-0.192 0.2667-0.33 0.5867-0.416 0.96-0.085 0.3733-0.128 0.7733-0.128 1.2 0 0.9707 0.24 1.7227 0.72 2.256 0.48 0.5227 1.12 0.784 1.92 0.784 0.406 0 0.742-0.016 1.008-0.048 0.278-0.0427 0.491-0.0853 0.64-0.128v-5.264zm0-5.6 1.488-0.256v12.176c-0.341 0.096-0.778 0.192-1.312 0.288-0.533 0.096-1.146 0.144-1.84 0.144-0.64 0-1.216-0.1013-1.728-0.304s-0.949-0.4907-1.312-0.864c-0.362-0.3733-0.645-0.8267-0.848-1.36-0.192-0.544-0.288-1.152-0.288-1.824 0-0.64 0.08-1.2267 0.24-1.76 0.171-0.5333 0.416-0.992 0.736-1.376s0.71-0.6827 1.168-0.896c0.47-0.2133 1.003-0.32 1.6-0.32 0.48 0 0.902 0.064 1.264 0.192 0.374 0.128 0.651 0.2507 0.832 0.368v-4.208zm6.798 3.664c0.128 0 0.272 0.0107 0.432 0.032 0.171 0.0107 0.336 0.032 0.496 0.064 0.16 0.0213 0.304 0.048 0.432 0.08 0.139 0.0213 0.24 0.0427 0.304 0.064l-0.256 1.296c-0.117-0.0427-0.314-0.0907-0.592-0.144-0.266-0.064-0.613-0.096-1.04-0.096-0.277 0-0.554 0.032-0.832 0.096-0.266 0.0533-0.442 0.0907-0.528 0.112v6.992h-1.488v-7.968c0.352-0.128 0.79-0.2453 1.312-0.352 0.523-0.1173 1.11-0.176 1.76-0.176zm5.596 7.424c0.352 0 0.661-0.0053 0.928-0.016 0.277-0.0213 0.507-0.0533 0.688-0.096v-2.48c-0.107-0.0533-0.283-0.096-0.528-0.128-0.235-0.0427-0.523-0.064-0.864-0.064-0.224 0-0.464 0.016-0.72 0.048-0.245 0.032-0.475 0.1013-0.688 0.208-0.203 0.096-0.373 0.2347-0.512 0.416-0.139 0.1707-0.208 0.4-0.208 0.688 0 0.5333 0.171 0.9067 0.512 1.12 0.341 0.2027 0.805 0.304 1.392 0.304zm-0.128-7.456c0.597 0 1.099 0.08 1.504 0.24 0.416 0.1493 0.747 0.368 0.992 0.656 0.256 0.2773 0.437 0.6133 0.544 1.008 0.107 0.384 0.16 0.8107 0.16 1.28v5.2c-0.128 0.0213-0.309 0.0533-0.544 0.096-0.224 0.032-0.48 0.064-0.768 0.096s-0.603 0.0587-0.944 0.08c-0.331 0.032-0.661 0.048-0.992 0.048-0.469 0-0.901-0.048-1.296-0.144s-0.736-0.2453-1.024-0.448c-0.288-0.2133-0.512-0.4907-0.672-0.832s-0.24-0.752-0.24-1.232c0-0.4587 0.091-0.8533 0.272-1.184 0.192-0.3307 0.448-0.5973 0.768-0.8s0.693-0.352 1.12-0.448 0.875-0.144 1.344-0.144c0.149 0 0.304 0.0107 0.464 0.032 0.16 0.0107 0.309 0.032 0.448 0.064 0.149 0.0213 0.277 0.0427 0.384 0.064s0.181 0.0373 0.224 0.048v-0.416c0-0.2453-0.027-0.4853-0.08-0.72-0.053-0.2453-0.149-0.4587-0.288-0.64-0.139-0.192-0.331-0.3413-0.576-0.448-0.235-0.1173-0.544-0.176-0.928-0.176-0.491 0-0.923 0.0373-1.296 0.112-0.363 0.064-0.635 0.1333-0.816 0.208l-0.176-1.232c0.192-0.0853 0.512-0.1653 0.96-0.24 0.448-0.0853 0.933-0.128 1.456-0.128zm11.964 8.528c-0.299-0.768-0.619-1.6427-0.96-2.624-0.331-0.992-0.635-2.0213-0.912-3.088-0.277 1.0667-0.581 2.096-0.912 3.088-0.331 0.9813-0.645 1.856-0.944 2.624h-1.296c-0.491-1.0987-0.971-2.352-1.44-3.76s-0.912-2.928-1.328-4.56h1.6c0.107 0.5013 0.235 1.0453 0.384 1.632s0.304 1.1733 0.464 1.76c0.171 0.5867 0.347 1.152 0.528 1.696s0.352 1.0187 0.512 1.424c0.181-0.5013 0.357-1.0293 0.528-1.584 0.181-0.5653 0.352-1.1307 0.512-1.696 0.16-0.576 0.309-1.136 0.448-1.68 0.149-0.5547 0.277-1.072 0.384-1.552h1.232c0.096 0.48 0.213 0.9973 0.352 1.552 0.139 0.544 0.288 1.104 0.448 1.68 0.16 0.5653 0.325 1.1307 0.496 1.696 0.181 0.5547 0.363 1.0827 0.544 1.584 0.16-0.4053 0.325-0.88 0.496-1.424 0.181-0.544 0.357-1.1093 0.528-1.696s0.331-1.1733 0.48-1.76 0.277-1.1307 0.384-1.632h1.536c-0.416 1.632-0.859 3.152-1.328 4.56s-0.949 2.6613-1.44 3.76h-1.296zm4.853-4.144c0-0.736 0.107-1.376 0.32-1.92 0.214-0.5547 0.496-1.0133 0.848-1.376s0.758-0.6347 1.216-0.816c0.459-0.1813 0.928-0.272 1.408-0.272 1.12 0 1.979 0.352 2.576 1.056 0.598 0.6933 0.896 1.7547 0.896 3.184v0.256c0 0.096-5e-3 0.1867-0.016 0.272h-5.696c0.064 0.864 0.315 1.52 0.752 1.968 0.438 0.448 1.12 0.672 2.048 0.672 0.523 0 0.96-0.0427 1.312-0.128 0.363-0.096 0.635-0.1867 0.816-0.272l0.208 1.248c-0.181 0.096-0.501 0.1973-0.96 0.304-0.448 0.1067-0.96 0.16-1.536 0.16-0.725 0-1.354-0.1067-1.888-0.32-0.522-0.224-0.954-0.528-1.296-0.912-0.341-0.384-0.597-0.8373-0.768-1.36-0.16-0.5333-0.24-1.1147-0.24-1.744zm5.712-0.816c0.011-0.672-0.16-1.2213-0.512-1.648-0.341-0.4373-0.816-0.656-1.424-0.656-0.341 0-0.645 0.0693-0.912 0.208-0.256 0.128-0.474 0.2987-0.656 0.512-0.181 0.2133-0.325 0.4587-0.432 0.736-0.096 0.2773-0.16 0.56-0.192 0.848h4.128zm6.442-3.536c0.128 0 0.272 0.0107 0.432 0.032 0.171 0.0107 0.336 0.032 0.496 0.064 0.16 0.0213 0.304 0.048 0.432 0.08 0.139 0.0213 0.24 0.0427 0.304 0.064l-0.256 1.296c-0.117-0.0427-0.315-0.0907-0.592-0.144-0.267-0.064-0.613-0.096-1.04-0.096-0.277 0-0.555 0.032-0.832 0.096-0.267 0.0533-0.443 0.0907-0.528 0.112v6.992h-1.488v-7.968c0.352-0.128 0.789-0.2453 1.312-0.352 0.523-0.1173 1.109-0.176 1.76-0.176z" fill="#383342"/>
<path d="m199.3 71v-11.088h6.768v1.328h-5.216v3.296h4.64v1.296h-4.64v3.84h5.616v1.328h-7.168zm10.661-1.072c0.608 0 1.056-0.08 1.344-0.24 0.299-0.16 0.448-0.416 0.448-0.768 0-0.3627-0.144-0.6507-0.432-0.864s-0.763-0.4533-1.424-0.72c-0.32-0.128-0.629-0.256-0.928-0.384-0.288-0.1387-0.539-0.2987-0.752-0.48s-0.384-0.4-0.512-0.656-0.192-0.5707-0.192-0.944c0-0.736 0.272-1.3173 0.816-1.744 0.544-0.4373 1.285-0.656 2.224-0.656 0.235 0 0.469 0.016 0.704 0.048 0.235 0.0213 0.453 0.0533 0.656 0.096 0.203 0.032 0.379 0.0693 0.528 0.112 0.16 0.0427 0.283 0.08 0.368 0.112l-0.272 1.28c-0.16-0.0853-0.411-0.1707-0.752-0.256-0.341-0.096-0.752-0.144-1.232-0.144-0.416 0-0.779 0.0853-1.088 0.256-0.309 0.16-0.464 0.416-0.464 0.768 0 0.1813 0.032 0.3413 0.096 0.48 0.075 0.1387 0.181 0.2667 0.32 0.384 0.149 0.1067 0.331 0.208 0.544 0.304s0.469 0.1973 0.768 0.304c0.395 0.1493 0.747 0.2987 1.056 0.448 0.309 0.1387 0.571 0.304 0.784 0.496 0.224 0.192 0.395 0.4267 0.512 0.704 0.117 0.2667 0.176 0.5973 0.176 0.992 0 0.768-0.288 1.3493-0.864 1.744-0.565 0.3947-1.376 0.592-2.432 0.592-0.736 0-1.312-0.064-1.728-0.192-0.416-0.1173-0.699-0.208-0.848-0.272l0.272-1.28c0.171 0.064 0.443 0.16 0.816 0.288s0.869 0.192 1.488 0.192zm8.501 1.264c-0.672 0-1.264-0.1067-1.776-0.32-0.502-0.2133-0.928-0.512-1.28-0.896-0.342-0.384-0.598-0.8373-0.768-1.36-0.171-0.5333-0.256-1.12-0.256-1.76s0.09-1.2267 0.272-1.76c0.192-0.5333 0.458-0.992 0.8-1.376 0.341-0.3947 0.757-0.6987 1.248-0.912 0.501-0.224 1.056-0.336 1.664-0.336 0.373 0 0.746 0.032 1.12 0.096 0.373 0.064 0.73 0.1653 1.072 0.304l-0.336 1.264c-0.224-0.1067-0.486-0.192-0.784-0.256-0.288-0.064-0.598-0.096-0.928-0.096-0.832 0-1.472 0.2613-1.92 0.784-0.438 0.5227-0.656 1.2853-0.656 2.288 0 0.448 0.048 0.8587 0.144 1.232 0.106 0.3733 0.266 0.6933 0.48 0.96 0.224 0.2667 0.506 0.4747 0.848 0.624 0.341 0.1387 0.757 0.208 1.248 0.208 0.394 0 0.752-0.0373 1.072-0.112s0.57-0.1547 0.752-0.24l0.208 1.248c-0.086 0.0533-0.208 0.1067-0.368 0.16-0.16 0.0427-0.342 0.08-0.544 0.112-0.203 0.0427-0.422 0.0747-0.656 0.096-0.224 0.032-0.443 0.048-0.656 0.048z" fill="#686076"/>
<path d="m19.952 101.9c1.6213 0 2.432-0.555 2.432-1.664 0-0.3413-0.0747-0.6293-0.224-0.864-0.1387-0.2453-0.3307-0.4533-0.576-0.624-0.2453-0.1813-0.528-0.336-0.848-0.464-0.3093-0.128-0.64-0.256-0.992-0.384-0.4053-0.1387-0.7893-0.2933-1.152-0.464-0.3627-0.1813-0.6773-0.3893-0.944-0.624-0.2667-0.2453-0.48-0.5333-0.64-0.864-0.1493-0.3307-0.224-0.7307-0.224-1.2 0-0.9707 0.3307-1.728 0.992-2.272s1.5733-0.816 2.736-0.816c0.672 0 1.28 0.0747 1.824 0.224 0.5547 0.1387 0.96 0.2933 1.216 0.464l-0.496 1.264c-0.224-0.1387-0.56-0.272-1.008-0.4-0.4373-0.1387-0.9493-0.208-1.536-0.208-0.2987 0-0.576 0.032-0.832 0.096s-0.48 0.16-0.672 0.288-0.3467 0.2933-0.464 0.496c-0.1067 0.192-0.16 0.4213-0.16 0.688 0 0.2987 0.0587 0.5493 0.176 0.752s0.2827 0.384 0.496 0.544c0.2133 0.1493 0.4587 0.288 0.736 0.416 0.288 0.128 0.6027 0.256 0.944 0.384 0.48 0.192 0.9173 0.384 1.312 0.576 0.4053 0.192 0.752 0.4213 1.04 0.688 0.2987 0.2667 0.528 0.5867 0.688 0.96 0.16 0.3627 0.24 0.8053 0.24 1.328 0 0.971-0.3573 1.717-1.072 2.24-0.704 0.523-1.7013 0.784-2.992 0.784-0.4373 0-0.8427-0.032-1.216-0.096-0.3627-0.053-0.688-0.117-0.976-0.192-0.288-0.085-0.5387-0.171-0.752-0.256-0.2027-0.096-0.3627-0.176-0.48-0.24l0.464-1.28c0.2453 0.139 0.6187 0.293 1.12 0.464s1.1147 0.256 1.84 0.256zm5.0596-3.04c0-0.736 0.1067-1.376 0.32-1.92 0.2134-0.5547 0.496-1.0133 0.848-1.376s0.7574-0.6347 1.216-0.816c0.4587-0.1813 0.928-0.272 1.408-0.272 1.12 0 1.9787 0.352 2.576 1.056 0.5974 0.6933 0.896 1.7547 0.896 3.184v0.256c0 0.096-0.0053 0.1867-0.016 0.272h-5.696c0.064 0.864 0.3147 1.52 0.752 1.968 0.4374 0.448 1.12 0.672 2.048 0.672 0.5227 0 0.96-0.043 1.312-0.128 0.3627-0.096 0.6347-0.187 0.816-0.272l0.208 1.248c-0.1813 0.096-0.5013 0.197-0.96 0.304-0.448 0.107-0.96 0.16-1.536 0.16-0.7253 0-1.3546-0.107-1.888-0.32-0.5226-0.224-0.9546-0.528-1.296-0.912-0.3413-0.384-0.5973-0.837-0.768-1.36-0.16-0.533-0.24-1.1147-0.24-1.744zm5.712-0.816c0.0107-0.672-0.16-1.2213-0.512-1.648-0.3413-0.4373-0.816-0.656-1.424-0.656-0.3413 0-0.6453 0.0693-0.912 0.208-0.256 0.128-0.4746 0.2987-0.656 0.512-0.1813 0.2133-0.3253 0.4587-0.432 0.736-0.096 0.2773-0.16 0.56-0.192 0.848h4.128zm6.1855 3.888c0.352 0 0.6614-5e-3 0.928-0.016 0.2774-0.021 0.5067-0.053 0.688-0.096v-2.48c-0.1066-0.0533-0.2826-0.096-0.528-0.128-0.2346-0.0427-0.5226-0.064-0.864-0.064-0.224 0-0.464 0.016-0.72 0.048-0.2453 0.032-0.4746 0.1013-0.688 0.208-0.2026 0.096-0.3733 0.2347-0.512 0.416-0.1386 0.1707-0.208 0.4-0.208 0.688 0 0.533 0.1707 0.907 0.512 1.12 0.3414 0.203 0.8054 0.304 1.392 0.304zm-0.128-7.456c0.5974 0 1.0987 0.08 1.504 0.24 0.416 0.1493 0.7467 0.368 0.992 0.656 0.256 0.2773 0.4374 0.6133 0.544 1.008 0.1067 0.384 0.16 0.8107 0.16 1.28v5.2c-0.128 0.021-0.3093 0.053-0.544 0.096-0.224 0.032-0.48 0.064-0.768 0.096s-0.6026 0.059-0.944 0.08c-0.3306 0.032-0.6613 0.048-0.992 0.048-0.4693 0-0.9013-0.048-1.296-0.144-0.3946-0.096-0.736-0.245-1.024-0.448-0.288-0.213-0.512-0.491-0.672-0.832s-0.24-0.752-0.24-1.232c0-0.459 0.0907-0.8533 0.272-1.184 0.192-0.3307 0.448-0.5973 0.768-0.8s0.6934-0.352 1.12-0.448c0.4267-0.096 0.8747-0.144 1.344-0.144 0.1494 0 0.304 0.0107 0.464 0.032 0.16 0.0107 0.3094 0.032 0.448 0.064 0.1494 0.0213 0.2774 0.0427 0.384 0.064 0.1067 0.0213 0.1814 0.0373 0.224 0.048v-0.416c0-0.2453-0.0266-0.4853-0.08-0.72-0.0533-0.2453-0.1493-0.4587-0.288-0.64-0.1386-0.192-0.3306-0.3413-0.576-0.448-0.2346-0.1173-0.544-0.176-0.928-0.176-0.4906 0-0.9226 0.0373-1.296 0.112-0.3626 0.064-0.6346 0.1333-0.816 0.208l-0.176-1.232c0.192-0.0853 0.512-0.1653 0.96-0.24 0.448-0.0853 0.9334-0.128 1.456-0.128zm8.4234 0.032c0.128 0 0.272 0.0107 0.432 0.032 0.1707 0.0107 0.336 0.032 0.496 0.064 0.16 0.0213 0.304 0.048 0.432 0.08 0.1387 0.0213 0.24 0.0427 0.304 0.064l-0.256 1.296c-0.1173-0.0427-0.3147-0.0907-0.592-0.144-0.2667-0.064-0.6133-0.096-1.04-0.096-0.2773 0-0.5547 0.032-0.832 0.096-0.2667 0.0533-0.4427 0.0907-0.528 0.112v6.992h-1.488v-7.968c0.352-0.128 0.7893-0.2453 1.312-0.352 0.5227-0.1173 1.1093-0.176 1.76-0.176zm6.3959 8.688c-0.672 0-1.264-0.107-1.776-0.32-0.5014-0.213-0.928-0.512-1.28-0.896-0.3414-0.384-0.5974-0.837-0.768-1.36-0.1707-0.533-0.256-1.12-0.256-1.76s0.0906-1.2267 0.272-1.76c0.192-0.5333 0.4586-0.992 0.8-1.376 0.3413-0.3947 0.7573-0.6987 1.248-0.912 0.5013-0.224 1.056-0.336 1.664-0.336 0.3733 0 0.7466 0.032 1.12 0.096 0.3733 0.064 0.7306 0.1653 1.072 0.304l-0.336 1.264c-0.224-0.1067-0.4854-0.192-0.784-0.256-0.288-0.064-0.5974-0.096-0.928-0.096-0.832 0-1.472 0.2613-1.92 0.784-0.4374 0.5227-0.656 1.2853-0.656 2.288 0 0.448 0.048 0.8587 0.144 1.232 0.1066 0.373 0.2666 0.693 0.48 0.96 0.224 0.267 0.5066 0.475 0.848 0.624 0.3413 0.139 0.7573 0.208 1.248 0.208 0.3946 0 0.752-0.037 1.072-0.112s0.5706-0.155 0.752-0.24l0.208 1.248c-0.0854 0.053-0.208 0.107-0.368 0.16-0.16 0.043-0.3414 0.08-0.544 0.112-0.2027 0.043-0.4214 0.075-0.656 0.096-0.224 0.032-0.4427 0.048-0.656 0.048zm3.5015-0.192v-12.16l1.488-0.256v4.256c0.2773-0.1067 0.5706-0.1867 0.88-0.24 0.32-0.064 0.6346-0.096 0.944-0.096 0.6613 0 1.2106 0.096 1.648 0.288 0.4373 0.1813 0.784 0.4427 1.04 0.784 0.2666 0.3307 0.4533 0.7307 0.56 1.2 0.1066 0.4693 0.16 0.9867 0.16 1.552v4.672h-1.488v-4.352c0-0.512-0.0374-0.9493-0.112-1.312-0.064-0.3627-0.176-0.656-0.336-0.88s-0.3734-0.384-0.64-0.48c-0.2667-0.1067-0.5974-0.16-0.992-0.16-0.16 0-0.3254 0.0107-0.496 0.032-0.1707 0.0213-0.336 0.048-0.496 0.08-0.1494 0.0213-0.288 0.048-0.416 0.08-0.1174 0.032-0.2027 0.0587-0.256 0.08v6.912h-1.488z" fill="#383342"/>
<path d="m182.31 103c-1.488 0-2.448-0.944-2.448-2.416 0-1.552 0.928-2.464 2.752-2.464h0.944v-1.76h-0.944c-1.824 0-2.752-0.912-2.752-2.464 0-1.472 0.96-2.416 2.448-2.416 1.792 0 2.368 1.12 2.368 2.464v1.328h1.76v-1.328c0-1.344 0.576-2.464 2.368-2.464 1.488 0 2.448 0.944 2.448 2.416 0 1.552-0.928 2.464-2.752 2.464h-0.944v1.76h0.944c1.824 0 2.752 0.912 2.752 2.464 0 1.472-0.96 2.416-2.448 2.416-1.792 0-2.368-1.12-2.368-2.464v-1.328h-1.76v1.328c0 1.344-0.576 2.464-2.368 2.464zm5.248-9.088v1.36h0.944c1.136 0 1.616-0.464 1.616-1.376 0-0.944-0.56-1.312-1.312-1.312-0.832 0-1.248 0.512-1.248 1.328zm-4.944 1.36h0.944v-1.36c0-0.816-0.416-1.328-1.248-1.328-0.752 0-1.312 0.368-1.312 1.312 0 0.912 0.48 1.376 1.616 1.376zm2.064 2.848h1.76v-1.76h-1.76v1.76zm-2.368 3.776c0.832 0 1.248-0.512 1.248-1.328v-1.36h-0.944c-1.136 0-1.616 0.464-1.616 1.376 0 0.944 0.56 1.312 1.312 1.312zm5.248-1.328c0 0.816 0.416 1.328 1.248 1.328 0.752 0 1.312-0.368 1.312-1.312 0-0.912-0.48-1.376-1.616-1.376h-0.944v1.36zm17.022 0.368-5.104-5.392h-3.52v-1.136h3.952l5.104 5.392h3.52v1.136h-3.952zm0-5.392v-1.136h3.952v1.136h-3.952zm9.202 7.456v-11.088h6.688v1.328h-5.136v3.344h4.56v1.312h-4.56v5.104h-1.552z" fill="#686076"/>
<path d="m22.8 130.36c0.1707 0.213 0.384 0.496 0.64 0.848 0.2667 0.341 0.5387 0.725 0.816 1.152 0.2773 0.416 0.5493 0.853 0.816 1.312 0.2773 0.459 0.512 0.901 0.704 1.328h-1.696c-0.2133-0.405-0.448-0.816-0.704-1.232-0.2453-0.416-0.496-0.811-0.752-1.184-0.256-0.384-0.512-0.741-0.768-1.072-0.2453-0.331-0.4693-0.619-0.672-0.864-0.1387 0.011-0.2827 0.016-0.432 0.016h-0.432-1.392v4.336h-1.552v-10.928c0.4373-0.107 0.9227-0.176 1.456-0.208 0.544-0.043 1.04-0.064 1.488-0.064 1.5573 0 2.7413 0.293 3.552 0.88 0.8213 0.587 1.232 1.461 1.232 2.624 0 0.736-0.1973 1.365-0.592 1.888-0.384 0.523-0.9547 0.912-1.712 1.168zm-2.352-5.2c-0.6613 0-1.168 0.016-1.52 0.048v4.176h1.104c0.5333 0 1.0133-0.027 1.44-0.08s0.784-0.155 1.072-0.304c0.2987-0.149 0.528-0.357 0.688-0.624 0.16-0.277 0.24-0.64 0.24-1.088 0-0.416-0.08-0.763-0.24-1.04s-0.3787-0.496-0.656-0.656c-0.2667-0.16-0.5867-0.272-0.96-0.336-0.3627-0.064-0.752-0.096-1.168-0.096zm13.198 9.6c-0.3413 0.085-0.7947 0.176-1.36 0.272-0.5547 0.096-1.2 0.144-1.936 0.144-0.64 0-1.1787-0.091-1.616-0.272-0.4373-0.192-0.7893-0.459-1.056-0.8s-0.4587-0.741-0.576-1.2c-0.1173-0.469-0.176-0.987-0.176-1.552v-4.672h1.488v4.352c0 1.013 0.16 1.739 0.48 2.176s0.8587 0.656 1.616 0.656c0.16 0 0.3253-5e-3 0.496-0.016s0.3307-0.021 0.48-0.032c0.1493-0.021 0.2827-0.037 0.4-0.048 0.128-0.021 0.2187-0.043 0.272-0.064v-7.024h1.488v8.08zm2.2435-7.84c0.3413-0.085 0.7947-0.176 1.36-0.272s1.216-0.144 1.952-0.144c0.6613 0 1.2107 0.096 1.648 0.288 0.4373 0.181 0.784 0.443 1.04 0.784 0.2667 0.331 0.4533 0.731 0.56 1.2s0.16 0.987 0.16 1.552v4.672h-1.488v-4.352c0-0.512-0.0373-0.949-0.112-1.312-0.064-0.363-0.176-0.656-0.336-0.88s-0.3733-0.384-0.64-0.48c-0.2667-0.107-0.5973-0.16-0.992-0.16-0.16 0-0.3253 5e-3 -0.496 0.016s-0.336 0.027-0.496 0.048c-0.1493 0.011-0.288 0.027-0.416 0.048-0.1173 0.021-0.2027 0.037-0.256 0.048v7.024h-1.488v-8.08zm15.867 8.272c-0.672 0-1.264-0.107-1.776-0.32-0.5013-0.213-0.928-0.512-1.28-0.896-0.3413-0.384-0.5973-0.837-0.768-1.36-0.1706-0.533-0.256-1.12-0.256-1.76s0.0907-1.227 0.272-1.76c0.192-0.533 0.4587-0.992 0.8-1.376 0.3414-0.395 0.7574-0.699 1.248-0.912 0.5014-0.224 1.056-0.336 1.664-0.336 0.3734 0 0.7467 0.032 1.12 0.096 0.3734 0.064 0.7307 0.165 1.072 0.304l-0.336 1.264c-0.224-0.107-0.4853-0.192-0.784-0.256-0.288-0.064-0.5973-0.096-0.928-0.096-0.832 0-1.472 0.261-1.92 0.784-0.4373 0.523-0.656 1.285-0.656 2.288 0 0.448 0.048 0.859 0.144 1.232 0.1067 0.373 0.2667 0.693 0.48 0.96 0.224 0.267 0.5067 0.475 0.848 0.624 0.3414 0.139 0.7574 0.208 1.248 0.208 0.3947 0 0.752-0.037 1.072-0.112s0.5707-0.155 0.752-0.24l0.208 1.248c-0.0853 0.053-0.208 0.107-0.368 0.16-0.16 0.043-0.3413 0.08-0.544 0.112-0.2026 0.043-0.4213 0.075-0.656 0.096-0.224 0.032-0.4426 0.048-0.656 0.048zm10.642-4.352c0 0.661-0.096 1.259-0.288 1.792s-0.464 0.992-0.816 1.376c-0.3413 0.384-0.752 0.683-1.232 0.896-0.48 0.203-1.0027 0.304-1.568 0.304s-1.088-0.101-1.568-0.304c-0.48-0.213-0.896-0.512-1.248-0.896-0.3413-0.384-0.608-0.843-0.8-1.376s-0.288-1.131-0.288-1.792c0-0.651 0.096-1.243 0.288-1.776 0.192-0.544 0.4587-1.008 0.8-1.392 0.352-0.384 0.768-0.677 1.248-0.88 0.48-0.213 1.0027-0.32 1.568-0.32s1.088 0.107 1.568 0.32c0.48 0.203 0.8907 0.496 1.232 0.88 0.352 0.384 0.624 0.848 0.816 1.392 0.192 0.533 0.288 1.125 0.288 1.776zm-1.552 0c0-0.939-0.2133-1.68-0.64-2.224-0.416-0.555-0.9867-0.832-1.712-0.832s-1.3013 0.277-1.728 0.832c-0.416 0.544-0.624 1.285-0.624 2.224s0.208 1.685 0.624 2.24c0.4267 0.544 1.0027 0.816 1.728 0.816s1.296-0.272 1.712-0.816c0.4267-0.555 0.64-1.301 0.64-2.24zm3.3255-3.92c0.3413-0.085 0.7893-0.176 1.344-0.272 0.5653-0.096 1.216-0.144 1.952-0.144 0.5333 0 0.9813 0.075 1.344 0.224 0.3627 0.139 0.6667 0.347 0.912 0.624 0.0747-0.053 0.192-0.128 0.352-0.224s0.3573-0.187 0.592-0.272c0.2347-0.096 0.496-0.176 0.784-0.24 0.288-0.075 0.5973-0.112 0.928-0.112 0.64 0 1.1627 0.096 1.568 0.288 0.4053 0.181 0.72 0.443 0.944 0.784 0.2347 0.341 0.3893 0.747 0.464 1.216 0.0853 0.469 0.128 0.981 0.128 1.536v4.672h-1.488v-4.352c0-0.491-0.0267-0.912-0.08-1.264-0.0427-0.352-0.1333-0.645-0.272-0.88-0.128-0.235-0.3093-0.405-0.544-0.512-0.224-0.117-0.5173-0.176-0.88-0.176-0.5013 0-0.9173 0.069-1.248 0.208-0.32 0.128-0.5387 0.245-0.656 0.352 0.0853 0.277 0.1493 0.581 0.192 0.912s0.064 0.677 0.064 1.04v4.672h-1.488v-4.352c0-0.491-0.0267-0.912-0.08-1.264s-0.1493-0.645-0.288-0.88c-0.128-0.235-0.3093-0.405-0.544-0.512-0.224-0.117-0.512-0.176-0.864-0.176-0.1493 0-0.3093 5e-3 -0.48 0.016s-0.336 0.027-0.496 0.048c-0.1493 0.011-0.288 0.027-0.416 0.048s-0.2133 0.037-0.256 0.048v7.024h-1.488v-8.08zm13.461 0c0.3414-0.085 0.7894-0.176 1.344-0.272 0.5654-0.096 1.216-0.144 1.952-0.144 0.5334 0 0.9814 0.075 1.344 0.224 0.3627 0.139 0.6667 0.347 0.912 0.624 0.0747-0.053 0.192-0.128 0.352-0.224s0.3574-0.187 0.592-0.272c0.2347-0.096 0.496-0.176 0.784-0.24 0.288-0.075 0.5974-0.112 0.928-0.112 0.64 0 1.1627 0.096 1.568 0.288 0.4054 0.181 0.72 0.443 0.944 0.784 0.2347 0.341 0.3894 0.747 0.464 1.216 0.0854 0.469 0.128 0.981 0.128 1.536v4.672h-1.488v-4.352c0-0.491-0.0266-0.912-0.08-1.264-0.0426-0.352-0.1333-0.645-0.272-0.88-0.128-0.235-0.3093-0.405-0.544-0.512-0.224-0.117-0.5173-0.176-0.88-0.176-0.5013 0-0.9173 0.069-1.248 0.208-0.32 0.128-0.5386 0.245-0.656 0.352 0.0854 0.277 0.1494 0.581 0.192 0.912 0.0427 0.331 0.064 0.677 0.064 1.04v4.672h-1.488v-4.352c0-0.491-0.0266-0.912-0.08-1.264-0.0533-0.352-0.1493-0.645-0.288-0.88-0.128-0.235-0.3093-0.405-0.544-0.512-0.224-0.117-0.512-0.176-0.864-0.176-0.1493 0-0.3093 5e-3 -0.48 0.016-0.1706 0.011-0.336 0.027-0.496 0.048-0.1493 0.011-0.288 0.027-0.416 0.048s-0.2133 0.037-0.256 0.048v7.024h-1.488v-8.08zm16.277 7.008c0.352 0 0.6613-5e-3 0.928-0.016 0.2773-0.021 0.5067-0.053 0.688-0.096v-2.48c-0.1067-0.053-0.2827-0.096-0.528-0.128-0.2347-0.043-0.5227-0.064-0.864-0.064-0.224 0-0.464 0.016-0.72 0.048-0.2453 0.032-0.4747 0.101-0.688 0.208-0.2027 0.096-0.3733 0.235-0.512 0.416-0.1387 0.171-0.208 0.4-0.208 0.688 0 0.533 0.1707 0.907 0.512 1.12 0.3413 0.203 0.8053 0.304 1.392 0.304zm-0.128-7.456c0.5973 0 1.0987 0.08 1.504 0.24 0.416 0.149 0.7467 0.368 0.992 0.656 0.256 0.277 0.4373 0.613 0.544 1.008 0.1067 0.384 0.16 0.811 0.16 1.28v5.2c-0.128 0.021-0.3093 0.053-0.544 0.096-0.224 0.032-0.48 0.064-0.768 0.096s-0.6027 0.059-0.944 0.08c-0.3307 0.032-0.6613 0.048-0.992 0.048-0.4693 0-0.9013-0.048-1.296-0.144s-0.736-0.245-1.024-0.448c-0.288-0.213-0.512-0.491-0.672-0.832s-0.24-0.752-0.24-1.232c0-0.459 0.0907-0.853 0.272-1.184 0.192-0.331 0.448-0.597 0.768-0.8s0.6933-0.352 1.12-0.448 0.8747-0.144 1.344-0.144c0.1493 0 0.304 0.011 0.464 0.032 0.16 0.011 0.3093 0.032 0.448 0.064 0.1493 0.021 0.2773 0.043 0.384 0.064s0.1813 0.037 0.224 0.048v-0.416c0-0.245-0.0267-0.485-0.08-0.72-0.0533-0.245-0.1493-0.459-0.288-0.64-0.1387-0.192-0.3307-0.341-0.576-0.448-0.2347-0.117-0.544-0.176-0.928-0.176-0.4907 0-0.9227 0.037-1.296 0.112-0.3627 0.064-0.6347 0.133-0.816 0.208l-0.176-1.232c0.192-0.085 0.512-0.165 0.96-0.24 0.448-0.085 0.9333-0.128 1.456-0.128zm5.3514 0.448c0.3413-0.085 0.7946-0.176 1.3596-0.272 0.566-0.096 1.216-0.144 1.952-0.144 0.662 0 1.211 0.096 1.648 0.288 0.438 0.181 0.784 0.443 1.04 0.784 0.267 0.331 0.454 0.731 0.56 1.2 0.107 0.469 0.16 0.987 0.16 1.552v4.672h-1.488v-4.352c0-0.512-0.037-0.949-0.112-1.312-0.064-0.363-0.176-0.656-0.336-0.88s-0.373-0.384-0.64-0.48c-0.266-0.107-0.597-0.16-0.992-0.16-0.16 0-0.325 5e-3 -0.496 0.016-0.17 0.011-0.336 0.027-0.496 0.048-0.149 0.011-0.288 0.027-0.416 0.048-0.117 0.021-0.202 0.037-0.256 0.048v7.024h-1.4876v-8.08zm14.244 1.52c-0.181-0.149-0.443-0.293-0.784-0.432s-0.715-0.208-1.12-0.208c-0.427 0-0.795 0.08-1.104 0.24-0.299 0.149-0.544 0.363-0.736 0.64-0.192 0.267-0.331 0.587-0.416 0.96s-0.128 0.773-0.128 1.2c0 0.971 0.24 1.723 0.72 2.256 0.48 0.523 1.12 0.784 1.92 0.784 0.405 0 0.741-0.016 1.008-0.048 0.277-0.043 0.491-0.085 0.64-0.128v-5.264zm0-5.6 1.488-0.256v12.176c-0.341 0.096-0.779 0.192-1.312 0.288s-1.147 0.144-1.84 0.144c-0.64 0-1.216-0.101-1.728-0.304s-0.949-0.491-1.312-0.864-0.645-0.827-0.848-1.36c-0.192-0.544-0.288-1.152-0.288-1.824 0-0.64 0.08-1.227 0.24-1.76 0.171-0.533 0.416-0.992 0.736-1.376s0.709-0.683 1.168-0.896c0.469-0.213 1.003-0.32 1.6-0.32 0.48 0 0.901 0.064 1.264 0.192 0.373 0.128 0.651 0.251 0.832 0.368v-4.208z" fill="#383342"/>
<path d="m184.78 135c-1.488 0-2.448-0.944-2.448-2.416 0-1.552 0.928-2.464 2.752-2.464h0.944v-1.76h-0.944c-1.824 0-2.752-0.912-2.752-2.464 0-1.472 0.96-2.416 2.448-2.416 1.792 0 2.368 1.12 2.368 2.464v1.328h1.76v-1.328c0-1.344 0.576-2.464 2.368-2.464 1.488 0 2.448 0.944 2.448 2.416 0 1.552-0.928 2.464-2.752 2.464h-0.944v1.76h0.944c1.824 0 2.752 0.912 2.752 2.464 0 1.472-0.96 2.416-2.448 2.416-1.792 0-2.368-1.12-2.368-2.464v-1.328h-1.76v1.328c0 1.344-0.576 2.464-2.368 2.464zm5.248-9.088v1.36h0.944c1.136 0 1.616-0.464 1.616-1.376 0-0.944-0.56-1.312-1.312-1.312-0.832 0-1.248 0.512-1.248 1.328zm-4.944 1.36h0.944v-1.36c0-0.816-0.416-1.328-1.248-1.328-0.752 0-1.312 0.368-1.312 1.312 0 0.912 0.48 1.376 1.616 1.376zm2.064 2.848h1.76v-1.76h-1.76v1.76zm-2.368 3.776c0.832 0 1.248-0.512 1.248-1.328v-1.36h-0.944c-1.136 0-1.616 0.464-1.616 1.376 0 0.944 0.56 1.312 1.312 1.312zm5.248-1.328c0 0.816 0.416 1.328 1.248 1.328 0.752 0 1.312-0.368 1.312-1.312 0-0.912-0.48-1.376-1.616-1.376h-0.944v1.36zm10.847 2.912v-6.928h-2.448l4.48-4.48 4.48 4.48h-2.448v6.928h-4.064zm0.48-0.48h3.104v-6.928h1.76l-3.312-3.312-3.312 3.312h1.76v6.928zm14.233-11.2c1.557 0 2.752 0.299 3.584 0.896 0.842 0.587 1.264 1.467 1.264 2.64 0 0.64-0.118 1.189-0.352 1.648-0.224 0.448-0.555 0.816-0.992 1.104-0.427 0.277-0.95 0.48-1.568 0.608-0.619 0.128-1.318 0.192-2.096 0.192h-1.232v4.112h-1.552v-10.928c0.437-0.107 0.922-0.176 1.456-0.208 0.544-0.043 1.04-0.064 1.488-0.064zm0.128 1.36c-0.662 0-1.168 0.016-1.52 0.048v4.352h1.168c0.533 0 1.013-0.032 1.44-0.096 0.426-0.075 0.784-0.192 1.072-0.352 0.298-0.171 0.528-0.4 0.688-0.688s0.24-0.656 0.24-1.104c0-0.427-0.086-0.779-0.256-1.056-0.16-0.277-0.384-0.496-0.672-0.656-0.278-0.171-0.603-0.288-0.976-0.352-0.374-0.064-0.768-0.096-1.184-0.096z" fill="#686076"/>
<path d="m16.928 161.45c0-0.949 0.1387-1.787 0.416-2.512 0.288-0.725 0.672-1.328 1.152-1.808 0.4907-0.491 1.056-0.859 1.696-1.104 0.6507-0.245 1.3387-0.368 2.064-0.368 0.7147 0 1.3867 0.123 2.016 0.368 0.64 0.245 1.2 0.613 1.68 1.104 0.48 0.48 0.8587 1.083 1.136 1.808 0.288 0.725 0.432 1.563 0.432 2.512s-0.144 1.787-0.432 2.512c-0.2773 0.725-0.656 1.333-1.136 1.824-0.48 0.48-1.04 0.843-1.68 1.088-0.6293 0.245-1.3013 0.368-2.016 0.368-0.7253 0-1.4133-0.123-2.064-0.368-0.64-0.245-1.2053-0.608-1.696-1.088-0.48-0.491-0.864-1.099-1.152-1.824-0.2773-0.725-0.416-1.563-0.416-2.512zm1.632 0c0 0.672 0.0853 1.285 0.256 1.84 0.1707 0.544 0.4107 1.008 0.72 1.392 0.32 0.384 0.704 0.683 1.152 0.896 0.4587 0.203 0.9707 0.304 1.536 0.304s1.072-0.101 1.52-0.304c0.448-0.213 0.8267-0.512 1.136-0.896 0.32-0.384 0.5653-0.848 0.736-1.392 0.1707-0.555 0.256-1.168 0.256-1.84s-0.0853-1.28-0.256-1.824c-0.1707-0.555-0.416-1.024-0.736-1.408-0.3093-0.384-0.688-0.677-1.136-0.88-0.448-0.213-0.9547-0.32-1.52-0.32s-1.0773 0.107-1.536 0.32c-0.448 0.203-0.832 0.496-1.152 0.88-0.3093 0.384-0.5493 0.853-0.72 1.408-0.1707 0.544-0.256 1.152-0.256 1.824zm16.629 1.408c0-0.971-0.24-1.717-0.72-2.24s-1.12-0.784-1.92-0.784c-0.448 0-0.8 0.016-1.056 0.048-0.2453 0.032-0.4426 0.069-0.592 0.112v5.248c0.1814 0.149 0.4427 0.293 0.784 0.432 0.3414 0.139 0.7147 0.208 1.12 0.208 0.4267 0 0.7894-0.075 1.088-0.224 0.3094-0.16 0.56-0.373 0.752-0.64 0.192-0.277 0.3307-0.597 0.416-0.96 0.0854-0.373 0.128-0.773 0.128-1.2zm1.552 0c0 0.629-0.0853 1.211-0.256 1.744-0.16 0.533-0.4 0.992-0.72 1.376s-0.7146 0.683-1.184 0.896c-0.4586 0.213-0.9866 0.32-1.584 0.32-0.48 0-0.9066-0.064-1.28-0.192-0.3626-0.128-0.6346-0.251-0.816-0.368v3.328h-1.488v-11.024c0.352-0.085 0.7894-0.176 1.312-0.272 0.5334-0.107 1.1467-0.16 1.84-0.16 0.64 0 1.216 0.101 1.728 0.304s0.9494 0.491 1.312 0.864c0.3627 0.373 0.64 0.832 0.832 1.376 0.2027 0.533 0.304 1.136 0.304 1.808zm1.3099 0c0-0.736 0.1067-1.376 0.32-1.92 0.2133-0.555 0.496-1.013 0.848-1.376s0.7573-0.635 1.216-0.816 0.928-0.272 1.408-0.272c1.12 0 1.9787 0.352 2.576 1.056 0.5973 0.693 0.896 1.755 0.896 3.184v0.256c0 0.096-0.0053 0.187-0.016 0.272h-5.696c0.064 0.864 0.3147 1.52 0.752 1.968s1.12 0.672 2.048 0.672c0.5227 0 0.96-0.043 1.312-0.128 0.3627-0.096 0.6347-0.187 0.816-0.272l0.208 1.248c-0.1813 0.096-0.5013 0.197-0.96 0.304-0.448 0.107-0.96 0.16-1.536 0.16-0.7253 0-1.3547-0.107-1.888-0.32-0.5227-0.224-0.9547-0.528-1.296-0.912s-0.5973-0.837-0.768-1.36c-0.16-0.533-0.24-1.115-0.24-1.744zm5.712-0.816c0.0107-0.672-0.16-1.221-0.512-1.648-0.3413-0.437-0.816-0.656-1.424-0.656-0.3413 0-0.6453 0.069-0.912 0.208-0.256 0.128-0.4747 0.299-0.656 0.512s-0.3253 0.459-0.432 0.736c-0.096 0.277-0.16 0.56-0.192 0.848h4.128zm3.3695-3.12c0.3413-0.085 0.7947-0.176 1.36-0.272s1.216-0.144 1.952-0.144c0.6613 0 1.2107 0.096 1.648 0.288 0.4373 0.181 0.784 0.443 1.04 0.784 0.2667 0.331 0.4533 0.731 0.56 1.2s0.16 0.987 0.16 1.552v4.672h-1.488v-4.352c0-0.512-0.0373-0.949-0.112-1.312-0.064-0.363-0.176-0.656-0.336-0.88s-0.3733-0.384-0.64-0.48c-0.2667-0.107-0.5973-0.16-0.992-0.16-0.16 0-0.3253 5e-3 -0.496 0.016s-0.336 0.027-0.496 0.048c-0.1493 0.011-0.288 0.027-0.416 0.048-0.1173 0.021-0.2027 0.037-0.256 0.048v7.024h-1.488v-8.08zm12.347 8.08v-11.088h6.688v1.328h-5.136v3.344h4.56v1.312h-4.56v5.104h-1.552zm9.6658 0h-1.488v-8.32h1.488v8.32zm-0.752-9.824c-0.2667 0-0.496-0.085-0.688-0.256-0.1814-0.181-0.272-0.421-0.272-0.72s0.0906-0.533 0.272-0.704c0.192-0.181 0.4213-0.272 0.688-0.272 0.2666 0 0.4906 0.091 0.672 0.272 0.192 0.171 0.288 0.405 0.288 0.704s-0.096 0.539-0.288 0.72c-0.1814 0.171-0.4054 0.256-0.672 0.256zm5.4868 9.984c-0.9173-0.021-1.568-0.219-1.952-0.592s-0.576-0.955-0.576-1.744v-9.984l1.488-0.256v10c0 0.245 0.0214 0.448 0.064 0.608 0.0427 0.16 0.112 0.288 0.208 0.384s0.224 0.171 0.384 0.224c0.16 0.043 0.3574 0.08 0.592 0.112l-0.208 1.248zm1.095-4.304c0-0.736 0.1067-1.376 0.32-1.92 0.2134-0.555 0.496-1.013 0.848-1.376s0.7574-0.635 1.216-0.816c0.4587-0.181 0.928-0.272 1.408-0.272 1.12 0 1.9787 0.352 2.576 1.056 0.5974 0.693 0.896 1.755 0.896 3.184v0.256c0 0.096-0.0053 0.187-0.016 0.272h-5.696c0.064 0.864 0.3147 1.52 0.752 1.968 0.4374 0.448 1.12 0.672 2.048 0.672 0.5227 0 0.96-0.043 1.312-0.128 0.3627-0.096 0.6347-0.187 0.816-0.272l0.208 1.248c-0.1813 0.096-0.5013 0.197-0.96 0.304-0.448 0.107-0.96 0.16-1.536 0.16-0.7253 0-1.3546-0.107-1.888-0.32-0.5226-0.224-0.9546-0.528-1.296-0.912-0.3413-0.384-0.5973-0.837-0.768-1.36-0.16-0.533-0.24-1.115-0.24-1.744zm5.712-0.816c0.0107-0.672-0.16-1.221-0.512-1.648-0.3413-0.437-0.816-0.656-1.424-0.656-0.3413 0-0.6453 0.069-0.912 0.208-0.256 0.128-0.4746 0.299-0.656 0.512-0.1813 0.213-0.3253 0.459-0.432 0.736-0.096 0.277-0.16 0.56-0.192 0.848h4.128z" fill="#383342"/>
<path d="m198.44 167c-1.488 0-2.448-0.944-2.448-2.416 0-1.552 0.928-2.464 2.752-2.464h0.944v-1.76h-0.944c-1.824 0-2.752-0.912-2.752-2.464 0-1.472 0.96-2.416 2.448-2.416 1.792 0 2.368 1.12 2.368 2.464v1.328h1.76v-1.328c0-1.344 0.576-2.464 2.368-2.464 1.488 0 2.448 0.944 2.448 2.416 0 1.552-0.928 2.464-2.752 2.464h-0.944v1.76h0.944c1.824 0 2.752 0.912 2.752 2.464 0 1.472-0.96 2.416-2.448 2.416-1.792 0-2.368-1.12-2.368-2.464v-1.328h-1.76v1.328c0 1.344-0.576 2.464-2.368 2.464zm5.248-9.088v1.36h0.944c1.136 0 1.616-0.464 1.616-1.376 0-0.944-0.56-1.312-1.312-1.312-0.832 0-1.248 0.512-1.248 1.328zm-4.944 1.36h0.944v-1.36c0-0.816-0.416-1.328-1.248-1.328-0.752 0-1.312 0.368-1.312 1.312 0 0.912 0.48 1.376 1.616 1.376zm2.064 2.848h1.76v-1.76h-1.76v1.76zm-2.368 3.776c0.832 0 1.248-0.512 1.248-1.328v-1.36h-0.944c-1.136 0-1.616 0.464-1.616 1.376 0 0.944 0.56 1.312 1.312 1.312zm5.248-1.328c0 0.816 0.416 1.328 1.248 1.328 0.752 0 1.312-0.368 1.312-1.312 0-0.912-0.48-1.376-1.616-1.376h-0.944v1.36zm11.903-8.768c1.557 0 2.752 0.299 3.584 0.896 0.842 0.587 1.264 1.467 1.264 2.64 0 0.64-0.118 1.189-0.352 1.648-0.224 0.448-0.555 0.816-0.992 1.104-0.427 0.277-0.95 0.48-1.568 0.608-0.619 0.128-1.318 0.192-2.096 0.192h-1.232v4.112h-1.552v-10.928c0.437-0.107 0.922-0.176 1.456-0.208 0.544-0.043 1.04-0.064 1.488-0.064zm0.128 1.36c-0.662 0-1.168 0.016-1.52 0.048v4.352h1.168c0.533 0 1.013-0.032 1.44-0.096 0.426-0.075 0.784-0.192 1.072-0.352 0.298-0.171 0.528-0.4 0.688-0.688s0.24-0.656 0.24-1.104c0-0.427-0.086-0.779-0.256-1.056-0.16-0.277-0.384-0.496-0.672-0.656-0.278-0.171-0.603-0.288-0.976-0.352-0.374-0.064-0.768-0.096-1.184-0.096z" fill="#686076"/>
<path d="m22.352 197.46c-0.1067-0.256-0.2507-0.581-0.432-0.976-0.1707-0.395-0.3573-0.821-0.56-1.28s-0.4213-0.928-0.656-1.408c-0.224-0.491-0.4373-0.949-0.64-1.376-0.2027-0.437-0.3947-0.827-0.576-1.168-0.1707-0.341-0.3093-0.603-0.416-0.784-0.1173 1.259-0.2133 2.624-0.288 4.096-0.0747 1.461-0.1387 2.939-0.192 4.432h-1.52c0.0427-0.96 0.0907-1.925 0.144-2.896 0.0533-0.981 0.112-1.941 0.176-2.88 0.0747-0.949 0.1493-1.872 0.224-2.768 0.0853-0.896 0.176-1.744 0.272-2.544h1.36c0.288 0.469 0.5973 1.024 0.928 1.664s0.6613 1.312 0.992 2.016c0.3307 0.693 0.6507 1.392 0.96 2.096 0.3093 0.693 0.592 1.328 0.848 1.904 0.256-0.576 0.5387-1.211 0.848-1.904 0.3093-0.704 0.6293-1.403 0.96-2.096 0.3307-0.704 0.6613-1.376 0.992-2.016s0.64-1.195 0.928-1.664h1.36c0.3627 3.573 0.6347 7.269 0.816 11.088h-1.52c-0.0533-1.493-0.1173-2.971-0.192-4.432-0.0747-1.472-0.1707-2.837-0.288-4.096-0.1067 0.181-0.2507 0.443-0.432 0.784-0.1707 0.341-0.3573 0.731-0.56 1.168-0.2027 0.427-0.4213 0.885-0.656 1.376-0.224 0.48-0.4373 0.949-0.64 1.408s-0.3947 0.885-0.576 1.28c-0.1707 0.395-0.3093 0.72-0.416 0.976h-1.248zm15.89-2.624c0 0.661-0.096 1.259-0.288 1.792s-0.464 0.992-0.816 1.376c-0.3413 0.384-0.752 0.683-1.232 0.896-0.48 0.203-1.0027 0.304-1.568 0.304s-1.088-0.101-1.568-0.304c-0.48-0.213-0.896-0.512-1.248-0.896-0.3413-0.384-0.608-0.843-0.8-1.376s-0.288-1.131-0.288-1.792c0-0.651 0.096-1.243 0.288-1.776 0.192-0.544 0.4587-1.008 0.8-1.392 0.352-0.384 0.768-0.677 1.248-0.88 0.48-0.213 1.0027-0.32 1.568-0.32s1.088 0.107 1.568 0.32c0.48 0.203 0.8907 0.496 1.232 0.88 0.352 0.384 0.624 0.848 0.816 1.392 0.192 0.533 0.288 1.125 0.288 1.776zm-1.552 0c0-0.939-0.2133-1.68-0.64-2.224-0.416-0.555-0.9867-0.832-1.712-0.832s-1.3013 0.277-1.728 0.832c-0.416 0.544-0.624 1.285-0.624 2.224s0.208 1.685 0.624 2.24c0.4267 0.544 1.0027 0.816 1.728 0.816s1.296-0.272 1.712-0.816c0.4267-0.555 0.64-1.301 0.64-2.24zm6.3975-4.336c0.128 0 0.272 0.011 0.432 0.032 0.1707 0.011 0.336 0.032 0.496 0.064 0.16 0.021 0.304 0.048 0.432 0.08 0.1387 0.021 0.24 0.043 0.304 0.064l-0.256 1.296c-0.1173-0.043-0.3147-0.091-0.592-0.144-0.2667-0.064-0.6133-0.096-1.04-0.096-0.2773 0-0.5547 0.032-0.832 0.096-0.2667 0.053-0.4427 0.091-0.528 0.112v6.992h-1.488v-7.968c0.352-0.128 0.7893-0.245 1.312-0.352 0.5227-0.117 1.1093-0.176 1.76-0.176zm2.3159 4.352c0-0.736 0.1066-1.376 0.32-1.92 0.2133-0.555 0.496-1.013 0.848-1.376s0.7573-0.635 1.216-0.816c0.4586-0.181 0.928-0.272 1.408-0.272 1.12 0 1.9786 0.352 2.576 1.056 0.5973 0.693 0.896 1.755 0.896 3.184v0.256c0 0.096-0.0054 0.187-0.016 0.272h-5.696c0.064 0.864 0.3146 1.52 0.752 1.968 0.4373 0.448 1.12 0.672 2.048 0.672 0.5226 0 0.96-0.043 1.312-0.128 0.3626-0.096 0.6346-0.187 0.816-0.272l0.208 1.248c-0.1814 0.096-0.5014 0.197-0.96 0.304-0.448 0.107-0.96 0.16-1.536 0.16-0.7254 0-1.3547-0.107-1.888-0.32-0.5227-0.224-0.9547-0.528-1.296-0.912-0.3414-0.384-0.5974-0.837-0.768-1.36-0.16-0.533-0.24-1.115-0.24-1.744zm5.712-0.816c0.0106-0.672-0.16-1.221-0.512-1.648-0.3414-0.437-0.816-0.656-1.424-0.656-0.3414 0-0.6454 0.069-0.912 0.208-0.256 0.128-0.4747 0.299-0.656 0.512-0.1814 0.213-0.3254 0.459-0.432 0.736-0.096 0.277-0.16 0.56-0.192 0.848h4.128zm8.1446-3.36h3.152v1.248h-3.152v3.84c0 0.416 0.032 0.763 0.096 1.04 0.064 0.267 0.16 0.48 0.288 0.64 0.128 0.149 0.288 0.256 0.48 0.32s0.416 0.096 0.672 0.096c0.448 0 0.8053-0.048 1.072-0.144 0.2773-0.107 0.4693-0.181 0.576-0.224l0.288 1.232c-0.1493 0.075-0.4107 0.165-0.784 0.272-0.3733 0.117-0.8 0.176-1.28 0.176-0.5653 0-1.0347-0.069-1.408-0.208-0.3627-0.149-0.656-0.368-0.88-0.656s-0.384-0.64-0.48-1.056c-0.0853-0.427-0.128-0.917-0.128-1.472v-7.424l1.488-0.256v2.576zm11.851 4.16c0 0.661-0.096 1.259-0.288 1.792s-0.464 0.992-0.816 1.376c-0.3414 0.384-0.752 0.683-1.232 0.896-0.48 0.203-1.0027 0.304-1.568 0.304-0.5654 0-1.088-0.101-1.568-0.304-0.48-0.213-0.896-0.512-1.248-0.896-0.3414-0.384-0.608-0.843-0.8-1.376s-0.288-1.131-0.288-1.792c0-0.651 0.096-1.243 0.288-1.776 0.192-0.544 0.4586-1.008 0.8-1.392 0.352-0.384 0.768-0.677 1.248-0.88 0.48-0.213 1.0026-0.32 1.568-0.32 0.5653 0 1.088 0.107 1.568 0.32 0.48 0.203 0.8906 0.496 1.232 0.88 0.352 0.384 0.624 0.848 0.816 1.392 0.192 0.533 0.288 1.125 0.288 1.776zm-1.552 0c0-0.939-0.2134-1.68-0.64-2.224-0.416-0.555-0.9867-0.832-1.712-0.832-0.7254 0-1.3014 0.277-1.728 0.832-0.416 0.544-0.624 1.285-0.624 2.224s0.208 1.685 0.624 2.24c0.4266 0.544 1.0026 0.816 1.728 0.816 0.7253 0 1.296-0.272 1.712-0.816 0.4266-0.555 0.64-1.301 0.64-2.24zm10.669 0c0 0.661-0.096 1.259-0.288 1.792s-0.464 0.992-0.816 1.376c-0.3413 0.384-0.752 0.683-1.232 0.896-0.48 0.203-1.0026 0.304-1.568 0.304-0.5653 0-1.088-0.101-1.568-0.304-0.48-0.213-0.896-0.512-1.248-0.896-0.3413-0.384-0.608-0.843-0.8-1.376s-0.288-1.131-0.288-1.792c0-0.651 0.096-1.243 0.288-1.776 0.192-0.544 0.4587-1.008 0.8-1.392 0.352-0.384 0.768-0.677 1.248-0.88 0.48-0.213 1.0027-0.32 1.568-0.32 0.5654 0 1.088 0.107 1.568 0.32 0.48 0.203 0.8907 0.496 1.232 0.88 0.352 0.384 0.624 0.848 0.816 1.392 0.192 0.533 0.288 1.125 0.288 1.776zm-1.552 0c0-0.939-0.2133-1.68-0.64-2.224-0.416-0.555-0.9866-0.832-1.712-0.832-0.7253 0-1.3013 0.277-1.728 0.832-0.416 0.544-0.624 1.285-0.624 2.224s0.208 1.685 0.624 2.24c0.4267 0.544 1.0027 0.816 1.728 0.816 0.7254 0 1.296-0.272 1.712-0.816 0.4267-0.555 0.64-1.301 0.64-2.24zm5.8216 4.32c-0.9174-0.021-1.568-0.219-1.952-0.592s-0.576-0.955-0.576-1.744v-9.984l1.488-0.256v10c0 0.245 0.0213 0.448 0.064 0.608 0.0426 0.16 0.112 0.288 0.208 0.384s0.224 0.171 0.384 0.224c0.16 0.043 0.3573 0.08 0.592 0.112l-0.208 1.248zm3.495-1.232c0.608 0 1.056-0.08 1.344-0.24 0.2986-0.16 0.448-0.416 0.448-0.768 0-0.363-0.144-0.651-0.432-0.864s-0.7627-0.453-1.424-0.72c-0.32-0.128-0.6294-0.256-0.928-0.384-0.288-0.139-0.5387-0.299-0.752-0.48-0.2134-0.181-0.384-0.4-0.512-0.656s-0.192-0.571-0.192-0.944c0-0.736 0.272-1.317 0.816-1.744 0.544-0.437 1.2853-0.656 2.224-0.656 0.2346 0 0.4693 0.016 0.704 0.048 0.2346 0.021 0.4533 0.053 0.656 0.096 0.2026 0.032 0.3786 0.069 0.528 0.112 0.16 0.043 0.2826 0.08 0.368 0.112l-0.272 1.28c-0.16-0.085-0.4107-0.171-0.752-0.256-0.3414-0.096-0.752-0.144-1.232-0.144-0.416 0-0.7787 0.085-1.088 0.256-0.3094 0.16-0.464 0.416-0.464 0.768 0 0.181 0.032 0.341 0.096 0.48 0.0746 0.139 0.1813 0.267 0.32 0.384 0.1493 0.107 0.3306 0.208 0.544 0.304 0.2133 0.096 0.4693 0.197 0.768 0.304 0.3946 0.149 0.7466 0.299 1.056 0.448 0.3093 0.139 0.5706 0.304 0.784 0.496 0.224 0.192 0.3946 0.427 0.512 0.704 0.1173 0.267 0.176 0.597 0.176 0.992 0 0.768-0.288 1.349-0.864 1.744-0.5654 0.395-1.376 0.592-2.432 0.592-0.736 0-1.312-0.064-1.728-0.192-0.416-0.117-0.6987-0.208-0.848-0.272l0.272-1.28c0.1706 0.064 0.4426 0.16 0.816 0.288 0.3733 0.128 0.8693 0.192 1.488 0.192z" fill="#383342"/>
<path d="m210.73 189.94 3.053 3.06-3.053 3.06 0.94 0.94 4-4-4-4-0.94 0.94z" fill="#383342"/>
<rect x="16" y="213" width="205" height="1" fill="#CBC7D1"/>
<path d="m19.952 238.9c1.6213 0 2.432-0.555 2.432-1.664 0-0.341-0.0747-0.629-0.224-0.864-0.1387-0.245-0.3307-0.453-0.576-0.624-0.2453-0.181-0.528-0.336-0.848-0.464-0.3093-0.128-0.64-0.256-0.992-0.384-0.4053-0.139-0.7893-0.293-1.152-0.464-0.3627-0.181-0.6773-0.389-0.944-0.624-0.2667-0.245-0.48-0.533-0.64-0.864-0.1493-0.331-0.224-0.731-0.224-1.2 0-0.971 0.3307-1.728 0.992-2.272s1.5733-0.816 2.736-0.816c0.672 0 1.28 0.075 1.824 0.224 0.5547 0.139 0.96 0.293 1.216 0.464l-0.496 1.264c-0.224-0.139-0.56-0.272-1.008-0.4-0.4373-0.139-0.9493-0.208-1.536-0.208-0.2987 0-0.576 0.032-0.832 0.096s-0.48 0.16-0.672 0.288-0.3467 0.293-0.464 0.496c-0.1067 0.192-0.16 0.421-0.16 0.688 0 0.299 0.0587 0.549 0.176 0.752s0.2827 0.384 0.496 0.544c0.2133 0.149 0.4587 0.288 0.736 0.416 0.288 0.128 0.6027 0.256 0.944 0.384 0.48 0.192 0.9173 0.384 1.312 0.576 0.4053 0.192 0.752 0.421 1.04 0.688 0.2987 0.267 0.528 0.587 0.688 0.96 0.16 0.363 0.24 0.805 0.24 1.328 0 0.971-0.3573 1.717-1.072 2.24-0.704 0.523-1.7013 0.784-2.992 0.784-0.4373 0-0.8427-0.032-1.216-0.096-0.3627-0.053-0.688-0.117-0.976-0.192-0.288-0.085-0.5387-0.171-0.752-0.256-0.2027-0.096-0.3627-0.176-0.48-0.24l0.464-1.28c0.2453 0.139 0.6187 0.293 1.12 0.464s1.1147 0.256 1.84 0.256zm5.5236 1.104v-12.16l1.488-0.256v4.256c0.2774-0.107 0.5707-0.187 0.88-0.24 0.32-0.064 0.6347-0.096 0.944-0.096 0.6614 0 1.2107 0.096 1.648 0.288 0.4374 0.181 0.784 0.443 1.04 0.784 0.2667 0.331 0.4534 0.731 0.56 1.2 0.1067 0.469 0.16 0.987 0.16 1.552v4.672h-1.488v-4.352c0-0.512-0.0373-0.949-0.112-1.312-0.064-0.363-0.176-0.656-0.336-0.88s-0.3733-0.384-0.64-0.48c-0.2666-0.107-0.5973-0.16-0.992-0.16-0.16 0-0.3253 0.011-0.496 0.032-0.1706 0.021-0.336 0.048-0.496 0.08-0.1493 0.021-0.288 0.048-0.416 0.08-0.1173 0.032-0.2026 0.059-0.256 0.08v6.912h-1.488zm16.165-4.16c0 0.661-0.096 1.259-0.288 1.792s-0.464 0.992-0.816 1.376c-0.3414 0.384-0.752 0.683-1.232 0.896-0.48 0.203-1.0027 0.304-1.568 0.304-0.5654 0-1.088-0.101-1.568-0.304-0.48-0.213-0.896-0.512-1.248-0.896-0.3414-0.384-0.608-0.843-0.8-1.376s-0.288-1.131-0.288-1.792c0-0.651 0.096-1.243 0.288-1.776 0.192-0.544 0.4586-1.008 0.8-1.392 0.352-0.384 0.768-0.677 1.248-0.88 0.48-0.213 1.0026-0.32 1.568-0.32 0.5653 0 1.088 0.107 1.568 0.32 0.48 0.203 0.8906 0.496 1.232 0.88 0.352 0.384 0.624 0.848 0.816 1.392 0.192 0.533 0.288 1.125 0.288 1.776zm-1.552 0c0-0.939-0.2134-1.68-0.64-2.224-0.416-0.555-0.9867-0.832-1.712-0.832-0.7254 0-1.3014 0.277-1.728 0.832-0.416 0.544-0.624 1.285-0.624 2.224s0.208 1.685 0.624 2.24c0.4266 0.544 1.0026 0.816 1.728 0.816 0.7253 0 1.296-0.272 1.712-0.816 0.4266-0.555 0.64-1.301 0.64-2.24zm6.3975-4.336c0.128 0 0.272 0.011 0.432 0.032 0.1706 0.011 0.336 0.032 0.496 0.064 0.16 0.021 0.304 0.048 0.432 0.08 0.1386 0.021 0.24 0.043 0.304 0.064l-0.256 1.296c-0.1174-0.043-0.3147-0.091-0.592-0.144-0.2667-0.064-0.6134-0.096-1.04-0.096-0.2774 0-0.5547 0.032-0.832 0.096-0.2667 0.053-0.4427 0.091-0.528 0.112v6.992h-1.488v-7.968c0.352-0.128 0.7893-0.245 1.312-0.352 0.5226-0.117 1.1093-0.176 1.76-0.176zm4.1718 0.176h3.152v1.248h-3.152v3.84c0 0.416 0.032 0.763 0.096 1.04 0.064 0.267 0.16 0.48 0.288 0.64 0.128 0.149 0.288 0.256 0.48 0.32s0.416 0.096 0.672 0.096c0.448 0 0.8054-0.048 1.072-0.144 0.2774-0.107 0.4694-0.181 0.576-0.224l0.288 1.232c-0.1493 0.075-0.4106 0.165-0.784 0.272-0.3733 0.117-0.8 0.176-1.28 0.176-0.5653 0-1.0346-0.069-1.408-0.208-0.3626-0.149-0.656-0.368-0.88-0.656s-0.384-0.64-0.48-1.056c-0.0853-0.427-0.128-0.917-0.128-1.472v-7.424l1.488-0.256v2.576zm8.1384 8.512c-0.672 0-1.264-0.107-1.776-0.32-0.5013-0.213-0.928-0.512-1.28-0.896-0.3413-0.384-0.5973-0.837-0.768-1.36-0.1707-0.533-0.256-1.12-0.256-1.76s0.0907-1.227 0.272-1.76c0.192-0.533 0.4587-0.992 0.8-1.376 0.3413-0.395 0.7573-0.699 1.248-0.912 0.5013-0.224 1.056-0.336 1.664-0.336 0.3733 0 0.7467 0.032 1.12 0.096s0.7307 0.165 1.072 0.304l-0.336 1.264c-0.224-0.107-0.4853-0.192-0.784-0.256-0.288-0.064-0.5973-0.096-0.928-0.096-0.832 0-1.472 0.261-1.92 0.784-0.4373 0.523-0.656 1.285-0.656 2.288 0 0.448 0.048 0.859 0.144 1.232 0.1067 0.373 0.2667 0.693 0.48 0.96 0.224 0.267 0.5067 0.475 0.848 0.624 0.3413 0.139 0.7573 0.208 1.248 0.208 0.3947 0 0.752-0.037 1.072-0.112s0.5707-0.155 0.752-0.24l0.208 1.248c-0.0853 0.053-0.208 0.107-0.368 0.16-0.16 0.043-0.3413 0.08-0.544 0.112-0.2027 0.043-0.4213 0.075-0.656 0.096-0.224 0.032-0.4427 0.048-0.656 0.048zm10.126-0.432c-0.3413 0.085-0.7947 0.176-1.36 0.272-0.5547 0.096-1.2 0.144-1.936 0.144-0.64 0-1.1787-0.091-1.616-0.272-0.4373-0.192-0.7893-0.459-1.056-0.8s-0.4587-0.741-0.576-1.2c-0.1173-0.469-0.176-0.987-0.176-1.552v-4.672h1.488v4.352c0 1.013 0.16 1.739 0.48 2.176s0.8587 0.656 1.616 0.656c0.16 0 0.3253-5e-3 0.496-0.016s0.3307-0.021 0.48-0.032c0.1493-0.021 0.2827-0.037 0.4-0.048 0.128-0.021 0.2187-0.043 0.272-0.064v-7.024h1.488v8.08zm3.6355-8.08h3.152v1.248h-3.152v3.84c0 0.416 0.032 0.763 0.096 1.04 0.064 0.267 0.16 0.48 0.288 0.64 0.128 0.149 0.288 0.256 0.48 0.32s0.416 0.096 0.672 0.096c0.448 0 0.8053-0.048 1.072-0.144 0.2773-0.107 0.4693-0.181 0.576-0.224l0.288 1.232c-0.1493 0.075-0.4107 0.165-0.784 0.272-0.3733 0.117-0.8 0.176-1.28 0.176-0.5653 0-1.0347-0.069-1.408-0.208-0.3627-0.149-0.656-0.368-0.88-0.656s-0.384-0.64-0.48-1.056c-0.0853-0.427-0.128-0.917-0.128-1.472v-7.424l1.488-0.256v2.576zm6.6615 7.248c0.608 0 1.056-0.08 1.344-0.24 0.2987-0.16 0.448-0.416 0.448-0.768 0-0.363-0.144-0.651-0.432-0.864s-0.7627-0.453-1.424-0.72c-0.32-0.128-0.6293-0.256-0.928-0.384-0.288-0.139-0.5387-0.299-0.752-0.48s-0.384-0.4-0.512-0.656-0.192-0.571-0.192-0.944c0-0.736 0.272-1.317 0.816-1.744 0.544-0.437 1.2853-0.656 2.224-0.656 0.2347 0 0.4693 0.016 0.704 0.048 0.2347 0.021 0.4533 0.053 0.656 0.096 0.2027 0.032 0.3787 0.069 0.528 0.112 0.16 0.043 0.2827 0.08 0.368 0.112l-0.272 1.28c-0.16-0.085-0.4107-0.171-0.752-0.256-0.3413-0.096-0.752-0.144-1.232-0.144-0.416 0-0.7787 0.085-1.088 0.256-0.3093 0.16-0.464 0.416-0.464 0.768 0 0.181 0.032 0.341 0.096 0.48 0.0747 0.139 0.1813 0.267 0.32 0.384 0.1493 0.107 0.3307 0.208 0.544 0.304s0.4693 0.197 0.768 0.304c0.3947 0.149 0.7467 0.299 1.056 0.448 0.3093 0.139 0.5707 0.304 0.784 0.496 0.224 0.192 0.3947 0.427 0.512 0.704 0.1173 0.267 0.176 0.597 0.176 0.992 0 0.768-0.288 1.349-0.864 1.744-0.5653 0.395-1.376 0.592-2.432 0.592-0.736 0-1.312-0.064-1.728-0.192-0.416-0.117-0.6987-0.208-0.848-0.272l0.272-1.28c0.1707 0.064 0.4427 0.16 0.816 0.288s0.8693 0.192 1.488 0.192z" fill="#383342"/>
<path d="m24.352 260.91h1.552v11.088h-1.552v-5.12h-5.424v5.12h-1.552v-11.088h1.552v4.624h5.424v-4.624zm3.4253 6.944c0-0.736 0.1066-1.376 0.32-1.92 0.2133-0.555 0.496-1.013 0.848-1.376s0.7573-0.635 1.216-0.816c0.4586-0.181 0.928-0.272 1.408-0.272 1.12 0 1.9786 0.352 2.576 1.056 0.5973 0.693 0.896 1.755 0.896 3.184v0.256c0 0.096-0.0054 0.187-0.016 0.272h-5.696c0.064 0.864 0.3146 1.52 0.752 1.968 0.4373 0.448 1.12 0.672 2.048 0.672 0.5226 0 0.96-0.043 1.312-0.128 0.3626-0.096 0.6346-0.187 0.816-0.272l0.208 1.248c-0.1814 0.096-0.5014 0.197-0.96 0.304-0.448 0.107-0.96 0.16-1.536 0.16-0.7254 0-1.3547-0.107-1.888-0.32-0.5227-0.224-0.9547-0.528-1.296-0.912-0.3414-0.384-0.5974-0.837-0.768-1.36-0.16-0.533-0.24-1.115-0.24-1.744zm5.712-0.816c0.0106-0.672-0.16-1.221-0.512-1.648-0.3414-0.437-0.816-0.656-1.424-0.656-0.3414 0-0.6454 0.069-0.912 0.208-0.256 0.128-0.4747 0.299-0.656 0.512-0.1814 0.213-0.3254 0.459-0.432 0.736-0.096 0.277-0.16 0.56-0.192 0.848h4.128zm5.8655 5.12c-0.9174-0.021-1.568-0.219-1.952-0.592s-0.576-0.955-0.576-1.744v-9.984l1.488-0.256v10c0 0.245 0.0213 0.448 0.064 0.608 0.0426 0.16 0.112 0.288 0.208 0.384s0.224 0.171 0.384 0.224c0.16 0.043 0.3573 0.08 0.592 0.112l-0.208 1.248zm7.335-4.304c0-0.971-0.24-1.717-0.72-2.24s-1.12-0.784-1.92-0.784c-0.448 0-0.8 0.016-1.056 0.048-0.2454 0.032-0.4427 0.069-0.592 0.112v5.248c0.1813 0.149 0.4426 0.293 0.784 0.432 0.3413 0.139 0.7146 0.208 1.12 0.208 0.4266 0 0.7893-0.075 1.088-0.224 0.3093-0.16 0.56-0.373 0.752-0.64 0.192-0.277 0.3306-0.597 0.416-0.96 0.0853-0.373 0.128-0.773 0.128-1.2zm1.552 0c0 0.629-0.0854 1.211-0.256 1.744-0.16 0.533-0.4 0.992-0.72 1.376s-0.7147 0.683-1.184 0.896c-0.4587 0.213-0.9867 0.32-1.584 0.32-0.48 0-0.9067-0.064-1.28-0.192-0.3627-0.128-0.6347-0.251-0.816-0.368v3.328h-1.488v-11.024c0.352-0.085 0.7893-0.176 1.312-0.272 0.5333-0.107 1.1466-0.16 1.84-0.16 0.64 0 1.216 0.101 1.728 0.304s0.9493 0.491 1.312 0.864c0.3626 0.373 0.64 0.832 0.832 1.376 0.2026 0.533 0.304 1.136 0.304 1.808z" fill="#383342"/>
<path d="m210.73 262.94 3.053 3.06-3.053 3.06 0.94 0.94 4-4-4-4-0.94 0.94z" fill="#383342"/>
</svg>
