<?xml version="1.0" encoding="UTF-8"?>
<svg fill="none" viewBox="0 0 202 299" xmlns="http://www.w3.org/2000/svg">
<rect x=".5" y=".5" width="201" height="298" rx="7.5" fill="#EFEEF1"/>
<rect x=".5" y=".5" width="201" height="298" rx="7.5" stroke="#CBC7D1"/>
<path d="m20.368 30.096c-0.224 0-0.4693-0.0053-0.736-0.016-0.256-0.0107-0.5173-0.0267-0.784-0.048-0.256-0.0213-0.512-0.048-0.768-0.08s-0.4907-0.0747-0.704-0.128v-10.752c0.2133-0.0533 0.448-0.096 0.704-0.128s0.512-0.0587 0.768-0.08c0.2667-0.0213 0.528-0.0373 0.784-0.048s0.496-0.016 0.72-0.016c0.64 0 1.2373 0.048 1.792 0.144 0.5653 0.096 1.0507 0.2613 1.456 0.496 0.416 0.224 0.7413 0.5227 0.976 0.896s0.352 0.832 0.352 1.376c0 0.608-0.144 1.1093-0.432 1.504-0.288 0.384-0.672 0.672-1.152 0.864 0.6507 0.192 1.168 0.496 1.552 0.912s0.576 1.0027 0.576 1.76c0 1.1093-0.4107 1.9467-1.232 2.512-0.8107 0.5547-2.1013 0.832-3.872 0.832zm-1.456-5.264v3.904c0.1173 0.0107 0.256 0.0213 0.416 0.032 0.1387 0.0107 0.2987 0.0213 0.48 0.032h0.656c0.4587 0 0.8907-0.0267 1.296-0.08 0.416-0.064 0.7787-0.1707 1.088-0.32s0.5547-0.3573 0.736-0.624c0.192-0.2667 0.288-0.6027 0.288-1.008 0-0.3627-0.0693-0.6667-0.208-0.912-0.1387-0.256-0.3413-0.4587-0.608-0.608-0.256-0.1493-0.5653-0.256-0.928-0.32s-0.768-0.096-1.216-0.096h-2zm0-1.248h1.632c0.384 0 0.7467-0.0267 1.088-0.08s0.6347-0.1493 0.88-0.288c0.256-0.1387 0.4533-0.32 0.592-0.544 0.1493-0.224 0.224-0.5067 0.224-0.848 0-0.32-0.0747-0.5867-0.224-0.8-0.1493-0.224-0.3573-0.4-0.624-0.528-0.256-0.1387-0.56-0.24-0.912-0.304s-0.7253-0.096-1.12-0.096-0.704 0.0053-0.928 0.016-0.4267 0.0267-0.608 0.048v3.424zm11.145 5.344c0.352 0 0.6613-0.0053 0.928-0.016 0.2773-0.0213 0.5066-0.0533 0.688-0.096v-2.48c-0.1067-0.0533-0.2827-0.096-0.528-0.128-0.2347-0.0427-0.5227-0.064-0.864-0.064-0.224 0-0.464 0.016-0.72 0.048-0.2454 0.032-0.4747 0.1013-0.688 0.208-0.2027 0.096-0.3734 0.2347-0.512 0.416-0.1387 0.1707-0.208 0.4-0.208 0.688 0 0.5333 0.1706 0.9067 0.512 1.12 0.3413 0.2027 0.8053 0.304 1.392 0.304zm-0.128-7.456c0.5973 0 1.0986 0.08 1.504 0.24 0.416 0.1493 0.7466 0.368 0.992 0.656 0.256 0.2773 0.4373 0.6133 0.544 1.008 0.1066 0.384 0.16 0.8107 0.16 1.28v5.2c-0.128 0.0213-0.3094 0.0533-0.544 0.096-0.224 0.032-0.48 0.064-0.768 0.096s-0.6027 0.0587-0.944 0.08c-0.3307 0.032-0.6614 0.048-0.992 0.048-0.4694 0-0.9014-0.048-1.296-0.144-0.3947-0.096-0.736-0.2453-1.024-0.448-0.288-0.2133-0.512-0.4907-0.672-0.832s-0.24-0.752-0.24-1.232c0-0.4587 0.0906-0.8533 0.272-1.184 0.192-0.3307 0.448-0.5973 0.768-0.8s0.6933-0.352 1.12-0.448c0.4266-0.096 0.8746-0.144 1.344-0.144 0.1493 0 0.304 0.0107 0.464 0.032 0.16 0.0107 0.3093 0.032 0.448 0.064 0.1493 0.0213 0.2773 0.0427 0.384 0.064 0.1066 0.0213 0.1813 0.0373 0.224 0.048v-0.416c0-0.2453-0.0267-0.4853-0.08-0.72-0.0534-0.2453-0.1494-0.4587-0.288-0.64-0.1387-0.192-0.3307-0.3413-0.576-0.448-0.2347-0.1173-0.544-0.176-0.928-0.176-0.4907 0-0.9227 0.0373-1.296 0.112-0.3627 0.064-0.6347 0.1333-0.816 0.208l-0.176-1.232c0.192-0.0853 0.512-0.1653 0.96-0.24 0.448-0.0853 0.9333-0.128 1.456-0.128zm8.9673 8.72c-0.672 0-1.264-0.1067-1.776-0.32-0.5013-0.2133-0.928-0.512-1.28-0.896-0.3413-0.384-0.5973-0.8373-0.768-1.36-0.1706-0.5333-0.256-1.12-0.256-1.76s0.0907-1.2267 0.272-1.76c0.192-0.5333 0.4587-0.992 0.8-1.376 0.3414-0.3947 0.7574-0.6987 1.248-0.912 0.5014-0.224 1.056-0.336 1.664-0.336 0.3734 0 0.7467 0.032 1.12 0.096 0.3734 0.064 0.7307 0.1653 1.072 0.304l-0.336 1.264c-0.224-0.1067-0.4853-0.192-0.784-0.256-0.288-0.064-0.5973-0.096-0.928-0.096-0.832 0-1.472 0.2613-1.92 0.784-0.4373 0.5227-0.656 1.2853-0.656 2.288 0 0.448 0.048 0.8587 0.144 1.232 0.1067 0.3733 0.2667 0.6933 0.48 0.96 0.224 0.2667 0.5067 0.4747 0.848 0.624 0.3414 0.1387 0.7574 0.208 1.248 0.208 0.3947 0 0.752-0.0373 1.072-0.112s0.5707-0.1547 0.752-0.24l0.208 1.248c-0.0853 0.0533-0.208 0.1067-0.368 0.16-0.16 0.0427-0.3413 0.08-0.544 0.112-0.2026 0.0427-0.4213 0.0747-0.656 0.096-0.224 0.032-0.4426 0.048-0.656 0.048zm6.5095-4.768c0.32 0.2453 0.656 0.5493 1.008 0.912 0.3627 0.3627 0.7147 0.7573 1.056 1.184 0.352 0.416 0.6827 0.8427 0.992 1.28 0.3094 0.4267 0.5707 0.8267 0.784 1.2h-1.744c-0.224-0.3733-0.4853-0.752-0.784-1.136-0.288-0.3947-0.592-0.768-0.912-1.12-0.32-0.3627-0.6453-0.6933-0.976-0.992-0.3306-0.2987-0.6453-0.5493-0.944-0.752v4h-1.488v-12.16l1.488-0.256v7.584l0.848-0.848c0.3094-0.3093 0.6134-0.624 0.912-0.944 0.2987-0.32 0.5814-0.624 0.848-0.912 0.2667-0.2987 0.496-0.56 0.688-0.784h1.744c-0.2453 0.2667-0.512 0.56-0.8 0.88s-0.5866 0.6453-0.896 0.976c-0.3093 0.32-0.624 0.6453-0.944 0.976-0.3093 0.32-0.6026 0.624-0.88 0.912z" fill="#383342"/>
<path d="m17.376 62v-11.088h6.688v1.328h-5.136v3.344h4.56v1.312h-4.56v5.104h-1.552zm15.303-4.16c0 0.6613-0.096 1.2587-0.288 1.792s-0.464 0.992-0.816 1.376c-0.3413 0.384-0.752 0.6827-1.232 0.896-0.48 0.2027-1.0027 0.304-1.568 0.304s-1.088-0.1013-1.568-0.304c-0.48-0.2133-0.896-0.512-1.248-0.896-0.3413-0.384-0.608-0.8427-0.8-1.376s-0.288-1.1307-0.288-1.792c0-0.6507 0.096-1.2427 0.288-1.776 0.192-0.544 0.4587-1.008 0.8-1.392 0.352-0.384 0.768-0.6773 1.248-0.88 0.48-0.2133 1.0027-0.32 1.568-0.32s1.088 0.1067 1.568 0.32c0.48 0.2027 0.8907 0.496 1.232 0.88 0.352 0.384 0.624 0.848 0.816 1.392 0.192 0.5333 0.288 1.1253 0.288 1.776zm-1.552 0c0-0.9387-0.2133-1.68-0.64-2.224-0.416-0.5547-0.9867-0.832-1.712-0.832s-1.3013 0.2773-1.728 0.832c-0.416 0.544-0.624 1.2853-0.624 2.224s0.208 1.6853 0.624 2.24c0.4267 0.544 1.0027 0.816 1.728 0.816s1.296-0.272 1.712-0.816c0.4267-0.5547 0.64-1.3013 0.64-2.24zm6.3975-4.336c0.128 0 0.272 0.0107 0.432 0.032 0.1707 0.0107 0.336 0.032 0.496 0.064 0.16 0.0213 0.304 0.048 0.432 0.08 0.1387 0.0213 0.24 0.0427 0.304 0.064l-0.256 1.296c-0.1173-0.0427-0.3147-0.0907-0.592-0.144-0.2667-0.064-0.6133-0.096-1.04-0.096-0.2773 0-0.5547 0.032-0.832 0.096-0.2667 0.0533-0.4427 0.0907-0.528 0.112v6.992h-1.488v-7.968c0.352-0.128 0.7893-0.2453 1.312-0.352 0.5227-0.1173 1.1093-0.176 1.76-0.176zm9.8768 8.496c-0.2987-0.768-0.6187-1.6427-0.96-2.624-0.3307-0.992-0.6347-2.0213-0.912-3.088-0.2774 1.0667-0.5814 2.096-0.912 3.088-0.3307 0.9813-0.6454 1.856-0.944 2.624h-1.296c-0.4907-1.0987-0.9707-2.352-1.44-3.76-0.4694-1.408-0.912-2.928-1.328-4.56h1.6c0.1066 0.5013 0.2346 1.0453 0.384 1.632 0.1493 0.5867 0.304 1.1733 0.464 1.76 0.1706 0.5867 0.3466 1.152 0.528 1.696 0.1813 0.544 0.352 1.0187 0.512 1.424 0.1813-0.5013 0.3573-1.0293 0.528-1.584 0.1813-0.5653 0.352-1.1307 0.512-1.696 0.16-0.576 0.3093-1.136 0.448-1.68 0.1493-0.5547 0.2773-1.072 0.384-1.552h1.232c0.096 0.48 0.2133 0.9973 0.352 1.552 0.1386 0.544 0.288 1.104 0.448 1.68 0.16 0.5653 0.3253 1.1307 0.496 1.696 0.1813 0.5547 0.3626 1.0827 0.544 1.584 0.16-0.4053 0.3253-0.88 0.496-1.424 0.1813-0.544 0.3573-1.1093 0.528-1.696 0.1706-0.5867 0.3306-1.1733 0.48-1.76 0.1493-0.5867 0.2773-1.1307 0.384-1.632h1.536c-0.416 1.632-0.8587 3.152-1.328 4.56-0.4694 1.408-0.9494 2.6613-1.44 3.76h-1.296zm8.1335-1.072c0.352 0 0.6613-0.0053 0.928-0.016 0.2773-0.0213 0.5066-0.0533 0.688-0.096v-2.48c-0.1067-0.0533-0.2827-0.096-0.528-0.128-0.2347-0.0427-0.5227-0.064-0.864-0.064-0.224 0-0.464 0.016-0.72 0.048-0.2454 0.032-0.4747 0.1013-0.688 0.208-0.2027 0.096-0.3734 0.2347-0.512 0.416-0.1387 0.1707-0.208 0.4-0.208 0.688 0 0.5333 0.1706 0.9067 0.512 1.12 0.3413 0.2027 0.8053 0.304 1.392 0.304zm-0.128-7.456c0.5973 0 1.0986 0.08 1.504 0.24 0.416 0.1493 0.7466 0.368 0.992 0.656 0.256 0.2773 0.4373 0.6133 0.544 1.008 0.1066 0.384 0.16 0.8107 0.16 1.28v5.2c-0.128 0.0213-0.3094 0.0533-0.544 0.096-0.224 0.032-0.48 0.064-0.768 0.096s-0.6027 0.0587-0.944 0.08c-0.3307 0.032-0.6614 0.048-0.992 0.048-0.4694 0-0.9014-0.048-1.296-0.144-0.3947-0.096-0.736-0.2453-1.024-0.448-0.288-0.2133-0.512-0.4907-0.672-0.832s-0.24-0.752-0.24-1.232c0-0.4587 0.0906-0.8533 0.272-1.184 0.192-0.3307 0.448-0.5973 0.768-0.8s0.6933-0.352 1.12-0.448c0.4266-0.096 0.8746-0.144 1.344-0.144 0.1493 0 0.304 0.0107 0.464 0.032 0.16 0.0107 0.3093 0.032 0.448 0.064 0.1493 0.0213 0.2773 0.0427 0.384 0.064 0.1066 0.0213 0.1813 0.0373 0.224 0.048v-0.416c0-0.2453-0.0267-0.4853-0.08-0.72-0.0534-0.2453-0.1494-0.4587-0.288-0.64-0.1387-0.192-0.3307-0.3413-0.576-0.448-0.2347-0.1173-0.544-0.176-0.928-0.176-0.4907 0-0.9227 0.0373-1.296 0.112-0.3627 0.064-0.6347 0.1333-0.816 0.208l-0.176-1.232c0.192-0.0853 0.512-0.1653 0.96-0.24 0.448-0.0853 0.9333-0.128 1.456-0.128zm8.4233 0.032c0.128 0 0.272 0.0107 0.432 0.032 0.1707 0.0107 0.336 0.032 0.496 0.064 0.16 0.0213 0.304 0.048 0.432 0.08 0.1387 0.0213 0.24 0.0427 0.304 0.064l-0.256 1.296c-0.1173-0.0427-0.3146-0.0907-0.592-0.144-0.2666-0.064-0.6133-0.096-1.04-0.096-0.2773 0-0.5546 0.032-0.832 0.096-0.2666 0.0533-0.4426 0.0907-0.528 0.112v6.992h-1.488v-7.968c0.352-0.128 0.7894-0.2453 1.312-0.352 0.5227-0.1173 1.1094-0.176 1.76-0.176zm8.1559 1.936c-0.1813-0.1493-0.4427-0.2933-0.784-0.432s-0.7147-0.208-1.12-0.208c-0.4267 0-0.7947 0.08-1.104 0.24-0.2987 0.1493-0.544 0.3627-0.736 0.64-0.192 0.2667-0.3307 0.5867-0.416 0.96s-0.128 0.7733-0.128 1.2c0 0.9707 0.24 1.7227 0.72 2.256 0.48 0.5227 1.12 0.784 1.92 0.784 0.4053 0 0.7413-0.016 1.008-0.048 0.2773-0.0427 0.4907-0.0853 0.64-0.128v-5.264zm0-5.6 1.488-0.256v12.176c-0.3413 0.096-0.7787 0.192-1.312 0.288s-1.1467 0.144-1.84 0.144c-0.64 0-1.216-0.1013-1.728-0.304s-0.9493-0.4907-1.312-0.864-0.6453-0.8267-0.848-1.36c-0.192-0.544-0.288-1.152-0.288-1.824 0-0.64 0.08-1.2267 0.24-1.76 0.1707-0.5333 0.416-0.992 0.736-1.376s0.7093-0.6827 1.168-0.896c0.4693-0.2133 1.0027-0.32 1.6-0.32 0.48 0 0.9013 0.064 1.264 0.192 0.3733 0.128 0.6507 0.2507 0.832 0.368v-4.208z" fill="#383342"/>
<path d="m22.8 89.36c0.1707 0.2133 0.384 0.496 0.64 0.848 0.2667 0.3413 0.5387 0.7253 0.816 1.152 0.2773 0.416 0.5493 0.8533 0.816 1.312 0.2773 0.4587 0.512 0.9013 0.704 1.328h-1.696c-0.2133-0.4053-0.448-0.816-0.704-1.232-0.2453-0.416-0.496-0.8107-0.752-1.184-0.256-0.384-0.512-0.7413-0.768-1.072-0.2453-0.3307-0.4693-0.6187-0.672-0.864-0.1387 0.0107-0.2827 0.016-0.432 0.016h-0.432-1.392v4.336h-1.552v-10.928c0.4373-0.1067 0.9227-0.176 1.456-0.208 0.544-0.0427 1.04-0.064 1.488-0.064 1.5573 0 2.7413 0.2933 3.552 0.88 0.8213 0.5867 1.232 1.4613 1.232 2.624 0 0.736-0.1973 1.3653-0.592 1.888-0.384 0.5227-0.9547 0.912-1.712 1.168zm-2.352-5.2c-0.6613 0-1.168 0.016-1.52 0.048v4.176h1.104c0.5333 0 1.0133-0.0267 1.44-0.08s0.784-0.1547 1.072-0.304c0.2987-0.1493 0.528-0.3573 0.688-0.624 0.16-0.2773 0.24-0.64 0.24-1.088 0-0.416-0.08-0.7627-0.24-1.04s-0.3787-0.496-0.656-0.656c-0.2667-0.16-0.5867-0.272-0.96-0.336-0.3627-0.064-0.752-0.096-1.168-0.096zm6.1105 5.696c0-0.736 0.1067-1.376 0.32-1.92 0.2133-0.5547 0.496-1.0133 0.848-1.376s0.7573-0.6347 1.216-0.816 0.928-0.272 1.408-0.272c1.12 0 1.9787 0.352 2.576 1.056 0.5973 0.6933 0.896 1.7547 0.896 3.184v0.256c0 0.096-0.0053 0.1867-0.016 0.272h-5.696c0.064 0.864 0.3147 1.52 0.752 1.968s1.12 0.672 2.048 0.672c0.5227 0 0.96-0.0427 1.312-0.128 0.3627-0.096 0.6347-0.1867 0.816-0.272l0.208 1.248c-0.1813 0.096-0.5013 0.1973-0.96 0.304-0.448 0.1067-0.96 0.16-1.536 0.16-0.7253 0-1.3547-0.1067-1.888-0.32-0.5227-0.224-0.9547-0.528-1.296-0.912s-0.5973-0.8373-0.768-1.36c-0.16-0.5333-0.24-1.1147-0.24-1.744zm5.712-0.816c0.0107-0.672-0.16-1.2213-0.512-1.648-0.3413-0.4373-0.816-0.656-1.424-0.656-0.3413 0-0.6453 0.0693-0.912 0.208-0.256 0.128-0.4747 0.2987-0.656 0.512s-0.3253 0.4587-0.432 0.736c-0.096 0.2773-0.16 0.56-0.192 0.848h4.128zm5.8655 5.12c-0.9173-0.0213-1.568-0.2187-1.952-0.592s-0.576-0.9547-0.576-1.744v-9.984l1.488-0.256v10c0 0.2453 0.0213 0.448 0.064 0.608s0.112 0.288 0.208 0.384 0.224 0.1707 0.384 0.224c0.16 0.0427 0.3573 0.08 0.592 0.112l-0.208 1.248zm8.903-4.32c0 0.6613-0.096 1.2587-0.288 1.792s-0.464 0.992-0.816 1.376c-0.3413 0.384-0.752 0.6827-1.232 0.896-0.48 0.2027-1.0027 0.304-1.568 0.304s-1.088-0.1013-1.568-0.304c-0.48-0.2133-0.896-0.512-1.248-0.896-0.3413-0.384-0.608-0.8427-0.8-1.376s-0.288-1.1307-0.288-1.792c0-0.6507 0.096-1.2427 0.288-1.776 0.192-0.544 0.4587-1.008 0.8-1.392 0.352-0.384 0.768-0.6773 1.248-0.88 0.48-0.2133 1.0027-0.32 1.568-0.32s1.088 0.1067 1.568 0.32c0.48 0.2027 0.8907 0.496 1.232 0.88 0.352 0.384 0.624 0.848 0.816 1.392 0.192 0.5333 0.288 1.1253 0.288 1.776zm-1.552 0c0-0.9387-0.2133-1.68-0.64-2.224-0.416-0.5547-0.9867-0.832-1.712-0.832s-1.3013 0.2773-1.728 0.832c-0.416 0.544-0.624 1.2853-0.624 2.224s0.208 1.6853 0.624 2.24c0.4267 0.544 1.0027 0.816 1.728 0.816s1.296-0.272 1.712-0.816c0.4267-0.5547 0.64-1.3013 0.64-2.24zm6.1415 3.088c0.352 0 0.6613-0.0053 0.928-0.016 0.2773-0.0213 0.5067-0.0533 0.688-0.096v-2.48c-0.1067-0.0533-0.2827-0.096-0.528-0.128-0.2347-0.0427-0.5227-0.064-0.864-0.064-0.224 0-0.464 0.016-0.72 0.048-0.2453 0.032-0.4747 0.1013-0.688 0.208-0.2027 0.096-0.3733 0.2347-0.512 0.416-0.1387 0.1707-0.208 0.4-0.208 0.688 0 0.5333 0.1707 0.9067 0.512 1.12 0.3413 0.2027 0.8053 0.304 1.392 0.304zm-0.128-7.456c0.5973 0 1.0987 0.08 1.504 0.24 0.416 0.1493 0.7467 0.368 0.992 0.656 0.256 0.2773 0.4373 0.6133 0.544 1.008 0.1067 0.384 0.16 0.8107 0.16 1.28v5.2c-0.128 0.0213-0.3093 0.0533-0.544 0.096-0.224 0.032-0.48 0.064-0.768 0.096s-0.6027 0.0587-0.944 0.08c-0.3307 0.032-0.6613 0.048-0.992 0.048-0.4693 0-0.9013-0.048-1.296-0.144s-0.736-0.2453-1.024-0.448c-0.288-0.2133-0.512-0.4907-0.672-0.832s-0.24-0.752-0.24-1.232c0-0.4587 0.0907-0.8533 0.272-1.184 0.192-0.3307 0.448-0.5973 0.768-0.8s0.6933-0.352 1.12-0.448 0.8747-0.144 1.344-0.144c0.1493 0 0.304 0.0107 0.464 0.032 0.16 0.0107 0.3093 0.032 0.448 0.064 0.1493 0.0213 0.2773 0.0427 0.384 0.064s0.1813 0.0373 0.224 0.048v-0.416c0-0.2453-0.0267-0.4853-0.08-0.72-0.0533-0.2453-0.1493-0.4587-0.288-0.64-0.1387-0.192-0.3307-0.3413-0.576-0.448-0.2347-0.1173-0.544-0.176-0.928-0.176-0.4907 0-0.9227 0.0373-1.296 0.112-0.3627 0.064-0.6347 0.1333-0.816 0.208l-0.176-1.232c0.192-0.0853 0.512-0.1653 0.96-0.24 0.448-0.0853 0.9333-0.128 1.456-0.128zm10.727 1.968c-0.1814-0.1493-0.4427-0.2933-0.784-0.432-0.3414-0.1387-0.7147-0.208-1.12-0.208-0.4267 0-0.7947 0.08-1.104 0.24-0.2987 0.1493-0.544 0.3627-0.736 0.64-0.192 0.2667-0.3307 0.5867-0.416 0.96-0.0854 0.3733-0.128 0.7733-0.128 1.2 0 0.9707 0.24 1.7227 0.72 2.256 0.48 0.5227 1.12 0.784 1.92 0.784 0.4053 0 0.7413-0.016 1.008-0.048 0.2773-0.0427 0.4906-0.0853 0.64-0.128v-5.264zm0-5.6 1.488-0.256v12.176c-0.3414 0.096-0.7787 0.192-1.312 0.288-0.5334 0.096-1.1467 0.144-1.84 0.144-0.64 0-1.216-0.1013-1.728-0.304s-0.9494-0.4907-1.312-0.864c-0.3627-0.3733-0.6454-0.8267-0.848-1.36-0.192-0.544-0.288-1.152-0.288-1.824 0-0.64 0.08-1.2267 0.24-1.76 0.1706-0.5333 0.416-0.992 0.736-1.376s0.7093-0.6827 1.168-0.896c0.4693-0.2133 1.0026-0.32 1.6-0.32 0.48 0 0.9013 0.064 1.264 0.192 0.3733 0.128 0.6506 0.2507 0.832 0.368v-4.208z" fill="#383342"/>
<rect x="16" y="108" width="170" height="1" fill="#CBC7D1"/>
<path d="m19.952 133.9c1.6213 0 2.432-0.555 2.432-1.664 0-0.341-0.0747-0.629-0.224-0.864-0.1387-0.245-0.3307-0.453-0.576-0.624-0.2453-0.181-0.528-0.336-0.848-0.464-0.3093-0.128-0.64-0.256-0.992-0.384-0.4053-0.139-0.7893-0.293-1.152-0.464-0.3627-0.181-0.6773-0.389-0.944-0.624-0.2667-0.245-0.48-0.533-0.64-0.864-0.1493-0.331-0.224-0.731-0.224-1.2 0-0.971 0.3307-1.728 0.992-2.272s1.5733-0.816 2.736-0.816c0.672 0 1.28 0.075 1.824 0.224 0.5547 0.139 0.96 0.293 1.216 0.464l-0.496 1.264c-0.224-0.139-0.56-0.272-1.008-0.4-0.4373-0.139-0.9493-0.208-1.536-0.208-0.2987 0-0.576 0.032-0.832 0.096s-0.48 0.16-0.672 0.288-0.3467 0.293-0.464 0.496c-0.1067 0.192-0.16 0.421-0.16 0.688 0 0.299 0.0587 0.549 0.176 0.752s0.2827 0.384 0.496 0.544c0.2133 0.149 0.4587 0.288 0.736 0.416 0.288 0.128 0.6027 0.256 0.944 0.384 0.48 0.192 0.9173 0.384 1.312 0.576 0.4053 0.192 0.752 0.421 1.04 0.688 0.2987 0.267 0.528 0.587 0.688 0.96 0.16 0.363 0.24 0.805 0.24 1.328 0 0.971-0.3573 1.717-1.072 2.24-0.704 0.523-1.7013 0.784-2.992 0.784-0.4373 0-0.8427-0.032-1.216-0.096-0.3627-0.053-0.688-0.117-0.976-0.192-0.288-0.085-0.5387-0.171-0.752-0.256-0.2027-0.096-0.3627-0.176-0.48-0.24l0.464-1.28c0.2453 0.139 0.6187 0.293 1.12 0.464s1.1147 0.256 1.84 0.256zm8.3396 0.032c0.352 0 0.6614-5e-3 0.928-0.016 0.2774-0.021 0.5067-0.053 0.688-0.096v-2.48c-0.1066-0.053-0.2826-0.096-0.528-0.128-0.2346-0.043-0.5226-0.064-0.864-0.064-0.224 0-0.464 0.016-0.72 0.048-0.2453 0.032-0.4746 0.101-0.688 0.208-0.2026 0.096-0.3733 0.235-0.512 0.416-0.1386 0.171-0.208 0.4-0.208 0.688 0 0.533 0.1707 0.907 0.512 1.12 0.3414 0.203 0.8054 0.304 1.392 0.304zm-0.128-7.456c0.5974 0 1.0987 0.08 1.504 0.24 0.416 0.149 0.7467 0.368 0.992 0.656 0.256 0.277 0.4374 0.613 0.544 1.008 0.1067 0.384 0.16 0.811 0.16 1.28v5.2c-0.128 0.021-0.3093 0.053-0.544 0.096-0.224 0.032-0.48 0.064-0.768 0.096s-0.6026 0.059-0.944 0.08c-0.3306 0.032-0.6613 0.048-0.992 0.048-0.4693 0-0.9013-0.048-1.296-0.144-0.3946-0.096-0.736-0.245-1.024-0.448-0.288-0.213-0.512-0.491-0.672-0.832s-0.24-0.752-0.24-1.232c0-0.459 0.0907-0.853 0.272-1.184 0.192-0.331 0.448-0.597 0.768-0.8s0.6934-0.352 1.12-0.448c0.4267-0.096 0.8747-0.144 1.344-0.144 0.1494 0 0.304 0.011 0.464 0.032 0.16 0.011 0.3094 0.032 0.448 0.064 0.1494 0.021 0.2774 0.043 0.384 0.064 0.1067 0.021 0.1814 0.037 0.224 0.048v-0.416c0-0.245-0.0266-0.485-0.08-0.72-0.0533-0.245-0.1493-0.459-0.288-0.64-0.1386-0.192-0.3306-0.341-0.576-0.448-0.2346-0.117-0.544-0.176-0.928-0.176-0.4906 0-0.9226 0.037-1.296 0.112-0.3626 0.064-0.6346 0.133-0.816 0.208l-0.176-1.232c0.192-0.085 0.512-0.165 0.96-0.24 0.448-0.085 0.9334-0.128 1.456-0.128zm11.613 0.208c-0.416 1.557-0.9066 3.051-1.472 4.48-0.5546 1.429-1.0933 2.709-1.616 3.84h-1.344c-0.5226-1.131-1.0666-2.411-1.632-3.84-0.5546-1.429-1.04-2.923-1.456-4.48h1.6c0.128 0.523 0.2774 1.083 0.448 1.68 0.1814 0.587 0.368 1.173 0.56 1.76 0.2027 0.576 0.4054 1.136 0.608 1.68 0.2027 0.544 0.3947 1.029 0.576 1.456 0.1814-0.427 0.3734-0.912 0.576-1.456 0.2027-0.544 0.4-1.104 0.592-1.68 0.2027-0.587 0.3894-1.173 0.56-1.76 0.1814-0.597 0.336-1.157 0.464-1.68h1.536zm0.5325 4.176c0-0.736 0.1067-1.376 0.32-1.92 0.2134-0.555 0.496-1.013 0.848-1.376s0.7574-0.635 1.216-0.816c0.4587-0.181 0.928-0.272 1.408-0.272 1.12 0 1.9787 0.352 2.576 1.056 0.5974 0.693 0.896 1.755 0.896 3.184v0.256c0 0.096-0.0053 0.187-0.016 0.272h-5.696c0.064 0.864 0.3147 1.52 0.752 1.968 0.4374 0.448 1.12 0.672 2.048 0.672 0.5227 0 0.96-0.043 1.312-0.128 0.3627-0.096 0.6347-0.187 0.816-0.272l0.208 1.248c-0.1813 0.096-0.5013 0.197-0.96 0.304-0.448 0.107-0.96 0.16-1.536 0.16-0.7253 0-1.3546-0.107-1.888-0.32-0.5226-0.224-0.9546-0.528-1.296-0.912-0.3413-0.384-0.5973-0.837-0.768-1.36-0.16-0.533-0.24-1.115-0.24-1.744zm5.712-0.816c0.0107-0.672-0.16-1.221-0.512-1.648-0.3413-0.437-0.816-0.656-1.424-0.656-0.3413 0-0.6453 0.069-0.912 0.208-0.256 0.128-0.4746 0.299-0.656 0.512-0.1813 0.213-0.3253 0.459-0.432 0.736-0.096 0.277-0.16 0.56-0.192 0.848h4.128zm14.257 4.96c-0.1814-0.48-0.352-0.949-0.512-1.408-0.16-0.469-0.3254-0.944-0.496-1.424h-5.024l-1.008 2.832h-1.616c0.4266-1.173 0.8266-2.256 1.2-3.248 0.3733-1.003 0.736-1.952 1.088-2.848 0.3626-0.896 0.72-1.749 1.072-2.56 0.352-0.821 0.72-1.632 1.104-2.432h1.424c0.384 0.8 0.752 1.611 1.104 2.432 0.352 0.811 0.704 1.664 1.056 2.56 0.3626 0.896 0.7306 1.845 1.104 2.848 0.3733 0.992 0.7733 2.075 1.2 3.248h-1.696zm-1.456-4.112c-0.3414-0.928-0.6827-1.824-1.024-2.688-0.3307-0.875-0.6774-1.712-1.04-2.512-0.3734 0.8-0.7307 1.637-1.072 2.512-0.3307 0.864-0.6614 1.76-0.992 2.688h4.128zm6.3805 3.04c0.608 0 1.056-0.08 1.344-0.24 0.2986-0.16 0.448-0.416 0.448-0.768 0-0.363-0.144-0.651-0.432-0.864s-0.7627-0.453-1.424-0.72c-0.32-0.128-0.6294-0.256-0.928-0.384-0.288-0.139-0.5387-0.299-0.752-0.48-0.2134-0.181-0.384-0.4-0.512-0.656s-0.192-0.571-0.192-0.944c0-0.736 0.272-1.317 0.816-1.744 0.544-0.437 1.2853-0.656 2.224-0.656 0.2346 0 0.4693 0.016 0.704 0.048 0.2346 0.021 0.4533 0.053 0.656 0.096 0.2026 0.032 0.3786 0.069 0.528 0.112 0.16 0.043 0.2826 0.08 0.368 0.112l-0.272 1.28c-0.16-0.085-0.4107-0.171-0.752-0.256-0.3414-0.096-0.752-0.144-1.232-0.144-0.416 0-0.7787 0.085-1.088 0.256-0.3094 0.16-0.464 0.416-0.464 0.768 0 0.181 0.032 0.341 0.096 0.48 0.0746 0.139 0.1813 0.267 0.32 0.384 0.1493 0.107 0.3306 0.208 0.544 0.304 0.2133 0.096 0.4693 0.197 0.768 0.304 0.3946 0.149 0.7466 0.299 1.056 0.448 0.3093 0.139 0.5706 0.304 0.784 0.496 0.224 0.192 0.3946 0.427 0.512 0.704 0.1173 0.267 0.176 0.597 0.176 0.992 0 0.768-0.288 1.349-0.864 1.744-0.5654 0.395-1.376 0.592-2.432 0.592-0.736 0-1.312-0.064-1.728-0.192-0.416-0.117-0.6987-0.208-0.848-0.272l0.272-1.28c0.1706 0.064 0.4426 0.16 0.816 0.288 0.3733 0.128 0.8693 0.192 1.488 0.192zm6.6446 0.208c0 0.288-0.096 0.539-0.288 0.752s-0.4534 0.32-0.784 0.32c-0.3307 0-0.592-0.107-0.784-0.32s-0.288-0.464-0.288-0.752 0.096-0.539 0.288-0.752 0.4533-0.32 0.784-0.32c0.3306 0 0.592 0.107 0.784 0.32s0.288 0.464 0.288 0.752zm3.6175 0c0 0.288-0.096 0.539-0.288 0.752s-0.4534 0.32-0.784 0.32c-0.3307 0-0.592-0.107-0.784-0.32s-0.288-0.464-0.288-0.752 0.096-0.539 0.288-0.752 0.4533-0.32 0.784-0.32c0.3306 0 0.592 0.107 0.784 0.32s0.288 0.464 0.288 0.752zm3.6175 0c0 0.288-0.096 0.539-0.288 0.752s-0.4534 0.32-0.784 0.32c-0.3307 0-0.592-0.107-0.784-0.32s-0.288-0.464-0.288-0.752 0.096-0.539 0.288-0.752 0.4533-0.32 0.784-0.32c0.3306 0 0.592 0.107 0.784 0.32s0.288 0.464 0.288 0.752z" fill="#383342"/>
<path d="m20.32 155.8c1.5573 0 2.752 0.299 3.584 0.896 0.8427 0.587 1.264 1.467 1.264 2.64 0 0.64-0.1173 1.189-0.352 1.648-0.224 0.448-0.5547 0.816-0.992 1.104-0.4267 0.277-0.9493 0.48-1.568 0.608s-1.3173 0.192-2.096 0.192h-1.232v4.112h-1.552v-10.928c0.4373-0.107 0.9227-0.176 1.456-0.208 0.544-0.043 1.04-0.064 1.488-0.064zm0.128 1.36c-0.6613 0-1.168 0.016-1.52 0.048v4.352h1.168c0.5333 0 1.0133-0.032 1.44-0.096 0.4267-0.075 0.784-0.192 1.072-0.352 0.2987-0.171 0.528-0.4 0.688-0.688s0.24-0.656 0.24-1.104c0-0.427-0.0853-0.779-0.256-1.056-0.16-0.277-0.384-0.496-0.672-0.656-0.2773-0.171-0.6027-0.288-0.976-0.352s-0.768-0.096-1.184-0.096zm9.3184 1.344c0.128 0 0.272 0.011 0.432 0.032 0.1706 0.011 0.336 0.032 0.496 0.064 0.16 0.021 0.304 0.048 0.432 0.08 0.1386 0.021 0.24 0.043 0.304 0.064l-0.256 1.296c-0.1174-0.043-0.3147-0.091-0.592-0.144-0.2667-0.064-0.6134-0.096-1.04-0.096-0.2774 0-0.5547 0.032-0.832 0.096-0.2667 0.053-0.4427 0.091-0.528 0.112v6.992h-1.488v-7.968c0.352-0.128 0.7893-0.245 1.312-0.352 0.5226-0.117 1.1093-0.176 1.76-0.176zm4.2678 8.496h-1.488v-8.32h1.488v8.32zm-0.752-9.824c-0.2666 0-0.496-0.085-0.688-0.256-0.1813-0.181-0.272-0.421-0.272-0.72s0.0907-0.533 0.272-0.704c0.192-0.181 0.4214-0.272 0.688-0.272 0.2667 0 0.4907 0.091 0.672 0.272 0.192 0.171 0.288 0.405 0.288 0.704s-0.096 0.539-0.288 0.72c-0.1813 0.171-0.4053 0.256-0.672 0.256zm2.9909 1.744c0.3414-0.085 0.7947-0.176 1.36-0.272 0.5654-0.096 1.216-0.144 1.952-0.144 0.6614 0 1.2107 0.096 1.648 0.288 0.4374 0.181 0.784 0.443 1.04 0.784 0.2667 0.331 0.4534 0.731 0.56 1.2 0.1067 0.469 0.16 0.987 0.16 1.552v4.672h-1.488v-4.352c0-0.512-0.0373-0.949-0.112-1.312-0.064-0.363-0.176-0.656-0.336-0.88s-0.3733-0.384-0.64-0.48c-0.2666-0.107-0.5973-0.16-0.992-0.16-0.16 0-0.3253 5e-3 -0.496 0.016-0.1706 0.011-0.336 0.027-0.496 0.048-0.1493 0.011-0.288 0.027-0.416 0.048-0.1173 0.021-0.2026 0.037-0.256 0.048v7.024h-1.488v-8.08zm10.26-0.24h3.152v1.248h-3.152v3.84c0 0.416 0.032 0.763 0.096 1.04 0.064 0.267 0.16 0.48 0.288 0.64 0.128 0.149 0.288 0.256 0.48 0.32s0.416 0.096 0.672 0.096c0.448 0 0.8054-0.048 1.072-0.144 0.2774-0.107 0.4694-0.181 0.576-0.224l0.288 1.232c-0.1493 0.075-0.4106 0.165-0.784 0.272-0.3733 0.117-0.8 0.176-1.28 0.176-0.5653 0-1.0346-0.069-1.408-0.208-0.3626-0.149-0.656-0.368-0.88-0.656s-0.384-0.64-0.48-1.056c-0.0853-0.427-0.128-0.917-0.128-1.472v-7.424l1.488-0.256v2.576zm6.6574 7.456c0 0.288-0.096 0.539-0.288 0.752s-0.4533 0.32-0.784 0.32-0.592-0.107-0.784-0.32-0.288-0.464-0.288-0.752 0.096-0.539 0.288-0.752 0.4533-0.32 0.784-0.32 0.592 0.107 0.784 0.32 0.288 0.464 0.288 0.752zm3.6175 0c0 0.288-0.096 0.539-0.288 0.752s-0.4533 0.32-0.784 0.32-0.592-0.107-0.784-0.32-0.288-0.464-0.288-0.752 0.096-0.539 0.288-0.752 0.4533-0.32 0.784-0.32 0.592 0.107 0.784 0.32 0.288 0.464 0.288 0.752zm3.6175 0c0 0.288-0.096 0.539-0.288 0.752s-0.4533 0.32-0.784 0.32-0.592-0.107-0.784-0.32-0.288-0.464-0.288-0.752 0.096-0.539 0.288-0.752 0.4533-0.32 0.784-0.32 0.592 0.107 0.784 0.32 0.288 0.464 0.288 0.752z" fill="#383342"/>
<rect x="16" y="181" width="170" height="1" fill="#CBC7D1"/>
<path d="m16 195.82c0-1.004 0.8141-1.818 1.8183-1.818h12.363c1.0042 0 1.8183 0.814 1.8183 1.818v12.364c0 1.004-0.8141 1.818-1.8183 1.818h-12.363c-1.0042 0-1.8183-0.814-1.8183-1.818v-12.364z" fill="#5A19DA"/>
<path d="m21.594 197.28c0-0.431 0.3495-0.78 0.7805-0.78h3.257c0.4311 0 0.7805 0.349 0.7805 0.78v3.257c0 0.431-0.3494 0.781-0.7805 0.781h-3.257c-0.431 0-0.7805-0.35-0.7805-0.781v-3.257z" clip-rule="evenodd" fill="#fff" fill-rule="evenodd"/>
<path d="m18.537 203.4c0-0.431 0.3494-0.78 0.7805-0.78h3.257c0.4311 0 0.7805 0.349 0.7805 0.78v3.257c0 0.431-0.3494 0.781-0.7805 0.781h-3.257c-0.4311 0-0.7805-0.35-0.7805-0.781v-3.257z" clip-rule="evenodd" fill="#fff" fill-rule="evenodd"/>
<path d="m25.436 202.62c-0.4311 0-0.7805 0.349-0.7805 0.78v3.257c0 0.431 0.3494 0.781 0.7805 0.781h3.257c0.4311 0 0.7805-0.35 0.7805-0.781v-3.257c0-0.431-0.3494-0.78-0.7805-0.78h-3.257z" clip-rule="evenodd" fill="#fff" fill-rule="evenodd"/>
<path d="m44.32 196.8c1.5573 0 2.752 0.299 3.584 0.896 0.8427 0.587 1.264 1.467 1.264 2.64 0 0.64-0.1173 1.189-0.352 1.648-0.224 0.448-0.5547 0.816-0.992 1.104-0.4267 0.277-0.9493 0.48-1.568 0.608s-1.3173 0.192-2.096 0.192h-1.232v4.112h-1.552v-10.928c0.4373-0.107 0.9227-0.176 1.456-0.208 0.544-0.043 1.04-0.064 1.488-0.064zm0.128 1.36c-0.6613 0-1.168 0.016-1.52 0.048v4.352h1.168c0.5333 0 1.0133-0.032 1.44-0.096 0.4267-0.075 0.784-0.192 1.072-0.352 0.2987-0.171 0.528-0.4 0.688-0.688s0.24-0.656 0.24-1.104c0-0.427-0.0853-0.779-0.256-1.056-0.16-0.277-0.384-0.496-0.672-0.656-0.2773-0.171-0.6027-0.288-0.976-0.352s-0.768-0.096-1.184-0.096zm7.7344 9.84h-1.488v-8.32h1.488v8.32zm-0.752-9.824c-0.2667 0-0.496-0.085-0.688-0.256-0.1814-0.181-0.272-0.421-0.272-0.72s0.0906-0.533 0.272-0.704c0.192-0.181 0.4213-0.272 0.688-0.272 0.2666 0 0.4906 0.091 0.672 0.272 0.192 0.171 0.288 0.405 0.288 0.704s-0.096 0.539-0.288 0.72c-0.1814 0.171-0.4054 0.256-0.672 0.256zm7.9669 9.824c-0.1174-0.235-0.2614-0.496-0.432-0.784-0.1707-0.288-0.3574-0.581-0.56-0.88-0.2027-0.309-0.4107-0.613-0.6241-0.912-0.2133-0.299-0.4213-0.581-0.624-0.848-0.2026 0.267-0.4106 0.555-0.624 0.864-0.2133 0.299-0.4213 0.603-0.624 0.912-0.192 0.299-0.3733 0.592-0.544 0.88-0.1706 0.288-0.3146 0.544-0.432 0.768h-1.536c0.3734-0.725 0.816-1.461 1.328-2.208 0.5227-0.757 1.04-1.477 1.552-2.16l-2.752-3.952h1.68l1.984 2.912 2-2.912h1.5841l-2.6881 3.856c0.512 0.693 1.0347 1.429 1.568 2.208 0.5441 0.768 1.0027 1.52 1.3761 2.256h-1.632zm4.3638 0h-1.488v-8.32h1.488v8.32zm-0.752-9.824c-0.2666 0-0.496-0.085-0.688-0.256-0.1813-0.181-0.272-0.421-0.272-0.72s0.0907-0.533 0.272-0.704c0.192-0.181 0.4214-0.272 0.688-0.272 0.2667 0 0.4907 0.091 0.672 0.272 0.192 0.171 0.288 0.405 0.288 0.704s-0.096 0.539-0.288 0.72c-0.1813 0.171-0.4053 0.256-0.672 0.256zm2.5269 5.68c0-0.736 0.1067-1.376 0.32-1.92 0.2133-0.555 0.496-1.013 0.848-1.376s0.7573-0.635 1.216-0.816 0.928-0.272 1.408-0.272c1.12 0 1.9787 0.352 2.576 1.056 0.5973 0.693 0.896 1.755 0.896 3.184v0.256c0 0.096-0.0053 0.187-0.016 0.272h-5.696c0.064 0.864 0.3147 1.52 0.752 1.968s1.12 0.672 2.048 0.672c0.5227 0 0.96-0.043 1.312-0.128 0.3627-0.096 0.6347-0.187 0.816-0.272l0.208 1.248c-0.1813 0.096-0.5013 0.197-0.96 0.304-0.448 0.107-0.96 0.16-1.536 0.16-0.7253 0-1.3547-0.107-1.888-0.32-0.5227-0.224-0.9547-0.528-1.296-0.912s-0.5973-0.837-0.768-1.36c-0.16-0.533-0.24-1.115-0.24-1.744zm5.712-0.816c0.0107-0.672-0.16-1.221-0.512-1.648-0.3413-0.437-0.816-0.656-1.424-0.656-0.3413 0-0.6453 0.069-0.912 0.208-0.256 0.128-0.4747 0.299-0.656 0.512s-0.3253 0.459-0.432 0.736c-0.096 0.277-0.16 0.56-0.192 0.848h4.128zm6.4575 5.056c-0.224 0-0.4693-5e-3 -0.736-0.016-0.256-0.011-0.5173-0.027-0.784-0.048-0.256-0.021-0.512-0.048-0.768-0.08s-0.4907-0.075-0.704-0.128v-10.752c0.2133-0.053 0.448-0.096 0.704-0.128s0.512-0.059 0.768-0.08c0.2667-0.021 0.528-0.037 0.784-0.048s0.496-0.016 0.72-0.016c0.64 0 1.2373 0.048 1.792 0.144 0.5653 0.096 1.0507 0.261 1.456 0.496 0.416 0.224 0.7413 0.523 0.976 0.896s0.352 0.832 0.352 1.376c0 0.608-0.144 1.109-0.432 1.504-0.288 0.384-0.672 0.672-1.152 0.864 0.6507 0.192 1.168 0.496 1.552 0.912s0.576 1.003 0.576 1.76c0 1.109-0.4107 1.947-1.232 2.512-0.8107 0.555-2.1013 0.832-3.872 0.832zm-1.456-5.264v3.904c0.1173 0.011 0.256 0.021 0.416 0.032 0.1387 0.011 0.2987 0.021 0.48 0.032h0.656c0.4587 0 0.8907-0.027 1.296-0.08 0.416-0.064 0.7787-0.171 1.088-0.32s0.5547-0.357 0.736-0.624c0.192-0.267 0.288-0.603 0.288-1.008 0-0.363-0.0693-0.667-0.208-0.912-0.1387-0.256-0.3413-0.459-0.608-0.608-0.256-0.149-0.5653-0.256-0.928-0.32s-0.768-0.096-1.216-0.096h-2zm0-1.248h1.632c0.384 0 0.7467-0.027 1.088-0.08s0.6347-0.149 0.88-0.288c0.256-0.139 0.4533-0.32 0.592-0.544 0.1493-0.224 0.224-0.507 0.224-0.848 0-0.32-0.0747-0.587-0.224-0.8-0.1493-0.224-0.3573-0.4-0.624-0.528-0.256-0.139-0.56-0.24-0.912-0.304s-0.7253-0.096-1.12-0.096-0.704 5e-3 -0.928 0.016-0.4267 0.027-0.608 0.048v3.424zm11.401-2.08c0.128 0 0.272 0.011 0.432 0.032 0.1706 0.011 0.336 0.032 0.496 0.064 0.16 0.021 0.304 0.048 0.432 0.08 0.1386 0.021 0.24 0.043 0.304 0.064l-0.256 1.296c-0.1174-0.043-0.3147-0.091-0.592-0.144-0.2667-0.064-0.6134-0.096-1.04-0.096-0.2774 0-0.5547 0.032-0.832 0.096-0.2667 0.053-0.4427 0.091-0.528 0.112v6.992h-1.488v-7.968c0.352-0.128 0.7893-0.245 1.312-0.352 0.5226-0.117 1.1093-0.176 1.76-0.176zm4.2678 8.496h-1.488v-8.32h1.488v8.32zm-0.752-9.824c-0.2666 0-0.496-0.085-0.688-0.256-0.1813-0.181-0.272-0.421-0.272-0.72s0.0907-0.533 0.272-0.704c0.192-0.181 0.4214-0.272 0.688-0.272 0.2667 0 0.4907 0.091 0.672 0.272 0.192 0.171 0.288 0.405 0.288 0.704s-0.096 0.539-0.288 0.72c-0.1813 0.171-0.4053 0.256-0.672 0.256zm7.9669 9.824c-0.1173-0.235-0.2613-0.496-0.432-0.784s-0.3573-0.581-0.56-0.88c-0.2027-0.309-0.4107-0.613-0.624-0.912s-0.4213-0.581-0.624-0.848c-0.2027 0.267-0.4107 0.555-0.624 0.864-0.2133 0.299-0.4213 0.603-0.624 0.912-0.192 0.299-0.3733 0.592-0.544 0.88s-0.3147 0.544-0.432 0.768h-1.536c0.3733-0.725 0.816-1.461 1.328-2.208 0.5227-0.757 1.04-1.477 1.552-2.16l-2.752-3.952h1.68l1.984 2.912 2-2.912h1.5835l-2.6875 3.856c0.512 0.693 1.0347 1.429 1.568 2.208 0.544 0.768 1.0025 1.52 1.3755 2.256h-1.6315z" fill="#383342"/>
<path d="m175.73 198.94 3.053 3.06-3.053 3.06 0.94 0.94 4-4-4-4-0.94 0.94z" fill="#383342"/>
<rect x="16" y="222" width="170" height="1" fill="#CBC7D1"/>
<path d="m26.336 237.91c-0.4053 1.173-0.7947 2.261-1.168 3.264-0.3627 0.992-0.72 1.936-1.072 2.832s-0.704 1.755-1.056 2.576c-0.3413 0.811-0.6933 1.616-1.056 2.416h-1.456c-0.3627-0.8-0.72-1.605-1.072-2.416-0.3413-0.821-0.6933-1.68-1.056-2.576-0.352-0.896-0.7147-1.84-1.088-2.832-0.3733-1.003-0.7573-2.091-1.152-3.264h1.712c0.576 1.685 1.1413 3.307 1.696 4.864s1.1253 3.019 1.712 4.384c0.5867-1.355 1.1573-2.811 1.712-4.368 0.5547-1.568 1.1147-3.195 1.68-4.88h1.664zm2.612 11.088h-1.488v-8.32h1.488v8.32zm-0.752-9.824c-0.2667 0-0.496-0.085-0.688-0.256-0.1813-0.181-0.272-0.421-0.272-0.72s0.0907-0.533 0.272-0.704c0.192-0.181 0.4213-0.272 0.688-0.272s0.4907 0.091 0.672 0.272c0.192 0.171 0.288 0.405 0.288 0.704s-0.096 0.539-0.288 0.72c-0.1813 0.171-0.4053 0.256-0.672 0.256zm2.5269 5.68c0-0.736 0.1066-1.376 0.32-1.92 0.2133-0.555 0.496-1.013 0.848-1.376s0.7573-0.635 1.216-0.816c0.4586-0.181 0.928-0.272 1.408-0.272 1.12 0 1.9786 0.352 2.576 1.056 0.5973 0.693 0.896 1.755 0.896 3.184v0.256c0 0.096-0.0054 0.187-0.016 0.272h-5.696c0.064 0.864 0.3146 1.52 0.752 1.968 0.4373 0.448 1.12 0.672 2.048 0.672 0.5226 0 0.96-0.043 1.312-0.128 0.3626-0.096 0.6346-0.187 0.816-0.272l0.208 1.248c-0.1814 0.096-0.5014 0.197-0.96 0.304-0.448 0.107-0.96 0.16-1.536 0.16-0.7254 0-1.3547-0.107-1.888-0.32-0.5227-0.224-0.9547-0.528-1.296-0.912-0.3414-0.384-0.5974-0.837-0.768-1.36-0.16-0.533-0.24-1.115-0.24-1.744zm5.712-0.816c0.0106-0.672-0.16-1.221-0.512-1.648-0.3414-0.437-0.816-0.656-1.424-0.656-0.3414 0-0.6454 0.069-0.912 0.208-0.256 0.128-0.4747 0.299-0.656 0.512-0.1814 0.213-0.3254 0.459-0.432 0.736-0.096 0.277-0.16 0.56-0.192 0.848h4.128zm10.17 4.96c-0.2987-0.768-0.6187-1.643-0.96-2.624-0.3307-0.992-0.6347-2.021-0.912-3.088-0.2774 1.067-0.5814 2.096-0.912 3.088-0.3307 0.981-0.6454 1.856-0.944 2.624h-1.296c-0.4907-1.099-0.9707-2.352-1.44-3.76-0.4694-1.408-0.912-2.928-1.328-4.56h1.6c0.1066 0.501 0.2346 1.045 0.384 1.632 0.1493 0.587 0.304 1.173 0.464 1.76 0.1706 0.587 0.3466 1.152 0.528 1.696 0.1813 0.544 0.352 1.019 0.512 1.424 0.1813-0.501 0.3573-1.029 0.528-1.584 0.1813-0.565 0.352-1.131 0.512-1.696 0.16-0.576 0.3093-1.136 0.448-1.68 0.1493-0.555 0.2773-1.072 0.384-1.552h1.232c0.096 0.48 0.2133 0.997 0.352 1.552 0.1386 0.544 0.288 1.104 0.448 1.68 0.16 0.565 0.3253 1.131 0.496 1.696 0.1813 0.555 0.3626 1.083 0.544 1.584 0.16-0.405 0.3253-0.88 0.496-1.424 0.1813-0.544 0.3573-1.109 0.528-1.696 0.1706-0.587 0.3306-1.173 0.48-1.76 0.1493-0.587 0.2773-1.131 0.384-1.632h1.536c-0.416 1.632-0.8587 3.152-1.328 4.56-0.4694 1.408-0.9494 2.661-1.44 3.76h-1.296zm11.741-11.2c1.5573 0 2.752 0.299 3.584 0.896 0.8427 0.587 1.264 1.467 1.264 2.64 0 0.64-0.1173 1.189-0.352 1.648-0.224 0.448-0.5547 0.816-0.992 1.104-0.4267 0.277-0.9493 0.48-1.568 0.608s-1.3173 0.192-2.096 0.192h-1.232v4.112h-1.552v-10.928c0.4373-0.107 0.9227-0.176 1.456-0.208 0.544-0.043 1.04-0.064 1.488-0.064zm0.128 1.36c-0.6613 0-1.168 0.016-1.52 0.048v4.352h1.168c0.5333 0 1.0133-0.032 1.44-0.096 0.4267-0.075 0.784-0.192 1.072-0.352 0.2987-0.171 0.528-0.4 0.688-0.688s0.24-0.656 0.24-1.104c0-0.427-0.0853-0.779-0.256-1.056-0.16-0.277-0.384-0.496-0.672-0.656-0.2773-0.171-0.6027-0.288-0.976-0.352s-0.768-0.096-1.184-0.096zm8.7655 8.768c0.352 0 0.6613-5e-3 0.928-0.016 0.2773-0.021 0.5067-0.053 0.688-0.096v-2.48c-0.1067-0.053-0.2827-0.096-0.528-0.128-0.2347-0.043-0.5227-0.064-0.864-0.064-0.224 0-0.464 0.016-0.72 0.048-0.2453 0.032-0.4747 0.101-0.688 0.208-0.2027 0.096-0.3733 0.235-0.512 0.416-0.1387 0.171-0.208 0.4-0.208 0.688 0 0.533 0.1707 0.907 0.512 1.12 0.3413 0.203 0.8053 0.304 1.392 0.304zm-0.128-7.456c0.5973 0 1.0987 0.08 1.504 0.24 0.416 0.149 0.7467 0.368 0.992 0.656 0.256 0.277 0.4373 0.613 0.544 1.008 0.1067 0.384 0.16 0.811 0.16 1.28v5.2c-0.128 0.021-0.3093 0.053-0.544 0.096-0.224 0.032-0.48 0.064-0.768 0.096s-0.6027 0.059-0.944 0.08c-0.3307 0.032-0.6613 0.048-0.992 0.048-0.4693 0-0.9013-0.048-1.296-0.144s-0.736-0.245-1.024-0.448c-0.288-0.213-0.512-0.491-0.672-0.832s-0.24-0.752-0.24-1.232c0-0.459 0.0907-0.853 0.272-1.184 0.192-0.331 0.448-0.597 0.768-0.8s0.6933-0.352 1.12-0.448 0.8747-0.144 1.344-0.144c0.1493 0 0.304 0.011 0.464 0.032 0.16 0.011 0.3093 0.032 0.448 0.064 0.1493 0.021 0.2773 0.043 0.384 0.064s0.1813 0.037 0.224 0.048v-0.416c0-0.245-0.0267-0.485-0.08-0.72-0.0533-0.245-0.1493-0.459-0.288-0.64-0.1387-0.192-0.3307-0.341-0.576-0.448-0.2347-0.117-0.544-0.176-0.928-0.176-0.4907 0-0.9227 0.037-1.296 0.112-0.3627 0.064-0.6347 0.133-0.816 0.208l-0.176-1.232c0.192-0.085 0.512-0.165 0.96-0.24 0.448-0.085 0.9333-0.128 1.456-0.128zm10.567 7.696c-0.128 0.085-0.3787 0.197-0.752 0.336-0.3627 0.128-0.7894 0.192-1.28 0.192-0.5014 0-0.976-0.08-1.424-0.24-0.4374-0.16-0.8214-0.405-1.152-0.736-0.3307-0.341-0.592-0.763-0.784-1.264s-0.288-1.099-0.288-1.792c0-0.608 0.0906-1.163 0.272-1.664 0.1813-0.512 0.4426-0.949 0.784-1.312 0.352-0.373 0.7786-0.661 1.28-0.864 0.5013-0.213 1.0666-0.32 1.696-0.32 0.6933 0 1.296 0.053 1.808 0.16 0.5226 0.096 0.96 0.187 1.312 0.272v7.424c0 1.28-0.3307 2.208-0.992 2.784-0.6614 0.576-1.664 0.864-3.008 0.864-0.5227 0-1.0187-0.043-1.488-0.128-0.4587-0.085-0.8587-0.187-1.2-0.304l0.272-1.296c0.2986 0.117 0.6613 0.219 1.088 0.304 0.4373 0.096 0.8906 0.144 1.36 0.144 0.8853 0 1.52-0.176 1.904-0.528 0.3946-0.352 0.592-0.912 0.592-1.68v-0.352zm-0.016-6.176c-0.1494-0.043-0.352-0.08-0.608-0.112-0.2454-0.043-0.5814-0.064-1.008-0.064-0.8 0-1.4187 0.261-1.856 0.784-0.4267 0.523-0.64 1.216-0.64 2.08 0 0.48 0.0586 0.891 0.176 1.232 0.128 0.341 0.2933 0.624 0.496 0.848 0.2133 0.224 0.4533 0.389 0.72 0.496 0.2773 0.107 0.56 0.16 0.848 0.16 0.3946 0 0.7573-0.053 1.088-0.16 0.3306-0.117 0.592-0.251 0.784-0.4v-4.864zm3.266 2.864c0-0.736 0.1066-1.376 0.32-1.92 0.2133-0.555 0.496-1.013 0.848-1.376s0.7573-0.635 1.216-0.816c0.4586-0.181 0.928-0.272 1.408-0.272 1.12 0 1.9786 0.352 2.576 1.056 0.5973 0.693 0.896 1.755 0.896 3.184v0.256c0 0.096-0.0054 0.187-0.016 0.272h-5.696c0.064 0.864 0.3146 1.52 0.752 1.968 0.4373 0.448 1.12 0.672 2.048 0.672 0.5226 0 0.96-0.043 1.312-0.128 0.3626-0.096 0.6346-0.187 0.816-0.272l0.208 1.248c-0.1814 0.096-0.5014 0.197-0.96 0.304-0.448 0.107-0.96 0.16-1.536 0.16-0.7254 0-1.3547-0.107-1.888-0.32-0.5227-0.224-0.9547-0.528-1.296-0.912-0.3414-0.384-0.5974-0.837-0.768-1.36-0.16-0.533-0.24-1.115-0.24-1.744zm5.712-0.816c0.0106-0.672-0.16-1.221-0.512-1.648-0.3414-0.437-0.816-0.656-1.424-0.656-0.3414 0-0.6454 0.069-0.912 0.208-0.256 0.128-0.4747 0.299-0.656 0.512-0.1814 0.213-0.3254 0.459-0.432 0.736-0.096 0.277-0.16 0.56-0.192 0.848h4.128zm9.4246 3.856c1.6213 0 2.432-0.555 2.432-1.664 0-0.341-0.0747-0.629-0.224-0.864-0.1387-0.245-0.3307-0.453-0.576-0.624-0.2453-0.181-0.528-0.336-0.848-0.464-0.3093-0.128-0.64-0.256-0.992-0.384-0.4053-0.139-0.7893-0.293-1.152-0.464-0.3627-0.181-0.6773-0.389-0.944-0.624-0.2667-0.245-0.48-0.533-0.64-0.864-0.1493-0.331-0.224-0.731-0.224-1.2 0-0.971 0.3307-1.728 0.992-2.272s1.5733-0.816 2.736-0.816c0.672 0 1.28 0.075 1.824 0.224 0.5547 0.139 0.96 0.293 1.216 0.464l-0.496 1.264c-0.224-0.139-0.56-0.272-1.008-0.4-0.4373-0.139-0.9493-0.208-1.536-0.208-0.2987 0-0.576 0.032-0.832 0.096s-0.48 0.16-0.672 0.288-0.3467 0.293-0.464 0.496c-0.1067 0.192-0.16 0.421-0.16 0.688 0 0.299 0.0587 0.549 0.176 0.752s0.2827 0.384 0.496 0.544c0.2133 0.149 0.4587 0.288 0.736 0.416 0.288 0.128 0.6027 0.256 0.944 0.384 0.48 0.192 0.9173 0.384 1.312 0.576 0.4053 0.192 0.752 0.421 1.04 0.688 0.2987 0.267 0.528 0.587 0.688 0.96 0.1605 0.363 0.2405 0.805 0.2405 1.328 0 0.971-0.3578 1.717-1.0725 2.24-0.704 0.523-1.7013 0.784-2.992 0.784-0.4373 0-0.8427-0.032-1.216-0.096-0.3627-0.053-0.688-0.117-0.976-0.192-0.288-0.085-0.5387-0.171-0.752-0.256-0.2027-0.096-0.3627-0.176-0.48-0.24l0.464-1.28c0.2453 0.139 0.6187 0.293 1.12 0.464s1.1147 0.256 1.84 0.256zm12.868-3.056c0 0.661-0.096 1.259-0.288 1.792s-0.464 0.992-0.816 1.376c-0.341 0.384-0.752 0.683-1.232 0.896-0.48 0.203-1.003 0.304-1.568 0.304s-1.088-0.101-1.568-0.304c-0.48-0.213-0.896-0.512-1.248-0.896-0.341-0.384-0.608-0.843-0.8-1.376s-0.288-1.131-0.288-1.792c0-0.651 0.096-1.243 0.288-1.776 0.192-0.544 0.459-1.008 0.8-1.392 0.352-0.384 0.768-0.677 1.248-0.88 0.48-0.213 1.003-0.32 1.568-0.32s1.088 0.107 1.568 0.32c0.48 0.203 0.891 0.496 1.232 0.88 0.352 0.384 0.624 0.848 0.816 1.392 0.192 0.533 0.288 1.125 0.288 1.776zm-1.552 0c0-0.939-0.213-1.68-0.64-2.224-0.416-0.555-0.987-0.832-1.712-0.832s-1.301 0.277-1.728 0.832c-0.416 0.544-0.624 1.285-0.624 2.224s0.208 1.685 0.624 2.24c0.427 0.544 1.003 0.816 1.728 0.816s1.296-0.272 1.712-0.816c0.427-0.555 0.64-1.301 0.64-2.24zm9.95 3.92c-0.342 0.085-0.795 0.176-1.36 0.272-0.555 0.096-1.2 0.144-1.936 0.144-0.64 0-1.179-0.091-1.616-0.272-0.438-0.192-0.79-0.459-1.056-0.8-0.267-0.341-0.459-0.741-0.576-1.2-0.118-0.469-0.176-0.987-0.176-1.552v-4.672h1.488v4.352c0 1.013 0.16 1.739 0.48 2.176s0.858 0.656 1.616 0.656c0.16 0 0.325-5e-3 0.496-0.016 0.17-0.011 0.33-0.021 0.48-0.032 0.149-0.021 0.282-0.037 0.4-0.048 0.128-0.021 0.218-0.043 0.272-0.064v-7.024h1.488v8.08zm5.315-8.256c0.128 0 0.272 0.011 0.432 0.032 0.171 0.011 0.336 0.032 0.496 0.064 0.16 0.021 0.304 0.048 0.432 0.08 0.139 0.021 0.24 0.043 0.304 0.064l-0.256 1.296c-0.117-0.043-0.315-0.091-0.592-0.144-0.267-0.064-0.613-0.096-1.04-0.096-0.277 0-0.555 0.032-0.832 0.096-0.267 0.053-0.443 0.091-0.528 0.112v6.992h-1.488v-7.968c0.352-0.128 0.789-0.245 1.312-0.352 0.523-0.117 1.109-0.176 1.76-0.176zm6.396 8.688c-0.672 0-1.264-0.107-1.776-0.32-0.501-0.213-0.928-0.512-1.28-0.896-0.341-0.384-0.597-0.837-0.768-1.36-0.171-0.533-0.256-1.12-0.256-1.76s0.091-1.227 0.272-1.76c0.192-0.533 0.459-0.992 0.8-1.376 0.341-0.395 0.757-0.699 1.248-0.912 0.501-0.224 1.056-0.336 1.664-0.336 0.373 0 0.747 0.032 1.12 0.096s0.731 0.165 1.072 0.304l-0.336 1.264c-0.224-0.107-0.485-0.192-0.784-0.256-0.288-0.064-0.597-0.096-0.928-0.096-0.832 0-1.472 0.261-1.92 0.784-0.437 0.523-0.656 1.285-0.656 2.288 0 0.448 0.048 0.859 0.144 1.232 0.107 0.373 0.267 0.693 0.48 0.96 0.224 0.267 0.507 0.475 0.848 0.624 0.341 0.139 0.757 0.208 1.248 0.208 0.395 0 0.752-0.037 1.072-0.112s0.571-0.155 0.752-0.24l0.208 1.248c-0.085 0.053-0.208 0.107-0.368 0.16-0.16 0.043-0.341 0.08-0.544 0.112-0.203 0.043-0.421 0.075-0.656 0.096-0.224 0.032-0.443 0.048-0.656 0.048zm3.037-4.336c0-0.736 0.107-1.376 0.32-1.92 0.214-0.555 0.496-1.013 0.848-1.376s0.758-0.635 1.216-0.816c0.459-0.181 0.928-0.272 1.408-0.272 1.12 0 1.979 0.352 2.576 1.056 0.598 0.693 0.896 1.755 0.896 3.184v0.256c0 0.096-5e-3 0.187-0.016 0.272h-5.696c0.064 0.864 0.315 1.52 0.752 1.968 0.438 0.448 1.12 0.672 2.048 0.672 0.523 0 0.96-0.043 1.312-0.128 0.363-0.096 0.635-0.187 0.816-0.272l0.208 1.248c-0.181 0.096-0.501 0.197-0.96 0.304-0.448 0.107-0.96 0.16-1.536 0.16-0.725 0-1.354-0.107-1.888-0.32-0.522-0.224-0.954-0.528-1.296-0.912-0.341-0.384-0.597-0.837-0.768-1.36-0.16-0.533-0.24-1.115-0.24-1.744zm5.712-0.816c0.011-0.672-0.16-1.221-0.512-1.648-0.341-0.437-0.816-0.656-1.424-0.656-0.341 0-0.645 0.069-0.912 0.208-0.256 0.128-0.474 0.299-0.656 0.512-0.181 0.213-0.325 0.459-0.432 0.736-0.096 0.277-0.16 0.56-0.192 0.848h4.128z" fill="#383342"/>
<path d="m17.376 269.91h1.552v11.088h-1.552v-11.088zm3.8809 3.008c0.3413-0.085 0.7946-0.176 1.36-0.272 0.5653-0.096 1.216-0.144 1.952-0.144 0.6613 0 1.2106 0.096 1.648 0.288 0.4373 0.181 0.784 0.443 1.04 0.784 0.2666 0.331 0.4533 0.731 0.56 1.2 0.1066 0.469 0.16 0.987 0.16 1.552v4.672h-1.488v-4.352c0-0.512-0.0374-0.949-0.112-1.312-0.064-0.363-0.176-0.656-0.336-0.88s-0.3734-0.384-0.64-0.48c-0.2667-0.107-0.5974-0.16-0.992-0.16-0.16 0-0.3254 5e-3 -0.496 0.016-0.1707 0.011-0.336 0.027-0.496 0.048-0.1494 0.011-0.288 0.027-0.416 0.048-0.1174 0.021-0.2027 0.037-0.256 0.048v7.024h-1.488v-8.08zm10.804 7.008c0.608 0 1.056-0.08 1.344-0.24 0.2986-0.16 0.448-0.416 0.448-0.768 0-0.363-0.144-0.651-0.432-0.864s-0.7627-0.453-1.424-0.72c-0.32-0.128-0.6294-0.256-0.928-0.384-0.288-0.139-0.5387-0.299-0.752-0.48-0.2134-0.181-0.384-0.4-0.512-0.656s-0.192-0.571-0.192-0.944c0-0.736 0.272-1.317 0.816-1.744 0.544-0.437 1.2853-0.656 2.224-0.656 0.2346 0 0.4693 0.016 0.704 0.048 0.2346 0.021 0.4533 0.053 0.656 0.096 0.2026 0.032 0.3786 0.069 0.528 0.112 0.16 0.043 0.2826 0.08 0.368 0.112l-0.272 1.28c-0.16-0.085-0.4107-0.171-0.752-0.256-0.3414-0.096-0.752-0.144-1.232-0.144-0.416 0-0.7787 0.085-1.088 0.256-0.3094 0.16-0.464 0.416-0.464 0.768 0 0.181 0.032 0.341 0.096 0.48 0.0746 0.139 0.1813 0.267 0.32 0.384 0.1493 0.107 0.3306 0.208 0.544 0.304 0.2133 0.096 0.4693 0.197 0.768 0.304 0.3946 0.149 0.7466 0.299 1.056 0.448 0.3093 0.139 0.5706 0.304 0.784 0.496 0.224 0.192 0.3946 0.427 0.512 0.704 0.1173 0.267 0.176 0.597 0.176 0.992 0 0.768-0.288 1.349-0.864 1.744-0.5654 0.395-1.376 0.592-2.432 0.592-0.736 0-1.312-0.064-1.728-0.192-0.416-0.117-0.6987-0.208-0.848-0.272l0.272-1.28c0.1706 0.064 0.4426 0.16 0.816 0.288 0.3733 0.128 0.8693 0.192 1.488 0.192zm10.661-3.072c0-0.971-0.24-1.717-0.72-2.24s-1.12-0.784-1.92-0.784c-0.448 0-0.8 0.016-1.056 0.048-0.2453 0.032-0.4427 0.069-0.592 0.112v5.248c0.1813 0.149 0.4427 0.293 0.784 0.432s0.7147 0.208 1.12 0.208c0.4267 0 0.7893-0.075 1.088-0.224 0.3093-0.16 0.56-0.373 0.752-0.64 0.192-0.277 0.3307-0.597 0.416-0.96 0.0853-0.373 0.128-0.773 0.128-1.2zm1.552 0c0 0.629-0.0853 1.211-0.256 1.744-0.16 0.533-0.4 0.992-0.72 1.376s-0.7147 0.683-1.184 0.896c-0.4587 0.213-0.9867 0.32-1.584 0.32-0.48 0-0.9067-0.064-1.28-0.192-0.3627-0.128-0.6347-0.251-0.816-0.368v3.328h-1.488v-11.024c0.352-0.085 0.7893-0.176 1.312-0.272 0.5333-0.107 1.1467-0.16 1.84-0.16 0.64 0 1.216 0.101 1.728 0.304s0.9493 0.491 1.312 0.864 0.64 0.832 0.832 1.376c0.2027 0.533 0.304 1.136 0.304 1.808zm1.3099 0c0-0.736 0.1066-1.376 0.32-1.92 0.2133-0.555 0.496-1.013 0.848-1.376s0.7573-0.635 1.216-0.816c0.4586-0.181 0.928-0.272 1.408-0.272 1.12 0 1.9786 0.352 2.576 1.056 0.5973 0.693 0.896 1.755 0.896 3.184v0.256c0 0.096-0.0054 0.187-0.016 0.272h-5.696c0.064 0.864 0.3146 1.52 0.752 1.968 0.4373 0.448 1.12 0.672 2.048 0.672 0.5226 0 0.96-0.043 1.312-0.128 0.3626-0.096 0.6346-0.187 0.816-0.272l0.208 1.248c-0.1814 0.096-0.5014 0.197-0.96 0.304-0.448 0.107-0.96 0.16-1.536 0.16-0.7254 0-1.3547-0.107-1.888-0.32-0.5227-0.224-0.9547-0.528-1.296-0.912-0.3414-0.384-0.5974-0.837-0.768-1.36-0.16-0.533-0.24-1.115-0.24-1.744zm5.712-0.816c0.0106-0.672-0.16-1.221-0.512-1.648-0.3414-0.437-0.816-0.656-1.424-0.656-0.3414 0-0.6454 0.069-0.912 0.208-0.256 0.128-0.4747 0.299-0.656 0.512-0.1814 0.213-0.3254 0.459-0.432 0.736-0.096 0.277-0.16 0.56-0.192 0.848h4.128zm6.9855 5.152c-0.672 0-1.264-0.107-1.776-0.32-0.5014-0.213-0.928-0.512-1.28-0.896-0.3414-0.384-0.5974-0.837-0.768-1.36-0.1707-0.533-0.256-1.12-0.256-1.76s0.0906-1.227 0.272-1.76c0.192-0.533 0.4586-0.992 0.8-1.376 0.3413-0.395 0.7573-0.699 1.248-0.912 0.5013-0.224 1.056-0.336 1.664-0.336 0.3733 0 0.7466 0.032 1.12 0.096 0.3733 0.064 0.7306 0.165 1.072 0.304l-0.336 1.264c-0.224-0.107-0.4854-0.192-0.784-0.256-0.288-0.064-0.5974-0.096-0.928-0.096-0.832 0-1.472 0.261-1.92 0.784-0.4374 0.523-0.656 1.285-0.656 2.288 0 0.448 0.048 0.859 0.144 1.232 0.1066 0.373 0.2666 0.693 0.48 0.96 0.224 0.267 0.5066 0.475 0.848 0.624 0.3413 0.139 0.7573 0.208 1.248 0.208 0.3946 0 0.752-0.037 1.072-0.112s0.5706-0.155 0.752-0.24l0.208 1.248c-0.0854 0.053-0.208 0.107-0.368 0.16-0.16 0.043-0.3414 0.08-0.544 0.112-0.2027 0.043-0.4214 0.075-0.656 0.096-0.224 0.032-0.4427 0.048-0.656 0.048zm4.8935-8.512h3.152v1.248h-3.152v3.84c0 0.416 0.032 0.763 0.096 1.04 0.064 0.267 0.16 0.48 0.288 0.64 0.128 0.149 0.288 0.256 0.48 0.32s0.416 0.096 0.672 0.096c0.448 0 0.8053-0.048 1.072-0.144 0.2773-0.107 0.4693-0.181 0.576-0.224l0.288 1.232c-0.1494 0.075-0.4107 0.165-0.784 0.272-0.3734 0.117-0.8 0.176-1.28 0.176-0.5654 0-1.0347-0.069-1.408-0.208-0.3627-0.149-0.656-0.368-0.88-0.656s-0.384-0.64-0.48-1.056c-0.0854-0.427-0.128-0.917-0.128-1.472v-7.424l1.488-0.256v2.576z" fill="#383342"/>
</svg>
