<svg xmlns="http://www.w3.org/2000/svg" viewBox="0 0 82.89 82.89"><defs><style>.a{fill:#6562a9;}.b{fill:#7376b7;}.c{fill:#fff;}.d{fill:#e7eaf6;}</style></defs><circle class="a" cx="41.44" cy="41.44" r="41.44"/><rect class="b" x="44.66" y="41.25" width="24.26" height="24.26" rx="4.25"/><path class="c" d="M64.66,66.76H48.91a5.51,5.51,0,0,1-5.5-5.5V45.51A5.51,5.51,0,0,1,48.91,40H64.66a5.51,5.51,0,0,1,5.51,5.51V61.26A5.51,5.51,0,0,1,64.66,66.76ZM48.91,42.5a3,3,0,0,0-3,3V61.26a3,3,0,0,0,3,3H64.66a3,3,0,0,0,3-3V45.51a3,3,0,0,0-3-3Z"/><path class="d" d="M62.59,50.25l-4.33-4.33a.89.89,0,0,0-.65-.27H52.88A1.84,1.84,0,0,0,51,47.49V59.26a1.85,1.85,0,0,0,1.85,1.84H61a1.85,1.85,0,0,0,1.85-1.84V50.9A.93.93,0,0,0,62.59,50.25Zm-9.71,9V47.5h3.8v3.08a1.25,1.25,0,0,0,1.25,1.25H61v7.42Z"/><path class="a" d="M62.91,49.29"/><rect class="b" x="13.97" y="41.25" width="24.26" height="24.26" rx="4.25"/><path class="c" d="M34,66.76H18.22a5.51,5.51,0,0,1-5.5-5.5V45.51A5.51,5.51,0,0,1,18.22,40H34a5.51,5.51,0,0,1,5.51,5.51V61.26A5.51,5.51,0,0,1,34,66.76ZM18.22,42.5a3,3,0,0,0-3,3V61.26a3,3,0,0,0,3,3H34a3,3,0,0,0,3-3V45.51a3,3,0,0,0-3-3Z"/><path class="c" d="M31.41,52h-4v-4a1.35,1.35,0,0,0-2.69,0v4h-4a1.35,1.35,0,0,0,0,2.69h4v4a1.35,1.35,0,0,0,2.69,0v-4h4a1.35,1.35,0,1,0,0-2.69Z"/><rect class="b" x="29.31" y="11.19" width="24.26" height="24.26" rx="4.25"/><path class="c" d="M49.32,36.7H33.57a5.51,5.51,0,0,1-5.51-5.5V15.44a5.51,5.51,0,0,1,5.51-5.5H49.32a5.51,5.51,0,0,1,5.5,5.5V31.2A5.51,5.51,0,0,1,49.32,36.7ZM33.57,12.44a3,3,0,0,0-3,3V31.2a3,3,0,0,0,3,3H49.32a3,3,0,0,0,3-3V15.44a3,3,0,0,0-3-3Z"/><path class="c" d="M45.5,26.19a2.28,2.28,0,0,0-1.4.48l-5.19-3.05c0-.1,0-.2,0-.3a3,3,0,0,0,0-.31l5.19-3a2.28,2.28,0,0,0,1.4.48,2.34,2.34,0,1,0-2.33-2.33,1.53,1.53,0,0,0,0,.3l-5.2,3a2.33,2.33,0,1,0-1.39,4.19A2.27,2.27,0,0,0,38,25.17l5.2,3a1.71,1.71,0,0,0,0,.31,2.33,2.33,0,1,0,2.33-2.33Z"/><path class="a" d="M-4.3,54.42"/></svg>
