<svg xmlns="http://www.w3.org/2000/svg" viewBox="0 0 20.2 23.15"><defs><style>.a{fill:#ffd83c;}.b{fill:#f2c430;}</style></defs><path class="a" d="M12,24.13c0-3.47-5.8-9.27-9.27-9.27C6.15,14.86,12,9.05,12,5.58c0,3.47,5.8,9.28,9.27,9.28C17.75,14.86,12,20.66,12,24.13Z" transform="translate(-2.68 -0.98)"/><path class="b" d="M12,18.51c0-1.37-2.29-3.65-3.65-3.65,1.36,0,3.65-2.29,3.65-3.66,0,1.37,2.29,3.66,3.65,3.66C14.23,14.86,12,17.14,12,18.51Z" transform="translate(-2.68 -0.98)"/><path class="a" d="M18.41,11.2c0-1.67-2.79-4.46-4.46-4.46,1.67,0,4.46-2.8,4.46-4.47,0,1.67,2.8,4.47,4.47,4.47C21.21,6.74,18.41,9.53,18.41,11.2Z" transform="translate(-2.68 -0.98)"/><path class="a" d="M5.4,23.79a3.13,3.13,0,0,0-2.3-2.3,3.13,3.13,0,0,0,2.3-2.3,3.13,3.13,0,0,0,2.3,2.3A3.13,3.13,0,0,0,5.4,23.79Z" transform="translate(-2.68 -0.98)"/><path class="a" d="M8.37,7.36c0-1.19-2-3.19-3.19-3.19,1.19,0,3.19-2,3.19-3.19,0,1.19,2,3.19,3.19,3.19C10.37,4.17,8.37,6.17,8.37,7.36Z" transform="translate(-2.68 -0.98)"/></svg>
