<?xml version="1.0" encoding="utf-8"?>
<!-- Generator: Adobe Illustrator 25.2.1, SVG Export Plug-In . SVG Version: 6.00 Build 0)  -->
<svg version="1.1" id="Vrstva_1" xmlns="http://www.w3.org/2000/svg" xmlns:xlink="http://www.w3.org/1999/xlink" x="0px" y="0px"
	 viewBox="0 0 426.55 86.69" style="enable-background:new 0 0 426.55 86.69;" xml:space="preserve">
<style type="text/css">
	.st0{fill:#6462AA;}
	.st1{fill:#7476B6;}
	.st2{fill:#FFFFFF;}
	.st3{fill:#EDEFF8;}
	.st4{fill:#6A5DA1;}
</style>
<g>
	<g>
		<path class="st0" d="M97.8,13.65h18.25c3.98,0,7.23,0.61,9.76,1.83c2.53,1.22,4.53,2.73,6.01,4.52c1.48,1.79,2.5,3.71,3.07,5.76
			c0.57,2.05,0.85,3.92,0.85,5.63c0,3.18-0.57,5.91-1.71,8.19c-1.14,2.28-2.62,4.14-4.43,5.59c-1.82,1.45-3.87,2.51-6.14,3.2
			c-2.28,0.68-4.52,1.02-6.74,1.02h-8.61v21.15H97.8V13.65z M115.87,40.34c2.73,0,4.9-0.79,6.52-2.39c1.62-1.59,2.43-3.67,2.43-6.23
			c0-2.67-0.85-4.85-2.56-6.52c-1.7-1.68-3.84-2.52-6.39-2.52h-7.76v17.65H115.87z"/>
		<path class="st0" d="M143.16,13.65h10.75v10.58h-10.75V13.65z M143.5,30.54h10.06v40H143.5V30.54z"/>
		<path class="st0" d="M174.55,50.32l-14.5-19.79h12.71l8.02,11.6l8.1-11.6h11.34L186.14,49.3l15.61,21.23h-12.71l-9.12-13.05
			l-9.21,13.05h-11.34L174.55,50.32z"/>
		<path class="st0" d="M207.2,13.65h10.75v10.58H207.2V13.65z M207.55,30.54h10.06v40h-10.06V30.54z"/>
		<path class="st0" d="M265.54,64.73c-0.17,0.17-0.64,0.64-1.41,1.41c-0.77,0.77-1.88,1.58-3.32,2.43c-1.45,0.85-3.3,1.62-5.54,2.3
			c-2.25,0.68-4.93,1.02-8.06,1.02c-3.18,0-6.08-0.54-8.7-1.62c-2.62-1.08-4.85-2.57-6.69-4.48c-1.85-1.9-3.27-4.19-4.26-6.86
			c-1-2.67-1.49-5.63-1.49-8.87c0-2.96,0.5-5.7,1.49-8.23c0.99-2.53,2.39-4.73,4.18-6.61c1.79-1.88,3.92-3.35,6.4-4.43
			c2.47-1.08,5.22-1.62,8.23-1.62c3.64,0,6.72,0.67,9.25,2c2.53,1.34,4.56,3.08,6.1,5.24c1.54,2.16,2.64,4.61,3.33,7.33
			c0.68,2.73,1.02,5.51,1.02,8.36v1.45H236.2c0,1.48,0.33,2.81,0.98,4.01c0.65,1.19,1.51,2.22,2.56,3.07
			c1.05,0.85,2.25,1.51,3.58,1.96c1.34,0.46,2.66,0.68,3.96,0.68c1.93,0,3.63-0.18,5.07-0.55c1.45-0.37,2.69-0.79,3.71-1.28
			c1.02-0.48,1.86-0.99,2.51-1.53c0.65-0.54,1.15-0.98,1.49-1.32L265.54,64.73z M255.73,46.31c0-1.02-0.2-2.05-0.6-3.07
			c-0.4-1.02-0.98-1.95-1.75-2.77c-0.77-0.82-1.75-1.51-2.94-2.05c-1.19-0.54-2.56-0.81-4.09-0.81c-1.65,0-3.11,0.27-4.39,0.81
			c-1.28,0.54-2.34,1.22-3.2,2.05c-0.85,0.83-1.51,1.75-1.96,2.77c-0.46,1.02-0.68,2.05-0.68,3.07H255.73z"/>
		<path class="st0" d="M278.27,13.65h19.53c3.01,0,5.67,0.39,7.97,1.15c2.3,0.77,4.22,1.82,5.76,3.15c1.53,1.34,2.7,2.9,3.5,4.69
			c0.79,1.79,1.19,3.74,1.19,5.84c0,1.99-0.37,3.72-1.11,5.2c-0.74,1.48-1.61,2.72-2.6,3.71c-1,0.99-1.99,1.73-2.99,2.22
			c-0.99,0.48-1.78,0.72-2.34,0.72c1.02,0.12,2.22,0.43,3.58,0.94c1.37,0.51,2.66,1.31,3.88,2.39c1.22,1.08,2.26,2.49,3.11,4.22
			c0.85,1.73,1.28,3.85,1.28,6.35c0,3.07-0.54,5.65-1.62,7.72c-1.08,2.07-2.57,3.75-4.48,5.03c-1.91,1.28-4.15,2.19-6.74,2.73
			c-2.59,0.54-5.39,0.81-8.4,0.81h-19.53V13.65z M297.28,36.34c1.08,0,2.13-0.11,3.16-0.34c1.02-0.23,1.95-0.63,2.77-1.19
			c0.82-0.57,1.48-1.28,1.96-2.13c0.48-0.85,0.72-1.93,0.72-3.24c0-1.31-0.26-2.39-0.77-3.24c-0.51-0.85-1.18-1.53-2-2.05
			c-0.83-0.51-1.75-0.87-2.77-1.06c-1.02-0.2-2.05-0.3-3.07-0.3h-8.7v13.56H297.28z M297.71,61.41c1.02,0,2.15-0.07,3.37-0.21
			c1.22-0.14,2.37-0.48,3.45-1.02c1.08-0.54,1.99-1.33,2.73-2.39c0.74-1.05,1.11-2.49,1.11-4.31c0-1.7-0.36-3.08-1.07-4.14
			c-0.71-1.05-1.59-1.88-2.64-2.47c-1.05-0.6-2.2-1.01-3.45-1.24c-1.25-0.22-2.42-0.34-3.5-0.34h-9.12v16.12H297.71z"/>
		<path class="st0" d="M328.07,30.54h9.64l0.25,5.03c0.45-0.57,1.04-1.19,1.75-1.88c0.71-0.68,1.55-1.31,2.52-1.88
			c0.96-0.57,2.09-1.05,3.37-1.45c1.28-0.4,2.74-0.6,4.39-0.6c0.97,0,1.83,0.06,2.6,0.17c0.77,0.11,1.55,0.31,2.35,0.6L352.89,40
			c-0.68-0.28-1.38-0.48-2.09-0.6c-0.71-0.11-1.55-0.17-2.52-0.17c-1.37,0-2.67,0.23-3.92,0.68c-1.25,0.46-2.33,1.11-3.24,1.96
			s-1.63,1.88-2.17,3.07c-0.54,1.19-0.81,2.53-0.81,4.01v21.58h-10.06V30.54z"/>
		<path class="st0" d="M360.73,13.65h10.75v10.58h-10.75V13.65z M361.07,30.54h10.06v40h-10.06V30.54z"/>
		<path class="st0" d="M392.11,50.32l-14.5-19.79h12.71l8.01,11.6l8.1-11.6h11.34L403.71,49.3l15.61,21.23h-12.71l-9.13-13.05
			l-9.21,13.05h-11.34L392.11,50.32z"/>
	</g>
</g>
<path class="st0" d="M61.83,80.76h-33.2c-10.89,0-19.72-8.83-19.72-19.72V25.27c0-10.89,8.83-19.72,19.72-19.72h33.2
	c10.89,0,19.72,8.83,19.72,19.72v35.77C81.55,71.93,72.72,80.76,61.83,80.76z"/>
<g>
	<g>
		<g>
			<path class="st1" d="M67.66,70.46H52.61c-2.34,0-4.25-1.91-4.25-4.25V50.32c0-2.34,1.91-4.25,4.25-4.25h15.05
				c2.34,0,4.25,1.91,4.25,4.25v15.89C71.91,68.55,70,70.46,67.66,70.46z"/>
			<path class="st2" d="M67.78,71.72h-15.3c-2.95,0-5.35-2.48-5.35-5.54V50.35c0-3.05,2.4-5.53,5.35-5.53h15.3
				c2.95,0,5.35,2.48,5.35,5.53v15.84C73.13,69.24,70.73,71.72,67.78,71.72z M52.48,47.32c-1.61,0-2.92,1.36-2.92,3.02v15.84
				c0,1.67,1.31,3.02,2.92,3.02h15.3c1.61,0,2.92-1.35,2.92-3.02V50.35c0-1.67-1.31-3.02-2.92-3.02H52.48z"/>
		</g>
		<path class="st3" d="M65.77,55.11l-4.21-4.35c-0.17-0.17-0.4-0.27-0.63-0.27h-0.9h-3.69c-0.99,0-1.79,0.83-1.79,1.86v11.83
			c0,1.02,0.8,1.86,1.79,1.86h7.9c0.99,0,1.79-0.83,1.79-1.86v-7.52v-0.88C66.03,55.52,65.93,55.29,65.77,55.11z M56.34,64.17
			l0-11.83h3.69v3.1c0,0.69,0.54,1.25,1.21,1.25h2.99v7.47L56.34,64.17z"/>
		<path class="st4" d="M66.08,54.15"/>
	</g>
	<g>
		<g>
			<path class="st1" d="M37.85,70.46H22.8c-2.34,0-4.25-1.91-4.25-4.25V50.32c0-2.34,1.91-4.25,4.25-4.25h15.05
				c2.34,0,4.25,1.91,4.25,4.25v15.89C42.11,68.55,40.19,70.46,37.85,70.46z"/>
			<path class="st2" d="M37.98,71.72h-15.3c-2.95,0-5.35-2.48-5.35-5.54V50.35c0-3.05,2.4-5.53,5.35-5.53h15.3
				c2.95,0,5.35,2.48,5.35,5.53v15.84C43.32,69.24,40.92,71.72,37.98,71.72z M22.68,47.32c-1.61,0-2.92,1.36-2.92,3.02v15.84
				c0,1.67,1.31,3.02,2.92,3.02h15.3c1.61,0,2.92-1.35,2.92-3.02V50.35c0-1.67-1.31-3.02-2.92-3.02H22.68z"/>
		</g>
		<path class="st2" d="M35.49,56.9h-3.85v-3.99c0-0.75-0.58-1.35-1.31-1.35c-0.72,0-1.31,0.61-1.31,1.35v3.99h-3.85
			c-0.72,0-1.31,0.61-1.31,1.35c0,0.75,0.58,1.35,1.31,1.35h3.85v3.99c0,0.75,0.58,1.35,1.31,1.35c0.72,0,1.31-0.61,1.31-1.35v-3.99
			h3.85c0.72,0,1.31-0.61,1.31-1.35C36.79,57.51,36.21,56.9,35.49,56.9z"/>
	</g>
	<g>
		<g>
			<path class="st1" d="M52.76,40.23H37.7c-2.34,0-4.25-1.91-4.25-4.25V20.09c0-2.34,1.91-4.25,4.25-4.25h15.05
				c2.34,0,4.25,1.91,4.25,4.25v15.89C57.01,38.32,55.1,40.23,52.76,40.23z"/>
			<path class="st2" d="M52.88,41.49h-15.3c-2.95,0-5.35-2.48-5.35-5.54V20.12c0-3.05,2.4-5.54,5.35-5.54h15.3
				c2.95,0,5.35,2.48,5.35,5.54v15.84C58.22,39.01,55.83,41.49,52.88,41.49z M37.58,17.1c-1.61,0-2.92,1.36-2.92,3.02v15.84
				c0,1.67,1.31,3.02,2.92,3.02h15.3c1.61,0,2.92-1.35,2.92-3.02V20.12c0-1.67-1.31-3.02-2.92-3.02H37.58z"/>
		</g>
		<path class="st2" d="M49.17,30.92c-0.51,0-0.98,0.18-1.36,0.48l-5.05-3.06c0.01-0.1,0.03-0.2,0.03-0.31
			c0-0.11-0.02-0.21-0.03-0.31l5.05-3.06c0.38,0.3,0.85,0.48,1.36,0.48c1.25,0,2.26-1.05,2.26-2.34c0-1.29-1.02-2.34-2.26-2.34
			c-1.25,0-2.26,1.05-2.26,2.34c0,0.11,0.02,0.21,0.03,0.31l-5.05,3.06c-0.38-0.3-0.84-0.48-1.36-0.48c-1.25,0-2.26,1.05-2.26,2.34
			c0,1.29,1.02,2.34,2.26,2.34c0.51,0,0.98-0.18,1.36-0.48l5.05,3.06c-0.01,0.1-0.03,0.2-0.03,0.31c0,1.29,1.02,2.34,2.26,2.34
			c1.25,0,2.26-1.05,2.26-2.34C51.43,31.98,50.42,30.92,49.17,30.92z"/>
	</g>
</g>
<path class="st4" d="M8.91,53.66"/>
</svg>
