<?xml version="1.0" encoding="utf-8"?>
<!-- Generator: Adobe Illustrator 25.0.0, SVG Export Plug-In . SVG Version: 6.00 Build 0)  -->
<svg version="1.1" id="Vrstva_1" xmlns="http://www.w3.org/2000/svg" xmlns:xlink="http://www.w3.org/1999/xlink" x="0px" y="0px"
	 viewBox="0 0 426.71 82.89" style="enable-background:new 0 0 426.71 82.89;" xml:space="preserve">
<style type="text/css">
	.st0{fill:#685CA3;}
	.st1{fill:#7A75B5;}
	.st2{fill:#FFFFFF;}
	.st3{fill:#EEF0FA;}
</style>
<g>
	<path class="st0" d="M107.19,9.91h18.25c3.98,0,7.23,0.61,9.76,1.83c2.53,1.22,4.53,2.73,6.01,4.52c1.48,1.79,2.5,3.71,3.07,5.76
		c0.57,2.05,0.85,3.92,0.85,5.63c0,3.18-0.57,5.91-1.71,8.19c-1.14,2.28-2.62,4.14-4.43,5.59c-1.82,1.45-3.87,2.51-6.14,3.2
		c-2.28,0.68-4.52,1.02-6.74,1.02h-8.61v21.15h-10.32V9.91z M125.27,36.6c2.73,0,4.9-0.79,6.52-2.39c1.62-1.59,2.43-3.67,2.43-6.23
		c0-2.67-0.85-4.85-2.56-6.52c-1.7-1.68-3.84-2.52-6.39-2.52h-7.76V36.6H125.27z"/>
	<path class="st0" d="M152.56,9.91h10.75v10.58h-10.75V9.91z M152.9,26.79h10.06v40H152.9V26.79z"/>
	<path class="st0" d="M183.94,46.58l-14.5-19.79h12.71l8.02,11.6l8.1-11.6h11.34l-14.07,18.76l15.61,21.23h-12.71l-9.12-13.05
		l-9.21,13.05h-11.34L183.94,46.58z"/>
	<path class="st0" d="M216.6,9.91h10.75v10.58H216.6V9.91z M216.94,26.79h10.06v40h-10.06V26.79z"/>
	<path class="st0" d="M274.93,60.99c-0.17,0.17-0.64,0.64-1.41,1.41c-0.77,0.77-1.88,1.58-3.32,2.43c-1.45,0.85-3.3,1.62-5.54,2.3
		c-2.25,0.68-4.93,1.02-8.06,1.02c-3.18,0-6.08-0.54-8.7-1.62c-2.62-1.08-4.85-2.57-6.69-4.48c-1.85-1.9-3.27-4.19-4.26-6.86
		c-1-2.67-1.49-5.63-1.49-8.87c0-2.96,0.5-5.7,1.49-8.23c0.99-2.53,2.39-4.73,4.18-6.61c1.79-1.88,3.92-3.35,6.4-4.43
		c2.47-1.08,5.22-1.62,8.23-1.62c3.64,0,6.72,0.67,9.25,2c2.53,1.34,4.56,3.08,6.1,5.24c1.54,2.16,2.64,4.61,3.33,7.33
		c0.68,2.73,1.02,5.51,1.02,8.36v1.45H245.6c0,1.48,0.33,2.81,0.98,4.01c0.65,1.19,1.51,2.22,2.56,3.07
		c1.05,0.85,2.25,1.51,3.58,1.96c1.34,0.46,2.66,0.68,3.96,0.68c1.93,0,3.63-0.18,5.07-0.55c1.45-0.37,2.69-0.79,3.71-1.28
		c1.02-0.48,1.86-0.99,2.51-1.53c0.65-0.54,1.15-0.98,1.49-1.32L274.93,60.99z M265.13,42.57c0-1.02-0.2-2.05-0.6-3.07
		c-0.4-1.02-0.98-1.95-1.75-2.77c-0.77-0.82-1.75-1.51-2.94-2.05c-1.19-0.54-2.56-0.81-4.09-0.81c-1.65,0-3.11,0.27-4.39,0.81
		c-1.28,0.54-2.34,1.22-3.2,2.05c-0.85,0.83-1.51,1.75-1.96,2.77c-0.46,1.02-0.68,2.05-0.68,3.07H265.13z"/>
	<path class="st0" d="M285.66,9.91h19.53c3.01,0,5.67,0.39,7.97,1.15c2.3,0.77,4.22,1.82,5.76,3.15c1.53,1.34,2.7,2.9,3.5,4.69
		c0.79,1.79,1.19,3.74,1.19,5.84c0,1.99-0.37,3.72-1.11,5.2c-0.74,1.48-1.61,2.72-2.6,3.71c-1,0.99-1.99,1.73-2.99,2.22
		c-0.99,0.48-1.78,0.72-2.34,0.72c1.02,0.12,2.22,0.43,3.58,0.94c1.37,0.51,2.66,1.31,3.88,2.39c1.22,1.08,2.26,2.49,3.11,4.22
		c0.85,1.73,1.28,3.85,1.28,6.35c0,3.07-0.54,5.65-1.62,7.72c-1.08,2.07-2.57,3.75-4.48,5.03c-1.91,1.28-4.15,2.19-6.74,2.73
		c-2.59,0.54-5.39,0.81-8.4,0.81h-19.53V9.91z M304.68,32.59c1.08,0,2.13-0.11,3.16-0.34c1.02-0.23,1.95-0.63,2.77-1.19
		c0.82-0.57,1.48-1.28,1.96-2.13c0.48-0.85,0.72-1.93,0.72-3.24c0-1.31-0.26-2.39-0.77-3.24c-0.51-0.85-1.18-1.53-2-2.05
		c-0.83-0.51-1.75-0.87-2.77-1.07c-1.02-0.2-2.05-0.3-3.07-0.3h-8.7v13.56H304.68z M305.11,57.66c1.02,0,2.15-0.07,3.37-0.21
		c1.22-0.14,2.37-0.48,3.45-1.02c1.08-0.54,1.99-1.33,2.73-2.39c0.74-1.05,1.11-2.49,1.11-4.31c0-1.7-0.36-3.08-1.07-4.14
		c-0.71-1.05-1.59-1.88-2.64-2.47c-1.05-0.6-2.2-1.01-3.45-1.24c-1.25-0.22-2.42-0.34-3.5-0.34h-9.12v16.12H305.11z"/>
	<path class="st0" d="M335.47,26.79h9.64l0.25,5.03c0.45-0.57,1.04-1.19,1.75-1.88c0.71-0.68,1.55-1.31,2.52-1.88
		c0.96-0.57,2.09-1.05,3.37-1.45c1.28-0.4,2.74-0.6,4.39-0.6c0.97,0,1.83,0.06,2.6,0.17c0.77,0.11,1.55,0.31,2.35,0.6l-2.05,9.47
		c-0.68-0.28-1.38-0.48-2.09-0.6c-0.71-0.11-1.55-0.17-2.52-0.17c-1.37,0-2.67,0.23-3.92,0.68c-1.25,0.46-2.33,1.11-3.24,1.96
		c-0.91,0.85-1.63,1.88-2.17,3.07c-0.54,1.19-0.81,2.53-0.81,4.01v21.58h-10.06V26.79z"/>
	<path class="st0" d="M368.13,9.91h10.75v10.58h-10.75V9.91z M368.47,26.79h10.06v40h-10.06V26.79z"/>
	<path class="st0" d="M399.51,46.58l-14.5-19.79h12.71l8.01,11.6l8.1-11.6h11.34l-14.07,18.76l15.61,21.23h-12.71l-9.13-13.05
		l-9.21,13.05h-11.34L399.51,46.58z"/>
</g>
<circle class="st0" cx="41.44" cy="41.44" r="41.44"/>
<g>
	<g>
		<path class="st1" d="M64.66,65.51H48.91c-2.34,0-4.25-1.91-4.25-4.25V45.51c0-2.34,1.91-4.25,4.25-4.25h15.75
			c2.34,0,4.25,1.91,4.25,4.25v15.75C68.92,63.6,67,65.51,64.66,65.51z"/>
		<path class="st2" d="M64.66,66.76H48.91c-3.04,0-5.5-2.47-5.5-5.5V45.51c0-3.04,2.47-5.5,5.5-5.5h15.75c3.04,0,5.5,2.47,5.5,5.5
			v15.75C70.17,64.29,67.7,66.76,64.66,66.76z M48.91,42.5c-1.66,0-3,1.35-3,3v15.75c0,1.66,1.35,3,3,3h15.75c1.66,0,3-1.35,3-3
			V45.51c0-1.66-1.35-3-3-3H48.91z"/>
	</g>
	<path class="st3" d="M62.59,50.25l-4.33-4.33c-0.17-0.17-0.41-0.27-0.65-0.27h-0.92h-3.8c-1.02,0-1.85,0.83-1.85,1.85v11.76
		c0,1.02,0.83,1.85,1.85,1.85h8.14c1.02,0,1.85-0.83,1.85-1.85v-7.48V50.9C62.86,50.66,62.76,50.42,62.59,50.25z M52.88,59.26
		l0-11.76h3.8v3.08c0,0.69,0.56,1.25,1.25,1.25h3.08v7.43L52.88,59.26z"/>
</g>
<g>
	<g>
		<path class="st1" d="M33.97,65.51H18.22c-2.34,0-4.25-1.91-4.25-4.25V45.51c0-2.34,1.91-4.25,4.25-4.25h15.75
			c2.34,0,4.25,1.91,4.25,4.25v15.75C38.23,63.6,36.31,65.51,33.97,65.51z"/>
		<path class="st2" d="M33.97,66.76H18.22c-3.04,0-5.5-2.47-5.5-5.5V45.51c0-3.04,2.47-5.5,5.5-5.5h15.75c3.04,0,5.5,2.47,5.5,5.5
			v15.75C39.48,64.29,37.01,66.76,33.97,66.76z M18.22,42.5c-1.66,0-3,1.35-3,3v15.75c0,1.66,1.35,3,3,3h15.75c1.66,0,3-1.35,3-3
			V45.51c0-1.66-1.35-3-3-3H18.22z"/>
	</g>
	<path class="st2" d="M31.41,52.03h-3.97v-3.97c0-0.74-0.6-1.35-1.35-1.35c-0.74,0-1.35,0.6-1.35,1.35v3.97h-3.97
		c-0.74,0-1.35,0.6-1.35,1.35c0,0.74,0.6,1.35,1.35,1.35h3.97v3.97c0,0.74,0.6,1.35,1.35,1.35c0.74,0,1.35-0.6,1.35-1.35v-3.97h3.97
		c0.74,0,1.35-0.6,1.35-1.35C32.76,52.63,32.15,52.03,31.41,52.03z"/>
</g>
<g>
	<g>
		<path class="st1" d="M49.32,35.45H33.57c-2.34,0-4.25-1.91-4.25-4.25V15.44c0-2.34,1.91-4.25,4.25-4.25h15.75
			c2.34,0,4.25,1.91,4.25,4.25V31.2C53.57,33.54,51.66,35.45,49.32,35.45z"/>
		<path class="st2" d="M49.32,36.7H33.57c-3.04,0-5.5-2.47-5.5-5.5V15.44c0-3.04,2.47-5.5,5.5-5.5h15.75c3.04,0,5.5,2.47,5.5,5.5
			V31.2C54.82,34.23,52.35,36.7,49.32,36.7z M33.57,12.44c-1.66,0-3,1.35-3,3V31.2c0,1.66,1.35,3,3,3h15.75c1.66,0,3-1.35,3-3V15.44
			c0-1.66-1.35-3-3-3H33.57z"/>
	</g>
	<path class="st2" d="M45.5,26.19c-0.53,0-1.01,0.18-1.4,0.48l-5.2-3.04c0.01-0.1,0.03-0.2,0.03-0.31c0-0.1-0.02-0.2-0.03-0.31
		l5.2-3.04c0.39,0.29,0.87,0.48,1.4,0.48c1.29,0,2.33-1.05,2.33-2.33c0-1.29-1.05-2.33-2.33-2.33c-1.29,0-2.33,1.05-2.33,2.33
		c0,0.1,0.02,0.21,0.03,0.31L38,21.46c-0.39-0.29-0.87-0.48-1.4-0.48c-1.29,0-2.33,1.05-2.33,2.33c0,1.29,1.05,2.33,2.33,2.33
		c0.53,0,1.01-0.18,1.4-0.48l5.2,3.04c-0.01,0.1-0.03,0.2-0.03,0.31c0,1.29,1.05,2.33,2.33,2.33c1.29,0,2.33-1.05,2.33-2.33
		C47.83,27.24,46.78,26.19,45.5,26.19z"/>
</g>
</svg>
