<svg xmlns="http://www.w3.org/2000/svg" viewBox="0 0 72.64 75.21"><defs><style>.a{fill:#6462aa;}.b{fill:#7476b6;}.c{fill:#fff;}.d{fill:#edeff8;}.e{fill:#6a5da1;}</style></defs><rect class="a" width="72.64" height="75.21" rx="19.72"/><rect class="b" x="39.44" y="40.52" width="23.56" height="24.4" rx="4.25"/><path class="c" d="M60.25,67.2H45a5.44,5.44,0,0,1-5.34-5.53V45.83A5.45,5.45,0,0,1,45,40.29h15.3a5.46,5.46,0,0,1,5.35,5.54V61.67A5.45,5.45,0,0,1,60.25,67.2ZM45,42.81a3,3,0,0,0-2.92,3V61.67a3,3,0,0,0,2.92,3h15.3a3,3,0,0,0,2.92-3V45.83a3,3,0,0,0-2.92-3Z" transform="translate(-1.38 -1.03)"/><path class="d" d="M58.24,50.6,54,46.24A.9.9,0,0,0,53.4,46H48.81A1.83,1.83,0,0,0,47,47.83V59.66a1.83,1.83,0,0,0,1.8,1.85h7.9a1.82,1.82,0,0,0,1.79-1.85v-8.4A1,1,0,0,0,58.24,50.6Zm-9.43,9.06V47.83H52.5v3.1a1.23,1.23,0,0,0,1.21,1.25h3v7.47Z" transform="translate(-1.38 -1.03)"/><path class="e" d="M58.55,49.64" transform="translate(-1.38 -1.03)"/><rect class="b" x="9.63" y="40.52" width="23.56" height="24.4" rx="4.25"/><path class="c" d="M30.45,67.2H15.15A5.45,5.45,0,0,1,9.8,61.67V45.83a5.46,5.46,0,0,1,5.35-5.54h15.3a5.45,5.45,0,0,1,5.34,5.54V61.67A5.45,5.45,0,0,1,30.45,67.2ZM15.15,42.81a3,3,0,0,0-2.92,3V61.67a3,3,0,0,0,2.92,3h15.3a3,3,0,0,0,2.91-3V45.83a3,3,0,0,0-2.91-3Z" transform="translate(-1.38 -1.03)"/><path class="c" d="M28,52.39H24.1v-4a1.31,1.31,0,1,0-2.61,0v4H17.64a1.35,1.35,0,0,0,0,2.7h3.85v4a1.31,1.31,0,1,0,2.61,0v-4H28a1.35,1.35,0,0,0,0-2.7Z" transform="translate(-1.38 -1.03)"/><rect class="b" x="24.54" y="10.29" width="23.56" height="24.4" rx="4.25"/><path class="c" d="M45.35,37H30.05a5.46,5.46,0,0,1-5.35-5.54V15.6a5.45,5.45,0,0,1,5.35-5.53h15.3a5.44,5.44,0,0,1,5.34,5.53V31.44A5.45,5.45,0,0,1,45.35,37Zm-15.3-24.4a3,3,0,0,0-2.92,3V31.44a3,3,0,0,0,2.92,3h15.3a3,3,0,0,0,2.92-3V15.6a3,3,0,0,0-2.92-3Z" transform="translate(-1.38 -1.03)"/><path class="c" d="M41.64,26.41a2.19,2.19,0,0,0-1.36.48l-5-3.06a3,3,0,0,0,0-.31c0-.1,0-.21,0-.31l5-3.05a2.24,2.24,0,0,0,1.36.47,2.34,2.34,0,1,0-2.27-2.34,3,3,0,0,0,0,.31l-5,3.06A2.19,2.19,0,0,0,33,21.18a2.35,2.35,0,0,0,0,4.69,2.25,2.25,0,0,0,1.36-.48l5,3.05c0,.11,0,.21,0,.31a2.27,2.27,0,1,0,2.27-2.34Z" transform="translate(-1.38 -1.03)"/><path class="e" d="M1.38,49.15" transform="translate(-1.38 -1.03)"/></svg>
