<?xml version="1.0" encoding="utf-8"?>
<!-- Generator: Adobe Illustrator 24.3.0, SVG Export Plug-In . SVG Version: 6.00 Build 0)  -->
<svg version="1.1" xmlns="http://www.w3.org/2000/svg" xmlns:xlink="http://www.w3.org/1999/xlink" x="0px" y="0px"
	 viewBox="0 0 757.86 454.47" style="enable-background:new 0 0 757.86 454.47;" xml:space="preserve">
<style type="text/css">
	.st0{fill:#EFEBF6;}
	.st1{fill:#292D6B;}
	.st2{fill:#B3B6DD;}
	.st3{fill:#E8EAF7;}
	.st4{fill:#C6C6E3;}
	.st5{fill:#999BC9;}
	.st6{fill:#D8DBF0;}
	.st7{fill:#A8A9D5;}
	.st8{fill:#FFFFFF;}
	.st9{fill:#F8E391;}
	.st10{fill:#DD944A;}
	.st11{fill:#4B538D;}
	.st12{fill:#EF7982;}
	.st13{fill:#FAB633;}
	.st14{fill:#66A8B0;}
	.st15{fill:#444444;}
	.st16{fill:#849B8B;}
	.st17{fill:#B3B6DC;}
	.st18{fill:#F2DBC7;}
	.st19{fill:#F0CFB8;}
	.st20{fill:#3E4677;}
	.st21{fill:#4F578A;}
	.st22{fill:#E2B79B;}
	.st23{fill:#404985;}
	.st24{fill:#E7F0FA;}
	.st25{fill:#3D427F;}
	.st26{fill:#2D3066;}
</style>
<g id="Background">
	<g>
		<path class="st0" d="M158.98,133.7c-8.09,5.02-12.89,16.7-13.26,25.38c-0.37,8.69,1.25,17.37,0.75,26.05
			c-1.03,17.93-6.12,28.54-17.62,42.34c-11.44,13.74-30.68,27.04-45.28,37.5c-5.46,3.91-13.7,11.91-17.96,17.1
			c-4.26,5.2-5.28,14.28-5.19,21c0.18,12.97,17.28,23.75,28.26,30.65c13.56,8.52,42.55,18.6,72.17,15.55
			c15.57-1.61,121.75,0.07,209.36,12.36c29.97,4.2,49.43,23.12,73.66,25.3c39.64,3.57,93.94-24.38,102.64-30.42
			c8.7-6.04,23.85-24.4,56.68-38.33c25.06-10.64,69.14-32.66,76.64-70.52c4.37-22.06-7.55-60.82-22.19-77.89
			c-16.94-19.74-37.69-29.06-63.22-24.08c-16.15,3.16-32.5,10.85-47.37,17.89c-6.9,3.26-12.4,7.02-19.3,10.28l-24.62,12
			c-9.19,4.09-20.1,3.15-27.95-1.49c0,0-11.78-7.59-18.09-17.47c-6.31-9.88-13.68-14.27-20.66-19.17L158.98,133.7z"/>
	</g>
	<path class="st1" d="M236.74,197.38c-0.21-0.09-0.39-0.25-0.52-0.44c-0.13-0.2-0.19-0.42-0.19-0.65c0-0.32,0.13-0.62,0.35-0.84
		c0.22-0.22,0.52-0.35,0.83-0.35h5.78v-5.81c0-0.32,0.13-0.62,0.35-0.84c0.22-0.22,0.52-0.35,0.83-0.35c0.31,0,0.61,0.13,0.83,0.35
		c0.22,0.22,0.35,0.52,0.35,0.84v8.19h-8.14C237.05,197.48,236.89,197.44,236.74,197.38z"/>
	<g>
		<path class="st2" d="M422,103.99H172.41c-8.87,0-16.07,7.24-16.07,16.17v158.69c0,8.93,7.19,16.17,16.07,16.17H422
			c8.88,0,16.07-7.24,16.07-16.17V120.16C438.07,111.23,430.87,103.99,422,103.99z"/>
		<path class="st3" d="M423.13,114.19H171.26c-2.35,0-4.26,1.92-4.26,4.29v158.51c0,2.37,1.91,4.29,4.26,4.29h251.87
			c2.35,0,4.26-1.92,4.26-4.29V118.48C427.39,116.11,425.48,114.19,423.13,114.19z"/>
		<path class="st4" d="M468.8,371.64H125.6c-1.66,0-3.3-0.44-4.74-1.26c-1.45-0.82-2.66-2.01-3.51-3.44
			c-0.86-1.43-1.33-3.06-1.38-4.74c-0.05-1.67,0.34-3.33,1.11-4.81l34.8-53.95c1.34-2.54,3.35-4.66,5.79-6.14
			c2.45-1.48,5.25-2.26,8.1-2.26h262.83c2.86,0,5.66,0.78,8.11,2.26c2.45,1.48,4.45,3.6,5.8,6.14l34.8,53.95
			c0.78,1.48,1.16,3.13,1.11,4.81c-0.05,1.67-0.52,3.3-1.38,4.74c-0.86,1.43-2.06,2.62-3.51,3.44
			C472.09,371.21,470.46,371.64,468.8,371.64z"/>
		<path class="st5" d="M478.4,361.63c0.04,1.3-0.18,2.59-0.64,3.81c-0.46,1.21-1.17,2.32-2.07,3.25c-0.9,0.93-1.98,1.68-3.17,2.18
			c-1.19,0.51-2.47,0.77-3.76,0.77H125.6c-1.29,0-2.57-0.26-3.76-0.77c-1.19-0.51-2.27-1.25-3.17-2.18c-0.9-0.93-1.6-2.04-2.07-3.25
			c-0.47-1.21-0.69-2.51-0.65-3.81v8.59c0.04,2.55,1.07,4.99,2.87,6.78c1.8,1.79,4.24,2.8,6.77,2.8h343.2
			c2.53-0.01,4.95-1.02,6.75-2.82c1.8-1.79,2.82-4.22,2.85-6.77v-8.57V361.63z"/>
		<path class="st6" d="M364.01,364.61H230.4c-0.54,0-1.06-0.14-1.52-0.4c-0.47-0.27-0.86-0.65-1.13-1.11
			c-0.27-0.46-0.42-0.99-0.44-1.52c-0.01-0.54,0.11-1.07,0.37-1.54l5.3-17.29c0.43-0.82,1.07-1.5,1.86-1.97
			c0.79-0.47,1.69-0.72,2.6-0.72h119.58c0.92,0,1.82,0.25,2.6,0.72c0.79,0.47,1.43,1.16,1.86,1.97l5.25,17.29
			c0.25,0.47,0.38,1.01,0.37,1.54c-0.01,0.54-0.16,1.06-0.44,1.52c-0.27,0.46-0.66,0.84-1.13,1.11
			C365.07,364.47,364.54,364.61,364.01,364.61z"/>
		<path class="st7" d="M412.99,334.11H181.41c-0.63,0-1.26-0.16-1.81-0.47c-0.55-0.31-1.01-0.76-1.34-1.31
			c-0.33-0.55-0.5-1.17-0.52-1.8c-0.02-0.64,0.13-1.27,0.43-1.83l9.76-20.45c0.5-0.97,1.26-1.78,2.19-2.34
			c0.93-0.57,2-0.86,3.08-0.85H401.2c1.09,0,2.15,0.3,3.08,0.86c0.93,0.56,1.69,1.37,2.2,2.33l9.76,20.41
			c0.31,0.56,0.46,1.2,0.45,1.84c-0.01,0.64-0.19,1.27-0.51,1.82c-0.33,0.55-0.79,1-1.35,1.32
			C414.26,333.95,413.63,334.11,412.99,334.11z"/>
		<path class="st8" d="M167,129.03h260.4v147.95c0,0.56-0.11,1.12-0.32,1.64c-0.21,0.52-0.53,0.99-0.92,1.39
			c-0.39,0.4-0.86,0.71-1.38,0.93c-0.52,0.22-1.07,0.33-1.63,0.33h-251.9c-1.13,0-2.21-0.45-3-1.25c-0.8-0.8-1.24-1.89-1.24-3.02
			V129.03z"/>
		<g>
			<path class="st9" d="M215.14,142.69h-27.07c-0.68,0-1.23,0.55-1.23,1.23v27.24c0,0.68,0.55,1.23,1.23,1.23h27.07
				c0.68,0,1.23-0.55,1.23-1.23v-27.24C216.37,143.24,215.82,142.69,215.14,142.69z"/>
			<path class="st0" d="M339.82,166.96h-97.8c-1.49,0-2.7,1.22-2.7,2.72v0.01c0,1.5,1.21,2.72,2.7,2.72h97.8
				c1.49,0,2.7-1.22,2.7-2.72v-0.01C342.52,168.17,341.31,166.96,339.82,166.96z"/>
			<path class="st0" d="M312.36,154.82h-70.35c-1.49,0-2.7,1.22-2.7,2.72v0.01c0,1.5,1.21,2.72,2.7,2.72h70.35
				c1.49,0,2.7-1.22,2.7-2.72v-0.01C315.06,156.04,313.85,154.82,312.36,154.82z"/>
			<path class="st0" d="M326.08,142.69h-84.07c-1.49,0-2.7,1.22-2.7,2.72v0.01c0,1.5,1.21,2.72,2.7,2.72h84.07
				c1.49,0,2.7-1.22,2.7-2.72v-0.01C328.79,143.9,327.57,142.69,326.08,142.69z"/>
			<path class="st10" d="M215.14,191.02h-27.07c-0.68,0-1.23,0.55-1.23,1.23v27.24c0,0.68,0.55,1.24,1.23,1.24h27.07
				c0.68,0,1.23-0.55,1.23-1.24v-27.24C216.37,191.58,215.82,191.02,215.14,191.02z"/>
			<path class="st0" d="M339.82,215.28h-97.8c-1.49,0-2.7,1.22-2.7,2.72v0.01c0,1.5,1.21,2.72,2.7,2.72h97.8
				c1.49,0,2.7-1.22,2.7-2.72V218C342.52,216.5,341.31,215.28,339.82,215.28z"/>
			<path class="st0" d="M312.36,203.16h-70.35c-1.49,0-2.7,1.22-2.7,2.72v0.01c0,1.5,1.21,2.72,2.7,2.72h70.35
				c1.49,0,2.7-1.22,2.7-2.72v-0.01C315.06,204.38,313.85,203.16,312.36,203.16z"/>
			<path class="st0" d="M326.08,191.02h-84.07c-1.49,0-2.7,1.22-2.7,2.72v0.01c0,1.5,1.21,2.72,2.7,2.72h84.07
				c1.49,0,2.7-1.22,2.7-2.72v-0.01C328.79,192.24,327.57,191.02,326.08,191.02z"/>
			<path class="st11" d="M215.14,239.36h-27.07c-0.68,0-1.23,0.55-1.23,1.24v27.24c0,0.68,0.55,1.23,1.23,1.23h27.07
				c0.68,0,1.23-0.55,1.23-1.23V240.6C216.37,239.91,215.82,239.36,215.14,239.36z"/>
			<path class="st0" d="M339.82,263.62h-97.8c-1.49,0-2.7,1.22-2.7,2.72v0.01c0,1.5,1.21,2.72,2.7,2.72h97.8
				c1.49,0,2.7-1.22,2.7-2.72v-0.01C342.52,264.84,341.31,263.62,339.82,263.62z"/>
			<path class="st0" d="M312.36,251.48h-70.35c-1.49,0-2.7,1.22-2.7,2.72v0.01c0,1.5,1.21,2.72,2.7,2.72h70.35
				c1.49,0,2.7-1.22,2.7-2.72v-0.01C315.06,252.7,313.85,251.48,312.36,251.48z"/>
			<path class="st0" d="M326.08,239.36h-84.07c-1.49,0-2.7,1.22-2.7,2.72v0.01c0,1.5,1.21,2.72,2.7,2.72h84.07
				c1.49,0,2.7-1.22,2.7-2.72v-0.01C328.79,240.58,327.57,239.36,326.08,239.36z"/>
		</g>
		<g>
			<path class="st12" d="M176.58,124.35c1.52,0,2.76-1.24,2.76-2.78s-1.24-2.78-2.76-2.78s-2.76,1.24-2.76,2.78
				S175.06,124.35,176.58,124.35z"/>
			<path class="st13" d="M186.83,124.35c1.52,0,2.76-1.24,2.76-2.78s-1.24-2.78-2.76-2.78s-2.76,1.24-2.76,2.78
				S185.31,124.35,186.83,124.35z"/>
			<path class="st14" d="M197.06,124.35c1.52,0,2.76-1.24,2.76-2.78s-1.24-2.78-2.76-2.78s-2.76,1.24-2.76,2.78
				S195.53,124.35,197.06,124.35z"/>
		</g>
	</g>
</g>
<g id="Foreground">
	<path class="st0" d="M569.39,368.49c-1.82,2.57-2.12,6.33-0.19,8.82c1.51,1.94,4.32,5.26,6.73,5.76c8.66,1.8,17.61,0.18,26.45,0.05
		c7-0.1,13.98,0.74,20.98,0.56c6.99-0.18,13.89-3.92,19.68-7.84c1.94-1.31,3.83-3.17,3.92-5.51c0.07-1.78-0.96-3.47-2.34-4.58
		c-1.39-1.12-3.1-1.75-4.8-2.27c-10.63-3.24-22-2.82-33.08-1.98c-6.95,0.52-13.91,1.61-20.87,1.84
		C580.09,363.53,573.16,363.16,569.39,368.49z"/>
	<g>
		<g>
			<path class="st0" d="M629.76,325.1c-0.11-1.78-10.94-3.22-24.31-3.22s-24.2,1.44-24.31,3.22c0,0.01,0,0.03,0,0.04
				c0.05,1.79,10.91,3.23,24.31,3.23c13.4,0,24.26-1.45,24.31-3.23C629.77,325.14,629.76,325.12,629.76,325.1z M605.46,327.88
				c-11.3,0-20.46-1.22-20.5-2.73c0,0,0,0,0-0.03c0.09-1.5,9.23-2.71,20.49-2.71c11.27,0,20.41,1.21,20.5,2.71c0,0,0,0,0,0.03
				c-0.04,1.48-9.19,2.7-20.49,2.7V327.88z"/>
		</g>
		<g>
			<path class="st15" d="M605.46,327.85c11.3,0,20.46-1.22,20.51-2.73c0,0,0,0,0-0.03c-0.1-1.5-9.24-2.71-20.5-2.71
				c-11.26,0-20.4,1.21-20.5,2.71c0,0,0,0,0,0.03C585,326.63,594.16,327.85,605.46,327.85z"/>
		</g>
		<g>
			<path class="st16" d="M606.78,328.18c-0.97-13.99-2.83-27.91-5.59-41.66c-2.74-13.72-6.38-27.24-10.88-40.49
				c0,0-1.69-4.96-1.73-5.05c-0.14-0.24-0.37-0.42-0.64-0.49c-0.27-0.07-0.55-0.03-0.8,0.11c-0.23,0.15-0.4,0.38-0.47,0.65
				c-0.07,0.27-0.03,0.55,0.09,0.8c5.4,12.8,3.29,8.86,6.99,22.25c3.68,13.32,6.52,26.86,8.47,40.54
				c1.11,7.74,1.93,15.52,2.45,23.34C604.77,329.52,606.89,329.54,606.78,328.18z"/>
		</g>
		<g>
			<path class="st16" d="M613.98,330.82c-0.76-21.9,0.17-43.82,2.77-65.57c0.74-6.09,0.18-2.42,1.16-8.46
				c0.22-1.33-1.81-1.9-2.03-0.55c-3.58,21.71-4.05,33.92-4.26,55.93c-0.06,6.22,0.02,12.45,0.24,18.67
				C611.91,332.18,614.02,332.19,613.98,330.82L613.98,330.82z"/>
		</g>
		<g>
			<path class="st16" d="M601.67,332.79c-3.17-17.56-6.55-27.44-10.74-35.63c-2.88-4.09-6.01-8-9.36-11.71
				c-0.91-1.01-2.4,0.48-1.49,1.49c11.76,13.04,10.9,15.31,16.09,32.1c1.45,4.69,2.61,9.47,3.47,14.31
				C599.88,334.68,601.91,334.12,601.67,332.79z"/>
		</g>
		<g>
			<path class="st16" d="M582.85,313.81l-5.11-2.47l-4.44-2.09c-2.61-1.25-4.51-2.27-4.55-3.15c-0.04-0.76,1.8-2.12,5.21-2.75
				c0.42-0.07,0.86-0.14,1.33-0.19c0.47-0.06,0.95-0.06,1.45-0.08c1.07-0.03,2.14,0.03,3.21,0.17c2.44,0.34,4.81,1.05,7.03,2.12
				c2.2,1.1,4.22,2.56,5.94,4.31c0.75,0.77,1.44,1.6,2.06,2.47c0.29,0.42,0.55,0.8,0.8,1.21c0.25,0.4,0.45,0.81,0.65,1.19
				c1.54,3.1,1.58,5.38,1.11,5.71c-0.64,0.45-2.62-0.43-5.23-1.72l-4.37-2.22L582.85,313.81z"/>
		</g>
		<g>
			<path class="st16" d="M567.79,274.56c-2.56-4.34-4.4-9.06-5.45-13.99c-0.76-3.88-0.55-6.46,0.19-6.79
				c0.73-0.33,2.72,1.34,5.17,4.24c3.05,3.71,5.81,7.66,8.2,11.82c2.43,4.15,4.49,8.51,6.13,13.03c1.28,3.59,1.76,6.13,1.27,6.51
				c-0.6,0.45-2.96-0.67-5.95-3.22C573.54,282.85,570.32,278.93,567.79,274.56z"/>
		</g>
		<g>
			<path class="st16" d="M585.28,287c-1.98-11.79-0.32-21.8,1.35-22.02c1.66-0.23,5.96,8.84,7.91,20.47
				c1.95,11.63,0.38,21.68-0.82,21.93C592.24,307.68,587.25,298.8,585.28,287z"/>
		</g>
		<g>
			<path class="st16" d="M576.18,223.37c-1.82-5.4-2.94-11.02-3.32-16.71c-0.24-4.43,0.23-7.3,1.04-7.53
				c0.81-0.22,2.57,2.07,4.66,5.91c2.61,4.93,4.79,10.07,6.53,15.36c1.76,5.29,3.05,10.73,3.83,16.25c0.56,4.34,0.53,7.21-0.05,7.47
				c-0.7,0.29-2.81-1.72-5.29-5.4C580.45,233.95,577.97,228.79,576.18,223.37z"/>
		</g>
		<g>
			<path class="st16" d="M589.73,240.23c-0.45-11.23,1.96-20.52,3.65-20.64c1.69-0.12,5.27,8.87,5.73,20.26
				c0.46,11.39-2.87,20.65-4.08,20.66C593.49,260.53,590.19,251.47,589.73,240.23z"/>
		</g>
		<g>
			<path class="st16" d="M580.85,256.85c-2.44-2.07-4.55-4.49-6.26-7.2c-1.35-2.22-1.92-4.04-1.43-4.74c0.49-0.69,2.39-0.74,4.99,0
				c3.23,0.96,6.23,2.6,8.78,4.8c2.56,2.21,4.62,4.95,6,8.04c1.11,2.48,1.3,4.4,0.86,4.83c-0.55,0.55-2.44,0.26-4.85-0.72
				C586,260.63,583.27,258.94,580.85,256.85z"/>
		</g>
		<g>
			<path class="st16" d="M604.11,302.73c-1.39-3.68-2.46-7.46-3.21-11.33c-0.55-3.11-0.55-5.34,0.16-5.78
				c0.72-0.44,2.71,0.62,5.08,3.01c2.97,3.1,5.28,6.78,6.77,10.81c1.51,4.04,2.13,8.35,1.82,12.64c-0.28,3.36-1.11,5.46-1.72,5.55
				c-0.77,0.13-2.22-1.56-3.88-4.27C607.15,309.97,605.46,306.41,604.11,302.73z"/>
		</g>
		<g>
			<path class="st16" d="M612.66,298.67c1.22-4.38,3.12-8.55,5.63-12.33c2.02-2.95,3.85-4.51,4.64-4.23
				c0.79,0.28,1.11,2.65,0.97,6.13c-0.26,4.4-1,8.75-2.21,12.98c-1.2,4.25-2.9,8.35-5.05,12.2c-1.73,3.04-3.29,4.86-3.88,4.74
				c-0.74-0.15-1.49-2.45-1.67-6.01C610.9,307.61,611.43,303.06,612.66,298.67z"/>
		</g>
		<g>
			<path class="st16" d="M604.67,254.45c-2.72-9.66-2.28-18.3-0.68-18.86c1.61-0.55,6.95,6.49,9.71,16.31
				c2.76,9.82,1.4,18.68,0.23,18.97C612.44,271.23,607.4,264.11,604.67,254.45z"/>
		</g>
		<g>
			<path class="st16" d="M614.18,235.11c0.66-5.41,2.02-10.72,4.06-15.77c1.67-3.92,3.26-6.21,4.09-6.05
				c1.58,0.32,2.69,10.75,1.15,23.01c-0.66,5.31-1.86,10.53-3.57,15.6c-1.37,3.97-2.7,6.42-3.32,6.38
				c-0.76-0.06-1.76-2.67-2.39-6.88C613.48,245.99,613.47,240.51,614.18,235.11z"/>
		</g>
		<g>
			<path class="st17" d="M605.46,328.38c13.19,0,23.92-1.4,24.3-3.16l-1.93,26.47c0,12.56-10.05,22.83-22.35,22.83
				c-12.29,0-22.35-10.27-22.35-22.83l-1.93-26.5C581.43,326.96,592.2,328.38,605.46,328.38z"/>
		</g>
		<g>
			<path class="st0" d="M628.92,336.57c-1.67,0.06-3.26,0.85-4.43,2.22c-2.5,2.77-4.04,7.04-6.07,10.3
				c-0.76-1.76-1.43-3.56-2.01-5.4c-0.71-2.22-3.29-4.25-5.3-2.47c-2.09,1.85-3.83,4.14-5.14,6.76c-1.2,2.32-2.18,5.05-4.05,6.78
				s-3.86,2.16-4.59-0.81c-0.66-2.62-0.43-5.42-1.15-8.03c-0.6-2.18-1.58-4.44-3.51-5.4c-2.3-1.14-4.5,0.27-6.54,1.45
				c-1.22,0.7-2.41,1.46-3.58,2.27l0.41,5.59c2.09-1.5,4.64-3.33,6.78-3.69c1.35-0.23,1.26,0.82,1.35,2.29
				c0.08,1.31,0.07,2.62,0.14,3.93c0.13,2.66,0.48,5.32,1.83,7.54c2.92,4.74,8.42,4.51,12.29,1.5c1.99-1.63,3.67-3.72,4.93-6.14
				c0.43-0.78,0.85-1.61,1.28-2.44c1.66,4.44,4.19,8.42,8.38,6.73c2.61-1.04,4.29-4.31,5.84-6.74c0.48-0.75,1.37-2.59,2.26-4.23
				L628.92,336.57z"/>
		</g>
		<g>
			<path class="st16" d="M599.46,269.14c1.08-5.62,2.85-11.09,5.29-16.27c1.94-4.01,3.76-6.3,4.57-6.1
				c1.56,0.43,1.85,11.42-0.65,24.18c-0.63,3.2-1.4,6.21-2.21,8.93c-0.81,2.72-1.67,4.99-2.22,6.92c-0.55,1.92-0.95,3.52-1.2,4.72
				c-0.25,1.2-0.43,1.97-0.73,2.07c-0.3,0.1-1.06-0.34-1.85-1.52c-1.01-1.68-1.68-3.54-1.96-5.48c-0.39-2.7-0.48-5.43-0.26-8.15
				C598.45,275.32,598.85,272.21,599.46,269.14z"/>
		</g>
		<g>
			<path class="st0" d="M629.68,324.89h-3.81c0.04,0.05,0.07,0.12,0.07,0.19c0,0,0,0,0,0.03c-0.04,1.51-9.2,2.73-20.48,2.73
				c-11.29,0-20.44-1.22-20.48-2.73c0,0,0,0,0-0.03c0.01-0.07,0.03-0.14,0.07-0.19h-3.8c-0.04,0.06-0.07,0.13-0.07,0.21
				c0,0.01,0,0.03,0,0.04c0.05,1.79,10.9,3.23,24.28,3.23c13.38,0,24.23-1.45,24.28-3.23c-0.01-0.01-0.01-0.03,0-0.04
				C629.74,325.03,629.72,324.96,629.68,324.89z"/>
		</g>
		<g>
			<path class="st16" d="M615.87,263.7c1.64-4.04,3.97-7.77,6.87-11.02c2.32-2.51,4.31-3.72,5.05-3.33c0.73,0.39,0.8,2.68,0.26,5.96
				c-0.73,4.11-1.9,8.12-3.5,11.97c-0.87,2.09-1.87,4.13-2.99,6.1c-0.92,1.64-1.94,3.22-3.05,4.73c-0.92,1.24-1.62,2.22-2.16,3
				c-0.53,0.78-0.9,1.31-1.21,1.34s-0.95-0.42-1.42-1.46c-0.55-1.44-0.79-2.98-0.7-4.53c0.08-2,0.32-4,0.75-5.96
				C614.26,268.18,614.97,265.9,615.87,263.7z"/>
		</g>
	</g>
	<g>
		<path class="st2" d="M548.77,100.67c1.43-4.99-0.72-10.78-5.05-13.63s-10.5-2.54-14.52,0.74c-0.89-5.04-4.77-9.64-9.8-10.6
			c-5.03-0.96-10.72,2.45-11.56,7.5c-1.51-3.58-5.98-5.32-9.76-4.43c-3.78,0.89-6.79,3.93-8.47,7.43c-1.11,2.29-2.2,5.4-2.18,7.98
			c0.03,3.56,0.65,3.12,4.2,3.27c6.44,0.28,12.88,0.4,19.32,0.59C514.37,99.61,548.38,102.01,548.77,100.67z"/>
	</g>
	<g>
		<path class="st0" d="M662.25,121.33c-0.14-2.55-0.29-5.14-1.28-7.53c-0.99-2.39-2.97-4.58-5.68-5.29
			c-2.7-0.71-6.06,0.48-6.92,2.91c-0.76-3.35-1.56-6.79-3.66-9.64c-2.1-2.84-7.02-4.98-10.73-4.37c-2.55,0.41-4.7,2.04-6.16,3.98
			s-2.32,4.18-3.17,6.4c0-2.32-1.47-4.6-3.7-5.75c-2.23-1.15-5.14-1.12-7.35,0.07c-3.17,1.71-4.28,5.1-5.39,8.07
			c-0.59,1.59-1.11,3.04-1.45,4.69c-0.32,1.58-0.38,3.81-0.38,3.81c0,0.2,5.8,0.09,8.06,0.21c2.92,0.15,5.85,0.3,8.77,0.46
			c5.93,0.31,11.86,0.62,17.79,0.93C647.7,120.63,655.57,120.98,662.25,121.33z"/>
	</g>
	<g>
		<path class="st10" d="M544.94,376.33c-2.57,1.1-7.47,0.93-10.27-0.38c-0.17,0.25-0.34,0.5-0.55,0.73
			c-0.74,0.85-4.57,4.06-5.74,4.25c-1.88,0.3-4.05-0.13-6.48,1.28c-1.12,0.64-3,2.89-1.52,3.11c2.09,0.3,5.63,0.36,6.68,0.26
			c5.17-0.52,7.47-0.17,12.77,0.09c2.57,0.13,6.1,0.35,6.86-0.89c0.87-1.42-0.08-4.52-0.58-5.83
			C545.65,377.73,545.25,377.04,544.94,376.33z"/>
		<path class="st18" d="M544.62,376.46c-0.4-0.89-0.34-1.91-0.45-3.84c-0.15-2.58,0.55-5.28,0.66-7.9c0.36-8.15,2.65-20,2.22-28.15
			c-0.37-6.95-0.66-13.97-4.36-20.07l-10.82,3.86c0.03,6.69,2.45,14.38,2.48,20.98c0.03,7.56,1.08,13.49,1.45,21.09
			c0.27,5.51,1.46,10.54-0.62,13.74C537.97,377.48,542.04,377.56,544.62,376.46z"/>
		<g>
			<path class="st18" d="M498.89,317.02c-0.83,14.64-1.73,29.81-4.77,44.26c-0.8,3.81-1.97,9.93-3.49,14.47l0.11,0.74l4.43,0.4
				l4.62-0.54c2.68-17.38,14.34-35.17,11.77-55.63L498.89,317.02z"/>
		</g>
		<g>
			<path class="st10" d="M508.59,207.67c-0.7-1.48-0.45-4.13-1.09-6.05c-0.53-1.59-1.8-3.34-2.48-4.96
				c-1.34-3.2-2.17-7.29-2.89-10.79c-0.62-3-1.13-11.55,0.65-14.17c2.1-3.08,5.51-4.68,8.7-4.68c10.04,0,18.43,9.8,23.37,18.18
				c2.85,4.83,6.57,8.9,9.65,13.48c3.51,5.2,13.52,13.85,15.41,19.83c2.98,9.4-10.66,21.19-24.56,19.65
				c-3.83-5.14-9.73-8.48-14.11-13.16C516.29,219.69,511.7,214.23,508.59,207.67z"/>
		</g>
		<g>
			<path class="st18" d="M528.89,197.1l-5.87,2.69l-10.28,2.46l-0.08-1.35c0-2.81,0.77-7.47-0.3-10.04
				c-1.54-3.7-3.74-0.68-6.13-2.96c-1.45-3.4-1.54-9.02-0.6-13l0,0c1.94,2.1,3.96,4.46,7.17,4.55c3.04,0.09,5.63-1.19,5.78,2.14
				c0.14,3.08-2.63,4.16,0.46,7.1c1.49,1.42,4.18,1.91,5.88,3.37C526.5,193.41,527.89,195.44,528.89,197.1"/>
		</g>
		<g>
			<path class="st19" d="M509.29,236.81c-3.59-1.17-6.03-2.89-5.96-7.14c-7.25-0.3-16.46,4.51-23.27,5.09
				c-5.84,0.5-5.56-2.79-10.49-4.09c-0.5-0.05-0.85,0.45-0.03,0.98c1.28,0.83,1.15,2.06,0.4,2.09c-1.32,0.05-4.36-2.5-6.56-2.84
				c-0.86-0.13-1.37-0.3-1.61,0.73c-0.21,0.9,1.55,1.77,3.04,2.88c3.32,2.47,7.65,4.13,9.7,4.69c1.97,0.54,10.75,0.83,15.76,1.68
				c5.7,0.97,12.73,1.79,18.71,1c0.02,0,0.04,0,0.05-0.01c2.66-0.36,4.66-1.8,6.34-3.67C513.45,237.86,511.29,237.46,509.29,236.81z
				"/>
		</g>
		<g>
			<path class="st20" d="M519.25,199.59c-2.33,1.34-2.74,2.15-6.59,1.3c-1.22,2.91-3.49,7.99-5.81,12.1
				c-3.02,5.35-3.31,10.88,1.4,11.56c1.6-2.55,5.17-10.62,6.38-13.44C515.71,208.58,517.31,202.99,519.25,199.59z"/>
		</g>
		<g>
			<path class="st20" d="M543.81,278.62c-1.26-11.84,0.47-23.16-4.65-33.95c-3.25-6.84-5.74-12.87-7.16-20.25
				c-0.73-3.78-0.36-7.67-0.04-11.51c-2.61,1.35-4.35,5.54-5.45,7.97c-1.66,3.67-4.16,7.41-6.42,10.69
				c-1.51,2.19-4.59,6.67-4.73,6.65c-1.68,1.87-3.16,2.85-5.28,3.46c-0.02,0,0.02,0,0,0l0,0c0.73,6.87-2.23,14.46-3.33,21.19
				c-1.16,7.08-3.81,15.36-4.58,22.42c-1.14,10.44-4.47,21.59-4.07,32.13c5.09,4.44,16.19,4.4,22.71,4.4
				c7.94,0.01,17.68-1.07,24.37-5.76v-0.34C545.18,303.52,545.11,290.84,543.81,278.62z"/>
		</g>
		<g>
			<path class="st10" d="M490.56,375.38c-1.52,2.87-3.13,4.92-5.07,5.34c-0.88,0.19-3.15,0.22-5.11,0.53
				c-2.36,0.38-4.74,4.26-2.27,4.23c2.52-0.03,9.74,0.05,12.32-0.08c2.35-0.12,8.83,0.6,10.85-0.78c1.85-1.26-0.67-5.6-1.16-8.55
				C497.11,375.88,493.6,375.38,490.56,375.38L490.56,375.38z"/>
		</g>
		<g>
			<path class="st21" d="M531.32,200.55c-1.63-4.89-5.08-4.64-8.99-2.67c-1.21,0.61-2.18,1.2-3.07,1.71
				c-1.94,3.4-3.54,8.99-4.62,11.52c-1.2,2.82-2.64,5.4-4.25,7.95c-0.49,0.78-0.99,1.55-1.51,2.33c-1.75,2.63-3.15,6.09-5.7,7.95
				c-0.18,0.07-0.36,0.11-0.53,0.15c-0.07,4.25,3.06,6.14,6.64,7.31c2,0.65,4.16,1.05,6.08,1.4c1.78-1.98,3.22-4.45,4.73-6.65
				c2.26-3.28,4.76-7.01,6.42-10.69c1.1-2.43,2.84-6.63,5.45-7.97C532.32,208.65,532.62,204.46,531.32,200.55z"/>
		</g>
	</g>
	<g>
		<g>
			<path class="st10" d="M403.66,161.28l-14.92,8.98c-0.86,0.12-2.34-0.31-2.96-0.91c-0.63-0.6-1.06-1.36-1.48-2.12
				c-0.85-1.53-1.71-3.06-2.56-4.59c-0.49-0.87-0.98-1.78-0.99-2.78c-0.01-1.02,0.49-1.97,1.02-2.84c0.97-1.61,2.13-3.21,3.82-4.05
				c0.98-0.48,2.22-0.65,3.12-0.03c0.29,0.2,0.54,0.48,0.86,0.61c0.78,0.31,1.58-0.3,2.26-0.79c1.09-0.79,2.34-1.35,3.66-1.63
				c0.95-0.21,2.13-0.19,2.68,0.62c0.26,0.37,0.32,0.86,0.58,1.23c0.39,0.57,1.14,0.76,1.83,0.77c0.69,0,1.38-0.14,2.06-0.08
				c1.54,0.14,2.89,1.47,3.07,3.01C405.89,158.22,405.13,160.79,403.66,161.28z"/>
		</g>
		<g>
			<path class="st22" d="M411.14,216.94c0.1,1.12,2.49,2.89,3.62,2.9l0.39,1.53l-17.02,2.38l-0.23-2.85L411.14,216.94z"/>
		</g>
		<g>
			<path class="st23" d="M399.31,185.2c5.88,9.46,9.48,20.12,13.03,30.68c-2.37,2.58-5.72,3.89-9.1,4.83
				c-2.14,0.59-5.81,1.23-5.81,1.23l-0.93-29.87L399.31,185.2z"/>
		</g>
		<g>
			<path class="st24" d="M400.71,187.73c0,0-2.08-3.98-3.05-5.01s-1.31-1.42-1.31-1.42s-6.61-3.56-8.03-3.77
				c-1.42-0.21-2.61-0.25-3.68,0.73c-1.06,0.98-1.85,1.14-1.85,1.14s-3.38,0.52-5.09,0.78c-1.7,0.26-4.38,0.59-4.38,0.59
				s-2.21,0.64-3.11,1.54s-6.24,18.65-6.24,18.65c0.8,8.36,1.19,19.3,0.6,25.7s-1.71,12.93-5.02,18.45
				c12.22,0.15,24.44,0.3,36.66,0.45c0.25-3.19,0.58-6.37,0.76-9.56c0.3-5.27,1.9-13.85,1.9-13.85c2.12-8.89,4.9-27.39,2.23-33.88"
				/>
		</g>
		<g>
			<path class="st18" d="M394.54,182.9c0.4,0.23,0.91,0.47,1.29,0.21c0.28-0.19,0.36-0.57,0.4-0.91c0.36-2.66,0.73-5.31,1.09-7.97
				c1.76,1.38,4.55,0.49,5.86-1.33c1.31-1.82,1.48-3.99,1.37-6.22c-0.11-2.23-0.55-4.27-0.85-6.34c-2.68-0.01-4.84-0.29-7.71-0.15
				c-0.72,0.03-1.48,0.08-2.08,0.49c-1.76,1.19-1.04,4.57-3.01,5.36c-0.01-1.42-1.15-2.07-2.19-1.58c-1.04,0.5-1.43,1.79-1.39,2.94
				c0.09,2.13,2.42,2.93,2.25,5.56c-0.06,0.9-0.29,2.42-0.52,3.29c-0.19,0.7-1.36,1.93-1.26,2.49
				C388.02,179.99,393.4,182.23,394.54,182.9z"/>
		</g>
		<path class="st23" d="M393.96,182.09c0.01,0,1.84-1.07,2.41-1.9c0.04-0.06,0.09-0.12,0.15-0.14c0.13-0.03,0.22,0.13,0.25,0.25
			c0.7,2.3,0.43,4.3-0.42,6.55c-0.43-1.24-0.72-1.93-1.32-3.1C394.71,183.15,393.96,182.09,393.96,182.09s-0.82-0.46-1.21-0.67
			c-2.3-1.23-5.31-4.13-4.15-4.32c0.13-0.02-1.11-0.63-2.24-0.13c-0.48,0.21-2.12,1.08-2.51,1.43c-1.05,0.93,0.19,1.67,0.9,2.3
			c1.83,1.61,3.13,2.75,4.96,4.36c1.03,0.91,2.58,1.82,3.62,2.73c0.41-1.71,0.65-3.01,0.7-4.76
			C394.03,182.75,394.04,182.35,393.96,182.09"/>
		<g>
			<polygon class="st9" points="462.13,218.05 415.66,218.49 415.66,172.43 460.51,172.17 			"/>
			<polygon class="st10" points="471.99,210.57 462.13,218.05 460.51,172.17 470.13,163.59 			"/>
			<polygon class="st11" points="427.39,164.16 415.66,172.43 460.51,172.17 470.13,163.59 			"/>
		</g>
		<g>
			<path class="st19" d="M392.99,218.21c0.12,1.96,2.02,3.64,3.28,3.96c1.27,0.32,2.6,0.13,3.89-0.07c8.8-1.37,17.61-2.73,26.41-4.1
				c1.97-0.31,4-0.63,5.71-1.67c1.35-0.82,2.41-2.03,3.62-3.04c1.21-1.01,2.71-1.86,4.29-1.71c0.64-0.02,1.15,0.56,0.6,1.07
				c-1.47,1.36-1.96,2.21-2.36,3.7c-0.11,0.4,0.06,1,0.32,1.32c0.3,0.36,1.09,0.49,1.64,0.48c2.01-0.04,5.17,0.04,7.18,0
				c0.43-0.01-0.25,0.88-0.69,1.27c-5.36,4.79-11.74,6.95-18.68,8.83c-6.02,1.63-13.52,3.32-19.69,4.26
				c-5.02,0.76-9.16,1.5-14.19,2.26c-1.71,0.26-4.46,0.51-6.14,0.16c-2.16-0.45-3.01-0.88-4.39-2.6c-1.38-1.72-2.92-4.47-3.87-6.45"
				/>
		</g>
		<g>
			<path class="st23" d="M375.32,183.02c-1.26-0.99-3.35-1.26-4.34-1.01c-1.48,0.38-2.83,1.04-3.96,2.07
				c-1.28,1.18-1.93,2.52-2.45,4.19c-0.95,3.04-1.23,7.05-1,10.23c0.26,3.57,1.96,6.85,3.62,10.02c3.16,6,6.35,12.06,10.8,17.19
				c0.3,0.35,0.64,0.71,1.1,0.82c0.68,0.16,1.32-0.31,1.87-0.74c3.89-3.06,8.33-5.44,13.03-6.99c-3.49-9.51-7.62-18.59-12.83-27.27
				C379.12,188.11,377.38,184.64,375.32,183.02z"/>
		</g>
		<g>
			<path class="st25" d="M387.61,281.27c-1.88-11-1.03-26.74,0.75-36.13l-27.7-0.45c-2.71,11.48-3.48,24.71-2.26,36.58H387.61z"/>
		</g>
		<g>
			<path class="st26" d="M397.98,281.27c-0.35-11.61-1.04-24.53-2.02-36l-7.61-0.12c-1.78,9.38-2.62,25.12-0.75,36.13H397.98z"/>
		</g>
	</g>
</g>
</svg>
