<svg viewBox="0 0 842 595" xmlns="http://www.w3.org/2000/svg"><path d="m218.53 155.96c-34.57 14.25-62.8 43.2-76.17 78.13s-11.69 75.32 4.52 109.02c17.88 37.15 51.1 64.08 79.01 94.43 27.05 29.41 50.9 63.82 86.63 81.7 27.61 13.82 60.79 16.09 90.02 6.15 26.94-9.16 50.4-28.06 78.42-33.05 20.56-3.67 41.6.54 62.46 1.46s43.74-2.36 58.16-17.47c12.8-13.41 16.07-33.02 18.75-51.37 4.51-30.85 9.01-61.7 13.52-92.54 3.66-25.03 7.15-51.49-2.52-74.86-8.91-21.53-27.78-37.24-47.19-50.12-45.66-30.29-98.38-49.88-152.74-56.76" fill="#f3e5d7" opacity=".5"/><path d="m466.2 103.37c-1.06-4.67 1.22-9.9 5.37-12.31s9.82-1.79 13.35 1.44c1.09-4.6 4.9-8.64 9.59-9.26s9.76 2.82 10.26 7.52c1.58-3.22 5.79-4.59 9.23-3.57s6.05 3.98 7.43 7.29c.9 2.17 1.75 5.09 1.59 7.47-.21 3.28-.77 2.84-4.05 2.8-5.95-.08-11.9-.31-17.85-.46-3.15-.1-34.64.34-34.92-.92z" fill="#e7f0fa"/><path d="m629.43 86.96c-1.06-4.67 1.22-9.9 5.37-12.31 4.14-2.41 9.82-1.79 13.35 1.44 1.09-4.6 4.9-8.64 9.59-9.26s9.76 2.82 10.26 7.52c1.58-3.22 5.79-4.59 9.23-3.57s6.05 3.98 7.43 7.29c.9 2.17 1.75 5.09 1.59 7.47-.21 3.28-.77 2.84-4.05 2.8-5.95-.08-11.9-.31-17.85-.46-3.15-.09-34.63.35-34.92-.92z" fill="#e7f0fa"/><path d="m590.38 143.79c.22-2.34.45-4.73 1.45-6.9s2.91-4.12 5.43-4.68 5.58.66 6.28 2.94c.82-3.06 1.68-6.21 3.72-8.76s6.65-4.34 10.06-3.65c2.34.47 4.26 2.05 5.54 3.89s1.99 3.94 2.7 6.02c.08-2.14 1.52-4.19 3.62-5.17s4.78-.85 6.78.33c2.87 1.69 3.76 4.86 4.69 7.64.49 1.49.92 2.84 1.17 4.38.24 1.47.22 3.53.22 3.53-.01.18-5.36-.12-7.45-.09-2.7.04-5.41.07-8.11.11-5.48.07-10.97.15-16.45.22-6.2.06-13.47.1-19.65.19z" fill="#b3b6dd"/><path d="m532.41 133.18h-364.79c-10.93 0-19.63 8.69-19.63 19.63v219.62c0 10.94 8.69 19.64 19.63 19.64h130.66l-12.62 39.83h-36.17c-2.8 0-5.33 2.24-5.33 5.33v3.08c0 2.8 2.24 5.33 5.33 5.33h31.69 137.39 31.69c2.8 0 5.33-2.24 5.33-5.33v-3.08c0-2.8-2.24-5.33-5.33-5.33h-35.89l-12.62-39.83h130.66c10.93 0 19.63-8.69 19.63-19.64v-219.62c0-10.93-8.7-19.63-19.63-19.63z" fill="#b3b6dc"/><path d="m169.02 144.68h361.99c4.49 0 8.13 3.65 8.13 8.13v190.73c0 4.49-3.65 8.13-8.13 8.13h-361.99c-4.48 0-8.13-3.65-8.13-8.13v-191.01c.28-4.48 3.93-7.85 8.13-7.85z" fill="#efebf6"/><path d="m348.19 382.53c5.89 0 10.66-4.77 10.66-10.66s-4.77-10.66-10.66-10.66c-5.88 0-10.65 4.77-10.65 10.66s4.77 10.66 10.65 10.66z" fill="#efebf6"/><path d="m258.9 290.73 63.16 80.42 68.83-180.2zm107.06-65.68-24.08 62.26-19.81-28.91zm-46.96 121.44-42.17-53.7 36.2-27.51 23.89 34.88z" fill="#849b8b"/><path d="m491.73 456.05s2.91 3.43 5.58 7.04c2.67 3.62 2.8 6.88 2.8 6.88s-2.95 1.49-7.8 3.36c-7.34 2.83-17.1 8.06-20.79 7.84-4.38-.26-4.09-5.24 1.45-9.16 3.42-2.42 6.87-3.93 6.84-7.25-.02-2.36-2.32-6.07-2.32-6.07" fill="#f8e391"/><path d="m432.55 462.15s.31 5.5 1.26 10.22c.94 4.72.79 9.47-.47 9.94s-6.37.68-11.24.79c-4.88.11-20.34 1.22-23.19 1.22-2.28 0-1.43-6.72 4.01-8.21 2.43-.67 5.77-1.35 8.32-1.79 3.09-.54 5.56-2.57 6.17-3.77 1.1-2.2.69-8.39.69-8.39" fill="#f8e391"/><path d="m417.14 299.17s-5.66 18.08-7.54 35.84-.16 39.77 0 47.32 7.68 85.74 7.68 85.74h17.13c5.74-50.1 4.7-50.78 5.52-63.89.79-12.42-3.9-19.49-3.84-22.64.06-3.14.69-9.55.69-9.55l3.23-6.17 6.78-73.73z" fill="#2d3066"/><path d="m466.82 276.21s1.26.71 4.24 7.55c6.76 15.5 3.3 31.13 1.73 44.8-1.57 13.68-4.56 48.73-4.56 48.73s6.76 9.75 10.53 21.07 14.85 58.74 14.85 58.74l-14.92 5.94s-38.54-78.19-41.16-87c-2.62-8.8-.61-47.84.84-57.22.14-.9-.63-21.23-.63-21.23" fill="#3e4677"/><path d="m466.5 334.54-135.04-58.11c-1.23 7-4.07 13.45-8.15 18.93.02.01.05.04.05.04l133 58.25s4.01 0 7.78-6.84c3.78-6.85 2.36-12.27 2.36-12.27z" fill="#b3b6dc"/><path d="m331.15 276.29s-12.2-2.17-23.65-4.2c-.55 3.24-1.86 6.22-3.75 8.76 9.19 6.82 19.01 14.1 19.56 14.51 4.08-5.48 6.92-11.93 8.15-18.93z" fill="#f3e5d7"/><path d="m287.76 268.98c.08.06 7.78 5.77 16 11.86 1.88-2.53 3.19-5.51 3.75-8.76-10.04-1.78-19.5-3.46-19.6-3.48-.21-.02-.32.26-.15.38z" fill="#2d3066"/><path d="m326.14 291.07 135.85 58.94" fill="none" stroke="#f3e5d7" stroke-miterlimit="10" stroke-width="2"/><path d="m330.01 282.33 136.3 58.84" fill="none" stroke="#f3e5d7" stroke-miterlimit="10" stroke-width="2"/><path d="m405.97 249.65c-2.08 3.42-9.86 12.62-13.46 16.86s-18.26 17.34-20.73 17.22c-2.48-.12-10.69-9.32-14.23-17.57s-11.33-25.53-12.03-29.69c-.7-4.15 5.17-6.78 7.26-2.79 2.1 4.02 15.7 26.34 17.35 29.41s2.36 3.07 2.36 3.07 10.69-12.58 14.46-16.82 11.2-13.48 11.2-13.48z" fill="#973f5b"/><path d="m471.06 283.76s-9.97-34.43-12.22-44.96l-4.24 2.91c-.08 14.34-42.02 4.58-43.86 8.53-1.95 4.18 7.31 31.54 6.4 48.93 4.92-.02 17.91-.19 25.16-1.42 12.1-2.04 23.1-8.64 28.76-13.99z" fill="#f9b567"/><path d="m353.01 234.03c-2.31-4.29-4.31-13.14-9.77-12.08-5.55 1.08-2.51 7.2.94 13.7 2.35 4.43 3.15 5.51 3.15 5.51z" fill="#973f5b"/><path d="m401.66 259.39c1.05-1.13 5.27-9.9 6.15-11.55l-3.55-27.13c-5.26 4.95-13.04 17.03-16.74 24.27 4.9 4.33 11.83 10.77 14.14 14.41z" fill="#f8e391"/><path d="m399.65 295.39c-4.56 1.73-13.52 5.82-14.31 9.28s.94 5.66 3.46 5.03 5.82-3.62 8.8-4.87 7.94-3.3 7.94-3.3l-3.06-6.92z" fill="#973f5b"/><path d="m442.45 268.98c1.26-2.2-3.62-42.6-3.62-42.6s-.91-12.33 6-19.06c-2.88-.26-6.11-.13-9.62.32l-18.08 5.88c-5.03.76-12.89 7.21-12.89 7.21s.72 18.93 2.45 24.27c1.73 5.35 6.51 22.73 7.77 28.08.44 1.87.9 5.64 1.31 9.73 10.13-6.15 26.03-12.68 26.68-13.83z" fill="#f9b567"/><path d="m410.1 195.94c-3.42.4-8.73-2.83-8.61-9.08s-.31-13.15 5.35-15.15 12.26-6.79 18.39-3.14c6.13 3.66 12.3 8.61 12.18 16.51s-4.91 12.46-7.86 14.55-8.73 2.44-8.73 2.44z" fill="#444"/><path d="m416.04 207.85c-3.56-.63-7.55-4.4-8.8-8.96-1.26-4.56-2.06-15.24 0-17.14 1.45-1.34 2.12-.28 4.56-.71 1.86-.33 3.24-2.28 6.26-1.34s3.96 5.5 4.75 7.23 1.77 3.88 3.4 2.93c2.71-1.59 5.09 1.04 4.3 3.77s-4.4 4.46-4.56 6.19.31 7.55 2.52 8.02c2.2.47 4.71.43 4.71.43s.32 7.11-5.97 10.1-9.75 1.13-12.11-4.22c0 0 2.46-1.13 2.96-2.38.49-1.25-.09-3.58-2.02-3.92z" fill="#973f5b"/><path d="m459.9 232.31s-2.48 39.08-3.89 42.42-10.61 9.11-16.51 11.94-29.6 13.05-33.96 14.86-5.27-3.77-5.27-3.77-3.69-1.13-1.06-2.19 16.48-10.5 24.14-16.32c5.34-4.06 14.46-9.23 15.36-10.63.91-1.4 1.61-35.12 1.61-35.12z" fill="#973f5b"/><path d="m438.21 243.72c6.01-1.31 9.72-2.36 14.82-1.91 2.53.22 5.43.56 7.46.85-.18-7.45-.32-21.49-1.06-24.54-1.42-5.85-6.11-9.15-11.5-10.34-.98-.22-2.01-.37-3.09-.47-6.91 6.73-6 19.06-6 19.06s-.54 11.53-.63 17.35z" fill="#f8e391"/><path d="m263.49 138.09c-2.38-.07-4.73.47-7.06.93-2.34.46-4.73.85-7.09.5-1.34-.2-2.76-.75-3.39-1.95-.65-1.24-.2-2.83.7-3.91.91-1.07 2.19-1.74 3.44-2.38 3.99-2.05 8.67-4.5 11.23-8.19s1.58-10.03-2.78-11.12c-3.19-.8-6.4 1.57-8.05 4.41s-2.28 6.15-3.65 9.14c-1.37 2.98-4.02 6.79-6.31 5.74s-.03-7.39 1.23-11.24.66-9.22-2.82-11.29c-3-1.79-7.17.18-8.7 3.32-1.53 3.13-1.02 6.9.14 10.19 1.1 3.12 2.76 6.15 2.85 9.46.08 3.31-2.24 7.03-5.55 6.9-2.76-.11-4.77-2.82-5.34-5.52s-.14-5.51-.31-8.26c-.18-2.76-1.2-5.76-3.66-7.01-3.31-1.69-7.51.84-8.97 4.25s-.96 7.31-.44 10.99c.92 6.46 1.84 12.92 2.76 19.37.25 1.78.5 3.63-.03 5.35s-2.08 3.26-3.88 3.17c-2.33-.12-3.68-2.72-4.09-5.02-.66-3.73-.12-7.56.17-11.34s.3-7.74-1.32-11.17-5.29-6.15-9.03-5.55c-4.55.73-7.09 5.72-7.88 10.26-2.22 12.85 3.72 26.07 1.47 38.91-.6 3.44-2.67 7.43-6.16 7.34-2.95-.08-4.91-3.15-5.62-6.02-1.36-5.5-.15-11.31-.88-16.93-.72-5.62-4.66-11.73-10.32-11.5-1.14.05-2.2.36-3.17.85-.05.83-.09 1.44-.11 1.75v81.73c7.04.97 14.1 1.78 21.17 2.42 3 .27 6.06.5 9.01-.12s5.83-2.22 7.31-4.85c1.48-2.62 1.18-6.34-1.16-8.24-2.08-1.69-5.03-1.6-7.7-1.58-6.37.05-12.74-.73-18.9-2.34-1.48-.39-3.09-.93-3.83-2.27-.83-1.51-.11-3.52 1.22-4.61 1.33-1.1 3.11-1.47 4.83-1.63 11.61-1.11 22.55 5.61 34.17 6.61 2.97.26 6.12.09 8.7-1.41s4.38-4.66 3.53-7.52c-1.13-3.8-5.77-5.05-9.68-5.68-4.15-.68-8.3-1.35-12.45-2.03-1.97-.32-3.98-.65-5.75-1.57-1.77-.91-3.31-2.52-3.61-4.5-.31-1.99.71-4.02 2.25-5.31 1.54-1.3 3.52-1.94 5.51-2.27 7.92-1.29 15.73 2.12 23.57 3.83 5.94 1.3 12.09 1.63 18.14.97 3.53-.38 7.57-1.53 8.91-4.82 1.21-2.98-.51-6.5-3.12-8.38s-5.88-2.5-9.05-3.08c-6.58-1.2-12.3-1.81-18.79-3.38-1.65-.4-1.94-2.88-1.18-3.88s2-1.51 3.22-1.84c5.19-1.4 10.71-.29 15.83 1.34 5.12 1.64 10.1 3.81 15.41 4.62 2.28.35 4.67.42 6.83-.39s4.04-2.65 4.36-4.94c.35-2.5-1.26-4.96-3.38-6.34s-4.67-1.88-7.17-2.29c-2.49-.41-5.05-.75-7.31-1.88-2.05-1.02-3.93-3.1-3.5-5.35.45-2.31 3.04-3.5 5.36-3.91 6.18-1.11 11.98 1.15 18.19 2.11 1.51.24 3.06.43 4.57.19 1.51-.23 3.49-1.51 4.37-2.76 1.36-1.95.83-4.81-.79-6.55-1.62-1.72-4.09-2.47-6.47-2.53z" fill="#becec2"/></svg>
