<?xml version="1.0" encoding="utf-8"?>
<!-- Generator: Adobe Illustrator 24.3.0, SVG Export Plug-In . SVG Version: 6.00 Build 0)  -->
<svg version="1.1" xmlns="http://www.w3.org/2000/svg" xmlns:xlink="http://www.w3.org/1999/xlink" x="0px" y="0px"
	 viewBox="0 0 841.89 595.28" style="enable-background:new 0 0 841.89 595.28;" xml:space="preserve">
<style type="text/css">
	.st0{opacity:0.5;fill:#F3E5D7;}
	.st1{fill:#E7F0FA;}
	.st2{fill:#B3B6DD;}
	.st3{fill:#B3B6DC;}
	.st4{fill:#EFEBF6;}
	.st5{fill:#849B8B;}
	.st6{fill:#F8E391;}
	.st7{fill:#2D3066;}
	.st8{fill:#3E4677;}
	.st9{fill:#F3E5D7;}
	.st10{fill:none;stroke:#F3E5D7;stroke-width:2;stroke-miterlimit:10;}
	.st11{fill:#973F5B;}
	.st12{fill:#F9B567;}
	.st13{fill:#444444;}
	.st14{fill:#BECEC2;}
</style>
<g id="background">
	<path class="st0" d="M218.53,155.96c-34.57,14.25-62.8,43.2-76.17,78.13s-11.69,75.32,4.52,109.02
		c17.88,37.15,51.1,64.08,79.01,94.43c27.05,29.41,50.9,63.82,86.63,81.7c27.61,13.82,60.79,16.09,90.02,6.15
		c26.94-9.16,50.4-28.06,78.42-33.05c20.56-3.67,41.6,0.54,62.46,1.46c20.86,0.92,43.74-2.36,58.16-17.47
		c12.8-13.41,16.07-33.02,18.75-51.37c4.51-30.85,9.01-61.7,13.52-92.54c3.66-25.03,7.15-51.49-2.52-74.86
		c-8.91-21.53-27.78-37.24-47.19-50.12c-45.66-30.29-98.38-49.88-152.74-56.76"/>
	<g>
		<path class="st1" d="M466.2,103.37c-1.06-4.67,1.22-9.9,5.37-12.31s9.82-1.79,13.35,1.44c1.09-4.6,4.9-8.64,9.59-9.26
			s9.76,2.82,10.26,7.52c1.58-3.22,5.79-4.59,9.23-3.57c3.44,1.02,6.05,3.98,7.43,7.29c0.9,2.17,1.75,5.09,1.59,7.47
			c-0.21,3.28-0.77,2.84-4.05,2.8c-5.95-0.08-11.9-0.31-17.85-0.46C497.97,104.19,466.48,104.63,466.2,103.37z"/>
	</g>
	<g>
		<path class="st1" d="M629.43,86.96c-1.06-4.67,1.22-9.9,5.37-12.31c4.14-2.41,9.82-1.79,13.35,1.44c1.09-4.6,4.9-8.64,9.59-9.26
			c4.69-0.62,9.76,2.82,10.26,7.52c1.58-3.22,5.79-4.59,9.23-3.57c3.44,1.02,6.05,3.98,7.43,7.29c0.9,2.17,1.75,5.09,1.59,7.47
			c-0.21,3.28-0.77,2.84-4.05,2.8c-5.95-0.08-11.9-0.31-17.85-0.46C661.2,87.79,629.72,88.23,629.43,86.96z"/>
	</g>
	<g>
		<path class="st2" d="M590.38,143.79c0.22-2.34,0.45-4.73,1.45-6.9c1-2.17,2.91-4.12,5.43-4.68s5.58,0.66,6.28,2.94
			c0.82-3.06,1.68-6.21,3.72-8.76c2.04-2.55,6.65-4.34,10.06-3.65c2.34,0.47,4.26,2.05,5.54,3.89c1.28,1.84,1.99,3.94,2.7,6.02
			c0.08-2.14,1.52-4.19,3.62-5.17c2.1-0.98,4.78-0.85,6.78,0.33c2.87,1.69,3.76,4.86,4.69,7.64c0.49,1.49,0.92,2.84,1.17,4.38
			c0.24,1.47,0.22,3.53,0.22,3.53c-0.01,0.18-5.36-0.12-7.45-0.09c-2.7,0.04-5.41,0.07-8.11,0.11c-5.48,0.07-10.97,0.15-16.45,0.22
			C603.83,143.66,596.56,143.7,590.38,143.79z"/>
	</g>
</g>
<g id="screen">
	<g>
		<path class="st3" d="M532.41,133.18H167.62c-10.93,0-19.63,8.69-19.63,19.63v219.62c0,10.94,8.69,19.64,19.63,19.64h130.66
			l-12.62,39.83h-36.17c-2.8,0-5.33,2.24-5.33,5.33v3.08c0,2.8,2.24,5.33,5.33,5.33h31.69h137.39h31.69c2.8,0,5.33-2.24,5.33-5.33
			v-3.08c0-2.8-2.24-5.33-5.33-5.33h-35.89l-12.62-39.83h130.66c10.93,0,19.63-8.69,19.63-19.64V152.81
			C552.04,141.88,543.34,133.18,532.41,133.18z"/>
		<path class="st4" d="M169.02,144.68h361.99c4.49,0,8.13,3.65,8.13,8.13v190.73c0,4.49-3.65,8.13-8.13,8.13H169.02
			c-4.48,0-8.13-3.65-8.13-8.13V152.53C161.17,148.05,164.82,144.68,169.02,144.68z"/>
		<path class="st4" d="M348.19,382.53c5.89,0,10.66-4.77,10.66-10.66c0-5.89-4.77-10.66-10.66-10.66c-5.88,0-10.65,4.77-10.65,10.66
			C337.54,377.76,342.31,382.53,348.19,382.53z"/>
	</g>
</g>
<g id="ruler">
	<path class="st5" d="M258.9,290.73l63.16,80.42l68.83-180.2L258.9,290.73z M365.96,225.05l-24.08,62.26l-19.81-28.91L365.96,225.05
		z M319,346.49l-42.17-53.7l36.2-27.51l23.89,34.88L319,346.49z"/>
</g>
<g id="legs">
	<path class="st6" d="M491.73,456.05c0,0,2.91,3.43,5.58,7.04c2.67,3.62,2.8,6.88,2.8,6.88s-2.95,1.49-7.8,3.36
		c-7.34,2.83-17.1,8.06-20.79,7.84c-4.38-0.26-4.09-5.24,1.45-9.16c3.42-2.42,6.87-3.93,6.84-7.25c-0.02-2.36-2.32-6.07-2.32-6.07"
		/>
	<path class="st6" d="M432.55,462.15c0,0,0.31,5.5,1.26,10.22c0.94,4.72,0.79,9.47-0.47,9.94c-1.26,0.47-6.37,0.68-11.24,0.79
		c-4.88,0.11-20.34,1.22-23.19,1.22c-2.28,0-1.43-6.72,4.01-8.21c2.43-0.67,5.77-1.35,8.32-1.79c3.09-0.54,5.56-2.57,6.17-3.77
		c1.1-2.2,0.69-8.39,0.69-8.39"/>
	<path class="st7" d="M417.14,299.17c0,0-5.66,18.08-7.54,35.84s-0.16,39.77,0,47.32c0.16,7.55,7.68,85.74,7.68,85.74h17.13
		c5.74-50.1,4.7-50.78,5.52-63.89c0.79-12.42-3.9-19.49-3.84-22.64c0.06-3.14,0.69-9.55,0.69-9.55l3.23-6.17l6.78-73.73
		L417.14,299.17z"/>
	<path class="st8" d="M466.82,276.21c0,0,1.26,0.71,4.24,7.55c6.76,15.5,3.3,31.13,1.73,44.8c-1.57,13.68-4.56,48.73-4.56,48.73
		s6.76,9.75,10.53,21.07s14.85,58.74,14.85,58.74l-14.92,5.94c0,0-38.54-78.19-41.16-87c-2.62-8.8-0.61-47.84,0.84-57.22
		c0.14-0.9-0.63-21.23-0.63-21.23"/>
	<path class="st3" d="M496.69,477.91"/>
</g>
<g id="pencil">
	<path class="st3" d="M466.5,334.54l-135.04-58.11c-1.23,7-4.07,13.45-8.15,18.93c0.02,0.01,0.05,0.04,0.05,0.04l133,58.25
		c0,0,4.01,0,7.78-6.84C467.92,339.96,466.5,334.54,466.5,334.54z"/>
	<path class="st9" d="M331.15,276.29c0,0-12.2-2.17-23.65-4.2c-0.55,3.24-1.86,6.22-3.75,8.76c9.19,6.82,19.01,14.1,19.56,14.51
		c4.08-5.48,6.92-11.93,8.15-18.93L331.15,276.29z"/>
	<path class="st7" d="M287.76,268.98c0.08,0.06,7.78,5.77,16,11.86c1.88-2.53,3.19-5.51,3.75-8.76c-10.04-1.78-19.5-3.46-19.6-3.48
		C287.7,268.58,287.59,268.86,287.76,268.98z"/>
	<line class="st10" x1="326.14" y1="291.07" x2="461.99" y2="350.01"/>
	<line class="st10" x1="330.01" y1="282.33" x2="466.31" y2="341.17"/>
</g>
<g id="body">
	<path class="st11" d="M405.97,249.65c-2.08,3.42-9.86,12.62-13.46,16.86c-3.6,4.24-18.26,17.34-20.73,17.22
		c-2.48-0.12-10.69-9.32-14.23-17.57c-3.54-8.25-11.33-25.53-12.03-29.69c-0.7-4.15,5.17-6.78,7.26-2.79
		c2.1,4.02,15.7,26.34,17.35,29.41c1.65,3.07,2.36,3.07,2.36,3.07s10.69-12.58,14.46-16.82s11.2-13.48,11.2-13.48L405.97,249.65z"/>
	<path class="st12" d="M471.06,283.76c0,0-9.97-34.43-12.22-44.96l-4.24,2.91c-0.08,14.34-42.02,4.58-43.86,8.53
		c-1.95,4.18,7.31,31.54,6.4,48.93c4.92-0.02,17.91-0.19,25.16-1.42C454.4,295.71,465.4,289.11,471.06,283.76z"/>
	<path class="st11" d="M353.01,234.03c-2.31-4.29-4.31-13.14-9.77-12.08c-5.55,1.08-2.51,7.2,0.94,13.7
		c2.35,4.43,3.15,5.51,3.15,5.51L353.01,234.03z"/>
	<path class="st6" d="M401.66,259.39c1.05-1.13,5.27-9.9,6.15-11.55l-3.55-27.13c-5.26,4.95-13.04,17.03-16.74,24.27
		C392.42,249.31,399.35,255.75,401.66,259.39z"/>
	<path class="st11" d="M399.65,295.39c-4.56,1.73-13.52,5.82-14.31,9.28c-0.79,3.46,0.94,5.66,3.46,5.03
		c2.52-0.63,5.82-3.62,8.8-4.87s7.94-3.3,7.94-3.3l-3.06-6.92L399.65,295.39z"/>
	<path class="st12" d="M442.45,268.98c1.26-2.2-3.62-42.6-3.62-42.6s-0.91-12.33,6-19.06c-2.88-0.26-6.11-0.13-9.62,0.32
		l-18.08,5.88c-5.03,0.76-12.89,7.21-12.89,7.21s0.72,18.93,2.45,24.27c1.73,5.35,6.51,22.73,7.77,28.08
		c0.44,1.87,0.9,5.64,1.31,9.73C425.9,276.66,441.8,270.13,442.45,268.98z"/>
	<path class="st13" d="M410.1,195.94c-3.42,0.4-8.73-2.83-8.61-9.08c0.12-6.25-0.31-13.15,5.35-15.15s12.26-6.79,18.39-3.14
		c6.13,3.66,12.3,8.61,12.18,16.51c-0.12,7.9-4.91,12.46-7.86,14.55s-8.73,2.44-8.73,2.44L410.1,195.94z"/>
	<path class="st11" d="M416.04,207.85c-3.56-0.63-7.55-4.4-8.8-8.96c-1.26-4.56-2.06-15.24,0-17.14c1.45-1.34,2.12-0.28,4.56-0.71
		c1.86-0.33,3.24-2.28,6.26-1.34c3.02,0.94,3.96,5.5,4.75,7.23c0.79,1.73,1.77,3.88,3.4,2.93c2.71-1.59,5.09,1.04,4.3,3.77
		c-0.79,2.73-4.4,4.46-4.56,6.19c-0.16,1.73,0.31,7.55,2.52,8.02c2.2,0.47,4.71,0.43,4.71,0.43s0.32,7.11-5.97,10.1
		c-6.29,2.99-9.75,1.13-12.11-4.22c0,0,2.46-1.13,2.96-2.38C418.55,210.52,417.97,208.19,416.04,207.85z"/>
	<path class="st11" d="M459.9,232.31c0,0-2.48,39.08-3.89,42.42s-10.61,9.11-16.51,11.94c-5.9,2.83-29.6,13.05-33.96,14.86
		c-4.36,1.81-5.27-3.77-5.27-3.77s-3.69-1.13-1.06-2.19c2.63-1.06,16.48-10.5,24.14-16.32c5.34-4.06,14.46-9.23,15.36-10.63
		c0.91-1.4,1.61-35.12,1.61-35.12L459.9,232.31z"/>
	<path class="st6" d="M438.21,243.72c6.01-1.31,9.72-2.36,14.82-1.91c2.53,0.22,5.43,0.56,7.46,0.85
		c-0.18-7.45-0.32-21.49-1.06-24.54c-1.42-5.85-6.11-9.15-11.5-10.34c-0.98-0.22-2.01-0.37-3.09-0.47c-6.91,6.73-6,19.06-6,19.06
		S438.3,237.9,438.21,243.72z"/>
</g>
<g id="plant">
	<path class="st14" d="M263.49,138.09c-2.38-0.07-4.73,0.47-7.06,0.93c-2.34,0.46-4.73,0.85-7.09,0.5c-1.34-0.2-2.76-0.75-3.39-1.95
		c-0.65-1.24-0.2-2.83,0.7-3.91c0.91-1.07,2.19-1.74,3.44-2.38c3.99-2.05,8.67-4.5,11.23-8.19c2.56-3.69,1.58-10.03-2.78-11.12
		c-3.19-0.8-6.4,1.57-8.05,4.41c-1.65,2.84-2.28,6.15-3.65,9.14c-1.37,2.98-4.02,6.79-6.31,5.74c-2.29-1.05-0.03-7.39,1.23-11.24
		c1.26-3.85,0.66-9.22-2.82-11.29c-3-1.79-7.17,0.18-8.7,3.32c-1.53,3.13-1.02,6.9,0.14,10.19c1.1,3.12,2.76,6.15,2.85,9.46
		c0.08,3.31-2.24,7.03-5.55,6.9c-2.76-0.11-4.77-2.82-5.34-5.52c-0.57-2.7-0.14-5.51-0.31-8.26c-0.18-2.76-1.2-5.76-3.66-7.01
		c-3.31-1.69-7.51,0.84-8.97,4.25c-1.46,3.41-0.96,7.31-0.44,10.99c0.92,6.46,1.84,12.92,2.76,19.37c0.25,1.78,0.5,3.63-0.03,5.35
		c-0.53,1.72-2.08,3.26-3.88,3.17c-2.33-0.12-3.68-2.72-4.09-5.02c-0.66-3.73-0.12-7.56,0.17-11.34c0.29-3.78,0.3-7.74-1.32-11.17
		c-1.62-3.43-5.29-6.15-9.03-5.55c-4.55,0.73-7.09,5.72-7.88,10.26c-2.22,12.85,3.72,26.07,1.47,38.91
		c-0.6,3.44-2.67,7.43-6.16,7.34c-2.95-0.08-4.91-3.15-5.62-6.02c-1.36-5.5-0.15-11.31-0.88-16.93c-0.72-5.62-4.66-11.73-10.32-11.5
		c-1.14,0.05-2.2,0.36-3.17,0.85c-0.05,0.83-0.09,1.44-0.11,1.75v81.73c7.04,0.97,14.1,1.78,21.17,2.42c3,0.27,6.06,0.5,9.01-0.12
		c2.95-0.62,5.83-2.22,7.31-4.85c1.48-2.62,1.18-6.34-1.16-8.24c-2.08-1.69-5.03-1.6-7.7-1.58c-6.37,0.05-12.74-0.73-18.9-2.34
		c-1.48-0.39-3.09-0.93-3.83-2.27c-0.83-1.51-0.11-3.52,1.22-4.61c1.33-1.1,3.11-1.47,4.83-1.63c11.61-1.11,22.55,5.61,34.17,6.61
		c2.97,0.26,6.12,0.09,8.7-1.41c2.58-1.5,4.38-4.66,3.53-7.52c-1.13-3.8-5.77-5.05-9.68-5.68c-4.15-0.68-8.3-1.35-12.45-2.03
		c-1.97-0.32-3.98-0.65-5.75-1.57c-1.77-0.91-3.31-2.52-3.61-4.5c-0.31-1.99,0.71-4.02,2.25-5.31c1.54-1.3,3.52-1.94,5.51-2.27
		c7.92-1.29,15.73,2.12,23.57,3.83c5.94,1.3,12.09,1.63,18.14,0.97c3.53-0.38,7.57-1.53,8.91-4.82c1.21-2.98-0.51-6.5-3.12-8.38
		c-2.61-1.88-5.88-2.5-9.05-3.08c-6.58-1.2-12.3-1.81-18.79-3.38c-1.65-0.4-1.94-2.88-1.18-3.88c0.76-1,2-1.51,3.22-1.84
		c5.19-1.4,10.71-0.29,15.83,1.34c5.12,1.64,10.1,3.81,15.41,4.62c2.28,0.35,4.67,0.42,6.83-0.39c2.16-0.81,4.04-2.65,4.36-4.94
		c0.35-2.5-1.26-4.96-3.38-6.34c-2.12-1.38-4.67-1.88-7.17-2.29c-2.49-0.41-5.05-0.75-7.31-1.88c-2.05-1.02-3.93-3.1-3.5-5.35
		c0.45-2.31,3.04-3.5,5.36-3.91c6.18-1.11,11.98,1.15,18.19,2.11c1.51,0.24,3.06,0.43,4.57,0.19c1.51-0.23,3.49-1.51,4.37-2.76
		c1.36-1.95,0.83-4.81-0.79-6.55C268.34,138.9,265.87,138.15,263.49,138.09z"/>
</g>
</svg>
